<svg width="1256" height="533" viewBox="0 0 1256 533" xmlns="http://www.w3.org/2000/svg" xmlns:xlink="http://www.w3.org/1999/xlink">
    <defs>
        <radialGradient cx="43.178%" cy="-47.078%" fx="43.178%" fy="-47.078%" r="50.198%" id="a">
            <stop stop-color="#B6B7C6" offset="0%"/>
            <stop stop-color="#A2A5B3" offset="100%"/>
        </radialGradient>
        <radialGradient cx="51.559%" cy="35.04%" fx="51.559%" fy="35.04%" r="116.452%" id="b">
            <stop stop-color="#FFF" offset="0%"/>
            <stop stop-color="#858689" offset="54.67%"/>
            <stop stop-color="#AEAEAF" offset="77.55%"/>
        </radialGradient>
        <radialGradient cx="44.018%" cy="21.177%" fx="44.018%" fy="21.177%" r="120.928%" id="d">
            <stop stop-color="#FFF" offset="2.843%"/>
            <stop stop-color="#858689" offset="55.18%"/>
            <stop stop-color="#AEAEAF" offset="78.53%"/>
            <stop stop-color="#5F6063" offset="99.89%"/>
        </radialGradient>
        <radialGradient cx="-186.039%" cy="492.217%" fx="-186.039%" fy="492.217%" r="50.052%" id="c">
            <stop stop-color="#B8B9C7" offset="0%"/>
            <stop stop-color="#A5A7B5" offset="100%"/>
        </radialGradient>
        <radialGradient cx="50%" cy="50%" fx="50%" fy="50%" r="50.01%" id="e">
            <stop stop-color="#FFF" offset="0%"/>
            <stop stop-color="#F7F7F7" offset="15.35%"/>
            <stop stop-color="#64DDF9" offset="33.25%"/>
            <stop stop-color="#54D4FC" offset="53.77%"/>
            <stop stop-color="#1D1B1B" offset="99.86%"/>
        </radialGradient>
        <radialGradient cx="68.761%" cy="27.285%" fx="68.761%" fy="27.285%" r="120.885%" id="z">
            <stop stop-color="#FFF" offset="2.843%"/>
            <stop stop-color="#858689" offset="55.18%"/>
            <stop stop-color="#AEAEAF" offset="78.53%"/>
            <stop stop-color="#5F6063" offset="99.89%"/>
        </radialGradient>
        <radialGradient cx="50%" cy="140.554%" fx="50%" fy="140.554%" r="50.064%" id="y">
            <stop stop-color="#B8B9C7" offset="0%"/>
            <stop stop-color="#A5A7B5" offset="100%"/>
        </radialGradient>
        <radialGradient cx="50%" cy="50%" fx="50%" fy="50%" r="50%" id="A">
            <stop stop-color="#FFF" offset="0%"/>
            <stop stop-color="#F7F7F7" offset="15.35%"/>
            <stop stop-color="#B8B9C7" offset="33.17%"/>
            <stop stop-color="#B8B9C7" offset="53.82%"/>
            <stop stop-color="#1D1B1B" offset="99.86%"/>
        </radialGradient>
        <filter x="-1.5%" y="-1.3%" width="103%" height="102.6%" filterUnits="objectBoundingBox" id="f">
            <feOffset in="SourceAlpha" result="shadowOffsetOuter1"/>
            <feGaussianBlur stdDeviation="2" in="shadowOffsetOuter1" result="shadowBlurOuter1"/>
            <feComposite in="shadowBlurOuter1" in2="SourceAlpha" operator="out" result="shadowBlurOuter1"/>
            <feColorMatrix values="0 0 0 0 0 0 0 0 0 0 0 0 0 0 0 0 0 0 0.238750751 0" in="shadowBlurOuter1"/>
        </filter>
        <filter x="-2.1%" y="-1.9%" width="104.3%" height="103.8%" filterUnits="objectBoundingBox" id="h">
            <feMorphology radius="1.3" operator="dilate" in="SourceAlpha" result="shadowSpreadOuter1"/>
            <feOffset in="shadowSpreadOuter1" result="shadowOffsetOuter1"/>
            <feGaussianBlur stdDeviation="2" in="shadowOffsetOuter1" result="shadowBlurOuter1"/>
            <feComposite in="shadowBlurOuter1" in2="SourceAlpha" operator="out" result="shadowBlurOuter1"/>
            <feColorMatrix values="0 0 0 0 0 0 0 0 0 0 0 0 0 0 0 0 0 0 0.16 0" in="shadowBlurOuter1"/>
        </filter>
        <filter x="-7.1%" y="-21.5%" width="114.3%" height="143.1%" filterUnits="objectBoundingBox" id="o">
            <feGaussianBlur stdDeviation="1.5" in="SourceAlpha" result="shadowBlurInner1"/>
            <feOffset in="shadowBlurInner1" result="shadowOffsetInner1"/>
            <feComposite in="shadowOffsetInner1" in2="SourceAlpha" operator="arithmetic" k2="-1" k3="1" result="shadowInnerInner1"/>
            <feColorMatrix values="0 0 0 0 0.149019608 0 0 0 0 0.141176471 0 0 0 0 0.149019608 0 0 0 1 0" in="shadowInnerInner1"/>
        </filter>
        <filter x="-7.1%" y="-21.5%" width="114.3%" height="143.1%" filterUnits="objectBoundingBox" id="q">
            <feGaussianBlur stdDeviation="1.5" in="SourceAlpha" result="shadowBlurInner1"/>
            <feOffset in="shadowBlurInner1" result="shadowOffsetInner1"/>
            <feComposite in="shadowOffsetInner1" in2="SourceAlpha" operator="arithmetic" k2="-1" k3="1" result="shadowInnerInner1"/>
            <feColorMatrix values="0 0 0 0 0.149019608 0 0 0 0 0.141176471 0 0 0 0 0.149019608 0 0 0 1 0" in="shadowInnerInner1"/>
        </filter>
        <filter x="-7.1%" y="-21.5%" width="114.3%" height="143.1%" filterUnits="objectBoundingBox" id="s">
            <feGaussianBlur stdDeviation="1.5" in="SourceAlpha" result="shadowBlurInner1"/>
            <feOffset in="shadowBlurInner1" result="shadowOffsetInner1"/>
            <feComposite in="shadowOffsetInner1" in2="SourceAlpha" operator="arithmetic" k2="-1" k3="1" result="shadowInnerInner1"/>
            <feColorMatrix values="0 0 0 0 0.149019608 0 0 0 0 0.141176471 0 0 0 0 0.149019608 0 0 0 1 0" in="shadowInnerInner1"/>
        </filter>
        <filter x="-7.1%" y="-21.5%" width="114.3%" height="143.1%" filterUnits="objectBoundingBox" id="u">
            <feGaussianBlur stdDeviation="1.5" in="SourceAlpha" result="shadowBlurInner1"/>
            <feOffset in="shadowBlurInner1" result="shadowOffsetInner1"/>
            <feComposite in="shadowOffsetInner1" in2="SourceAlpha" operator="arithmetic" k2="-1" k3="1" result="shadowInnerInner1"/>
            <feColorMatrix values="0 0 0 0 0.149019608 0 0 0 0 0.141176471 0 0 0 0 0.149019608 0 0 0 1 0" in="shadowInnerInner1"/>
        </filter>
        <filter x="-.8%" y="-4.4%" width="101.6%" height="108.8%" filterUnits="objectBoundingBox" id="x">
            <feGaussianBlur stdDeviation="1.5" in="SourceAlpha" result="shadowBlurInner1"/>
            <feOffset in="shadowBlurInner1" result="shadowOffsetInner1"/>
            <feComposite in="shadowOffsetInner1" in2="SourceAlpha" operator="arithmetic" k2="-1" k3="1" result="shadowInnerInner1"/>
            <feColorMatrix values="0 0 0 0 0.149019608 0 0 0 0 0.141176471 0 0 0 0 0.149019608 0 0 0 1 0" in="shadowInnerInner1"/>
        </filter>
        <path d="M358.713 0c14.912 0 27 12.088 27 27l-.001 269.723 13.26 8.863a9 9 0 0 1 4 7.483v68.945a9 9 0 0 1-4 7.483l-13.26 8.861.001 13.642c0 14.912-12.088 27-27 27h-46.212l-.02 1.96c-.086 8.309-6.846 15-15.156 15h-191.6c-8.31 0-15.07-6.691-15.156-15l-.021-1.96H43.713c-14.912 0-27-12.088-27-27l-.001-14.007-12.713-8.496A9 9 0 0 1 0 382.014v-68.945a9 9 0 0 1 4-7.483l12.712-8.497L16.713 27c0-14.912 12.088-27 27-27h315z" id="g"/>
        <path d="M355.713 9c12.15 0 22 9.85 22 22l-.001 267.488 14.775 9.874a9 9 0 0 1 3.999 7.483v63.393a9 9 0 0 1-4 7.483l-14.774 9.873.001 11.406c0 12.15-9.85 22-22 22h-52.929l-.149 4.96c-.216 7.242-6.15 13-13.395 13H113.81c-7.246 0-13.179-5.758-13.396-13l-.149-4.96H46.713c-12.15 0-22-9.85-22-22l-.001-11.771-14.227-9.508a9 9 0 0 1-3.999-7.483v-63.393a9 9 0 0 1 4-7.483l14.226-9.509L24.713 31c0-12.15 9.85-22 22-22h309zm-226.809 9.106H47.208c-7.077 0-12.833 5.656-12.996 12.694l-.004.306V405.88c0 7.077 5.655 12.833 12.693 12.996l.307.004 52.688-.001.206-6.878c.217-7.242 6.15-13 13.396-13h175.43c7.245 0 13.179 5.758 13.396 13l.205 6.878h52.728c7.077 0 12.833-5.654 12.996-12.692l.004-.307V31.106c0-7.18-5.82-13-13-13H274.52l-7.661 13.369A9 9 0 0 1 259.05 36H144.375a9 9 0 0 1-7.809-4.525l-7.662-13.369z" id="i"/>
        <path d="M16.849 0C7.544 0 0 7.544 0 16.849s7.544 16.849 16.849 16.849h113.212c9.305 0 16.849-7.544 16.849-16.849S139.366 0 130.061 0H16.849z" id="k"/>
        <path d="M317.37 421c1.017 0 1.843.826 1.843 1.844v3.278a1.844 1.844 0 0 1-1.844 1.844h-15.776v-2.562h-3.38v-2.048h3.38V421h15.776z" id="n"/>
        <path d="M102.37 421c1.017 0 1.843.826 1.843 1.844v3.278a1.844 1.844 0 0 1-1.844 1.844H86.593v-2.562h-3.38v-2.048h3.38V421h15.776z" id="p"/>
        <path d="M102.37 421c1.017 0 1.843.826 1.843 1.844v3.278a1.844 1.844 0 0 1-1.844 1.844H86.593v-2.562h-3.38v-2.048h3.38V421h15.776z" id="r"/>
        <path d="M317.37 421c1.017 0 1.843.826 1.843 1.844v3.278a1.844 1.844 0 0 1-1.844 1.844h-15.776v-2.562h-3.38v-2.048h3.38V421h15.776z" id="t"/>
        <linearGradient x1="50%" y1="0%" x2="50%" y2="100%" id="j">
            <stop stop-color="#373E49" offset="0%"/>
            <stop stop-color="#202328" offset="100%"/>
        </linearGradient>
        <linearGradient x1="50%" y1="0%" x2="50%" y2="100%" id="m">
            <stop stop-color="#373E49" offset="0%"/>
            <stop stop-color="#202328" offset="50.807%"/>
            <stop stop-color="#131519" offset="100%"/>
        </linearGradient>
        <linearGradient x1="50%" y1="0%" x2="50%" y2="100%" id="v">
            <stop stop-color="#373E49" offset="0%"/>
            <stop stop-color="#202328" offset="50.807%"/>
            <stop stop-color="#131519" offset="100%"/>
        </linearGradient>
        <rect id="w" x="109.713" y="406" width="183" height="34" rx="9"/>
    </defs>
    <g fill="none" fill-rule="evenodd">
        <path d="M1070.63 74.516a5.8 5.8 0 1 1-5.8 5.8 5.809 5.809 0 0 1 5.8-5.8m0-3a8.8 8.8 0 1 0 0 17.6 8.8 8.8 0 0 0 0-17.6z" fill="#B8B9C7" fill-rule="nonzero"/>
        <g stroke="#B8B9C7" stroke-linecap="round" stroke-width="5.6">
            <path d="M707.746 6.485h-34.584M578.519 6.485h-34.585M27.455 37.445 3 12.99"/>
        </g>
        <path d="M1069.007 80.224H966.831a5.409 5.409 0 0 1-3.826-1.585L952.54 68.174a5.415 5.415 0 0 0-3.826-1.585H883.03c-1.436 0-2.814.57-3.83 1.585l-11.3 11.3a5.41 5.41 0 0 1-3.826 1.585h-11.8a5.411 5.411 0 0 1-5.411-5.411v-26.38a20 20 0 0 0-5.858-14.142l-22.861-22.869A20.003 20.003 0 0 0 804 6.4H648.334" stroke="#B8B9C7"/>
        <path stroke="#B9BAC8" d="m338.242 67.159 7.094-7.094"/>
        <path d="m102.131 111.821 20.7 20.7a9 9 0 0 0 6.364 2.636h28.15" stroke="#B8B9C7" stroke-width="3" stroke-linecap="round"/>
        <path d="M184.8 74.516a5.8 5.8 0 1 1-5.8 5.8 5.809 5.809 0 0 1 5.8-5.8m0-3a8.8 8.8 0 1 0 0 17.6 8.8 8.8 0 0 0 0-17.6z" fill="#B8B9C7" fill-rule="nonzero"/>
        <g transform="translate(3.924 13.786)">
            <path stroke="#B8B9C7" d="M364.473 83.234h-19.331"/>
            <path stroke="#B8B9C7" stroke-width="2.1" stroke-linecap="round" d="m290.587 95.061 9.698 9.656"/>
            <circle stroke="#B8B9C7" stroke-width="2.1" fill="#FFF" fill-rule="nonzero" stroke-linecap="round" cx="288.288" cy="92.762" r="3.341"/>
            <path stroke="#B8B9C7" d="M322.289 74.194v10.033M356.576 187.541l-46.686-46.685a5.406 5.406 0 0 0-3.825-1.585h-28.254a5.41 5.41 0 0 1-3.826-1.585l-13.371-13.372a5.413 5.413 0 0 0-3.826-1.584h-27.53a5.41 5.41 0 0 0-3.826 9.236l28.086 28.085a5.406 5.406 0 0 0 3.825 1.585h27.492a5.41 5.41 0 0 1 3.826 1.585l59.548 59.548a5.41 5.41 0 0 0 3.826 1.585h56.114"/>
            <path stroke="#B8B9C7" stroke-width="2.1" stroke-linecap="round" d="M388.751 224.355h19.509M276.906 161.637h7.929a5.41 5.41 0 0 1 3.826 1.585l23.3 23.3M356.037 187.002l-9.755-9.754"/>
            <path d="m62.323 62.323 56.42 56.419a9 9 0 0 0 6.364 2.637h56.629c1.435 0 2.811-.57 3.826-1.585l34.114-34.112a5.41 5.41 0 0 1 3.826-1.585h36.941a5.41 5.41 0 0 1 3.826 1.585l32.5 32.5a5.409 5.409 0 0 0 3.826 1.585h19.681c1.435 0 2.811.57 3.826 1.584l36.821 36.822 23.682 23.681M0 0l38.796 38.796M331.427 73.793h-20.069a5.41 5.41 0 0 0-3.826 1.585l-7.134 7.136a5.414 5.414 0 0 1-3.826 1.584h-35.271" stroke="#B8B9C7"/>
            <path d="M392.706 96.414h-32.278a5.413 5.413 0 0 1-3.826-1.584l-19.441-19.446a5.41 5.41 0 0 0-3.826-1.585h-19.214M381.027 111.828l-15.361-15.361M307.788 119.883l13.6-13.6a5.41 5.41 0 0 1 3.826-1.585h13.813a5.41 5.41 0 0 1 3.826 1.585l34.574 34.574" stroke="#B8B9C7"/>
            <path stroke="#B8B9C7" stroke-width="2.1" stroke-linecap="round" d="m377.431 140.853-7.132-7.131"/>
            <path d="m278.446 121.614-17.4-17.4a5.41 5.41 0 0 0-3.826-1.585h-54.027" stroke="#B8B9C7"/>
            <circle stroke="#B8B9C7" stroke-width="2.1" fill="#FFF" fill-rule="nonzero" stroke-linecap="round" cx="153.423" cy="97.784" r="13.69"/>
            <path d="M281.967 122.535a2.4 2.4 0 1 1-2.4 2.405 2.408 2.408 0 0 1 2.4-2.405m0-3a5.4 5.4 0 1 0 0 10.8 5.4 5.4 0 0 0 0-10.8z" fill="#B8B9C7" fill-rule="nonzero"/>
            <circle stroke="#B8B9C7" stroke-width="2.1" fill="#FFF" fill-rule="nonzero" stroke-linecap="round" cx="401.942" cy="96.276" r="8.803"/>
            <circle stroke="#B8B9C7" stroke-width="2.1" fill="#FFF" fill-rule="nonzero" stroke-linecap="round" cx="385.482" cy="115.735" r="5.404"/>
            <circle stroke="#B8B9C7" stroke-width="2.1" fill="#FFF" fill-rule="nonzero" stroke-linecap="round" cx="381.302" cy="144.435" r="5.404"/>
            <circle stroke="#B8B9C7" stroke-width="2.1" fill="#FFF" fill-rule="nonzero" stroke-linecap="round" cx="304.043" cy="108.626" r="5.404"/>
            <g fill-rule="nonzero">
                <path d="M360.002 194.954a4.355 4.355 0 1 1-.002-8.71 4.355 4.355 0 0 1 .002 8.71z" fill="#F9F9F9"/>
                <path d="M360.001 187.295a3.3 3.3 0 1 1-3.3 3.305 3.309 3.309 0 0 1 3.3-3.305m0-2.1a5.4 5.4 0 1 0 0 10.8 5.4 5.4 0 0 0 0-10.8z" fill="#B8B9C7"/>
            </g>
            <circle stroke="#B8B9C7" stroke-width="2.1" fill="#FFF" fill-rule="nonzero" stroke-linecap="round" cx="370.123" cy="83.149" r="5.404"/>
            <g fill="#B8B9C7" fill-rule="nonzero">
                <path d="M416.158 220.14a4.8 4.8 0 1 1-4.8 4.8 4.809 4.809 0 0 1 4.8-4.8m0-4a8.8 8.8 0 1 0 0 17.6 8.8 8.8 0 0 0 0-17.6z"/>
                <path d="M416.295 219.879a4.873 4.873 0 1 1 0 9.746 4.873 4.873 0 0 1 0-9.746m0-4a8.873 8.873 0 1 0-.002 17.746 8.873 8.873 0 0 0 .002-17.746z"/>
            </g>
            <g fill-rule="nonzero">
                <path d="M388.633 193.779a7.753 7.753 0 1 1 7.753-7.753 7.762 7.762 0 0 1-7.753 7.753z" fill="#FFF"/>
                <path d="M388.633 179.323a6.7 6.7 0 1 1-6.7 6.7 6.711 6.711 0 0 1 6.7-6.7m0-2.1a8.8 8.8 0 1 0 0 17.6 8.8 8.8 0 0 0 0-17.6z" fill="#B8B9C7"/>
            </g>
            <g stroke="#B8B9C7" stroke-linecap="round" stroke-width=".5">
                <path d="m392.447 187.555.792.31M392.64 186.88l.831.174M392.718 186.185l.849.02M392.679 185.47l.83-.114M392.505 184.796l.811-.272M392.216 184.138l.753-.406M391.829 183.558l.676-.54M391.347 183.037l.56-.637M390.767 182.612l.444-.715M390.149 182.304l.309-.792M389.454 182.11l.174-.83M388.759 182.032l.019-.849M388.044 182.072l-.115-.85M387.369 182.225l-.271-.79M386.712 182.516l-.406-.734M386.133 182.903l-.541-.657M385.611 183.404l-.637-.56M385.186 183.964l-.714-.444M384.877 184.602l-.791-.31M384.684 185.278l-.83-.174M384.607 185.992l-.85-.02M384.646 186.688l-.85.136M384.82 187.382l-.812.271M385.09 188.02l-.734.404M385.495 188.618l-.675.522M385.978 189.12l-.56.637M386.538 189.546l-.444.733M387.175 189.873l-.308.773M387.851 190.067l-.154.83M388.566 190.144l-.019.85M389.261 190.105l.135.832M389.956 189.931l.271.811M390.613 189.642l.405.754M391.192 189.256l.522.655M391.714 188.773l.637.56M392.119 188.194l.734.444"/>
            </g>
            <path stroke="#B8B9C7" stroke-width="2.1" stroke-linecap="round" d="m357.874 155.125 25.162 25.163M278.446 121.609l-5.214-5.214M364.473 83.234h-11.969M392.628 96.314h-11.969M381.066 111.742l-8.464-8.464"/>
            <g stroke="#B8B9C7" stroke-linecap="round" stroke-width=".5">
                <path d="m405.643 97.575.791.309M405.837 96.899l.83.174M405.914 96.204l.85.019M405.874 95.49l.832-.116M405.7 94.814l.813-.271M405.412 94.157l.753-.405M405.026 93.578l.674-.541M404.543 93.056l.56-.637M403.963 92.631l.444-.714M403.346 92.322l.308-.791M402.65 92.129l.175-.83M401.955 92.052l.02-.85M401.24 92.091l-.115-.85M400.565 92.245l-.27-.792M399.908 92.535l-.406-.734M399.328 92.921l-.54-.656M398.807 93.423l-.637-.56M398.382 93.983l-.715-.444M398.075 94.621l-.793-.309M397.88 95.296l-.83-.173M397.802 96.011l-.849-.019M397.842 96.706l-.85.135M398.015 97.401l-.81.271M398.285 98.039l-.734.405M398.691 98.637l-.675.522M399.174 99.139l-.56.637M399.734 99.564l-.444.734M400.373 99.892l-.31.773M401.046 100.085l-.154.831M401.761 100.163l-.019.849M402.457 100.124l.135.83M403.152 99.95l.272.811M403.81 99.661l.405.753M404.388 99.274l.522.657M404.91 98.792l.636.56M405.315 98.212l.734.444"/>
            </g>
            <path stroke="#B8B9C7" stroke-width="2.1" stroke-linecap="round" d="M322.289 77.915v3.38"/>
            <g opacity=".21" fill="#FFF" fill-rule="nonzero" stroke="#B8B9C7" stroke-linecap="round" stroke-width=".75">
                <path d="m162.022 101.118 1.799.702M162.46 99.583l1.887.395M162.636 98.003l1.93.044M162.548 96.38l1.887-.263M162.153 94.845l1.843-.615M161.495 93.353l1.711-.921M160.618 92.037l1.535-1.229M159.521 90.852l1.272-1.448M158.205 89.887l1.009-1.623M156.801 89.185l.702-1.799M155.221 88.746l.395-1.886M153.642 88.571l.044-1.931M152.019 88.659l-.263-1.931M150.483 89.009l-.614-1.798M148.992 89.668 148.07 88M147.675 90.545l-1.228-1.492M146.491 91.686l-1.448-1.273M145.526 92.958l-1.624-1.009M144.824 94.406l-1.799-.702M144.385 95.941l-1.887-.395M144.209 97.565l-1.93-.044M144.297 99.144l-1.93.307M144.692 100.724l-1.843.614M145.306 102.171l-1.667.922M146.228 103.531l-1.536 1.185M147.324 104.672l-1.272 1.448M148.597 105.637l-1.009 1.667M150.044 106.383l-.701 1.755M151.58 106.822l-.351 1.886M153.203 106.997l-.044 1.931M154.783 106.91l.307 1.886M156.362 106.515l.614 1.842M157.854 105.856l.921 1.712M159.17 104.979l1.185 1.492M160.355 103.882l1.447 1.273M161.276 102.566l1.667 1.009"/>
            </g>
            <g transform="translate(315.075 78.374)">
                <circle stroke="#B6B7C6" stroke-width=".805" cx="7.37" cy="7.37" r="7.37"/>
                <circle stroke="url(#a)" stroke-width=".078" cx="7.37" cy="7.37" r="6.907"/>
                <circle fill="#FFF" fill-rule="nonzero" cx="7.37" cy="7.37" r="6.625"/>
            </g>
            <g opacity=".21" stroke="#1D1B1B" stroke-linecap="round" stroke-width=".403">
                <path d="m323.976 81.798.322-.826M323.271 81.596l.181-.865M322.546 81.516l.02-.886M321.801 81.556l-.121-.866M321.096 81.737l-.282-.845M320.412 82.039l-.423-.785M319.808 82.442l-.564-.705M319.264 82.945l-.665-.583M318.821 83.55l-.745-.464M318.499 84.194l-.826-.322M318.297 84.919l-.865-.181M318.217 85.644l-.886-.02M318.257 86.389l-.886.12M318.418 87.093l-.825.282M318.72 87.778l-.765.423M319.123 88.382l-.685.564M319.647 88.926l-.584.664M320.23 89.369l-.463.745M320.895 89.691l-.322.825M321.6 89.892l-.182.866M322.345 89.973l-.02.886M323.07 89.933l.141.886M323.795 89.751l.281.846M324.459 89.469l.423.766M325.083 89.047l.544.704M325.607 88.543l.664.584M326.05 87.959l.765.463M326.392 87.295l.805.322M326.593 86.59l.866.161M326.674 85.845l.886.02M326.634 85.12l.865-.141M326.452 84.395l.846-.282M326.15 83.711l.786-.423M325.748 83.107l.684-.544M325.244 82.563l.584-.665M324.64 82.14l.463-.765"/>
            </g>
        </g>
        <g fill="#191823" fill-rule="nonzero">
            <path d="m37.543 41.156-6.281 6.281a1.865 1.865 0 0 0 0 2.642L49.379 68.2l2.447-2.448-3.885-3.885 4.015-4.014 3.885 3.885 2.447-2.448-18.117-18.121a1.836 1.836 0 0 0-2.628-.013z"/>
            <path d="M59.246 60.218 55.867 63.6 51.9 59.636l-2.176 2.175 3.963 3.963-3.38 3.38L67.34 86.183a1.865 1.865 0 0 0 2.642 0l6.294-6.294a1.864 1.864 0 0 0 0-2.642l-17.03-17.029z"/>
        </g>
        <g transform="translate(289.782 190.466)" fill="#1F1C1C" fill-rule="nonzero">
            <rect transform="rotate(-45 5.623 5.623)" x="1.626" y="1.668" width="7.995" height="7.91" rx="1.274"/>
            <path d="M13.268 8.78c.169-.001.331.066.45.186l3.792 3.791c.247.25.247.651 0 .9l-3.851 3.851a.639.639 0 0 1-.9 0l-3.791-3.79a.637.637 0 0 1 0-.9l3.85-3.852a.633.633 0 0 1 .45-.187m0-.637a1.27 1.27 0 0 0-.9.373l-3.85 3.851a1.277 1.277 0 0 0 0 1.8l3.79 3.79a1.272 1.272 0 0 0 1.8 0l3.852-3.85a1.273 1.273 0 0 0 0-1.8l-3.79-3.792a1.27 1.27 0 0 0-.9-.373l-.001.001z"/>
            <rect transform="rotate(-45 20.852 20.852)" x="16.855" y="16.897" width="7.995" height="7.91" rx="1.274"/>
            <rect transform="rotate(-45 28.467 28.465)" x="24.469" y="24.511" width="7.995" height="7.909" rx="1.274"/>
            <path d="M36.112 31.623c.168 0 .33.067.45.186l3.79 3.791c.248.25.248.651 0 .9l-3.85 3.851a.636.636 0 0 1-.9 0l-3.791-3.79a.639.639 0 0 1 0-.9l3.85-3.852a.633.633 0 0 1 .452-.186m0-.638c-.338 0-.662.135-.9.374l-3.851 3.851a1.273 1.273 0 0 0 0 1.8l3.79 3.791a1.276 1.276 0 0 0 1.8 0l3.85-3.85a1.277 1.277 0 0 0 0-1.8l-3.79-3.79a1.271 1.271 0 0 0-.9-.375z"/>
        </g>
        <path d="M347.734 54.05a3.4 3.4 0 1 1 0 6.8 3.4 3.4 0 0 1 0-6.8m0-1a4.4 4.4 0 1 0 .003 8.8 4.4 4.4 0 0 0-.003-8.8z" fill="#B9BAC8" fill-rule="nonzero"/>
        <path d="M186.421 80.224H288.6a5.41 5.41 0 0 0 3.826-1.585l10.464-10.465a5.415 5.415 0 0 1 3.826-1.585H372.4c1.435 0 2.811.57 3.826 1.585l11.3 11.3a5.41 5.41 0 0 0 3.826 1.585h11.8a5.411 5.411 0 0 0 5.411-5.411v-26.38a20 20 0 0 1 5.857-14.142l22.869-22.869A20 20 0 0 1 451.427 6.4h153.839" stroke="#B8B9C7"/>
        <g fill="#1F2327" fill-rule="nonzero">
            <path d="M654.772 10.769V1.886A1.864 1.864 0 0 0 652.9.018h-25.617V3.48h5.494v5.677h-5.494v3.461H652.9a1.836 1.836 0 0 0 1.872-1.849z"/>
            <path d="M625.946 12.637v-4.78h5.6V4.78h-5.6V0h-24.083a1.864 1.864 0 0 0-1.868 1.868v8.9a1.865 1.865 0 0 0 1.868 1.868l24.083.001z"/>
        </g>
        <g>
            <g fill-rule="nonzero" transform="translate(178.343 73.805)">
                <circle fill="url(#b)" cx="6.5" cy="6.5" r="6.5"/>
                <circle stroke="url(#c)" stroke-width=".388" fill="url(#d)" cx="6.5" cy="6.5" r="6.21"/>
                <circle fill="#1D1B1B" cx="6.5" cy="6.5" r="5.956"/>
                <circle fill="url(#e)" cx="6.5" cy="6.5" r="5.3"/>
            </g>
            <g opacity=".21" stroke="#1D1B1B" stroke-linecap="round" stroke-width="3.878">
                <path d="m187.736 77.832.607-.519M187.263 77.367l.509-.615M186.716 76.99l.394-.692M186.112 76.717l.265-.752M185.469 76.55l.13-.785M184.85 76.498l-.02-.796M184.148 76.563 184 75.78M183.509 76.738l-.28-.743M182.91 77.026l-.405-.687M182.37 77.411l-.516-.607M181.903 77.884l-.615-.506M181.529 78.431l-.695-.39M181.255 79.035l-.752-.268M181.088 79.678l-.784-.13M181.036 80.37l-.798.02M181.099 81l-.782.146M181.28 81.64l-.75.278M181.562 82.238l-.684.404M181.95 82.776l-.605.52M182.423 83.244l-.506.612M182.97 83.618l-.391.695M183.574 83.892l-.265.752M184.217 84.061l-.132.785M184.908 84.111l.02.798M185.538 84.048l.144.782M186.177 83.87l.279.747M186.776 83.586l.405.683M187.318 83.2l.517.604M187.783 82.727l.615.503M188.157 82.18l.695.388M188.433 81.576l.75.265M188.597 80.933l.785.131M188.649 80.32l.796-.03M188.587 79.61l.784-.145M188.409 78.97l.744-.276M188.122 78.371l.686-.405"/>
            </g>
        </g>
        <g>
            <g fill-rule="nonzero" transform="translate(413.66 232.176)">
                <circle fill="url(#b)" cx="6.5" cy="6.5" r="6.5"/>
                <circle stroke="url(#c)" stroke-width=".388" fill="url(#d)" cx="6.5" cy="6.5" r="6.21"/>
                <circle fill="#1D1B1B" cx="6.5" cy="6.5" r="5.956"/>
                <circle fill="url(#e)" cx="6.5" cy="6.5" r="5.3"/>
            </g>
            <g opacity=".21" stroke="#1D1B1B" stroke-linecap="round" stroke-width="3.878">
                <path d="m423.053 236.204.607-.519M422.58 235.74l.509-.616M422.033 235.362l.394-.692M421.429 235.09l.265-.753M420.786 234.922l.13-.785M420.168 234.87l-.02-.796M419.465 234.935l-.147-.784M418.826 235.11l-.28-.743M418.227 235.398l-.405-.687M417.688 235.783l-.517-.607M417.22 236.256l-.615-.506M416.846 236.803l-.695-.39M416.572 237.407l-.752-.268M416.405 238.05l-.784-.13M416.353 238.741l-.798.02M416.416 239.371l-.782.147M416.597 240.011l-.75.28M416.879 240.61l-.684.404M417.267 241.148l-.605.52M417.74 241.616l-.506.612M418.287 241.99l-.391.695M418.89 242.264l-.264.752M419.534 242.433l-.132.785M420.225 242.483l.02.798M420.855 242.42l.144.782M421.494 242.242l.279.747M422.093 241.958l.405.683M422.635 241.572l.517.604M423.1 241.1l.615.502M423.474 240.552l.695.388M423.75 239.948l.75.265M423.914 239.305l.785.131M423.966 238.691l.796-.03M423.904 237.982l.784-.145M423.726 237.342l.744-.276M423.439 236.743l.686-.405"/>
            </g>
        </g>
        <g>
            <g fill-rule="nonzero" transform="translate(1064.101 73.846)">
                <circle fill="url(#b)" cx="6.5" cy="6.5" r="6.5"/>
                <circle stroke="url(#c)" stroke-width=".388" fill="url(#d)" cx="6.5" cy="6.5" r="6.21"/>
                <circle fill="#1D1B1B" cx="6.5" cy="6.5" r="5.956"/>
                <circle fill="url(#e)" cx="6.5" cy="6.5" r="5.3"/>
            </g>
            <g opacity=".21" stroke="#1D1B1B" stroke-linecap="round" stroke-width="3.878">
                <path d="m1073.494 77.874.607-.52M1073.021 77.409l.51-.615M1072.474 77.032l.394-.692M1071.87 76.759l.265-.752M1071.227 76.592l.131-.785M1070.61 76.54l-.02-.796M1069.906 76.605l-.147-.784M1069.267 76.78l-.279-.743M1068.668 77.068l-.405-.687M1068.13 77.453l-.518-.607M1067.661 77.926l-.615-.506M1067.287 78.473l-.695-.391M1067.013 79.077l-.752-.268M1066.846 79.72l-.784-.131M1066.794 80.41l-.798.02M1066.857 81.04l-.782.148M1067.038 81.68l-.749.28M1067.32 82.28l-.684.404M1067.708 82.818l-.605.52M1068.181 83.286l-.506.612M1068.728 83.66l-.39.695M1069.332 83.934l-.265.752M1069.975 84.103l-.132.785M1070.666 84.153l.02.798M1071.296 84.09l.144.782M1071.935 83.912l.28.747M1072.534 83.628l.405.683M1073.076 83.242l.517.604M1073.541 82.769l.615.503M1073.915 82.222l.695.388M1074.191 81.618l.75.265M1074.355 80.975l.785.13M1074.407 80.36l.796-.03M1074.345 79.652l.784-.145M1074.167 79.012l.744-.276M1073.88 78.413l.686-.405"/>
            </g>
        </g>
        <g>
            <g fill-rule="nonzero" transform="translate(149.517 103.435)">
                <circle fill="url(#b)" cx="8" cy="8" r="8"/>
                <circle stroke="url(#c)" stroke-width=".388" fill="url(#d)" cx="8" cy="8" r="7.643"/>
                <circle fill="#1D1B1B" cx="8" cy="8" r="7.33"/>
                <circle fill="url(#e)" cx="8" cy="8" r="6.523"/>
            </g>
            <g opacity=".21" stroke="#1D1B1B" stroke-linecap="round" stroke-width="3.878">
                <path d="m161.077 108.393.748-.64M160.495 107.821l.626-.758M159.822 107.356l.485-.85M159.078 107.02l.327-.926M158.287 106.814l.162-.966M157.527 106.75l-.025-.979M156.662 106.831l-.182-.966M155.874 107.047l-.343-.916M155.137 107.4l-.498-.845M154.474 107.874l-.636-.747M153.9 108.457l-.759-.623M153.438 109.13l-.855-.48M153.101 109.874l-.926-.33M152.896 110.665l-.966-.162M152.832 111.515l-.983.024M152.91 112.29l-.963.182M153.131 113.078l-.922.343M153.478 113.815l-.84.498M153.956 114.478l-.744.64M154.538 115.053l-.623.754M155.211 115.514l-.48.855M155.955 115.851l-.326.925M156.746 116.06l-.162.966M157.596 116.12l.025.983M158.372 116.043l.178.962M159.16 115.824l.342.92M159.896 115.474l.498.841M160.563 115l.636.743M161.135 114.417l.757.62M161.596 113.744l.855.478M161.936 113l.922.327M162.138 112.21l.966.161M162.202 111.453l.98-.037M162.124 110.58l.966-.178M161.905 109.793l.916-.34M161.552 109.056l.845-.498"/>
            </g>
        </g>
        <g>
            <g transform="translate(178 277)">
                <g transform="translate(643.367)">
                    <path stroke="#B8B9C7" d="M60.695 150.511h19.331"/>
                    <path stroke="#B8B9C7" stroke-width="2.1" stroke-linecap="round" d="m134.581 138.684-9.697-9.655"/>
                    <circle stroke="#B8B9C7" stroke-width="2.1" fill="#FFF" fill-rule="nonzero" stroke-linecap="round" cx="136.881" cy="140.984" r="3.341"/>
                    <path stroke="#B8B9C7" d="M102.879 159.552v-10.033M68.593 46.2l46.685 46.69a5.414 5.414 0 0 0 3.826 1.584h28.254a5.41 5.41 0 0 1 3.826 1.585l13.371 13.371a5.41 5.41 0 0 0 3.826 1.585h27.53a5.41 5.41 0 0 0 3.825-9.237l-28.085-28.085a5.414 5.414 0 0 0-3.826-1.584h-27.492a5.415 5.415 0 0 1-3.826-1.585L76.96 10.975a5.411 5.411 0 0 0-3.826-1.584H17.02"/>
                    <path stroke="#B8B9C7" stroke-width="2.1" stroke-linecap="round" d="M36.418 9.391H16.909M148.262 72.109h-7.929a5.415 5.415 0 0 1-3.826-1.585l-23.3-23.3M69.132 46.743l9.754 9.755"/>
                    <path d="M367.944 176.521 306.426 115a9 9 0 0 0-6.364-2.636h-56.629c-1.435 0-2.81.57-3.825 1.585l-34.112 34.112a5.414 5.414 0 0 1-3.826 1.584h-36.937a5.412 5.412 0 0 1-3.826-1.584l-32.5-32.5a5.41 5.41 0 0 0-3.826-1.585h-19.687a5.409 5.409 0 0 1-3.826-1.585L64.246 75.572 40.566 51.89M432.318 240.895l-50.324-50.324M93.741 159.952h20.07a5.41 5.41 0 0 0 3.822-1.585l7.134-7.134a5.41 5.41 0 0 1 3.826-1.585h35.27" stroke="#B8B9C7"/>
                    <path d="M32.463 137.336h32.278a5.41 5.41 0 0 1 3.826 1.585l19.441 19.441a5.41 5.41 0 0 0 3.826 1.585h19.214M44.142 121.917l15.361 15.362M117.381 113.863l-13.6 13.6a5.415 5.415 0 0 1-3.826 1.585H86.138a5.415 5.415 0 0 1-3.826-1.585L47.733 92.892" stroke="#B8B9C7"/>
                    <path stroke="#B8B9C7" stroke-width="2.1" stroke-linecap="round" d="m47.737 92.892 7.132 7.132"/>
                    <path d="m146.723 112.137 17.4 17.4a5.406 5.406 0 0 0 3.825 1.585h54.026" stroke="#B8B9C7"/>
                    <circle stroke="#B8B9C7" stroke-width="2.1" fill="#FFF" fill-rule="nonzero" stroke-linecap="round" cx="271.746" cy="135.962" r="13.69"/>
                    <path d="M143.202 106.4a2.4 2.4 0 1 1-2.4 2.405 2.408 2.408 0 0 1 2.4-2.405m0-3a5.4 5.4 0 1 0 .01 10.8 5.4 5.4 0 0 0-.01-10.8z" fill="#B8B9C7" fill-rule="nonzero"/>
                    <circle stroke="#B8B9C7" stroke-width="2.1" fill="#FFF" fill-rule="nonzero" stroke-linecap="round" cx="23.227" cy="137.47" r="8.803"/>
                    <circle stroke="#B8B9C7" stroke-width="2.1" fill="#FFF" fill-rule="nonzero" stroke-linecap="round" cx="39.687" cy="118.011" r="5.404"/>
                    <circle stroke="#B8B9C7" stroke-width="2.1" fill="#FFF" fill-rule="nonzero" stroke-linecap="round" cx="43.867" cy="89.31" r="5.404"/>
                    <circle stroke="#B8B9C7" stroke-width="2.1" fill="#FFF" fill-rule="nonzero" stroke-linecap="round" cx="102.729" cy="145.977" r="3.404"/>
                    <circle stroke="#B8B9C7" stroke-width="2.1" fill="#FFF" fill-rule="nonzero" stroke-linecap="round" cx="121.126" cy="125.119" r="5.404"/>
                    <g fill-rule="nonzero">
                        <path d="M65.167 47.5a4.355 4.355 0 1 1 0-8.71 4.355 4.355 0 0 1 0 8.71z" fill="#F9F9F9"/>
                        <path d="M65.167 39.841a3.3 3.3 0 1 1-3.3 3.305 3.309 3.309 0 0 1 3.3-3.3m0-2.1a5.4 5.4 0 1 0 0 10.8 5.4 5.4 0 0 0 0-10.8z" fill="#B8B9C7"/>
                    </g>
                    <circle stroke="#B8B9C7" stroke-width="2.1" fill="#FFF" fill-rule="nonzero" stroke-linecap="round" cx="55.046" cy="150.596" r="5.404"/>
                    <g fill="#B8B9C7" fill-rule="nonzero">
                        <path d="M9.011 4a4.8 4.8 0 1 1-4.8 4.8 4.807 4.807 0 0 1 4.8-4.8m0-4a8.8 8.8 0 1 0 0 17.6 8.8 8.8 0 0 0 0-17.6z"/>
                        <path d="M8.874 4.122a4.873 4.873 0 1 1 0 9.746 4.873 4.873 0 0 1 0-9.746m0-4a8.873 8.873 0 1 0-.002 17.746A8.873 8.873 0 0 0 8.874.122z"/>
                    </g>
                    <g fill-rule="nonzero">
                        <path d="M36.533 55.472a7.753 7.753 0 1 1 7.753-7.753 7.762 7.762 0 0 1-7.753 7.753z" fill="#FFF"/>
                        <path d="M36.533 41.017a6.7 6.7 0 1 1-6.7 6.7 6.71 6.71 0 0 1 6.7-6.7m0-2.1a8.8 8.8 0 1 0 0 17.6 8.8 8.8 0 0 0 0-17.6z" fill="#B8B9C7"/>
                    </g>
                    <g stroke="#B8B9C7" stroke-linecap="round" stroke-width=".5">
                        <path d="m32.721 46.189-.79-.309M32.528 46.865l-.83-.174M32.451 47.56l-.85-.019M32.49 48.275l-.83.116M32.663 48.951l-.81.27M32.953 49.607l-.753.406M33.34 50.187l-.677.54M33.822 50.708l-.56.637M34.401 51.133l-.444.714M35.02 51.442l-.31.792M35.715 51.635l-.174.83M36.41 51.712l-.02.85M37.124 51.674l.116.849M37.8 51.519l.27.792M38.457 51.229l.405.734M39.036 50.843l.541.657M39.557 50.341l.638.56M39.982 49.781l.715.444M40.291 49.144l.792.309M40.484 48.468l.831.174M40.562 47.753l.85.02M40.523 47.058l.85-.135M40.35 46.363l.81-.27M40.08 45.726l.733-.406M39.673 45.127l.676-.521M39.191 44.625l.56-.637M38.631 44.2l.444-.734M37.993 43.872l.31-.773M37.317 43.679l.155-.831M36.603 43.602l.02-.85M35.908 43.64l-.136-.83M35.212 43.814l-.27-.811M34.556 44.104l-.406-.754M33.977 44.49l-.522-.657M33.455 44.973l-.637-.56M33.05 45.552l-.734-.444"/>
                    </g>
                    <path stroke="#B8B9C7" stroke-width="2.1" stroke-linecap="round" d="M67.295 78.62 42.132 53.458M146.723 112.137l5.213 5.214M60.695 150.511h11.97M32.54 137.431h11.97M44.103 122.004l8.464 8.464"/>
                    <g stroke="#B8B9C7" stroke-linecap="round" stroke-width=".5">
                        <path d="m19.525 136.17-.792-.309M19.332 136.846l-.83-.173M19.255 137.542l-.85-.02M19.293 138.256l-.83.116M19.467 138.932l-.81.27M19.757 139.589l-.753.405M20.143 140.168l-.676.541M20.626 140.689l-.56.638M21.205 141.114l-.444.715M21.823 141.423l-.309.792M22.518 141.616l-.173.831M23.214 141.693l-.02.85M23.928 141.655l.116.849M24.604 141.5l.27.792M25.261 141.211l.405.733M25.84 140.824l.541.657M26.361 140.322l.638.56M26.786 139.762l.715.444M27.095 139.125l.792.309M27.288 138.449l.831.174M27.365 137.735l.85.019M27.327 137.039l.85-.135M27.153 136.344l.811-.27M26.883 135.707l.733-.406M26.477 135.108l.676-.521M25.994 134.606l.56-.637M25.434 134.181l.444-.733M24.797 133.853l.31-.772M24.121 133.66l.155-.83M23.407 133.583l.02-.85M22.712 133.621l-.136-.83M22.016 133.795l-.27-.811M21.36 134.085l-.406-.753M20.78 134.471l-.52-.656M20.26 134.954l-.638-.56M19.853 135.533l-.733-.444"/>
                    </g>
                    <path stroke="#B8B9C7" stroke-width="2.1" stroke-linecap="round" d="M102.879 155.831v-3.381"/>
                    <g opacity=".21" fill="#FFF" fill-rule="nonzero" stroke="#B8B9C7" stroke-linecap="round" stroke-width=".75">
                        <path d="m263.147 132.627-1.799-.702M262.708 134.163l-1.886-.395M262.533 135.742l-1.93-.044M262.621 137.365l-1.887.264M263.015 138.901l-1.842.614M263.673 140.393l-1.71.921M264.551 141.709l-1.536 1.228M265.648 142.893l-1.273 1.448M266.964 143.859l-1.009 1.623M268.368 144.561l-.702 1.798M269.947 144.999l-.395 1.887M271.527 145.175l-.044 1.93M273.15 145.087l.263 1.93M274.686 144.736l.614 1.799M276.177 144.078l.921 1.667M277.493 143.201l1.23 1.491M278.678 142.06l1.448 1.272M279.643 140.788l1.623 1.009M280.345 139.34l1.8.702M280.784 137.804l1.886.395M280.96 136.181l1.93.044M280.871 134.601l1.931-.307M280.477 133.022l1.842-.614M279.862 131.574l1.668-.921M278.941 130.214l1.536-1.184M277.844 129.074l1.273-1.448M276.572 128.108l1.01-1.667M275.124 127.363l.702-1.755M273.59 126.924l.35-1.887M271.965 126.748l.044-1.93M270.386 126.836l-.307-1.886M268.807 127.231l-.615-1.843M267.315 127.889l-.92-1.711M266 128.767l-1.186-1.492M264.814 129.863l-1.448-1.272M263.893 131.18l-1.667-1.01"/>
                    </g>
                </g>
                <path d="M893.012 175.3H790.835c-1.435 0-2.811.57-3.826 1.584l-10.464 10.465a5.41 5.41 0 0 1-3.826 1.585h-65.684a5.41 5.41 0 0 1-3.826-1.585l-11.3-11.3a5.41 5.41 0 0 0-3.826-1.585h-11.8a5.41 5.41 0 0 0-5.41 5.411v26.376a20 20 0 0 1-5.858 14.142l-22.869 22.869a20 20 0 0 1-14.142 5.858H475" stroke="#B8B9C7"/>
                <g fill="#191823" fill-rule="nonzero">
                    <path d="m1004.158 161.916-6.281 6.281a1.865 1.865 0 0 0 0 2.642l18.117 18.116 2.448-2.447-3.885-3.885 4.014-4.015 3.885 3.885 2.448-2.447-18.117-18.117a1.838 1.838 0 0 0-2.629-.013z"/>
                    <path d="m1025.862 180.978-3.38 3.38-3.963-3.962-2.175 2.175 3.962 3.963-3.379 3.38 17.029 17.029a1.863 1.863 0 0 0 2.641 0l6.294-6.294a1.865 1.865 0 0 0 0-2.642l-17.029-17.029z"/>
                </g>
                <circle stroke="#B8B9C7" stroke-width="2.1" fill="#FFF" fill-rule="nonzero" stroke-linecap="round" cx="916.539" cy="188.758" r="7.538"/>
                <path stroke="#B8B9C7" stroke-width="3" stroke-linecap="round" d="M818.9 111.015h15.851"/>
                <path stroke="#B8B9C7" stroke-width="5.6" stroke-linecap="round" d="M529.751 248.954h-34.584"/>
                <path d="M894.635 169.4a5.8 5.8 0 1 1-5.8 5.8 5.809 5.809 0 0 1 5.8-5.8m0-3a8.8 8.8 0 1 0 0 17.6 8.8 8.8 0 0 0 0-17.6z" fill="#B8B9C7" fill-rule="nonzero"/>
                <path d="m970.492 135.7-20.7-20.7a9 9 0 0 0-6.364-2.636h-28.15" stroke="#B8B9C7" stroke-width="3" stroke-linecap="round"/>
                <path d="M10.426 175.3H112.6c1.435 0 2.811.57 3.826 1.584l10.465 10.465a5.41 5.41 0 0 0 3.826 1.585H196.4a5.41 5.41 0 0 0 3.826-1.585l11.3-11.3a5.41 5.41 0 0 1 3.826-1.585h11.8a5.411 5.411 0 0 1 5.411 5.411v26.376a20 20 0 0 0 5.858 14.142l22.868 22.869a20 20 0 0 0 14.143 5.858H431.1" stroke="#B8B9C7"/>
                <path d="M8.8 169.4a5.8 5.8 0 1 1-5.8 5.8 5.809 5.809 0 0 1 5.8-5.8m0-3a8.8 8.8 0 1 0 0 17.6 8.8 8.8 0 0 0 0-17.6z" fill="#B8B9C7" fill-rule="nonzero"/>
                <path stroke="#B8B9C7" stroke-width="5.6" stroke-linecap="round" d="M400.523 248.954h-34.584"/>
                <g stroke="#B8B9C7" stroke-linecap="round" stroke-width=".5">
                    <path d="m912.754 187.29-.792-.309M912.561 187.966l-.83-.174M912.484 188.661l-.85-.019M912.523 189.376l-.831.116M912.696 190.052l-.811.27M912.986 190.708l-.753.406M913.372 191.288l-.676.54M913.855 191.809l-.56.637M914.434 192.234l-.444.714M915.052 192.543l-.309.792M915.747 192.736l-.173.83M916.443 192.813l-.02.85M917.157 192.775l.116.849M917.833 192.62l.27.792M918.49 192.331l.405.733M919.069 191.944l.541.657M919.59 191.442l.638.56M920.015 190.882l.715.444M920.324 190.245l.792.309M920.517 189.569l.831.174M920.595 188.855l.849.019M920.556 188.159l.85-.135M920.382 187.464l.811-.27M920.112 186.827l.734-.406M919.706 186.228l.676-.521M919.223 185.726l.56-.637M918.663 185.301l.445-.733M918.026 184.973l.309-.772M917.35 184.78l.155-.83M916.636 184.703l.019-.85M915.941 184.741l-.136-.83M915.245 184.915l-.27-.811M914.589 185.205l-.406-.753M914.009 185.591l-.521-.657M913.488 186.074l-.637-.56M913.083 186.653l-.734-.444"/>
                </g>
                <g fill="#1F2327" fill-rule="nonzero">
                    <path d="M476.777 253.238v-8.882a1.865 1.865 0 0 0-1.869-1.868h-25.621v3.462h5.5v5.677h-5.5v3.461h25.621a1.838 1.838 0 0 0 1.869-1.85z"/>
                    <path d="M447.951 255.106v-4.779h5.6v-3.077h-5.6v-4.78h-24.083a1.864 1.864 0 0 0-1.868 1.868v8.9a1.864 1.864 0 0 0 1.868 1.868h24.083z"/>
                </g>
                <path stroke="#B8B9C7" stroke-width="5.6" stroke-linecap="round" d="m1074.545 239.456-24.455-24.455"/>
            </g>
            <g fill-rule="nonzero" transform="translate(180.311 445.744)">
                <circle fill="url(#b)" cx="6.5" cy="6.5" r="6.5"/>
                <circle stroke="url(#c)" stroke-width=".388" fill="url(#d)" cx="6.5" cy="6.5" r="6.21"/>
                <circle fill="#1D1B1B" cx="6.5" cy="6.5" r="5.956"/>
                <circle fill="url(#e)" cx="6.5" cy="6.5" r="5.3"/>
            </g>
            <g opacity=".21" stroke="#1D1B1B" stroke-linecap="round" stroke-width="3.878">
                <path d="m189.704 449.772.607-.519M189.231 449.307l.51-.615M188.684 448.93l.394-.692M188.08 448.657l.265-.752M187.437 448.49l.131-.785M186.82 448.438l-.02-.796M186.116 448.503l-.147-.784M185.477 448.678l-.279-.743M184.878 448.966l-.405-.687M184.34 449.351l-.518-.607M183.871 449.824l-.615-.506M183.497 450.371l-.695-.39M183.223 450.975l-.752-.268M183.056 451.618l-.784-.13M183.004 452.31l-.798.02M183.067 452.94l-.782.146M183.248 453.58l-.749.278M183.53 454.178l-.684.404M183.918 454.716l-.605.52M184.391 455.184l-.506.612M184.938 455.558l-.39.695M185.542 455.832l-.265.752M186.185 456.001l-.132.785M186.876 456.051l.02.798M187.506 455.988l.144.782M188.145 455.81l.28.747M188.744 455.526l.405.683M189.286 455.14l.517.604M189.751 454.667l.615.503M190.125 454.12l.695.388M190.401 453.516l.75.265M190.565 452.873l.785.131M190.617 452.26l.796-.03M190.555 451.55l.784-.145M190.377 450.91l.744-.276M190.09 450.311l.686-.405"/>
            </g>
            <g fill-rule="nonzero" transform="translate(1066.109 445.855)">
                <circle fill="url(#b)" cx="6.5" cy="6.5" r="6.5"/>
                <circle stroke="url(#c)" stroke-width=".388" fill="url(#d)" cx="6.5" cy="6.5" r="6.21"/>
                <circle fill="#1D1B1B" cx="6.5" cy="6.5" r="5.956"/>
                <circle fill="url(#e)" cx="6.5" cy="6.5" r="5.3"/>
            </g>
            <g opacity=".21" stroke="#1D1B1B" stroke-linecap="round" stroke-width="3.878">
                <path d="m1075.502 449.883.607-.52M1075.029 449.418l.509-.615M1074.482 449.04l.394-.691M1073.878 448.768l.265-.752M1073.235 448.6l.13-.784M1072.617 448.549l-.02-.796M1071.914 448.614l-.147-.784M1071.275 448.789l-.28-.743M1070.676 449.077l-.405-.687M1070.137 449.462l-.517-.607M1069.669 449.935l-.615-.506M1069.295 450.482l-.695-.391M1069.02 451.086l-.751-.268M1068.854 451.729l-.784-.131M1068.802 452.42l-.798.02M1068.865 453.05l-.782.147M1069.046 453.69l-.75.279M1069.328 454.289l-.684.404M1069.716 454.827l-.605.52M1070.189 455.295l-.506.612M1070.736 455.669l-.391.695M1071.34 455.943l-.265.752M1071.983 456.112l-.132.785M1072.674 456.162l.02.798M1073.304 456.099l.144.782M1073.943 455.92l.279.748M1074.542 455.637l.405.683M1075.084 455.25l.517.605M1075.549 454.778l.615.503M1075.923 454.23l.695.389M1076.199 453.627l.75.265M1076.363 452.984l.785.13M1076.415 452.37l.796-.03M1076.353 451.66l.784-.144M1076.175 451.02l.744-.275M1075.888 450.422l.686-.405"/>
            </g>
            <g>
                <g fill-rule="nonzero" transform="translate(823.759 279.447)">
                    <circle fill="url(#b)" cx="6.5" cy="6.5" r="6.5"/>
                    <circle stroke="url(#c)" stroke-width=".388" fill="url(#d)" cx="6.5" cy="6.5" r="6.21"/>
                    <circle fill="#1D1B1B" cx="6.5" cy="6.5" r="5.956"/>
                    <circle fill="url(#e)" cx="6.5" cy="6.5" r="5.3"/>
                </g>
                <g opacity=".21" stroke="#1D1B1B" stroke-linecap="round" stroke-width="3.878">
                    <path d="m833.152 283.475.607-.52M832.679 283.01l.509-.615M832.132 282.633l.394-.692M831.528 282.36l.265-.752M830.885 282.193l.13-.785M830.267 282.14l-.02-.795M829.564 282.206l-.147-.784M828.925 282.38l-.28-.742M828.326 282.669l-.405-.687M827.787 283.054l-.517-.607M827.319 283.527l-.615-.506M826.945 284.074l-.695-.391M826.67 284.678l-.751-.268M826.504 285.32l-.784-.13M826.452 286.012l-.798.02M826.515 286.642l-.782.147M826.696 287.282l-.75.279M826.978 287.88l-.684.405M827.366 288.419l-.605.52M827.839 288.887l-.506.612M828.386 289.26l-.391.696M828.99 289.535l-.265.752M829.633 289.704l-.132.785M830.324 289.754l.02.798M830.954 289.69l.144.783M831.593 289.513l.279.747M832.192 289.229l.405.683M832.734 288.843l.517.604M833.199 288.37l.615.503M833.573 287.823l.695.388M833.849 287.219l.75.265M834.013 286.576l.785.13M834.065 285.962l.796-.03M834.003 285.253l.784-.145M833.825 284.613l.744-.276M833.538 284.014l.686-.405"/>
                </g>
            </g>
            <g>
                <g fill-rule="nonzero" transform="translate(1085 405)">
                    <circle fill="url(#b)" cx="8" cy="8" r="8"/>
                    <circle stroke="url(#c)" stroke-width=".388" fill="url(#d)" cx="8" cy="8" r="7.643"/>
                    <circle fill="#1D1B1B" cx="8" cy="8" r="7.33"/>
                    <circle fill="url(#e)" cx="8" cy="8" r="6.523"/>
                </g>
                <g opacity=".21" stroke="#1D1B1B" stroke-linecap="round" stroke-width="3.878">
                    <path d="m1096.56 409.958.748-.64M1095.978 409.386l.626-.758M1095.305 408.92l.485-.85M1094.561 408.585l.327-.926M1093.77 408.379l.162-.966M1093.01 408.315l-.025-.98M1092.145 408.396l-.182-.966M1091.357 408.612l-.343-.916M1090.62 408.965l-.498-.845M1089.957 409.439l-.636-.747M1089.382 410.022l-.758-.623M1088.921 410.695l-.855-.481M1088.584 411.439l-.926-.33M1088.38 412.23l-.967-.162M1088.315 413.08l-.983.024M1088.392 413.855l-.962.182M1088.614 414.643l-.922.343M1088.961 415.38l-.84.498M1089.44 416.043l-.745.639M1090.021 416.618l-.623.754M1090.694 417.079l-.48.855M1091.438 417.416l-.326.925M1092.23 417.625l-.163.966M1093.08 417.685l.024.983M1093.855 417.608l.178.962M1094.642 417.389l.343.919M1095.38 417.039l.497.84M1096.046 416.564l.636.744M1096.618 415.982l.757.619M1097.08 415.309l.854.478M1097.42 414.565l.921.327M1097.621 413.774l.966.162M1097.685 413.018l.98-.037M1097.607 412.145l.966-.178M1097.388 411.358l.916-.34M1097.035 410.62l.845-.497"/>
                </g>
            </g>
        </g>
        <g>
            <g transform="translate(426 31)">
                <rect fill="#FFF" x="27.713" y="10" width="345" height="420" rx="18"/>
                <g opacity=".433">
                    <use fill="#000" filter="url(#f)" xlink:href="#g"/>
                    <path stroke="#D4DCE8" d="M358.713.5a26.417 26.417 0 0 1 18.738 7.762A26.417 26.417 0 0 1 385.213 27l-.001 269.99 13.483 9.012a8.5 8.5 0 0 1 3.777 7.067v68.945a8.5 8.5 0 0 1-3.777 7.067l-13.483 9.01.001 13.909a26.417 26.417 0 0 1-7.762 18.738 26.417 26.417 0 0 1-18.738 7.762h-46.707l-.025 2.455a14.612 14.612 0 0 1-4.346 10.265 14.612 14.612 0 0 1-10.31 4.24h-191.6c-4.019 0-7.662-1.618-10.31-4.24a14.612 14.612 0 0 1-4.346-10.265l-.026-2.455h-47.33a26.417 26.417 0 0 1-18.738-7.762A26.417 26.417 0 0 1 17.213 412l-.001-14.274-12.935-8.645A8.5 8.5 0 0 1 .5 382.014v-68.945a8.5 8.5 0 0 1 3.777-7.067l12.935-8.646L17.213 27a26.417 26.417 0 0 1 7.762-18.738A26.417 26.417 0 0 1 43.713.5z" stroke-linejoin="square" fill="#FFF"/>
                </g>
                <use fill="#000" filter="url(#h)" xlink:href="#i"/>
                <use stroke="#B8B9C7" stroke-width="1.6" fill="url(#j)" xlink:href="#i"/>
            </g>
            <g transform="translate(552.713 436)">
                <mask id="l" fill="#fff">
                    <use xlink:href="#k"/>
                </mask>
                <path d="M16.849 0C7.544 0 0 7.544 0 16.849s7.544 16.849 16.849 16.849h113.212c9.305 0 16.849-7.544 16.849-16.849S139.366 0 130.061 0H16.849z" mask="url(#l)"/>
            </g>
            <g transform="translate(426 31)">
                <use fill="url(#m)" xlink:href="#n"/>
                <use fill="#000" filter="url(#o)" xlink:href="#n"/>
            </g>
            <g transform="rotate(-180 306.713 439.983)">
                <use fill="url(#m)" xlink:href="#p"/>
                <use fill="#000" filter="url(#q)" xlink:href="#p"/>
            </g>
            <path d="M445.273 366.717v11.998a13 13 0 0 0 2.21 7.25l5.316 7.912a13 13 0 0 1 2.209 7.25v35.566c0 10.494 8.506 19 19 19h51.705" stroke="#898994"/>
            <g transform="rotate(-180 306.713 439.983)">
                <use fill="#D8D8D8" xlink:href="#r"/>
                <use fill="#000" filter="url(#s)" xlink:href="#r"/>
            </g>
            <path d="M808.713 366.717v11.998a13 13 0 0 1-2.21 7.25l-5.315 7.912a13 13 0 0 0-2.21 7.25v35.566c0 10.494-8.506 19-19 19h-51.705" stroke="#898994"/>
            <g transform="matrix(1 0 0 -1 426 879.966)">
                <use fill="#D8D8D8" xlink:href="#t"/>
                <use fill="#000" filter="url(#u)" xlink:href="#t"/>
            </g>
            <g opacity=".393" transform="translate(426 31)">
                <use fill="url(#v)" xlink:href="#w"/>
                <use fill="#000" filter="url(#x)" xlink:href="#w"/>
            </g>
            <g transform="translate(802.46 355.022)" fill-rule="nonzero">
                <circle stroke="url(#y)" stroke-width=".5" fill="url(#z)" cx="6.212" cy="6.212" r="6.212"/>
                <circle fill="#1D1B1B" cx="6.212" cy="6.212" r="5.958"/>
                <circle fill="url(#A)" cx="6.206" cy="6.212" r="5.3"/>
            </g>
        </g>
    </g>
</svg>
