<?xml version="1.0" standalone="no"?>
<!DOCTYPE svg PUBLIC "-//W3C//DTD SVG 20010904//EN"
        "http://www.w3.org/TR/2001/REC-SVG-20010904/DTD/svg10.dtd">
<svg version="1.0" xmlns="http://www.w3.org/2000/svg"
     width="1280.000000pt" height="731.000000pt" viewBox="0 0 1280.000000 731.000000"
     preserveAspectRatio="xMidYMid meet">
    <metadata>
        Created by potrace 1.16, written by Peter Selinger 2001-2019
    </metadata>
    <g transform="translate(0.000000,731.000000) scale(0.100000,-0.100000)"
       fill="#000000" stroke="none">
        <path d="M6171 7285 c-113 -29 -237 -88 -317 -149 -32 -26 -1317 -1303 -2856
-2839 -1984 -1981 -2809 -2811 -2838 -2856 -55 -83 -113 -208 -136 -296 -29
-109 -27 -372 4 -480 88 -305 332 -549 637 -637 108 -31 371 -33 480 -4 84 22
212 80 292 132 39 25 864 843 2511 2488 l2452 2451 2453 -2451 c1624 -1624
2471 -2463 2509 -2488 78 -50 189 -102 273 -127 101 -30 322 -38 436 -14 334
67 605 319 701 652 20 68 23 100 23 253 -1 165 -3 180 -29 260 -33 98 -72 180
-128 265 -46 69 -5581 5603 -5688 5686 -86 67 -206 124 -325 154 -136 35 -319
35 -454 0z"/>
    </g>
</svg>
