<svg width="1256" height="533" viewBox="0 0 1256 533" xmlns="http://www.w3.org/2000/svg" xmlns:xlink="http://www.w3.org/1999/xlink">
    <defs>
        <filter x="-1.5%" y="-1.3%" width="103%" height="102.6%" filterUnits="objectBoundingBox" id="b">
            <feOffset in="SourceAlpha" result="shadowOffsetOuter1"/>
            <feGaussianBlur stdDeviation="2" in="shadowOffsetOuter1" result="shadowBlurOuter1"/>
            <feComposite in="shadowBlurOuter1" in2="SourceAlpha" operator="out" result="shadowBlurOuter1"/>
            <feColorMatrix values="0 0 0 0 0 0 0 0 0 0 0 0 0 0 0 0 0 0 0.238750751 0" in="shadowBlurOuter1"/>
        </filter>
        <filter x="-2.1%" y="-1.9%" width="104.3%" height="103.8%" filterUnits="objectBoundingBox" id="d">
            <feMorphology radius="1.3" operator="dilate" in="SourceAlpha" result="shadowSpreadOuter1"/>
            <feOffset in="shadowSpreadOuter1" result="shadowOffsetOuter1"/>
            <feGaussianBlur stdDeviation="2" in="shadowOffsetOuter1" result="shadowBlurOuter1"/>
            <feComposite in="shadowBlurOuter1" in2="SourceAlpha" operator="out" result="shadowBlurOuter1"/>
            <feColorMatrix values="0 0 0 0 0 0 0 0 0 0 0 0 0 0 0 0 0 0 0.16 0" in="shadowBlurOuter1"/>
        </filter>
        <filter x="-7.1%" y="-21.5%" width="114.3%" height="143.1%" filterUnits="objectBoundingBox" id="k">
            <feGaussianBlur stdDeviation="1.5" in="SourceAlpha" result="shadowBlurInner1"/>
            <feOffset in="shadowBlurInner1" result="shadowOffsetInner1"/>
            <feComposite in="shadowOffsetInner1" in2="SourceAlpha" operator="arithmetic" k2="-1" k3="1" result="shadowInnerInner1"/>
            <feColorMatrix values="0 0 0 0 0.149019608 0 0 0 0 0.141176471 0 0 0 0 0.149019608 0 0 0 1 0" in="shadowInnerInner1"/>
        </filter>
        <filter x="-7.1%" y="-21.5%" width="114.3%" height="143.1%" filterUnits="objectBoundingBox" id="m">
            <feGaussianBlur stdDeviation="1.5" in="SourceAlpha" result="shadowBlurInner1"/>
            <feOffset in="shadowBlurInner1" result="shadowOffsetInner1"/>
            <feComposite in="shadowOffsetInner1" in2="SourceAlpha" operator="arithmetic" k2="-1" k3="1" result="shadowInnerInner1"/>
            <feColorMatrix values="0 0 0 0 0.149019608 0 0 0 0 0.141176471 0 0 0 0 0.149019608 0 0 0 1 0" in="shadowInnerInner1"/>
        </filter>
        <filter x="-7.1%" y="-21.5%" width="114.3%" height="143.1%" filterUnits="objectBoundingBox" id="r">
            <feGaussianBlur stdDeviation="1.5" in="SourceAlpha" result="shadowBlurInner1"/>
            <feOffset in="shadowBlurInner1" result="shadowOffsetInner1"/>
            <feComposite in="shadowOffsetInner1" in2="SourceAlpha" operator="arithmetic" k2="-1" k3="1" result="shadowInnerInner1"/>
            <feColorMatrix values="0 0 0 0 0.149019608 0 0 0 0 0.141176471 0 0 0 0 0.149019608 0 0 0 1 0" in="shadowInnerInner1"/>
        </filter>
        <filter x="-7.1%" y="-21.5%" width="114.3%" height="143.1%" filterUnits="objectBoundingBox" id="t">
            <feGaussianBlur stdDeviation="1.5" in="SourceAlpha" result="shadowBlurInner1"/>
            <feOffset in="shadowBlurInner1" result="shadowOffsetInner1"/>
            <feComposite in="shadowOffsetInner1" in2="SourceAlpha" operator="arithmetic" k2="-1" k3="1" result="shadowInnerInner1"/>
            <feColorMatrix values="0 0 0 0 0.149019608 0 0 0 0 0.141176471 0 0 0 0 0.149019608 0 0 0 1 0" in="shadowInnerInner1"/>
        </filter>
        <filter x="-.8%" y="-4.4%" width="101.6%" height="108.8%" filterUnits="objectBoundingBox" id="w">
            <feGaussianBlur stdDeviation="1.5" in="SourceAlpha" result="shadowBlurInner1"/>
            <feOffset in="shadowBlurInner1" result="shadowOffsetInner1"/>
            <feComposite in="shadowOffsetInner1" in2="SourceAlpha" operator="arithmetic" k2="-1" k3="1" result="shadowInnerInner1"/>
            <feColorMatrix values="0 0 0 0 0.149019608 0 0 0 0 0.141176471 0 0 0 0 0.149019608 0 0 0 1 0" in="shadowInnerInner1"/>
        </filter>
        <path d="M358.713 0c14.912 0 27 12.088 27 27l-.001 269.723 13.26 8.863a9 9 0 0 1 4 7.483v68.945a9 9 0 0 1-4 7.483l-13.26 8.861.001 13.642c0 14.912-12.088 27-27 27h-46.212l-.02 1.96c-.086 8.309-6.846 15-15.156 15h-191.6c-8.31 0-15.07-6.691-15.156-15l-.021-1.96H43.713c-14.912 0-27-12.088-27-27l-.001-14.007-12.713-8.496A9 9 0 0 1 0 382.014v-68.945a9 9 0 0 1 4-7.483l12.712-8.497L16.713 27c0-14.912 12.088-27 27-27h315z" id="c"/>
        <path d="M355.713 9c12.15 0 22 9.85 22 22l-.001 267.488 14.775 9.874a9 9 0 0 1 3.999 7.483v63.393a9 9 0 0 1-4 7.483l-14.774 9.873.001 11.406c0 12.15-9.85 22-22 22h-52.929l-.149 4.96c-.216 7.242-6.15 13-13.395 13H113.81c-7.246 0-13.179-5.758-13.396-13l-.149-4.96H46.713c-12.15 0-22-9.85-22-22l-.001-11.771-14.227-9.508a9 9 0 0 1-3.999-7.483v-63.393a9 9 0 0 1 4-7.483l14.226-9.509L24.713 31c0-12.15 9.85-22 22-22h309zm-226.809 9.106H47.208c-7.077 0-12.833 5.656-12.996 12.694l-.004.306V405.88c0 7.077 5.655 12.833 12.693 12.996l.307.004 52.688-.001.206-6.878c.217-7.242 6.15-13 13.396-13h175.43c7.245 0 13.179 5.758 13.396 13l.205 6.878h52.728c7.077 0 12.833-5.654 12.996-12.692l.004-.307V31.106c0-7.18-5.82-13-13-13H274.52l-7.661 13.369A9 9 0 0 1 259.05 36H144.375a9 9 0 0 1-7.809-4.525l-7.662-13.369z" id="e"/>
        <path d="M16.849 0C7.544 0 0 7.544 0 16.849s7.544 16.849 16.849 16.849h113.212c9.305 0 16.849-7.544 16.849-16.849S139.366 0 130.061 0H16.849z" id="g"/>
        <path d="M317.37 421c1.017 0 1.843.826 1.843 1.844v3.278a1.844 1.844 0 0 1-1.844 1.844h-15.776v-2.562h-3.38v-2.048h3.38V421h15.776z" id="j"/>
        <path d="M102.37 421c1.017 0 1.843.826 1.843 1.844v3.278a1.844 1.844 0 0 1-1.844 1.844H86.593v-2.562h-3.38v-2.048h3.38V421h15.776z" id="l"/>
        <path d="M102.37 421c1.017 0 1.843.826 1.843 1.844v3.278a1.844 1.844 0 0 1-1.844 1.844H86.593v-2.562h-3.38v-2.048h3.38V421h15.776z" id="q"/>
        <path d="M317.37 421c1.017 0 1.843.826 1.843 1.844v3.278a1.844 1.844 0 0 1-1.844 1.844h-15.776v-2.562h-3.38v-2.048h3.38V421h15.776z" id="s"/>
        <radialGradient cx="43.178%" cy="-49.77%" fx="43.178%" fy="-49.77%" r="50.198%" id="a">
            <stop stop-color="#B6B7C6" offset="0%"/>
            <stop stop-color="#A2A5B3" offset="100%"/>
        </radialGradient>
        <radialGradient cx="68.761%" cy="27.285%" fx="68.761%" fy="27.285%" r="120.885%" id="o">
            <stop stop-color="#FFF" offset="2.843%"/>
            <stop stop-color="#858689" offset="55.18%"/>
            <stop stop-color="#AEAEAF" offset="78.53%"/>
            <stop stop-color="#5F6063" offset="99.89%"/>
        </radialGradient>
        <radialGradient cx="50%" cy="140.554%" fx="50%" fy="140.554%" r="50.064%" id="n">
            <stop stop-color="#B8B9C7" offset="0%"/>
            <stop stop-color="#A5A7B5" offset="100%"/>
        </radialGradient>
        <radialGradient cx="50%" cy="50%" fx="50%" fy="50%" r="50%" id="p">
            <stop stop-color="#FFF" offset="0%"/>
            <stop stop-color="#F7F7F7" offset="15.35%"/>
            <stop stop-color="#B8B9C7" offset="33.17%"/>
            <stop stop-color="#B8B9C7" offset="53.82%"/>
            <stop stop-color="#1D1B1B" offset="99.86%"/>
        </radialGradient>
        <linearGradient x1="50%" y1="0%" x2="50%" y2="100%" id="f">
            <stop stop-color="#373E49" offset="0%"/>
            <stop stop-color="#202328" offset="100%"/>
        </linearGradient>
        <linearGradient x1="50%" y1="0%" x2="50%" y2="100%" id="i">
            <stop stop-color="#373E49" offset="0%"/>
            <stop stop-color="#202328" offset="50.807%"/>
            <stop stop-color="#131519" offset="100%"/>
        </linearGradient>
        <linearGradient x1="50%" y1="0%" x2="50%" y2="100%" id="u">
            <stop stop-color="#373E49" offset="0%"/>
            <stop stop-color="#202328" offset="50.807%"/>
            <stop stop-color="#131519" offset="100%"/>
        </linearGradient>
        <rect id="v" x="109.713" y="406" width="183" height="34" rx="9"/>
    </defs>
    <g fill="none" fill-rule="evenodd">
        <g opacity=".62">
            <path d="M1070.63 74.516a5.8 5.8 0 1 1-5.8 5.8 5.809 5.809 0 0 1 5.8-5.8m0-3a8.8 8.8 0 1 0 0 17.6 8.8 8.8 0 0 0 0-17.6z" fill="#B8B9C7" fill-rule="nonzero"/>
            <g stroke="#B8B9C7" stroke-linecap="round" stroke-width="5.6">
                <path d="M706.746 6.485h-34.584M578.519 6.485h-34.585M27.455 37.445 3 12.99"/>
            </g>
            <path stroke="#B9BAC8" d="m338.242 67.159 7.094-7.094"/>
            <path d="m102.131 111.821 20.7 20.7a9 9 0 0 0 6.364 2.636h28.15" stroke="#B8B9C7" stroke-width="3" stroke-linecap="round"/>
            <path d="M184.8 74.516a5.8 5.8 0 1 1-5.8 5.8 5.809 5.809 0 0 1 5.8-5.8m0-3a8.8 8.8 0 1 0 0 17.6 8.8 8.8 0 0 0 0-17.6z" fill="#B8B9C7" fill-rule="nonzero"/>
            <g transform="translate(3.924 13.786)">
                <path stroke="#B8B9C7" d="M364.473 83.234h-19.331"/>
                <path stroke="#B8B9C7" stroke-width="2.1" stroke-linecap="round" d="m290.587 95.061 9.698 9.656"/>
                <circle stroke="#B8B9C7" stroke-width="2.1" fill="#FFF" fill-rule="nonzero" stroke-linecap="round" cx="288.288" cy="92.762" r="3.341"/>
                <path stroke="#B8B9C7" d="M322.289 74.194v10.033M356.576 187.541l-46.686-46.685a5.406 5.406 0 0 0-3.825-1.585h-28.254a5.41 5.41 0 0 1-3.826-1.585l-13.371-13.372a5.413 5.413 0 0 0-3.826-1.584h-27.53a5.41 5.41 0 0 0-3.826 9.236l28.086 28.085a5.406 5.406 0 0 0 3.825 1.585h27.492a5.41 5.41 0 0 1 3.826 1.585l59.548 59.548a5.41 5.41 0 0 0 3.826 1.585h56.114"/>
                <path stroke="#B8B9C7" stroke-width="2.1" stroke-linecap="round" d="M388.751 224.355h19.509M276.906 161.637h7.929a5.41 5.41 0 0 1 3.826 1.585l23.3 23.3M356.037 187.002l-9.755-9.754"/>
                <path d="m62.323 62.323 56.42 56.419a9 9 0 0 0 6.364 2.637h56.629c1.435 0 2.811-.57 3.826-1.585l34.114-34.112a5.41 5.41 0 0 1 3.826-1.585h36.941a5.41 5.41 0 0 1 3.826 1.585l32.5 32.5a5.409 5.409 0 0 0 3.826 1.585h19.681c1.435 0 2.811.57 3.826 1.584l36.821 36.822 23.682 23.681M0 0l38.796 38.796M331.427 73.793h-20.069a5.41 5.41 0 0 0-3.826 1.585l-7.134 7.136a5.414 5.414 0 0 1-3.826 1.584h-35.271" stroke="#B8B9C7"/>
                <path d="M392.706 96.414h-32.278a5.413 5.413 0 0 1-3.826-1.584l-19.441-19.446a5.41 5.41 0 0 0-3.826-1.585h-19.214M381.027 111.828l-15.361-15.361M307.788 119.883l13.6-13.6a5.41 5.41 0 0 1 3.826-1.585h13.813a5.41 5.41 0 0 1 3.826 1.585l34.574 34.574" stroke="#B8B9C7"/>
                <path stroke="#B8B9C7" stroke-width="2.1" stroke-linecap="round" d="m377.431 140.853-7.132-7.131"/>
                <path d="m278.446 121.614-17.4-17.4a5.41 5.41 0 0 0-3.826-1.585h-54.027" stroke="#B8B9C7"/>
                <circle stroke="#B8B9C7" stroke-width="2.1" fill="#FFF" fill-rule="nonzero" stroke-linecap="round" cx="153.423" cy="97.784" r="13.69"/>
                <path d="M281.967 122.535a2.4 2.4 0 1 1-2.4 2.405 2.408 2.408 0 0 1 2.4-2.405m0-3a5.4 5.4 0 1 0 0 10.8 5.4 5.4 0 0 0 0-10.8z" fill="#B8B9C7" fill-rule="nonzero"/>
                <circle stroke="#B8B9C7" stroke-width="2.1" fill="#FFF" fill-rule="nonzero" stroke-linecap="round" cx="401.942" cy="96.276" r="8.803"/>
                <circle stroke="#B8B9C7" stroke-width="2.1" fill="#FFF" fill-rule="nonzero" stroke-linecap="round" cx="385.482" cy="115.735" r="5.404"/>
                <circle stroke="#B8B9C7" stroke-width="2.1" fill="#FFF" fill-rule="nonzero" stroke-linecap="round" cx="381.302" cy="144.435" r="5.404"/>
                <circle stroke="#B8B9C7" stroke-width="2.1" fill="#FFF" fill-rule="nonzero" stroke-linecap="round" cx="304.043" cy="108.626" r="5.404"/>
                <g fill-rule="nonzero">
                    <path d="M360.002 194.954a4.355 4.355 0 1 1-.002-8.71 4.355 4.355 0 0 1 .002 8.71z" fill="#F9F9F9"/>
                    <path d="M360.001 187.295a3.3 3.3 0 1 1-3.3 3.305 3.309 3.309 0 0 1 3.3-3.305m0-2.1a5.4 5.4 0 1 0 0 10.8 5.4 5.4 0 0 0 0-10.8z" fill="#B8B9C7"/>
                </g>
                <circle stroke="#B8B9C7" stroke-width="2.1" fill="#FFF" fill-rule="nonzero" stroke-linecap="round" cx="370.123" cy="83.149" r="5.404"/>
                <g fill-rule="nonzero">
                    <path d="M388.633 193.779a7.753 7.753 0 1 1 7.753-7.753 7.762 7.762 0 0 1-7.753 7.753z" fill="#FFF"/>
                    <path d="M388.633 179.324a6.7 6.7 0 1 1-6.7 6.7 6.71 6.71 0 0 1 6.7-6.7m0-2.1a8.8 8.8 0 1 0 0 17.6 8.8 8.8 0 0 0 0-17.6z" fill="#B8B9C7"/>
                </g>
                <g stroke="#B8B9C7" stroke-linecap="round" stroke-width=".5">
                    <path d="m392.447 187.555.792.31M392.64 186.88l.831.174M392.718 186.185l.849.02M392.679 185.47l.83-.114M392.505 184.796l.811-.272M392.216 184.138l.753-.406M391.829 183.558l.676-.54M391.347 183.037l.56-.637M390.767 182.612l.444-.715M390.149 182.304l.309-.792M389.454 182.11l.174-.83M388.759 182.032l.019-.849M388.044 182.072l-.115-.85M387.369 182.225l-.271-.79M386.712 182.516l-.406-.734M386.133 182.903l-.541-.657M385.611 183.404l-.637-.56M385.186 183.964l-.714-.444M384.877 184.602l-.791-.31M384.684 185.278l-.83-.174M384.607 185.992l-.85-.02M384.646 186.688l-.85.136M384.82 187.382l-.812.271M385.09 188.02l-.734.404M385.495 188.618l-.675.522M385.978 189.12l-.56.637M386.538 189.546l-.444.733M387.175 189.873l-.308.773M387.851 190.067l-.154.83M388.566 190.144l-.019.85M389.261 190.105l.135.832M389.956 189.931l.271.811M390.613 189.642l.405.754M391.192 189.256l.522.655M391.714 188.773l.637.56M392.119 188.194l.734.444"/>
                </g>
                <path stroke="#B8B9C7" stroke-width="2.1" stroke-linecap="round" d="m357.874 155.125 25.162 25.163M278.446 121.609l-5.214-5.214M364.473 83.234h-11.969M392.628 96.314h-11.969M381.066 111.742l-8.464-8.464"/>
                <g stroke="#B8B9C7" stroke-linecap="round" stroke-width=".5">
                    <path d="m405.643 97.575.791.309M405.837 96.899l.83.174M405.914 96.204l.85.019M405.874 95.49l.832-.116M405.7 94.814l.813-.271M405.412 94.157l.753-.405M405.026 93.578l.674-.541M404.543 93.056l.56-.637M403.963 92.631l.444-.714M403.346 92.322l.308-.791M402.65 92.129l.175-.83M401.955 92.052l.02-.85M401.24 92.091l-.115-.85M400.565 92.245l-.27-.792M399.908 92.535l-.406-.734M399.328 92.921l-.54-.656M398.807 93.423l-.637-.56M398.382 93.983l-.715-.444M398.075 94.621l-.793-.309M397.88 95.296l-.83-.173M397.802 96.011l-.849-.019M397.842 96.706l-.85.135M398.015 97.401l-.81.271M398.285 98.039l-.734.405M398.691 98.637l-.675.522M399.174 99.139l-.56.637M399.734 99.564l-.444.734M400.373 99.892l-.31.773M401.046 100.085l-.154.831M401.761 100.163l-.019.849M402.457 100.124l.135.83M403.152 99.95l.272.811M403.81 99.661l.405.753M404.388 99.274l.522.657M404.91 98.792l.636.56M405.315 98.212l.734.444"/>
                </g>
                <path stroke="#B8B9C7" stroke-width="2.1" stroke-linecap="round" d="M322.289 77.915v3.38"/>
                <g opacity=".21" fill="#FFF" fill-rule="nonzero" stroke="#B8B9C7" stroke-linecap="round" stroke-width=".75">
                    <path d="m162.022 101.118 1.799.702M162.46 99.583l1.887.395M162.636 98.003l1.93.044M162.548 96.38l1.887-.263M162.153 94.845l1.843-.615M161.495 93.353l1.711-.921M160.618 92.037l1.535-1.229M159.521 90.852l1.272-1.448M158.205 89.887l1.009-1.623M156.801 89.185l.702-1.799M155.221 88.746l.395-1.886M153.642 88.571l.044-1.931M152.019 88.659l-.263-1.931M150.483 89.009l-.614-1.798M148.992 89.668 148.07 88M147.675 90.545l-1.228-1.492M146.491 91.686l-1.448-1.273M145.526 92.958l-1.624-1.009M144.824 94.406l-1.799-.702M144.385 95.941l-1.887-.395M144.209 97.565l-1.93-.044M144.297 99.144l-1.93.307M144.692 100.724l-1.843.614M145.306 102.171l-1.667.922M146.228 103.531l-1.536 1.185M147.324 104.672l-1.272 1.448M148.597 105.637l-1.009 1.667M150.044 106.383l-.701 1.755M151.58 106.822l-.351 1.886M153.203 106.997l-.044 1.931M154.783 106.91l.307 1.886M156.362 106.515l.614 1.842M157.854 105.856l.921 1.712M159.17 104.979l1.185 1.492M160.355 103.882l1.447 1.273M161.276 102.566l1.667 1.009"/>
                </g>
                <g transform="translate(315.075 78.374)">
                    <circle stroke="#B6B7C6" stroke-width=".805" cx="7.37" cy="7.37" r="7.37"/>
                    <circle stroke="url(#a)" stroke-width=".078" cx="7.37" cy="7.37" r="6.907"/>
                    <circle fill="#FFF" fill-rule="nonzero" cx="7.37" cy="7.37" r="6.625"/>
                </g>
                <g opacity=".21" stroke="#1D1B1B" stroke-linecap="round" stroke-width=".403">
                    <path d="m323.976 81.798.322-.826M323.271 81.596l.181-.865M322.546 81.516l.02-.886M321.801 81.556l-.121-.866M321.096 81.737l-.282-.845M320.412 82.039l-.423-.785M319.808 82.442l-.564-.705M319.264 82.945l-.665-.583M318.821 83.55l-.745-.464M318.499 84.194l-.826-.322M318.297 84.919l-.865-.181M318.217 85.644l-.886-.02M318.257 86.389l-.886.12M318.418 87.093l-.825.282M318.72 87.778l-.765.423M319.123 88.382l-.685.564M319.647 88.926l-.584.664M320.23 89.369l-.463.745M320.895 89.691l-.322.825M321.6 89.892l-.182.866M322.345 89.973l-.02.886M323.07 89.933l.141.886M323.795 89.751l.281.846M324.459 89.469l.423.766M325.083 89.047l.544.704M325.607 88.543l.664.584M326.05 87.959l.765.463M326.392 87.295l.805.322M326.593 86.59l.866.161M326.674 85.845l.886.02M326.634 85.12l.865-.141M326.452 84.395l.846-.282M326.15 83.711l.786-.423M325.748 83.107l.684-.544M325.244 82.563l.584-.665M324.64 82.14l.463-.765"/>
                </g>
            </g>
            <g fill="#B8B9C7" fill-rule="nonzero">
                <path d="m37.543 41.156-6.281 6.281a1.865 1.865 0 0 0 0 2.642L49.379 68.2l2.447-2.448-3.885-3.885 4.015-4.014 3.885 3.885 2.447-2.448-18.117-18.121a1.836 1.836 0 0 0-2.628-.013zM65.509 66.481l-3.38 3.38-3.962-3.961-2.176 2.175 3.963 3.963-3.38 3.38L73.6 92.446a1.865 1.865 0 0 0 2.642 0l6.293-6.294a1.863 1.863 0 0 0 0-2.642L65.509 66.481z"/>
            </g>
            <g fill="#B8B9C7" fill-rule="nonzero">
                <path d="M295.436 190.994a1.27 1.27 0 0 0-.9.373l-3.851 3.851a1.273 1.273 0 0 0 0 1.8l3.79 3.791a1.276 1.276 0 0 0 1.8 0l3.851-3.851a1.275 1.275 0 0 0 0-1.8l-3.791-3.791a1.27 1.27 0 0 0-.9-.373h.001zM303.05 199.245c.17 0 .332.067.451.187l3.791 3.791c.247.25.247.65 0 .9l-3.851 3.851a.636.636 0 0 1-.901-.001l-3.791-3.79a.637.637 0 0 1 0-.9l3.851-3.851a.633.633 0 0 1 .45-.187m0-.637c-.338 0-.661.134-.9.373l-3.851 3.851a1.277 1.277 0 0 0 0 1.8l3.791 3.79a1.275 1.275 0 0 0 1.8 0l3.851-3.851a1.273 1.273 0 0 0 0-1.8l-3.79-3.791a1.274 1.274 0 0 0-.9-.373l-.001.001zM310.665 206.223a1.27 1.27 0 0 0-.9.373l-3.851 3.851a1.273 1.273 0 0 0 0 1.8l3.79 3.791a1.276 1.276 0 0 0 1.8 0l3.851-3.851a1.275 1.275 0 0 0 0-1.8l-3.791-3.791a1.27 1.27 0 0 0-.9-.373h.001zM318.279 213.837c-.338 0-.661.134-.9.373l-3.851 3.851a1.275 1.275 0 0 0 0 1.8l3.791 3.791a1.275 1.275 0 0 0 1.8 0l3.851-3.851a1.273 1.273 0 0 0 0-1.8l-3.791-3.791a1.272 1.272 0 0 0-.9-.373zM325.894 222.089c.169 0 .33.066.45.186l3.791 3.791a.636.636 0 0 1 0 .9l-3.851 3.851a.636.636 0 0 1-.9 0l-3.791-3.791a.639.639 0 0 1 0-.9l3.851-3.851a.633.633 0 0 1 .451-.186m0-.637c-.338 0-.662.134-.9.373l-3.851 3.851a1.273 1.273 0 0 0 0 1.8l3.79 3.791a1.276 1.276 0 0 0 1.8 0l3.851-3.851a1.277 1.277 0 0 0 0-1.8l-3.791-3.79a1.27 1.27 0 0 0-.9-.373l.001-.001z"/>
            </g>
            <path d="M347.734 54.05a3.4 3.4 0 1 1 0 6.8 3.4 3.4 0 0 1 0-6.8m0-1a4.4 4.4 0 1 0 .003 8.8 4.4 4.4 0 0 0-.003-8.8z" fill="#B9BAC8" fill-rule="nonzero"/>
            <path d="M187.068 80.224H288.6a5.41 5.41 0 0 0 3.826-1.585l10.464-10.465a5.415 5.415 0 0 1 3.826-1.585H372.4c1.435 0 2.811.57 3.826 1.585l11.3 11.3a5.41 5.41 0 0 0 3.826 1.585h11.8a5.411 5.411 0 0 0 5.411-5.411v-26.38a20 20 0 0 1 5.857-14.142l22.869-22.869A20 20 0 0 1 451.427 6.4h153.839M1069.007 80.224H966.831a5.409 5.409 0 0 1-3.826-1.585L952.54 68.174a5.415 5.415 0 0 0-3.826-1.585H883.03c-1.436 0-2.814.57-3.83 1.585l-11.3 11.3a5.41 5.41 0 0 1-3.826 1.585h-11.8a5.411 5.411 0 0 1-5.411-5.411v-26.38a20 20 0 0 0-5.858-14.142l-22.861-22.869A20.003 20.003 0 0 0 804 6.4H648.334" stroke="#B8B9C7"/>
            <g fill="#B8B9C7" fill-rule="nonzero">
                <path d="M657.772 10.769V1.886A1.864 1.864 0 0 0 655.9.018h-25.617V3.48h5.494v5.677h-5.494v3.461H655.9a1.836 1.836 0 0 0 1.872-1.849zM618.946 12.637v-4.78h5.6V4.78h-5.6V0h-24.083a1.864 1.864 0 0 0-1.868 1.868v8.9a1.865 1.865 0 0 0 1.868 1.868l24.083.001z"/>
            </g>
            <g fill="#B8B9C7" fill-rule="nonzero">
                <path d="M420.082 233.926a4.8 4.8 0 1 1-4.8 4.8 4.809 4.809 0 0 1 4.8-4.8m0-4a8.8 8.8 0 1 0 0 17.6 8.8 8.8 0 0 0 0-17.6z"/>
                <path d="M420.219 233.665a4.873 4.873 0 1 1 0 9.746 4.873 4.873 0 0 1 0-9.746m0-4a8.873 8.873 0 1 0-.002 17.746 8.873 8.873 0 0 0 .002-17.746z"/>
            </g>
            <path d="M1070.74 78.619a1.678 1.678 0 1 1 .002 3.356 1.678 1.678 0 0 1-.002-3.356m0-.867a2.545 2.545 0 1 0 0 5.09 2.545 2.545 0 0 0 0-5.09zM184.851 78.578a1.678 1.678 0 1 1 0 3.356 1.678 1.678 0 0 1 0-3.356m0-.868a2.545 2.545 0 1 0 0 5.09 2.545 2.545 0 0 0 0-5.09z" fill="#B8B9C7" fill-rule="nonzero"/>
        </g>
        <g transform="translate(178 277)" opacity=".62">
            <g transform="translate(657.791 8.891)">
                <path stroke="#B8B9C7" d="M46.271 141.62h19.331"/>
                <path stroke="#B8B9C7" stroke-width="2.1" stroke-linecap="round" d="m120.157 129.793-9.697-9.655"/>
                <circle stroke="#B8B9C7" stroke-width="2.1" fill="#FFF" fill-rule="nonzero" stroke-linecap="round" cx="122.457" cy="132.093" r="3.341"/>
                <path stroke="#B8B9C7" d="M88.455 150.661v-10.033M54.169 37.309l46.685 46.69a5.414 5.414 0 0 0 3.826 1.584h28.254a5.41 5.41 0 0 1 3.826 1.585l13.371 13.371a5.41 5.41 0 0 0 3.826 1.585h27.529a5.41 5.41 0 0 0 3.826-9.237l-28.085-28.085a5.414 5.414 0 0 0-3.826-1.584h-27.492a5.415 5.415 0 0 1-3.826-1.585L62.535 2.084A5.411 5.411 0 0 0 58.709.5H2.596"/>
                <path stroke="#B8B9C7" stroke-width="2.1" stroke-linecap="round" d="M21.994.5H2.485M133.838 63.218h-7.929a5.415 5.415 0 0 1-3.826-1.585l-23.3-23.3M54.708 37.852l9.754 9.755"/>
                <path d="m353.52 167.63-61.518-61.521a9 9 0 0 0-6.364-2.636h-56.629c-1.435 0-2.81.57-3.825 1.585l-34.112 34.112a5.414 5.414 0 0 1-3.826 1.584h-36.937a5.412 5.412 0 0 1-3.826-1.584l-32.5-32.5a5.41 5.41 0 0 0-3.826-1.585H90.47a5.409 5.409 0 0 1-3.826-1.585L49.822 66.681 26.141 42.999M417.894 232.004 367.57 181.68M79.317 151.061h20.07a5.41 5.41 0 0 0 3.822-1.585l7.134-7.134a5.41 5.41 0 0 1 3.826-1.585h35.27" stroke="#B8B9C7"/>
                <path d="M18.039 128.445h32.278a5.41 5.41 0 0 1 3.826 1.585l19.441 19.441a5.41 5.41 0 0 0 3.826 1.585h19.214M29.718 113.026l15.361 15.362M102.957 104.972l-13.6 13.6a5.415 5.415 0 0 1-3.826 1.585H71.714a5.415 5.415 0 0 1-3.826-1.585L33.309 84.001" stroke="#B8B9C7"/>
                <path stroke="#B8B9C7" stroke-width="2.1" stroke-linecap="round" d="m33.313 84.001 7.132 7.132"/>
                <path d="m132.299 103.246 17.4 17.4a5.406 5.406 0 0 0 3.825 1.585h54.026" stroke="#B8B9C7"/>
                <circle stroke="#B8B9C7" stroke-width="2.1" fill="#FFF" fill-rule="nonzero" stroke-linecap="round" cx="257.322" cy="127.071" r="13.69"/>
                <path d="M128.778 97.509a2.4 2.4 0 1 1-2.4 2.405 2.408 2.408 0 0 1 2.4-2.405m0-3a5.4 5.4 0 1 0 .01 10.8 5.4 5.4 0 0 0-.01-10.8z" fill="#B8B9C7" fill-rule="nonzero"/>
                <circle stroke="#B8B9C7" stroke-width="2.1" fill="#FFF" fill-rule="nonzero" stroke-linecap="round" cx="8.803" cy="128.579" r="8.803"/>
                <circle stroke="#B8B9C7" stroke-width="2.1" fill="#FFF" fill-rule="nonzero" stroke-linecap="round" cx="25.263" cy="109.12" r="5.404"/>
                <circle stroke="#B8B9C7" stroke-width="2.1" fill="#FFF" fill-rule="nonzero" stroke-linecap="round" cx="29.443" cy="80.419" r="5.404"/>
                <circle stroke="#B8B9C7" stroke-width="2.1" fill="#FFF" fill-rule="nonzero" stroke-linecap="round" cx="88.305" cy="137.086" r="3.404"/>
                <circle stroke="#B8B9C7" stroke-width="2.1" fill="#FFF" fill-rule="nonzero" stroke-linecap="round" cx="106.702" cy="116.228" r="5.404"/>
                <g fill-rule="nonzero">
                    <path d="M50.743 38.609a4.355 4.355 0 1 1 0-8.71 4.355 4.355 0 0 1 0 8.71z" fill="#F9F9F9"/>
                    <path d="M50.743 30.951a3.3 3.3 0 1 1-3.3 3.3 3.308 3.308 0 0 1 3.3-3.3m0-2.1a5.4 5.4 0 1 0 0 10.8 5.4 5.4 0 0 0 0-10.8z" fill="#B8B9C7"/>
                </g>
                <circle stroke="#B8B9C7" stroke-width="2.1" fill="#FFF" fill-rule="nonzero" stroke-linecap="round" cx="40.622" cy="141.705" r="5.404"/>
                <g fill-rule="nonzero">
                    <path d="M22.109 46.581a7.753 7.753 0 1 1 7.753-7.752 7.761 7.761 0 0 1-7.753 7.752z" fill="#FFF"/>
                    <path d="M22.109 32.126a6.7 6.7 0 1 1-6.7 6.7 6.71 6.71 0 0 1 6.7-6.7m0-2.1a8.8 8.8 0 1 0 0 17.6 8.8 8.8 0 0 0 0-17.6z" fill="#B8B9C7"/>
                </g>
                <g stroke="#B8B9C7" stroke-linecap="round" stroke-width=".5">
                    <path d="m18.297 37.298-.791-.309M18.104 37.974l-.83-.174M18.027 38.669l-.85-.019M18.066 39.384l-.831.116M18.239 40.06l-.811.27M18.529 40.716l-.753.406M18.915 41.296l-.676.54M19.398 41.817l-.56.637M19.977 42.242l-.444.714M20.595 42.551l-.309.792M21.291 42.744l-.174.83M21.986 42.821l-.02.85M22.7 42.783l.116.849M23.376 42.628l.27.792M24.033 42.338l.405.734M24.612 41.952l.541.657M25.133 41.45l.638.56M25.558 40.89l.715.444M25.867 40.253l.792.309M26.06 39.577l.831.174M26.138 38.862l.849.02M26.099 38.167l.85-.135M25.925 37.472l.811-.27M25.655 36.835l.734-.406M25.249 36.236l.676-.521M24.767 35.734l.56-.637M24.207 35.309l.444-.734M23.569 34.981l.309-.773M22.893 34.788l.155-.831M22.179 34.711l.019-.85M21.484 34.749l-.136-.83M20.788 34.923l-.27-.811M20.132 35.213l-.406-.753M19.553 35.599l-.522-.657M19.031 36.082l-.637-.56M18.626 36.661l-.734-.444"/>
                </g>
                <path stroke="#B8B9C7" stroke-width="2.1" stroke-linecap="round" d="M52.871 69.729 27.708 44.567M132.299 103.246l5.213 5.214M46.271 141.62h11.97M18.116 128.54h11.97M29.679 113.113l8.464 8.464"/>
                <g stroke="#B8B9C7" stroke-linecap="round" stroke-width=".5">
                    <path d="m5.101 127.279-.792-.309M4.908 127.955l-.83-.173M4.831 128.651l-.85-.02M4.869 129.365l-.83.116M5.043 130.041l-.811.27M5.333 130.698l-.753.405M5.719 131.277l-.676.541M6.202 131.798l-.56.638M6.781 132.223l-.444.715M7.399 132.532l-.309.792M8.094 132.725l-.173.831M8.79 132.802l-.02.85M9.504 132.764l.116.849M10.18 132.609l.27.792M10.837 132.32l.405.733M11.416 131.933l.541.657M11.937 131.431l.638.56M12.362 130.871l.715.444M12.671 130.234l.792.309M12.864 129.558l.831.174M12.941 128.844l.85.019M12.903 128.148l.85-.135M12.729 127.453l.811-.27M12.459 126.816l.733-.406M12.053 126.217l.676-.521M11.57 125.715l.56-.637M11.01 125.29l.444-.733M10.373 124.962l.309-.772M9.697 124.769l.155-.83M8.983 124.692l.019-.85M8.288 124.73l-.136-.83M7.592 124.904l-.27-.811M6.936 125.194l-.406-.753M6.356 125.58l-.521-.656M5.835 126.063l-.637-.56M5.429 126.642l-.733-.444"/>
                </g>
                <path stroke="#B8B9C7" stroke-width="2.1" stroke-linecap="round" d="M88.455 146.94v-3.381"/>
                <g opacity=".21" fill="#FFF" fill-rule="nonzero" stroke="#B8B9C7" stroke-linecap="round" stroke-width=".75">
                    <path d="m248.723 123.736-1.799-.702M248.284 125.272l-1.886-.395M248.109 126.851l-1.931-.044M248.197 128.474l-1.887.264M248.591 130.01l-1.842.614M249.249 131.502l-1.711.921M250.127 132.818l-1.536 1.228M251.224 134.002l-1.273 1.448M252.54 134.968l-1.009 1.623M253.944 135.67l-.702 1.798M255.523 136.108l-.395 1.887M257.103 136.284l-.044 1.93M258.726 136.196l.263 1.93M260.262 135.845l.614 1.799M261.753 135.187l.921 1.667M263.069 134.31l1.229 1.491M264.254 133.169l1.448 1.272M265.219 131.897l1.623 1.009M265.921 130.449l1.799.702M266.36 128.913l1.886.395M266.535 127.29l1.931.044M266.447 125.71l1.931-.307M266.053 124.131l1.842-.614M265.438 122.683l1.668-.921M264.517 121.323l1.536-1.184M263.42 120.183l1.273-1.448M262.148 119.217l1.009-1.667M260.7 118.472l.702-1.755M259.165 118.033l.351-1.887M257.541 117.857l.044-1.93M255.962 117.945l-.307-1.886M254.383 118.34l-.615-1.843M252.891 118.998l-.921-1.711M251.575 119.876l-1.185-1.492M250.39 120.972l-1.448-1.272M249.469 122.289l-1.667-1.01"/>
                </g>
            </g>
            <path d="M892.5 175.3H790.835c-1.435 0-2.811.57-3.826 1.584l-10.464 10.465a5.41 5.41 0 0 1-3.826 1.585h-65.684a5.41 5.41 0 0 1-3.826-1.585l-11.3-11.3a5.41 5.41 0 0 0-3.826-1.585h-11.8a5.41 5.41 0 0 0-5.41 5.411v26.376a20 20 0 0 1-5.858 14.142l-22.869 22.869a20 20 0 0 1-14.142 5.858H481.991" stroke="#B8B9C7"/>
            <circle stroke="#B8B9C7" stroke-width="2.1" fill="#FFF" fill-rule="nonzero" stroke-linecap="round" cx="916.539" cy="188.758" r="7.538"/>
            <path stroke="#B8B9C7" stroke-width="3" stroke-linecap="round" d="M818.9 111.015h15.851"/>
            <path stroke="#B8B9C7" stroke-width="5.6" stroke-linecap="round" d="M530.751 248.954h-34.584"/>
            <path d="M894.635 169.4a5.8 5.8 0 1 1-5.8 5.8 5.809 5.809 0 0 1 5.8-5.8m0-3a8.8 8.8 0 1 0 0 17.6 8.8 8.8 0 0 0 0-17.6z" fill="#B8B9C7" fill-rule="nonzero"/>
            <path d="m970.492 135.7-20.7-20.7a9 9 0 0 0-6.364-2.636h-28.15" stroke="#B8B9C7" stroke-width="3" stroke-linecap="round"/>
            <path d="M10.426 175.3H112.6c1.435 0 2.811.57 3.826 1.584l10.465 10.465a5.41 5.41 0 0 0 3.826 1.585H196.4a5.41 5.41 0 0 0 3.826-1.585l11.3-11.3a5.41 5.41 0 0 1 3.826-1.585h11.8a5.411 5.411 0 0 1 5.411 5.411v26.376a20 20 0 0 0 5.858 14.142l22.868 22.869a20 20 0 0 0 14.143 5.858H431.1" stroke="#B8B9C7"/>
            <path d="M8.8 169.4a5.8 5.8 0 1 1-5.8 5.8 5.809 5.809 0 0 1 5.8-5.8m0-3a8.8 8.8 0 1 0 0 17.6 8.8 8.8 0 0 0 0-17.6z" fill="#B8B9C7" fill-rule="nonzero"/>
            <path stroke="#B8B9C7" stroke-width="5.6" stroke-linecap="round" d="M400.523 248.954h-34.584"/>
            <g stroke="#B8B9C7" stroke-linecap="round" stroke-width=".5">
                <path d="m912.754 187.29-.792-.309M912.561 187.966l-.83-.174M912.484 188.661l-.85-.019M912.523 189.376l-.831.116M912.696 190.052l-.811.27M912.986 190.708l-.753.406M913.372 191.288l-.676.54M913.855 191.809l-.56.637M914.434 192.234l-.444.714M915.052 192.543l-.309.792M915.747 192.736l-.173.83M916.443 192.813l-.02.85M917.157 192.775l.116.849M917.833 192.62l.27.792M918.49 192.331l.405.733M919.069 191.944l.541.657M919.59 191.442l.638.56M920.015 190.882l.715.444M920.324 190.245l.792.309M920.517 189.569l.831.174M920.595 188.855l.849.019M920.556 188.159l.85-.135M920.382 187.464l.811-.27M920.112 186.827l.734-.406M919.706 186.228l.676-.521M919.223 185.726l.56-.637M918.663 185.301l.445-.733M918.026 184.973l.309-.772M917.35 184.78l.155-.83M916.636 184.703l.019-.85M915.941 184.741l-.136-.83M915.245 184.915l-.27-.811M914.589 185.205l-.406-.753M914.009 185.591l-.521-.657M913.488 186.074l-.637-.56M913.083 186.653l-.734-.444"/>
            </g>
            <path stroke="#B8B9C7" stroke-width="5.6" stroke-linecap="round" d="m1074.545 239.456-24.455-24.455"/>
            <g fill="#B8B9C7" fill-rule="nonzero">
                <path d="m1036.659 206.915 6.28-6.281a1.863 1.863 0 0 0 0-2.641l-18.117-18.117-2.447 2.447 3.885 3.885-4.015 4.015-3.885-3.885-2.447 2.447 18.117 18.115a1.838 1.838 0 0 0 2.629.015zM1008.692 181.59l3.38-3.38 3.962 3.963 2.176-2.173-3.963-3.962 3.38-3.38-17.027-17.032a1.863 1.863 0 0 0-2.642 0l-6.293 6.293a1.865 1.865 0 0 0 0 2.642l17.029 17.029h-.002z"/>
            </g>
            <g fill="#B8B9C7" fill-rule="nonzero">
                <path d="M652.378 4a4.8 4.8 0 1 1-4.8 4.8 4.807 4.807 0 0 1 4.8-4.8m0-4a8.8 8.8 0 1 0 0 17.6 8.8 8.8 0 0 0 0-17.6z"/>
                <path d="M652.241 4.122a4.873 4.873 0 1 1 0 9.746 4.873 4.873 0 0 1 0-9.746m0-4a8.873 8.873 0 1 0-.002 17.746 8.873 8.873 0 0 0 .002-17.746z"/>
            </g>
            <path d="M8.8 173.524a1.678 1.678 0 1 1 .006 3.356 1.678 1.678 0 0 1-.006-3.356m0-.867a2.545 2.545 0 1 0 0 5.09 2.545 2.545 0 0 0 0-5.09zM894.62 173.586a1.678 1.678 0 1 1 .002 3.356 1.678 1.678 0 0 1-.002-3.356m0-.867a2.545 2.545 0 1 0 0 5.09 2.545 2.545 0 0 0 0-5.09z" fill="#B8B9C7" fill-rule="nonzero"/>
            <g fill="#B8B9C7" fill-rule="nonzero">
                <path d="M481.678 253.268v-8.882a1.864 1.864 0 0 0-1.868-1.868h-25.621v3.461h5.494v5.677h-5.494v3.462h25.621a1.838 1.838 0 0 0 1.868-1.85zM442.852 255.136v-4.78h5.6v-3.077h-5.6V242.5h-24.083a1.864 1.864 0 0 0-1.868 1.868v8.9a1.864 1.864 0 0 0 1.868 1.868h24.083z"/>
            </g>
        </g>
        <g transform="translate(426 31)">
            <rect fill="#FFF" x="27.713" y="10" width="345" height="420" rx="18"/>
            <g opacity=".433">
                <use fill="#000" filter="url(#b)" xlink:href="#c"/>
                <path stroke="#D4DCE8" d="M358.713.5a26.417 26.417 0 0 1 18.738 7.762A26.417 26.417 0 0 1 385.213 27l-.001 269.99 13.483 9.012a8.5 8.5 0 0 1 3.777 7.067v68.945a8.5 8.5 0 0 1-3.777 7.067l-13.483 9.01.001 13.909a26.417 26.417 0 0 1-7.762 18.738 26.417 26.417 0 0 1-18.738 7.762h-46.707l-.025 2.455a14.612 14.612 0 0 1-4.346 10.265 14.612 14.612 0 0 1-10.31 4.24h-191.6c-4.019 0-7.662-1.618-10.31-4.24a14.612 14.612 0 0 1-4.346-10.265l-.026-2.455h-47.33a26.417 26.417 0 0 1-18.738-7.762A26.417 26.417 0 0 1 17.213 412l-.001-14.274-12.935-8.645A8.5 8.5 0 0 1 .5 382.014v-68.945a8.5 8.5 0 0 1 3.777-7.067l12.935-8.646L17.213 27a26.417 26.417 0 0 1 7.762-18.738A26.417 26.417 0 0 1 43.713.5z" stroke-linejoin="square" fill="#FCFCFF"/>
            </g>
            <use fill="#000" filter="url(#d)" xlink:href="#e"/>
            <use stroke="#B8B9C7" stroke-width="1.6" fill="url(#f)" xlink:href="#e"/>
        </g>
        <g transform="translate(552.713 436)">
            <mask id="h" fill="#fff">
                <use xlink:href="#g"/>
            </mask>
            <path d="M16.849 0C7.544 0 0 7.544 0 16.849s7.544 16.849 16.849 16.849h113.212c9.305 0 16.849-7.544 16.849-16.849S139.366 0 130.061 0H16.849z" mask="url(#h)"/>
        </g>
        <g transform="translate(426 31)">
            <use fill="url(#i)" xlink:href="#j"/>
            <use fill="#000" filter="url(#k)" xlink:href="#j"/>
        </g>
        <g transform="rotate(-180 306.713 439.983)">
            <use fill="url(#i)" xlink:href="#l"/>
            <use fill="#000" filter="url(#m)" xlink:href="#l"/>
        </g>
        <path d="M445.273 366.717v11.998a13 13 0 0 0 2.21 7.25l5.316 7.912a13 13 0 0 1 2.209 7.25v35.566c0 10.494 8.506 19 19 19h51.705" stroke="#898994"/>
        <g transform="translate(439.212 355.009)" fill-rule="nonzero">
            <circle stroke="url(#n)" stroke-width=".5" fill="url(#o)" cx="6.212" cy="6.212" r="6.212"/>
            <circle fill="#1D1B1B" cx="6.212" cy="6.212" r="5.958"/>
            <circle fill="url(#p)" cx="6.206" cy="6.212" r="5.3"/>
        </g>
        <g opacity=".21" stroke="#1D1B1B" stroke-linecap="round" stroke-width="5">
            <path d="m443.555 356.445.323.825M444.414 356.197l.173.865M445.318 356.093l.052.888M446.191 356.151l-.133.876M447.062 356.358l-.283.842M447.881 356.722l-.427.778M448.625 357.212l-.554.692M449.271 357.83l-.67.587M449.801 358.55l-.76.461M450.2 359.352l-.83.323M450.447 360.205l-.865.18M450.551 361.115l-.888.052M450.493 361.987l-.876-.132M450.286 362.853l-.842-.283M449.922 363.672l-.773-.422M449.432 364.416l-.698-.554M448.815 365.067l-.588-.669M448.094 365.598l-.46-.76M447.292 365.99l-.323-.825M446.44 366.244l-.18-.87M445.601 366.342l-.052-.883M444.656 366.29l.133-.877M443.786 366.077l.282-.837M442.972 365.72l.421-.78M442.228 365.223l.548-.692M441.577 364.612l.67-.589M441.046 363.891l.761-.462M440.648 363.09l.831-.324M440.4 362.235l.865-.178M440.302 361.388l.882-.039M440.354 360.453l.877.133M440.567 359.582l.837.283M440.925 358.763l.78.427M441.415 358.02l.698.553M442.032 357.373l.59.664M442.753 356.843l.462.755"/>
        </g>
        <g transform="rotate(-180 306.713 439.983)">
            <use fill="#D8D8D8" xlink:href="#q"/>
            <use fill="#000" filter="url(#r)" xlink:href="#q"/>
        </g>
        <path d="M808.713 366.717v11.998a13 13 0 0 1-2.21 7.25l-5.315 7.912a13 13 0 0 0-2.21 7.25v35.566c0 10.494-8.506 19-19 19h-51.705" stroke="#898994"/>
        <g transform="matrix(1 0 0 -1 426 879.966)">
            <use fill="#D8D8D8" xlink:href="#s"/>
            <use fill="#000" filter="url(#t)" xlink:href="#s"/>
        </g>
        <g opacity=".393" transform="translate(426 31)">
            <use fill="url(#u)" xlink:href="#v"/>
            <use fill="#000" filter="url(#w)" xlink:href="#v"/>
        </g>
        <g transform="translate(802.46 355.022)" fill-rule="nonzero">
            <circle stroke="url(#n)" stroke-width=".5" fill="url(#o)" cx="6.212" cy="6.212" r="6.212"/>
            <circle fill="#1D1B1B" cx="6.212" cy="6.212" r="5.958"/>
            <circle fill="url(#p)" cx="6.206" cy="6.212" r="5.3"/>
        </g>
        <g opacity=".21" stroke="#1D1B1B" stroke-linecap="round" stroke-width="5">
            <path d="m806.802 356.458.323.825M807.661 356.21l.173.865M808.565 356.106l.052.888M809.438 356.164l-.133.876M810.31 356.37l-.284.843M811.128 356.735l-.427.778M811.872 357.225l-.554.692M812.518 357.842l-.67.588M813.048 358.563l-.76.46M813.446 359.365l-.83.323M813.694 360.218l-.865.179M813.798 361.128l-.888.052M813.74 362l-.876-.132M813.533 362.866l-.842-.283M813.17 363.685l-.774-.422M812.68 364.429l-.699-.554M812.062 365.08l-.588-.67M811.341 365.61l-.46-.76M810.54 366.003l-.324-.825M809.686 366.257l-.179-.871M808.848 366.355l-.052-.883M807.903 366.303l.133-.877M807.033 366.09l.282-.837M806.22 365.732l.42-.78M805.475 365.236l.548-.692M804.824 364.625l.67-.59M804.293 363.904l.761-.462M803.895 363.102l.831-.323M803.647 362.248l.865-.178M803.55 361.4l.881-.038M803.601 360.466l.877.133M803.814 359.595l.837.283M804.172 358.776l.78.427M804.662 358.032l.698.554M805.28 357.386l.588.664M806 356.856l.462.755"/>
        </g>
    </g>
</svg>
