<svg xmlns:xlink="http://www.w3.org/1999/xlink" width="1256" height="533" viewBox="0 0 1256 533"
     xmlns="http://www.w3.org/2000/svg">
    <defs>
        <filter x="-1.5%" y="-1.3%" width="103%" height="102.6%" filterUnits="objectBoundingBox" id="b">
            <feOffset in="SourceAlpha" result="shadowOffsetOuter1"/>
            <feGaussianBlur stdDeviation="2" in="shadowOffsetOuter1" result="shadowBlurOuter1"/>
            <feComposite in="shadowBlurOuter1" in2="SourceAlpha" operator="out" result="shadowBlurOuter1"/>
            <feColorMatrix values="0 0 0 0 0 0 0 0 0 0 0 0 0 0 0 0 0 0 0.238750751 0" in="shadowBlurOuter1"/>
        </filter>
        <filter x="-2.1%" y="-1.9%" width="104.3%" height="103.8%" filterUnits="objectBoundingBox" id="d">
            <feMorphology radius="1.3" operator="dilate" in="SourceAlpha" result="shadowSpreadOuter1"/>
            <feOffset in="shadowSpreadOuter1" result="shadowOffsetOuter1"/>
            <feGaussianBlur stdDeviation="2" in="shadowOffsetOuter1" result="shadowBlurOuter1"/>
            <feComposite in="shadowBlurOuter1" in2="SourceAlpha" operator="out" result="shadowBlurOuter1"/>
            <feColorMatrix values="0 0 0 0 0 0 0 0 0 0 0 0 0 0 0 0 0 0 0.16 0" in="shadowBlurOuter1"/>
        </filter>
        <filter x="-7.1%" y="-21.5%" width="114.3%" height="143.1%" filterUnits="objectBoundingBox" id="k">
            <feGaussianBlur stdDeviation="1.5" in="SourceAlpha" result="shadowBlurInner1"/>
            <feOffset in="shadowBlurInner1" result="shadowOffsetInner1"/>
            <feComposite in="shadowOffsetInner1" in2="SourceAlpha" operator="arithmetic" k2="-1" k3="1"
                         result="shadowInnerInner1"/>
            <feColorMatrix values="0 0 0 0 0.149019608 0 0 0 0 0.141176471 0 0 0 0 0.149019608 0 0 0 1 0"
                           in="shadowInnerInner1"/>
        </filter>
        <filter x="-7.1%" y="-21.5%" width="114.3%" height="143.1%" filterUnits="objectBoundingBox" id="m">
            <feGaussianBlur stdDeviation="1.5" in="SourceAlpha" result="shadowBlurInner1"/>
            <feOffset in="shadowBlurInner1" result="shadowOffsetInner1"/>
            <feComposite in="shadowOffsetInner1" in2="SourceAlpha" operator="arithmetic" k2="-1" k3="1"
                         result="shadowInnerInner1"/>
            <feColorMatrix values="0 0 0 0 0.149019608 0 0 0 0 0.141176471 0 0 0 0 0.149019608 0 0 0 1 0"
                           in="shadowInnerInner1"/>
        </filter>
        <filter x="-7.1%" y="-21.5%" width="114.3%" height="143.1%" filterUnits="objectBoundingBox" id="r">
            <feGaussianBlur stdDeviation="1.5" in="SourceAlpha" result="shadowBlurInner1"/>
            <feOffset in="shadowBlurInner1" result="shadowOffsetInner1"/>
            <feComposite in="shadowOffsetInner1" in2="SourceAlpha" operator="arithmetic" k2="-1" k3="1"
                         result="shadowInnerInner1"/>
            <feColorMatrix values="0 0 0 0 0.149019608 0 0 0 0 0.141176471 0 0 0 0 0.149019608 0 0 0 1 0"
                           in="shadowInnerInner1"/>
        </filter>
        <filter x="-7.1%" y="-21.5%" width="114.3%" height="143.1%" filterUnits="objectBoundingBox" id="t">
            <feGaussianBlur stdDeviation="1.5" in="SourceAlpha" result="shadowBlurInner1"/>
            <feOffset in="shadowBlurInner1" result="shadowOffsetInner1"/>
            <feComposite in="shadowOffsetInner1" in2="SourceAlpha" operator="arithmetic" k2="-1" k3="1"
                         result="shadowInnerInner1"/>
            <feColorMatrix values="0 0 0 0 0.149019608 0 0 0 0 0.141176471 0 0 0 0 0.149019608 0 0 0 1 0"
                           in="shadowInnerInner1"/>
        </filter>
        <filter x="-.8%" y="-4.4%" width="101.6%" height="108.8%" filterUnits="objectBoundingBox" id="w">
            <feGaussianBlur stdDeviation="1.5" in="SourceAlpha" result="shadowBlurInner1"/>
            <feOffset in="shadowBlurInner1" result="shadowOffsetInner1"/>
            <feComposite in="shadowOffsetInner1" in2="SourceAlpha" operator="arithmetic" k2="-1" k3="1"
                         result="shadowInnerInner1"/>
            <feColorMatrix values="0 0 0 0 0.149019608 0 0 0 0 0.141176471 0 0 0 0 0.149019608 0 0 0 1 0"
                           in="shadowInnerInner1"/>
        </filter>
        <path d="M358.711 0c14.912 0 27 12.088 27 27v269.71l13.26 8.86a9 9 0 0 1 4 7.484v68.941a9 9 0 0 1-4 7.483l-13.26 8.86v13.64c0 14.912-12.088 27-27 27H312.5l-.02 1.96c-.085 8.31-6.845 15-15.154 15H105.723c-8.31 0-15.069-6.69-15.155-15l-.02-1.96H43.713c-14.912 0-27-12.088-27-27l-.001-14.005-12.713-8.495A9 9 0 0 1 0 381.995v-68.941a9 9 0 0 1 4-7.483l12.712-8.496V27c0-14.912 12.09-27 27-27h315z"
              id="c"/>
        <path d="M355.711 9c12.15 0 22 9.85 22 22v267.473l14.774 9.874a9 9 0 0 1 4 7.483v63.39a9 9 0 0 1-4 7.482l-14.774 9.873v11.404c0 12.15-9.85 22-22 22h-52.929l-.148 4.96c-.217 7.241-6.15 12.999-13.394 12.999H113.808c-7.244 0-13.177-5.758-13.394-13l-.149-4.96-53.552.001c-12.15 0-22-9.85-22-22l-.001-11.77-14.227-9.507a9 9 0 0 1-3.999-7.483v-63.39a9 9 0 0 1 4-7.482l14.226-9.508V30.999c0-12.15 9.85-22 22-22h309zm-226.806 9.106H47.208c-7.077 0-12.833 5.655-12.996 12.693l-.004.307v374.752c0 7.078 5.655 12.834 12.693 12.997l.307.003h52.687l.207-6.878c.217-7.242 6.15-13 13.395-13h175.43c7.246 0 13.178 5.758 13.395 13l.206 6.878h52.727c7.077 0 12.834-5.655 12.997-12.693l.003-.307V31.106c0-7.18-5.82-13-13-13H274.52l-7.66 13.367a9 9 0 0 1-7.809 4.525H144.374a9 9 0 0 1-7.808-4.525l-7.661-13.367z"
              id="e"/>
        <path d="M16.849 0C7.544 0 0 7.544 0 16.848c0 9.305 7.544 16.848 16.849 16.848H130.06c9.305 0 16.85-7.543 16.85-16.848C146.91 7.544 139.364 0 130.06 0H16.85z"
              id="g"/>
        <path d="M317.368 420.98c1.018 0 1.844.825 1.844 1.843v3.278a1.844 1.844 0 0 1-1.844 1.844h-15.776v-2.562l-3.38.001v-2.049h3.38v-2.356h15.776z"
              id="j"/>
        <path d="M102.369 420.98c1.018 0 1.844.825 1.844 1.843v3.278a1.844 1.844 0 0 1-1.844 1.844H86.593v-2.562l-3.38.001v-2.049h3.38v-2.356h15.776z"
              id="l"/>
        <path d="M102.369 420.98c1.018 0 1.844.825 1.844 1.843v3.278a1.844 1.844 0 0 1-1.844 1.844H86.593v-2.562l-3.38.001v-2.049h3.38v-2.356h15.776z"
              id="q"/>
        <path d="M317.368 420.98c1.018 0 1.844.825 1.844 1.843v3.278a1.844 1.844 0 0 1-1.844 1.844h-15.776v-2.562l-3.38.001v-2.049h3.38v-2.356h15.776z"
              id="s"/>
        <radialGradient cx="43.178%" cy="-49.77%" fx="43.178%" fy="-49.77%" r="50.2%"
                        gradientTransform="matrix(.99996 0 0 1 0 0)" id="a">
            <stop stop-color="#B6B7C6" offset="0%"/>
            <stop stop-color="#A2A5B3" offset="100%"/>
        </radialGradient>
        <radialGradient cx="68.761%" cy="27.285%" fx="68.761%" fy="27.285%" r="120.889%"
                        gradientTransform="matrix(.90951 .41559 -.41557 .90955 .176 -.261)" id="o">
            <stop stop-color="#FFF" offset="2.843%"/>
            <stop stop-color="#858689" offset="55.18%"/>
            <stop stop-color="#AEAEAF" offset="78.53%"/>
            <stop stop-color="#5F6063" offset="99.89%"/>
        </radialGradient>
        <radialGradient cx="50%" cy="140.554%" fx="50%" fy="140.554%" r="50.067%"
                        gradientTransform="matrix(-.99996 0 0 -1 1 2.811)" id="n">
            <stop stop-color="#B8B9C7" offset="0%"/>
            <stop stop-color="#A5A7B5" offset="100%"/>
        </radialGradient>
        <radialGradient cx="50%" cy="50%" fx="50%" fy="50%" r="50.002%" gradientTransform="matrix(-.99996 0 0 -1 1 1)"
                        id="p">
            <stop stop-color="#FFF" offset="0%"/>
            <stop stop-color="#F7F7F7" offset="15.35%"/>
            <stop stop-color="#B8B9C7" offset="33.17%"/>
            <stop stop-color="#B8B9C7" offset="53.82%"/>
            <stop stop-color="#1D1B1B" offset="99.86%"/>
        </radialGradient>
        <linearGradient x1="50%" y1="0%" x2="50%" y2="100%" id="f">
            <stop stop-color="#373E49" offset="0%"/>
            <stop stop-color="#202328" offset="100%"/>
        </linearGradient>
        <linearGradient x1="50%" y1="0%" x2="50%" y2="100%" id="i">
            <stop stop-color="#373E49" offset="0%"/>
            <stop stop-color="#202328" offset="50.807%"/>
            <stop stop-color="#131519" offset="100%"/>
        </linearGradient>
        <linearGradient x1="50%" y1="0%" x2="50%" y2="100%" id="u">
            <stop stop-color="#373E49" offset="0%"/>
            <stop stop-color="#202328" offset="50.807%"/>
            <stop stop-color="#131519" offset="100%"/>
        </linearGradient>
        <rect id="v" x="109.713" y="405.98" width="182.999" height="33.998" rx="9"/>
    </defs>
    <g fill="none" fill-rule="evenodd">
        <g opacity=".62">
            <path d="M1070.626 74.512a5.8 5.8 0 1 1-5.8 5.8 5.809 5.809 0 0 1 5.8-5.8m0-3a8.8 8.8 0 1 0 0 17.6 8.8 8.8 0 1 0 0-17.6z"
                  fill="#B8B9C7" fill-rule="nonzero"/>
            <g stroke="#B8B9C7" stroke-linecap="round" stroke-width="5.6">
                <path d="M706.743 6.485h-34.584M578.517 6.485h-34.585M27.455 37.443 3 12.99"/>
            </g>
            <path stroke="#B9BAC8" d="m338.241 67.156 7.094-7.094"/>
            <path d="m102.13 111.816 20.7 20.699a9 9 0 0 0 6.364 2.635h28.15" stroke="#B8B9C7" stroke-width="3"
                  stroke-linecap="round"/>
            <path d="M184.8 74.512a5.8 5.8 0 1 1-5.8 5.8 5.809 5.809 0 0 1 5.8-5.8m0-3a8.8 8.8 0 1 0 0 17.6 8.8 8.8 0 1 0 0-17.6z"
                  fill="#B8B9C7" fill-rule="nonzero"/>
            <g transform="translate(3.924 13.785)">
                <path stroke="#B8B9C7" d="M364.472 83.23h-19.331"/>
                <path stroke="#B8B9C7" stroke-width="2.1" stroke-linecap="round" d="m290.586 95.056 9.698 9.656"/>
                <circle stroke="#B8B9C7" stroke-width="2.1" fill="#FFF" fill-rule="nonzero" stroke-linecap="round"
                        cx="288.287" cy="92.757" r="3.341"/>
                <path stroke="#B8B9C7"
                      d="M322.288 74.19v10.033M356.575 187.532l-46.686-46.683a5.406 5.406 0 0 0-3.825-1.585H277.81a5.41 5.41 0 0 1-3.826-1.585l-13.371-13.371a5.413 5.413 0 0 0-3.826-1.584h-27.53a5.41 5.41 0 0 0-3.826 9.236l28.086 28.083a5.406 5.406 0 0 0 3.825 1.585h27.492a5.41 5.41 0 0 1 3.826 1.585l59.548 59.545a5.41 5.41 0 0 0 3.826 1.585h56.113"/>
                <path stroke="#B8B9C7" stroke-width="2.1" stroke-linecap="round"
                      d="M388.749 224.344h19.509M276.905 161.63h7.929a5.41 5.41 0 0 1 3.826 1.584l23.3 23.299M356.036 186.993l-9.755-9.754"/>
                <path d="m62.323 62.32 56.42 56.416a9 9 0 0 0 6.364 2.637h56.628c1.435 0 2.811-.57 3.826-1.585l34.114-34.11a5.41 5.41 0 0 1 3.826-1.585h36.941a5.41 5.41 0 0 1 3.826 1.585l32.5 32.498a5.41 5.41 0 0 0 3.826 1.585h19.68c1.436 0 2.812.57 3.827 1.584l36.82 36.82 23.682 23.68M0 0l38.796 38.794M331.426 73.79h-20.07a5.41 5.41 0 0 0-3.825 1.584l-7.134 7.136a5.414 5.414 0 0 1-3.826 1.584H261.3"
                      stroke="#B8B9C7"/>
                <path d="M392.704 96.41h-32.277c-1.435 0-2.811-.57-3.826-1.585L337.16 75.38a5.41 5.41 0 0 0-3.826-1.585H314.12M381.025 111.823l-15.36-15.361M307.787 119.877l13.6-13.6a5.41 5.41 0 0 1 3.826-1.584h13.813a5.41 5.41 0 0 1 3.826 1.585l34.573 34.572"
                      stroke="#B8B9C7"/>
                <path stroke="#B8B9C7" stroke-width="2.1" stroke-linecap="round" d="m377.429 140.846-7.131-7.131"/>
                <path d="m278.445 121.608-17.4-17.4a5.41 5.41 0 0 0-3.826-1.584h-54.027" stroke="#B8B9C7"/>
                <ellipse stroke="#B8B9C7" stroke-width="2.1" fill="#FFF" fill-rule="nonzero" stroke-linecap="round"
                         cx="153.422" cy="97.779" rx="13.69" ry="13.689"/>
                <path d="M281.966 122.529a2.4 2.4 0 1 1-2.4 2.405 2.408 2.408 0 0 1 2.4-2.405m0-3a5.4 5.4 0 1 0 0 10.8 5.4 5.4 0 0 0 0-10.8z"
                      fill="#B8B9C7" fill-rule="nonzero"/>
                <circle stroke="#B8B9C7" stroke-width="2.1" fill="#FFF" fill-rule="nonzero" stroke-linecap="round"
                        cx="401.94" cy="96.271" r="8.803"/>
                <circle stroke="#B8B9C7" stroke-width="2.1" fill="#FFF" fill-rule="nonzero" stroke-linecap="round"
                        cx="385.48" cy="115.729" r="5.404"/>
                <circle stroke="#B8B9C7" stroke-width="2.1" fill="#FFF" fill-rule="nonzero" stroke-linecap="round"
                        cx="381.3" cy="144.428" r="5.404"/>
                <circle stroke="#B8B9C7" stroke-width="2.1" fill="#FFF" fill-rule="nonzero" stroke-linecap="round"
                        cx="304.042" cy="108.621" r="5.404"/>
                <g fill-rule="nonzero">
                    <path d="M360 194.944a4.355 4.355 0 1 1-.002-8.71 4.355 4.355 0 0 1 .003 8.71z" fill="#F9F9F9"/>
                    <path d="M360 187.286a3.3 3.3 0 1 1-3.3 3.305 3.309 3.309 0 0 1 3.3-3.305m0-2.1a5.4 5.4 0 1 0 0 10.8 5.4 5.4 0 0 0 0-10.8z"
                          fill="#B8B9C7"/>
                </g>
                <circle stroke="#B8B9C7" stroke-width="2.1" fill="#FFF" fill-rule="nonzero" stroke-linecap="round"
                        cx="370.122" cy="83.145" r="5.404"/>
                <g fill-rule="nonzero">
                    <path d="M388.631 193.77a7.753 7.753 0 1 1 7.753-7.753 7.762 7.762 0 0 1-7.753 7.753z" fill="#FFF"/>
                    <path d="M388.631 179.315a6.7 6.7 0 1 1-6.7 6.7 6.71 6.71 0 0 1 6.7-6.7m0-2.1a8.8 8.8 0 1 0 0 17.6 8.8 8.8 0 1 0 0-17.6z"
                          fill="#B8B9C7"/>
                </g>
                <g stroke="#B8B9C7" stroke-linecap="round" stroke-width=".5">
                    <path d="m392.445 187.547.792.309M392.638 186.87l.831.175M392.716 186.176l.85.02M392.677 185.462l.83-.116M392.503 184.786l.811-.271M392.214 184.129l.753-.405M391.827 183.55l.676-.541M391.345 183.029l.56-.638M390.765 182.604l.444-.715M390.147 182.295l.31-.792M389.452 182.102l.174-.831M388.757 182.024l.02-.85M388.042 182.063l-.115-.85M387.367 182.217l-.27-.791M386.71 182.507l-.406-.734M386.131 182.893l-.54-.656M385.61 183.395l-.638-.56M385.184 183.955l-.714-.444M384.875 184.593l-.79-.31M384.682 185.269l-.83-.174M384.605 185.983l-.85-.02M384.644 186.678l-.85.136M384.818 187.374l-.812.27M385.088 188.01l-.734.406M385.493 188.609l-.675.522M385.976 189.112l-.56.637M386.536 189.536l-.444.734M387.173 189.865l-.308.772M387.85 190.058l-.155.83M388.564 190.135l-.019.85M389.26 190.096l.134.83M389.954 189.923l.271.81M390.611 189.633l.405.753M391.19 189.247l.522.656M391.712 188.764l.637.56M392.117 188.185l.734.444"/>
                </g>
                <path stroke="#B8B9C7" stroke-width="2.1" stroke-linecap="round"
                      d="m357.873 155.117 25.161 25.162M278.445 121.603l-5.214-5.214M364.472 83.23h-11.969M392.626 96.309h-11.969M381.064 111.737l-8.463-8.464"/>
                <g stroke="#B8B9C7" stroke-linecap="round" stroke-width=".5">
                    <path d="m405.642 97.57.79.31M405.835 96.895l.83.174M405.912 96.2l.85.019M405.873 95.486l.83-.116M405.699 94.81l.812-.271M405.41 94.153l.753-.405M405.024 93.574l.675-.541M404.54 93.052l.56-.637M403.96 92.627l.446-.714M403.344 92.318l.308-.791M402.648 92.125l.174-.83M401.953 92.048l.019-.85M401.239 92.087l-.116-.85M400.563 92.24l-.271-.791M399.906 92.53l-.405-.733M399.327 92.917l-.541-.656M398.805 93.419l-.637-.56M398.38 93.979l-.714-.444M398.072 94.617l-.792-.31M397.879 95.292l-.831-.173M397.8 96.007l-.848-.02M397.84 96.702l-.85.135M398.014 97.397l-.811.27M398.284 98.035l-.734.405M398.69 98.633l-.676.522M399.172 99.135l-.56.637M399.732 99.56l-.444.734M400.37 99.888l-.31.773M401.045 100.08l-.154.832M401.76 100.159l-.02.849M402.455 100.12l.135.83M403.15 99.946l.27.81M403.807 99.657l.406.753M404.386 99.27l.522.657M404.908 98.788l.637.56M405.313 98.208l.734.444"/>
                </g>
                <path stroke="#B8B9C7" stroke-width="2.1" stroke-linecap="round" d="M322.288 77.911v3.38"/>
                <g opacity=".21" fill="#FFF" fill-rule="nonzero" stroke="#B8B9C7" stroke-linecap="round"
                   stroke-width=".75">
                    <path d="m162.021 101.113 1.8.702M162.46 99.578l1.886.395M162.635 97.998l1.93.044M162.547 96.376l1.887-.263M162.152 94.84l1.843-.614M161.494 93.349l1.711-.921M160.617 92.033l1.535-1.23M159.52 90.848l1.272-1.448M158.204 89.883l1.01-1.623M156.8 89.18l.702-1.798M155.22 88.742l.395-1.886M153.641 88.567l.044-1.931M152.018 88.655l-.263-1.931M150.482 89.005l-.614-1.798M148.991 89.664l-.922-1.668M147.674 90.54l-1.228-1.491M146.49 91.682l-1.448-1.273M145.525 92.954l-1.624-1.01M144.823 94.402l-1.799-.702M144.384 95.937l-1.887-.395M144.208 97.56l-1.93-.044M144.296 99.139l-1.93.307M144.691 100.719l-1.843.614M145.305 102.166l-1.667.922M146.227 103.526l-1.536 1.185M147.323 104.667l-1.272 1.448M148.596 105.632l-1.009 1.667M150.043 106.378l-.7 1.755M151.58 106.817l-.352 1.886M153.202 106.992l-.044 1.93M154.782 106.905l.307 1.886M156.361 106.51l.614 1.842M157.853 105.85l.921 1.713M159.17 104.974l1.184 1.492M160.354 103.877l1.447 1.273M161.275 102.56l1.667 1.01"/>
                </g>
                <g transform="translate(315.074 78.37)">
                    <circle stroke="#B6B7C6" stroke-width=".805" cx="7.37" cy="7.37" r="7.37"/>
                    <circle stroke="url(#a)" stroke-width=".078" cx="7.37" cy="7.37" r="6.907"/>
                    <circle fill="#FFF" fill-rule="nonzero" cx="7.37" cy="7.37" r="6.625"/>
                </g>
                <g opacity=".21" stroke="#1D1B1B" stroke-linecap="round" stroke-width=".403">
                    <path d="m323.975 81.794.322-.826M323.27 81.592l.18-.865M322.545 81.512l.02-.886M321.8 81.552l-.121-.866M321.095 81.733l-.282-.845M320.41 82.035l-.422-.785M319.807 82.438l-.564-.705M319.263 82.941l-.665-.583M318.82 83.546l-.745-.464M318.498 84.19l-.826-.322M318.296 84.915l-.865-.18M318.216 85.64l-.886-.02M318.256 86.385l-.886.12M318.417 87.09l-.825.281M318.719 87.774l-.765.423M319.122 88.378l-.685.564M319.646 88.922l-.584.664M320.229 89.365l-.463.745M320.894 89.687l-.322.825M321.599 89.888l-.182.866M322.344 89.97l-.02.884M323.069 89.93l.14.884M323.794 89.747l.28.846M324.458 89.465l.423.766M325.082 89.043l.544.704M325.606 88.54l.664.583M326.049 87.955l.765.463M326.39 87.291l.806.322M326.592 86.586l.866.161M326.673 85.841l.886.02M326.633 85.116l.865-.14M326.45 84.391l.847-.282M326.149 83.707l.786-.423M325.747 83.103l.684-.544M325.243 82.56l.584-.666M324.639 82.136l.463-.765"/>
                </g>
            </g>
            <g fill="#B8B9C7" fill-rule="nonzero">
                <path d="m37.543 41.154-6.281 6.28a1.865 1.865 0 0 0 0 2.643l18.117 18.12 2.447-2.448-3.885-3.885 4.015-4.014 3.885 3.885 2.447-2.448-18.117-18.12a1.836 1.836 0 0 0-2.628-.013zM65.509 66.478l-3.38 3.38-3.962-3.961-2.176 2.175 3.963 3.962-3.38 3.38L73.6 92.441a1.865 1.865 0 0 0 2.642 0l6.293-6.293a1.863 1.863 0 0 0 0-2.642L65.509 66.478z"/>
            </g>
            <g fill="#B8B9C7" fill-rule="nonzero">
                <path d="M295.435 190.985a1.27 1.27 0 0 0-.9.373l-3.851 3.85a1.273 1.273 0 0 0 0 1.8l3.79 3.791a1.276 1.276 0 0 0 1.8 0l3.85-3.85a1.275 1.275 0 0 0 0-1.8l-3.79-3.791a1.27 1.27 0 0 0-.9-.373zM303.049 199.235c.17 0 .331.067.45.187l3.792 3.791c.247.25.247.65 0 .9l-3.851 3.85a.636.636 0 0 1-.901 0l-3.791-3.79a.637.637 0 0 1 0-.9l3.85-3.85a.633.633 0 0 1 .45-.188m0-.637c-.337 0-.66.135-.9.373l-3.85 3.851a1.277 1.277 0 0 0 0 1.8l3.79 3.79a1.275 1.275 0 0 0 1.8 0l3.852-3.851a1.273 1.273 0 0 0 0-1.8l-3.79-3.79a1.274 1.274 0 0 0-.9-.374l-.001.001zM310.664 206.213a1.27 1.27 0 0 0-.9.373l-3.851 3.85a1.273 1.273 0 0 0 0 1.8l3.79 3.791a1.276 1.276 0 0 0 1.8 0l3.85-3.85a1.275 1.275 0 0 0 0-1.8l-3.79-3.791a1.27 1.27 0 0 0-.9-.373zM318.278 213.827c-.338 0-.662.134-.9.373l-3.851 3.85a1.275 1.275 0 0 0 0 1.8l3.79 3.791a1.275 1.275 0 0 0 1.8 0l3.852-3.85a1.273 1.273 0 0 0 0-1.8l-3.791-3.791a1.272 1.272 0 0 0-.9-.373zM325.893 222.078c.169 0 .33.067.45.186l3.79 3.791a.636.636 0 0 1 0 .9l-3.85 3.85a.636.636 0 0 1-.9 0l-3.791-3.79a.639.639 0 0 1 0-.9l3.85-3.85a.633.633 0 0 1 .452-.187m0-.637c-.338 0-.662.134-.9.373l-3.851 3.851a1.273 1.273 0 0 0 0 1.8l3.79 3.79a1.276 1.276 0 0 0 1.8 0l3.85-3.85a1.277 1.277 0 0 0 0-1.8l-3.79-3.79a1.27 1.27 0 0 0-.9-.373z"/>
            </g>
            <path d="M347.733 54.047a3.4 3.4 0 1 1 0 6.8 3.4 3.4 0 0 1 0-6.8m0-1a4.4 4.4 0 1 0 .002 8.8 4.4 4.4 0 0 0-.002-8.8z"
                  fill="#B9BAC8" fill-rule="nonzero"/>
            <path d="M187.067 80.22H288.6a5.41 5.41 0 0 0 3.826-1.585l10.464-10.464a5.415 5.415 0 0 1 3.826-1.585h65.684c1.434 0 2.81.57 3.826 1.585l11.3 11.3a5.41 5.41 0 0 0 3.825 1.584h11.8a5.41 5.41 0 0 0 5.411-5.41v-26.38c0-5.303 2.107-10.39 5.857-14.14l22.87-22.869A20 20 0 0 1 451.424 6.4h153.839M1069.003 80.22H966.827a5.41 5.41 0 0 1-3.826-1.585l-10.465-10.464a5.415 5.415 0 0 0-3.826-1.585h-65.684c-1.436 0-2.814.57-3.83 1.585l-11.3 11.3a5.41 5.41 0 0 1-3.825 1.584h-11.8a5.411 5.411 0 0 1-5.411-5.41v-26.38c0-5.303-2.108-10.39-5.858-14.14L818.14 12.255A20.003 20.003 0 0 0 803.997 6.4H648.33"
                  stroke="#B8B9C7"/>
            <g fill="#B8B9C7" fill-rule="nonzero">
                <path d="M657.77 10.768V1.886a1.864 1.864 0 0 0-1.873-1.868H630.28V3.48h5.494v5.677h-5.494v3.46h25.617a1.836 1.836 0 0 0 1.872-1.849zM618.944 12.636v-4.78h5.6V4.78h-5.6V0H594.86a1.864 1.864 0 0 0-1.868 1.868v8.9a1.865 1.865 0 0 0 1.868 1.867l24.083.001z"/>
            </g>
            <g fill="#B8B9C7" fill-rule="nonzero">
                <path d="M420.08 233.915a4.8 4.8 0 1 1-4.8 4.8 4.809 4.809 0 0 1 4.8-4.8m0-4a8.8 8.8 0 1 0 0 17.599 8.8 8.8 0 1 0 0-17.6z"/>
                <path d="M420.217 233.654a4.873 4.873 0 1 1 0 9.746 4.873 4.873 0 0 1 0-9.746m0-4a8.873 8.873 0 1 0-.002 17.746 8.873 8.873 0 0 0 .002-17.746z"/>
            </g>
            <path d="M1070.736 78.615a1.678 1.678 0 1 1 .002 3.356 1.678 1.678 0 0 1-.002-3.356m0-.867a2.545 2.545 0 1 0 0 5.09 2.545 2.545 0 0 0 0-5.09zM184.85 78.574a1.678 1.678 0 1 1 0 3.356 1.678 1.678 0 0 1 0-3.356m0-.868a2.545 2.545 0 1 0 0 5.09 2.545 2.545 0 0 0 0-5.09z"
                  fill="#B8B9C7" fill-rule="nonzero"/>
        </g>
        <g transform="translate(178 276.986)" opacity=".62">
            <g transform="translate(657.788 8.89)">
                <path stroke="#B8B9C7" d="M46.271 141.613h19.331"/>
                <path stroke="#B8B9C7" stroke-width="2.1" stroke-linecap="round" d="m120.157 129.787-9.697-9.655"/>
                <circle stroke="#B8B9C7" stroke-width="2.1" fill="#FFF" fill-rule="nonzero" stroke-linecap="round"
                        cx="122.457" cy="132.087" r="3.341"/>
                <path stroke="#B8B9C7"
                      d="M88.455 150.654v-10.033M54.169 37.307l46.685 46.688a5.414 5.414 0 0 0 3.826 1.584h28.253a5.41 5.41 0 0 1 3.826 1.585l13.371 13.37a5.41 5.41 0 0 0 3.826 1.585h27.53a5.41 5.41 0 0 0 3.825-9.237L157.226 64.8a5.414 5.414 0 0 0-3.826-1.584h-27.492a5.415 5.415 0 0 1-3.825-1.585L62.535 2.084A5.411 5.411 0 0 0 58.709.5H2.596"/>
                <path stroke="#B8B9C7" stroke-width="2.1" stroke-linecap="round"
                      d="M21.994.5H2.485M133.837 63.215h-7.929a5.415 5.415 0 0 1-3.825-1.585l-23.3-23.299M54.708 37.85l9.754 9.755"/>
                <path d="M353.519 167.622 292 106.104a9 9 0 0 0-6.364-2.636h-56.629c-1.435 0-2.81.57-3.825 1.585l-34.112 34.11a5.414 5.414 0 0 1-3.826 1.584h-36.937a5.412 5.412 0 0 1-3.826-1.584l-32.5-32.498a5.41 5.41 0 0 0-3.825-1.585H90.47a5.41 5.41 0 0 1-3.826-1.585L49.822 66.678 26.14 42.997M417.892 231.993l-50.323-50.322M79.317 151.054h20.07a5.41 5.41 0 0 0 3.822-1.585l7.134-7.134a5.41 5.41 0 0 1 3.826-1.585h35.27"
                      stroke="#B8B9C7"/>
                <path d="M18.039 128.439h32.278a5.41 5.41 0 0 1 3.826 1.585l19.44 19.44a5.41 5.41 0 0 0 3.827 1.585h19.214M29.718 113.02l15.361 15.362M102.957 104.967l-13.6 13.6a5.415 5.415 0 0 1-3.826 1.584H71.714a5.415 5.415 0 0 1-3.826-1.585l-34.58-34.57"
                      stroke="#B8B9C7"/>
                <path stroke="#B8B9C7" stroke-width="2.1" stroke-linecap="round" d="m33.313 83.997 7.132 7.132"/>
                <path d="m132.298 103.241 17.4 17.4a5.406 5.406 0 0 0 3.825 1.584h54.026" stroke="#B8B9C7"/>
                <ellipse stroke="#B8B9C7" stroke-width="2.1" fill="#FFF" fill-rule="nonzero" stroke-linecap="round"
                         cx="257.321" cy="127.065" rx="13.69" ry="13.689"/>
                <path d="M128.777 97.504a2.4 2.4 0 1 1-2.4 2.405 2.408 2.408 0 0 1 2.4-2.405m0-3a5.4 5.4 0 1 0 .01 10.8 5.4 5.4 0 0 0-.01-10.8z"
                      fill="#B8B9C7" fill-rule="nonzero"/>
                <circle stroke="#B8B9C7" stroke-width="2.1" fill="#FFF" fill-rule="nonzero" stroke-linecap="round"
                        cx="8.803" cy="128.573" r="8.803"/>
                <circle stroke="#B8B9C7" stroke-width="2.1" fill="#FFF" fill-rule="nonzero" stroke-linecap="round"
                        cx="25.263" cy="109.115" r="5.404"/>
                <circle stroke="#B8B9C7" stroke-width="2.1" fill="#FFF" fill-rule="nonzero" stroke-linecap="round"
                        cx="29.443" cy="80.415" r="5.404"/>
                <circle stroke="#B8B9C7" stroke-width="2.1" fill="#FFF" fill-rule="nonzero" stroke-linecap="round"
                        cx="88.305" cy="137.079" r="3.404"/>
                <circle stroke="#B8B9C7" stroke-width="2.1" fill="#FFF" fill-rule="nonzero" stroke-linecap="round"
                        cx="106.702" cy="116.222" r="5.404"/>
                <g fill-rule="nonzero">
                    <path d="M50.743 38.607a4.355 4.355 0 1 1 0-8.71 4.355 4.355 0 0 1 0 8.71z" fill="#F9F9F9"/>
                    <path d="M50.743 30.95a3.3 3.3 0 1 1-3.3 3.3 3.308 3.308 0 0 1 3.3-3.3m0-2.1a5.4 5.4 0 1 0 0 10.8 5.4 5.4 0 0 0 0-10.8z"
                          fill="#B8B9C7"/>
                </g>
                <circle stroke="#B8B9C7" stroke-width="2.1" fill="#FFF" fill-rule="nonzero" stroke-linecap="round"
                        cx="40.622" cy="141.698" r="5.404"/>
                <g fill-rule="nonzero">
                    <path d="M22.109 46.579a7.753 7.753 0 1 1 7.753-7.752 7.76 7.76 0 0 1-7.753 7.752z" fill="#FFF"/>
                    <path d="M22.109 32.124a6.7 6.7 0 1 1-6.7 6.7 6.71 6.71 0 0 1 6.7-6.7m0-2.1a8.8 8.8 0 1 0 0 17.6 8.8 8.8 0 1 0 0-17.6z"
                          fill="#B8B9C7"/>
                </g>
                <g stroke="#B8B9C7" stroke-linecap="round" stroke-width=".5">
                    <path d="m18.297 37.296-.791-.309M18.104 37.972l-.83-.174M18.027 38.667l-.85-.019M18.066 39.382l-.831.116M18.239 40.058l-.811.27M18.529 40.714l-.753.406M18.915 41.294l-.676.54M19.398 41.815l-.56.637M19.977 42.24l-.444.714M20.595 42.55l-.31.791M21.29 42.742l-.173.83M21.986 42.82l-.02.85M22.7 42.781l.116.85M23.376 42.626l.27.792M24.033 42.336l.405.734M24.612 41.95l.54.657M25.133 41.448l.638.56M25.558 40.888l.715.444M25.867 40.251l.792.31M26.06 39.575l.83.174M26.138 38.86l.849.02M26.099 38.165l.85-.135M25.925 37.47l.81-.27M25.655 36.833l.734-.406M25.249 36.234l.676-.52M24.767 35.732l.56-.637M24.207 35.307l.444-.734M23.569 34.98l.309-.774M22.893 34.786l.155-.83M22.179 34.71l.019-.85M21.484 34.747l-.136-.83M20.788 34.921l-.27-.81M20.132 35.211l-.406-.753M19.553 35.597l-.522-.657M19.03 36.08l-.636-.56M18.626 36.66l-.734-.445"/>
                </g>
                <path stroke="#B8B9C7" stroke-width="2.1" stroke-linecap="round"
                      d="M52.871 69.726 27.708 44.565M132.298 103.241l5.213 5.214M46.271 141.613h11.97M18.116 128.534h11.97M29.679 113.107l8.464 8.464"/>
                <g stroke="#B8B9C7" stroke-linecap="round" stroke-width=".5">
                    <path d="m5.101 127.273-.792-.309M4.908 127.949l-.83-.173M4.831 128.645l-.85-.02M4.869 129.359l-.83.116M5.043 130.035l-.811.27M5.333 130.692l-.753.405M5.719 131.271l-.676.541M6.202 131.792l-.56.638M6.781 132.217l-.444.715M7.399 132.526l-.309.792M8.094 132.719l-.173.831M8.79 132.796l-.02.85M9.504 132.758l.116.849M10.18 132.603l.27.792M10.837 132.314l.405.733M11.416 131.927l.541.657M11.937 131.425l.638.56M12.362 130.865l.715.444M12.671 130.228l.792.309M12.864 129.552l.831.174M12.941 128.838l.85.019M12.903 128.142l.85-.135M12.729 127.447l.811-.27M12.459 126.81l.733-.406M12.053 126.211l.676-.521M11.57 125.709l.56-.637M11.01 125.284l.444-.733M10.373 124.956l.309-.772M9.697 124.763l.155-.83M8.983 124.686l.019-.85M8.288 124.724l-.136-.83M7.592 124.898l-.27-.811M6.936 125.188l-.406-.753M6.356 125.574l-.521-.656M5.835 126.057l-.637-.56M5.429 126.636l-.733-.444"/>
                </g>
                <path stroke="#B8B9C7" stroke-width="2.1" stroke-linecap="round" d="M88.455 146.933v-3.381"/>
                <g opacity=".21" fill="#FFF" fill-rule="nonzero" stroke="#B8B9C7" stroke-linecap="round"
                   stroke-width=".75">
                    <path d="m248.722 123.73-1.799-.702M248.283 125.266l-1.886-.395M248.108 126.844l-1.931-.044M248.196 128.467l-1.887.264M248.59 130.003l-1.842.614M249.248 131.495l-1.711.921M250.126 132.811l-1.536 1.228M251.223 133.995l-1.273 1.448M252.539 134.961l-1.009 1.623M253.943 135.663l-.702 1.798M255.522 136.101l-.395 1.887M257.102 136.277l-.044 1.93M258.725 136.19l.263 1.93M260.261 135.838l.614 1.8M261.752 135.18l.921 1.667M263.068 134.303l1.229 1.491M264.253 133.162l1.448 1.272M265.218 131.89l1.623 1.01M265.92 130.442l1.799.702M266.359 128.906l1.886.395M266.534 127.283l1.931.044M266.446 125.704l1.931-.307M266.052 124.125l1.842-.614M265.437 122.677l1.668-.92M264.516 121.317l1.536-1.184M263.419 120.177l1.273-1.448M262.147 119.211l1.009-1.667M260.699 118.466l.702-1.755M259.164 118.027l.351-1.887M257.54 117.851l.044-1.93M255.961 117.94l-.307-1.887M254.382 118.334l-.615-1.843M252.89 118.992l-.921-1.71M251.574 119.87l-1.185-1.492M250.389 120.966l-1.448-1.272M249.468 122.283l-1.667-1.01"/>
                </g>
            </g>
            <path d="M892.496 175.291H790.832c-1.435 0-2.811.57-3.826 1.584l-10.464 10.465a5.41 5.41 0 0 1-3.826 1.585h-65.684a5.41 5.41 0 0 1-3.826-1.585l-11.3-11.3a5.41 5.41 0 0 0-3.826-1.585h-11.8a5.41 5.41 0 0 0-5.41 5.411v26.375c0 5.304-2.107 10.39-5.858 14.141l-22.869 22.868a20 20 0 0 1-14.142 5.858H481.99"
                  stroke="#B8B9C7"/>
            <circle stroke="#B8B9C7" stroke-width="2.1" fill="#FFF" fill-rule="nonzero" stroke-linecap="round"
                    cx="916.535" cy="188.749" r="7.538"/>
            <path stroke="#B8B9C7" stroke-width="3" stroke-linecap="round" d="M818.897 111.01h15.851"/>
            <path stroke="#B8B9C7" stroke-width="5.6" stroke-linecap="round" d="M530.749 248.942h-34.584"/>
            <path d="M894.631 169.392a5.8 5.8 0 1 1-5.8 5.8 5.809 5.809 0 0 1 5.8-5.8m0-3a8.8 8.8 0 1 0 0 17.599 8.8 8.8 0 1 0 0-17.6z"
                  fill="#B8B9C7" fill-rule="nonzero"/>
            <path d="m970.488 135.693-20.7-20.699a9 9 0 0 0-6.364-2.635h-28.15" stroke="#B8B9C7" stroke-width="3"
                  stroke-linecap="round"/>
            <path d="M10.426 175.291H112.6c1.434 0 2.81.57 3.826 1.584l10.464 10.465a5.41 5.41 0 0 0 3.826 1.585H196.4a5.41 5.41 0 0 0 3.826-1.585l11.3-11.3a5.41 5.41 0 0 1 3.826-1.585h11.8a5.41 5.41 0 0 1 5.411 5.411v26.375c0 5.304 2.107 10.39 5.858 14.141l22.868 22.868a20.001 20.001 0 0 0 14.143 5.858h155.667"
                  stroke="#B8B9C7"/>
            <path d="M8.8 169.392a5.8 5.8 0 1 1-5.8 5.8 5.809 5.809 0 0 1 5.8-5.8m0-3a8.8 8.8 0 1 0 0 17.599 8.8 8.8 0 1 0 0-17.6z"
                  fill="#B8B9C7" fill-rule="nonzero"/>
            <path stroke="#B8B9C7" stroke-width="5.6" stroke-linecap="round" d="M400.521 248.942h-34.583"/>
            <g stroke="#B8B9C7" stroke-linecap="round" stroke-width=".5">
                <path d="m912.75 187.281-.792-.309M912.557 187.957l-.83-.174M912.48 188.652l-.85-.019M912.52 189.367l-.832.116M912.692 190.043l-.81.27M912.982 190.699l-.753.406M913.368 191.279l-.676.54M913.851 191.8l-.56.637M914.43 192.225l-.444.714M915.048 192.534l-.309.792M915.743 192.727l-.173.83M916.44 192.804l-.02.85M917.153 192.766l.116.849M917.83 192.611l.27.792M918.486 192.322l.405.733M919.065 191.935l.541.657M919.586 191.433l.638.56M920.011 190.873l.715.444M920.32 190.236l.792.309M920.513 189.56l.831.174M920.591 188.846l.85.019M920.552 188.15l.85-.135M920.378 187.455l.811-.27M920.108 186.818l.734-.406M919.702 186.219l.676-.521M919.22 185.717l.56-.637M918.66 185.292l.444-.733M918.022 184.964l.31-.772M917.346 184.771l.155-.83M916.632 184.694l.02-.85M915.937 184.732l-.136-.83M915.241 184.906l-.27-.811M914.585 185.196l-.406-.753M914.005 185.582l-.52-.657M913.484 186.065l-.637-.56M913.08 186.644l-.735-.444"/>
            </g>
            <path stroke="#B8B9C7" stroke-width="5.6" stroke-linecap="round" d="m1074.541 239.444-24.455-24.454"/>
            <g fill="#B8B9C7" fill-rule="nonzero">
                <path d="m1036.655 206.905 6.28-6.28a1.863 1.863 0 0 0 0-2.642l-18.117-18.116-2.447 2.447 3.885 3.885-4.015 4.015-3.885-3.885-2.447 2.447 18.117 18.114a1.838 1.838 0 0 0 2.629.015zM1008.688 181.581l3.38-3.38 3.962 3.963 2.176-2.173-3.963-3.962 3.38-3.38-17.027-17.03a1.863 1.863 0 0 0-2.642 0l-6.293 6.292a1.865 1.865 0 0 0 0 2.642l17.029 17.028h-.002z"/>
            </g>
            <g fill="#B8B9C7" fill-rule="nonzero">
                <path d="M652.375 4a4.8 4.8 0 1 1-4.8 4.8 4.807 4.807 0 0 1 4.8-4.8m0-4a8.8 8.8 0 1 0 0 17.6 8.8 8.8 0 0 0 0-17.6z"/>
                <path d="M652.238 4.122a4.873 4.873 0 1 1 0 9.746 4.873 4.873 0 0 1 0-9.746m0-4a8.873 8.873 0 1 0-.002 17.746 8.873 8.873 0 0 0 .002-17.746z"/>
            </g>
            <path d="M8.8 173.516a1.678 1.678 0 1 1 .006 3.356 1.678 1.678 0 0 1-.006-3.356m0-.867a2.545 2.545 0 1 0 0 5.09 2.545 2.545 0 0 0 0-5.09zM894.616 173.578a1.678 1.678 0 1 1 .002 3.356 1.678 1.678 0 0 1-.002-3.356m0-.867a2.545 2.545 0 1 0 0 5.09 2.545 2.545 0 0 0 0-5.09z"
                  fill="#B8B9C7" fill-rule="nonzero"/>
            <g fill="#B8B9C7" fill-rule="nonzero">
                <path d="M481.676 253.256v-8.882a1.864 1.864 0 0 0-1.868-1.868h-25.62v3.461h5.493v5.677h-5.494v3.462h25.621a1.838 1.838 0 0 0 1.868-1.85zM442.85 255.124v-4.78h5.6v-3.077h-5.6v-4.779h-24.083a1.864 1.864 0 0 0-1.868 1.868v8.9a1.864 1.864 0 0 0 1.868 1.868h24.083z"/>
            </g>
        </g>
        <g transform="translate(425.998 30.998)">
            <rect fill="#FFF" x="27.713" y="10" width="344.999" height="419.979" rx="18"/>
            <g opacity=".433">
                <use fill="#000" filter="url(#b)" xlink:href="#c"/>
                <path stroke="#D4DCE8"
                      d="M358.711.5a26.417 26.417 0 0 1 18.739 7.762A26.417 26.417 0 0 1 385.21 27v269.977l13.482 9.01a8.5 8.5 0 0 1 3.777 7.067v68.941a8.5 8.5 0 0 1-3.777 7.067l-13.482 9.009v13.908a26.417 26.417 0 0 1-7.761 18.738 26.417 26.417 0 0 1-18.739 7.762l-46.707-.001-.024 2.455a14.611 14.611 0 0 1-4.346 10.265 14.611 14.611 0 0 1-10.31 4.24h-191.6c-4.018 0-7.661-1.618-10.31-4.24a14.611 14.611 0 0 1-4.346-10.265l-.025-2.455h-47.33a26.417 26.417 0 0 1-18.738-7.761 26.417 26.417 0 0 1-7.762-18.738l-.001-14.273-12.935-8.644A8.5 8.5 0 0 1 .5 381.995v-68.941a8.5 8.5 0 0 1 3.777-7.067l12.935-8.645V27a26.417 26.417 0 0 1 7.763-18.738A26.417 26.417 0 0 1 43.713.5H358.71z"
                      stroke-linejoin="square" fill="#FFF"/>
            </g>
            <use fill="#000" filter="url(#d)" xlink:href="#e"/>
            <use stroke="#B8B9C7" stroke-width="1.6" fill="url(#f)" xlink:href="#e"/>
        </g>
        <g transform="translate(552.71 435.979)">
            <mask id="h" fill="#fff">
                <use xlink:href="#g"/>
            </mask>
            <path d="M16.849 0C7.544 0 0 7.544 0 16.848c0 9.305 7.544 16.848 16.849 16.848H130.06c9.305 0 16.85-7.543 16.85-16.848C146.91 7.544 139.364 0 130.06 0H16.85z"
                  mask="url(#h)"/>
        </g>
        <g transform="translate(425.998 30.998)">
            <use fill="url(#i)" xlink:href="#j"/>
            <use fill="#000" filter="url(#k)" xlink:href="#j"/>
        </g>
        <g transform="rotate(-180 306.712 439.961)">
            <use fill="url(#i)" xlink:href="#l"/>
            <use fill="#000" filter="url(#m)" xlink:href="#l"/>
        </g>
        <path d="M445.272 366.7v11.996a13 13 0 0 0 2.209 7.25l5.316 7.911a13 13 0 0 1 2.209 7.25v35.564c0 10.493 8.507 19 19 19h51.705"
              stroke="#898994"/>
        <g transform="translate(439.21 354.992)" fill-rule="nonzero">
            <ellipse stroke="url(#n)" stroke-width=".5" fill="url(#o)" cx="6.212" cy="6.211" rx="6.212" ry="6.211"/>
            <circle fill="#1D1B1B" cx="6.212" cy="6.211" r="5.958"/>
            <circle fill="url(#p)" cx="6.206" cy="6.211" r="5.3"/>
        </g>
        <g opacity=".21" stroke="#1D1B1B" stroke-linecap="round" stroke-width="5">
            <path d="m443.554 356.428.323.825M444.413 356.18l.173.865M445.317 356.076l.052.888M446.19 356.134l-.133.876M447.06 356.34l-.282.843M447.879 356.705l-.426.778M448.624 357.195l-.554.692M449.269 357.812l-.67.588M449.8 358.533l-.761.46M450.198 359.334l-.83.323M450.446 360.188l-.865.179M450.55 361.098l-.888.052M450.492 361.97l-.876-.133M450.285 362.835l-.843-.282M449.92 363.654l-.772-.421M449.43 364.398l-.697-.554M448.814 365.05l-.588-.67M448.093 365.58l-.462-.761M447.29 365.973l-.322-.825M446.438 366.226l-.18-.871M445.6 366.324l-.052-.882M444.655 366.272l.133-.876M443.785 366.059l.282-.836M442.97 365.702l.422-.78M442.227 365.206l.548-.693M441.576 364.594l.669-.588M441.045 363.873l.76-.461M440.647 363.072l.83-.323M440.399 362.218l.865-.18M440.3 361.37l.883-.038M440.353 360.436l.877.133M440.566 359.565l.837.283M440.924 358.746l.779.427M441.414 358.002l.698.554M442.03 357.356l.59.664M442.752 356.826l.462.755"/>
        </g>
        <g transform="rotate(-180 306.712 439.961)">
            <use fill="#D8D8D8" xlink:href="#q"/>
            <use fill="#000" filter="url(#r)" xlink:href="#q"/>
        </g>
        <path d="M808.71 366.7v11.996a13 13 0 0 1-2.21 7.25l-5.315 7.911a13 13 0 0 0-2.21 7.25v35.564c0 10.493-8.506 19-19 19H728.27"
              stroke="#898994"/>
        <g transform="matrix(1 0 0 -1 425.998 879.923)">
            <use fill="#D8D8D8" xlink:href="#s"/>
            <use fill="#000" filter="url(#t)" xlink:href="#s"/>
        </g>
        <g opacity=".393" transform="translate(425.998 30.998)">
            <use fill="url(#u)" xlink:href="#v"/>
            <use fill="#000" filter="url(#w)" xlink:href="#v"/>
        </g>
        <g transform="translate(802.456 355.004)" fill-rule="nonzero">
            <ellipse stroke="url(#n)" stroke-width=".5" fill="url(#o)" cx="6.212" cy="6.211" rx="6.212" ry="6.211"/>
            <circle fill="#1D1B1B" cx="6.212" cy="6.211" r="5.958"/>
            <circle fill="url(#p)" cx="6.206" cy="6.211" r="5.3"/>
        </g>
        <g opacity=".21" stroke="#1D1B1B" stroke-linecap="round" stroke-width="5">
            <path d="m806.8 356.44.322.825M807.658 356.192l.173.865M808.562 356.088l.052.888M809.435 356.146l-.133.876M810.306 356.353l-.283.842M811.124 356.717l-.426.778M811.87 357.207l-.555.692M812.514 357.824l-.669.588M813.045 358.545l-.76.461M813.443 359.346l-.83.323M813.691 360.2l-.865.18M813.795 361.11l-.888.052M813.737 361.982l-.876-.133M813.53 362.847l-.843-.282M813.166 363.666l-.773-.42M812.676 364.41l-.698-.554M812.06 365.062l-.589-.669M811.338 365.592l-.462-.76M810.536 365.985l-.323-.825M809.683 366.238l-.179-.87M808.845 366.336l-.052-.882M807.9 366.284l.133-.876M807.03 366.071l.282-.836M806.216 365.714l.421-.779M805.472 365.218l.548-.693M804.821 364.606l.67-.588M804.29 363.885l.761-.46M803.892 363.084l.831-.323M803.644 362.23l.865-.179M803.546 361.383l.882-.039M803.598 360.448l.877.133M803.811 359.577l.837.283M804.17 358.758l.778.427M804.66 358.014l.697.554M805.276 357.368l.59.664M805.997 356.838l.462.755"/>
        </g>
    </g>
</svg>
