<?xml version="1.0" encoding="utf-8"?>
<!-- Generator: Adobe Illustrator 25.2.3, SVG Export Plug-In . SVG Version: 6.00 Build 0)  -->
<svg version="1.1" id="Layer_1" xmlns="http://www.w3.org/2000/svg" x="0px"
     y="0px"
     viewBox="0 0 192 42" style="enable-background:new 0 0 192 42;" xml:space="preserve">
<style type="text/css">
	.axe0{fill-rule:evenodd;clip-rule:evenodd;fill:#808080;}
</style>
    <g>
	<path class="axe0" d="M24.1,2.6c0.3,0.1,0.6,0.1,1,0.2c0.2,0,0.4,0.2,0.4,0.4c0.1,0.4,0.3,0.8,0.4,1.3c0.1,0.2,0,0.4-0.2,0.3
		c-0.3-0.1-0.6-0.1-0.9-0.2c-0.2,0-0.3-0.2-0.4-0.4c-0.1-0.4-0.3-0.9-0.4-1.3C23.9,2.7,24,2.5,24.1,2.6"/>
        <path class="axe0" d="M25.2,0.5c0.3,0.1,0.7,0.2,1,0.3c0.2,0,0.4,0.3,0.4,0.5C26.7,1.6,26.9,2,27,2.4c0.1,0.2,0,0.3-0.2,0.3
		c-0.3-0.1-0.6-0.2-1-0.2c-0.2,0-0.4-0.2-0.4-0.5c-0.1-0.4-0.3-0.8-0.4-1.3C24.9,0.6,25,0.4,25.2,0.5"/>
        <path class="axe0" d="M27.1,1c0.3,0.1,0.7,0.2,1,0.3c0.2,0.1,0.4,0.3,0.4,0.5C28.7,2.2,28.8,2.6,29,3c0.1,0.2,0,0.3-0.2,0.3
		c-0.3-0.1-0.7-0.2-1-0.3c-0.2,0-0.4-0.3-0.4-0.5c-0.1-0.4-0.3-0.8-0.4-1.2C26.9,1.1,27,1,27.1,1"/>
        <path class="axe0" d="M33.1,3.2c0.3,0.1,0.7,0.3,1,0.5c0.2,0.1,0.4,0.3,0.4,0.5c0.1,0.4,0.2,0.7,0.4,1.1c0.1,0.2,0,0.3-0.2,0.2
		c-0.3-0.2-0.7-0.3-1-0.4c-0.2-0.1-0.4-0.3-0.4-0.5c-0.1-0.4-0.2-0.7-0.4-1.1C32.9,3.2,33,3.2,33.1,3.2"/>
        <path class="axe0" d="M26,3c0.3,0.1,0.6,0.1,1,0.2c0.2,0,0.4,0.2,0.4,0.5c0.1,0.4,0.3,0.8,0.4,1.2c0.1,0.2,0,0.3-0.2,0.3
		C27.3,5.1,27,5,26.7,5c-0.2,0-0.3-0.2-0.4-0.4c-0.1-0.4-0.3-0.8-0.4-1.3C25.8,3.1,25.9,2.9,26,3"/>
        <path class="axe0" d="M27.9,3.5c0.3,0.1,0.7,0.2,1,0.3c0.2,0,0.4,0.2,0.4,0.4c0.1,0.4,0.3,0.8,0.4,1.2c0.1,0.2,0,0.3-0.2,0.3
		c-0.3-0.1-0.7-0.2-1-0.2c-0.2,0-0.4-0.2-0.4-0.4c-0.1-0.4-0.3-0.8-0.4-1.2C27.7,3.5,27.8,3.4,27.9,3.5"/>
        <path class="axe0" d="M29.9,4c0.3,0.1,0.7,0.2,1,0.3c0.2,0.1,0.4,0.3,0.4,0.5c0.1,0.4,0.3,0.8,0.4,1.1c0.1,0.2,0,0.3-0.2,0.2
		c-0.3-0.1-0.7-0.2-1-0.3c-0.2,0-0.4-0.2-0.4-0.4c-0.1-0.4-0.3-0.8-0.4-1.2C29.6,4.1,29.7,4,29.9,4"/>
        <path class="axe0" d="M31.9,4.7c0.3,0.1,0.7,0.2,1,0.4c0.2,0.1,0.4,0.3,0.4,0.5c0.1,0.4,0.2,0.7,0.4,1.1c0.1,0.2,0,0.3-0.2,0.2
		c-0.3-0.1-0.7-0.2-1-0.4c-0.2-0.1-0.4-0.3-0.4-0.5c-0.1-0.4-0.3-0.8-0.4-1.1C31.6,4.7,31.7,4.6,31.9,4.7"/>
        <path class="axe0" d="M33.9,5.5c0.3,0.1,0.7,0.3,1,0.4c0.2,0.1,0.4,0.3,0.4,0.5c0.1,0.4,0.2,0.7,0.4,1.1c0.1,0.2,0,0.3-0.2,0.2
		c-0.3-0.2-0.7-0.3-1-0.4c-0.2-0.1-0.4-0.3-0.4-0.5c-0.1-0.4-0.2-0.7-0.4-1.1C33.6,5.5,33.7,5.4,33.9,5.5"/>
        <path class="axe0" d="M30.7,6.4c0.3,0.1,0.7,0.2,1,0.3c0.2,0.1,0.4,0.3,0.4,0.4c0.1,0.4,0.3,0.8,0.4,1.1c0.1,0.2,0,0.3-0.2,0.3
		c-0.3-0.1-0.7-0.2-1-0.3c-0.2,0-0.4-0.2-0.4-0.4c-0.1-0.4-0.3-0.8-0.4-1.2C30.4,6.4,30.5,6.3,30.7,6.4"/>
        <path class="axe0" d="M32.6,7c0.3,0.1,0.7,0.2,1,0.4c0.2,0.1,0.4,0.3,0.4,0.5c0.1,0.4,0.3,0.7,0.4,1.1c0.1,0.2,0,0.3-0.2,0.2
		c-0.3-0.1-0.7-0.2-1-0.3c-0.2-0.1-0.4-0.3-0.4-0.4c-0.1-0.4-0.3-0.8-0.4-1.1C32.4,7,32.5,6.9,32.6,7"/>
        <path class="axe0" d="M29.6,8.3c0.3,0.1,0.6,0.1,1,0.2c0.2,0,0.4,0.2,0.4,0.4c0.1,0.4,0.3,0.8,0.4,1.2c0.1,0.2,0,0.3-0.2,0.3
		c-0.3-0.1-0.6-0.1-0.9-0.2c-0.2,0-0.3-0.2-0.4-0.4c-0.1-0.4-0.3-0.8-0.4-1.2C29.3,8.4,29.4,8.3,29.6,8.3"/>
        <path class="axe0" d="M31.5,8.7c0.3,0.1,0.7,0.2,1,0.3c0.2,0,0.4,0.2,0.4,0.4c0.1,0.4,0.3,0.8,0.4,1.1c0.1,0.2,0,0.3-0.2,0.3
		c-0.3-0.1-0.7-0.2-1-0.2c-0.2,0-0.4-0.2-0.4-0.4c-0.1-0.4-0.3-0.8-0.4-1.2C31.2,8.8,31.3,8.7,31.5,8.7"/>
        <path class="axe0" d="M33.4,9.3c0.3,0.1,0.7,0.2,1,0.3c0.2,0.1,0.4,0.3,0.4,0.5c0.1,0.4,0.3,0.7,0.4,1.1c0.1,0.2,0,0.3-0.2,0.2
		c-0.3-0.1-0.7-0.2-1-0.3c-0.2-0.1-0.4-0.2-0.4-0.4c-0.1-0.4-0.3-0.8-0.4-1.1C33.2,9.3,33.2,9.2,33.4,9.3"/>
        <path class="axe0" d="M35.4,10c0.3,0.1,0.7,0.3,1,0.4c0.2,0.1,0.4,0.3,0.4,0.5c0.1,0.4,0.2,0.7,0.4,1.1c0.1,0.2,0,0.3-0.2,0.2
		c-0.3-0.1-0.7-0.3-1-0.4c-0.2-0.1-0.4-0.3-0.4-0.5c-0.1-0.4-0.2-0.7-0.4-1.1C35.1,10,35.2,9.9,35.4,10"/>
        <path class="axe0" d="M35.4,4.3c0.4,0.2,0.7,0.4,1.1,0.6c0.2,0.1,0.4,0.4,0.5,0.5c0.1,0.4,0.2,0.7,0.4,1.1c0.1,0.2,0,0.2-0.2,0.1
		C36.7,6.4,36.3,6.2,36,6c-0.2-0.1-0.4-0.3-0.4-0.5c-0.1-0.4-0.2-0.7-0.4-1.1C35.1,4.3,35.2,4.2,35.4,4.3"/>
        <path class="axe0" d="M36.1,6.5c0.4,0.2,0.7,0.4,1.1,0.5c0.2,0.1,0.4,0.4,0.5,0.5c0.1,0.4,0.2,0.7,0.4,1.1c0.1,0.2,0,0.2-0.2,0.1
		c-0.4-0.2-0.7-0.4-1.1-0.5c-0.2-0.1-0.4-0.3-0.4-0.5C36.1,7.4,36,7,35.9,6.7C35.8,6.5,35.9,6.4,36.1,6.5"/>
        <path class="axe0" d="M36.8,8.7c0.4,0.2,0.7,0.3,1.1,0.5c0.2,0.1,0.4,0.3,0.5,0.5c0.1,0.4,0.2,0.7,0.4,1.1c0.1,0.2,0,0.2-0.2,0.1
		c-0.4-0.2-0.7-0.4-1.1-0.5c-0.2-0.1-0.4-0.3-0.4-0.5c-0.1-0.4-0.2-0.7-0.4-1.1C36.6,8.7,36.7,8.6,36.8,8.7"/>
        <path class="axe0" d="M37.6,10.9c0.4,0.2,0.7,0.3,1.1,0.5c0.2,0.1,0.4,0.3,0.5,0.5c0.1,0.4,0.2,0.7,0.4,1.1c0.1,0.2,0,0.2-0.2,0.1
		c-0.4-0.2-0.7-0.3-1.1-0.5c-0.2-0.1-0.4-0.3-0.4-0.5c-0.1-0.4-0.2-0.7-0.4-1.1C37.3,10.9,37.4,10.8,37.6,10.9"/>
        <path class="axe0" d="M37.5,5.5c0.4,0.2,0.8,0.5,1.1,0.7c0.2,0.1,0.4,0.4,0.5,0.6c0.1,0.4,0.2,0.7,0.4,1.1c0.1,0.2,0,0.2-0.2,0.1
		c-0.4-0.3-0.8-0.5-1.1-0.7c-0.2-0.1-0.4-0.4-0.5-0.5c-0.1-0.4-0.2-0.7-0.4-1.1C37.2,5.4,37.3,5.4,37.5,5.5"/>
        <path class="axe0" d="M39.8,7c0.4,0.3,0.8,0.7,1.2,1c0.2,0.2,0.4,0.5,0.5,0.6c0.1,0.3,0.2,0.7,0.4,1.1c0.1,0.2-0.1,0.2-0.3,0
		c-0.4-0.3-0.8-0.7-1.2-1c-0.2-0.2-0.4-0.4-0.5-0.6c-0.1-0.4-0.2-0.7-0.4-1.1C39.5,6.9,39.6,6.8,39.8,7"/>
        <path class="axe0" d="M42.3,9.2c0.5,0.5,1,1.1,1.6,1.9c0.3,0.4,2.8,7.9,2.8,7.9s-2.1-6-2.3-6.3c-0.5-0.7-1.1-1.3-1.5-1.8
		c-0.2-0.2-0.4-0.5-0.5-0.7c-0.1-0.3-0.2-0.7-0.3-1C41.9,8.9,42.1,9,42.3,9.2"/>
        <path class="axe0" d="M40.5,9.1c0.4,0.3,0.8,0.6,1.2,1c0.2,0.2,0.4,0.5,0.5,0.6c0.1,0.4,0.2,0.7,0.4,1.1c0.1,0.2-0.1,0.2-0.3,0
		c-0.4-0.3-0.8-0.7-1.2-1c-0.2-0.1-0.4-0.4-0.5-0.6c-0.1-0.4-0.2-0.7-0.4-1.1C40.2,9,40.3,9,40.5,9.1"/>
        <path class="axe0" d="M43,11.3c0.5,0.5,1,1.1,1.5,1.8c0.3,0.3,2.2,5.9,2.2,5.9s-1.4-4.1-1.7-4.4c-0.5-0.6-1-1.2-1.5-1.6
		c-0.2-0.2-0.4-0.5-0.5-0.7c-0.1-0.4-0.2-0.7-0.3-1C42.6,11,42.8,11.1,43,11.3"/>
        <path class="axe0" d="M39,9.8c0.4,0.2,0.7,0.5,1.1,0.7c0.2,0.1,0.4,0.4,0.5,0.6c0.1,0.4,0.2,0.7,0.4,1.1c0.1,0.2,0,0.2-0.2,0.1
		c-0.4-0.2-0.8-0.5-1.1-0.7c-0.2-0.1-0.4-0.3-0.4-0.5c-0.1-0.4-0.2-0.7-0.4-1.1C38.7,9.8,38.8,9.7,39,9.8"/>
        <path class="axe0" d="M41.2,11.3c0.4,0.3,0.8,0.6,1.2,1c0.2,0.2,0.4,0.5,0.5,0.6c0.1,0.4,0.2,0.7,0.4,1.1c0.1,0.2-0.1,0.2-0.3,0
		c-0.4-0.3-0.8-0.6-1.2-0.9c-0.2-0.1-0.4-0.4-0.5-0.6c-0.1-0.4-0.2-0.7-0.4-1.1C40.9,11.2,41,11.1,41.2,11.3"/>
        <path class="axe0" d="M43.7,13.4c0.5,0.4,1,1,1.5,1.6c0.3,0.3,1.6,4,1.6,4s-0.8-2.1-1.1-2.4c-0.5-0.6-1-1.1-1.4-1.5
		c-0.2-0.2-0.4-0.5-0.5-0.7c-0.1-0.3-0.2-0.7-0.3-1C43.3,13.1,43.5,13.2,43.7,13.4"/>
        <path class="axe0" d="M39.7,12c0.4,0.2,0.7,0.5,1.1,0.7c0.2,0.1,0.4,0.4,0.5,0.6c0.1,0.4,0.2,0.7,0.4,1.1c0.1,0.2,0,0.2-0.2,0.1
		c-0.4-0.2-0.8-0.5-1.1-0.7c-0.2-0.1-0.4-0.3-0.4-0.5c-0.1-0.4-0.2-0.7-0.4-1.1C39.4,12,39.5,11.9,39.7,12"/>
        <path class="axe0" d="M42,13.5c0.4,0.3,0.8,0.6,1.2,0.9c0.2,0.2,0.4,0.5,0.5,0.6c0.1,0.4,0.2,0.7,0.4,1.1c0.1,0.2-0.1,0.2-0.3,0
		c-0.4-0.3-0.8-0.6-1.2-0.9c-0.2-0.1-0.4-0.4-0.5-0.6c-0.1-0.4-0.2-0.7-0.4-1.1C41.6,13.4,41.8,13.3,42,13.5"/>
        <path class="axe0" d="M44.4,15.4c0.5,0.4,0.9,0.9,1.4,1.5c0.2,0.3,0.9,2,0.9,2s-0.2-0.2-0.4-0.5c-0.5-0.5-0.9-1-1.4-1.4
		c-0.2-0.2-0.4-0.5-0.5-0.6c-0.1-0.3-0.2-0.7-0.3-1C44,15.2,44.2,15.2,44.4,15.4"/>
        <path class="axe0" d="M41.7,41.5c0.3-0.3,0.6-0.5,0.9-0.8c0.1-0.1,0.1-0.3,0-0.4c-0.3-0.3-0.5-0.6-0.8-0.8c-0.1-0.1-0.2-0.1-0.4,0
		c-0.3,0.3-0.6,0.5-0.9,0.7c-0.1,0.1-0.1,0.2,0,0.3c0.3,0.3,0.5,0.6,0.8,0.9C41.5,41.6,41.6,41.6,41.7,41.5 M39,35.4
		c0.3-0.3,0.6-0.5,0.9-0.8c0.1-0.1,0.1-0.3,0-0.4c-0.2-0.3-0.5-0.5-0.7-0.8c-0.1-0.1-0.2-0.1-0.3,0c-0.3,0.2-0.6,0.5-0.9,0.7
		c-0.1,0.1-0.1,0.2,0,0.3c0.3,0.3,0.5,0.6,0.8,0.8C38.8,35.5,38.9,35.5,39,35.4z M40.6,33.9c0.3-0.3,0.5-0.6,0.8-0.8
		c0.1-0.1,0.1-0.3,0-0.4c-0.2-0.3-0.5-0.5-0.7-0.8c-0.1-0.1-0.2-0.1-0.3,0c-0.3,0.3-0.5,0.5-0.8,0.8c-0.1,0.1-0.1,0.2,0,0.3
		c0.2,0.3,0.5,0.5,0.7,0.8C40.4,34,40.5,34,40.6,33.9z M42.1,32.3c0.3-0.3,0.5-0.6,0.7-0.9c0.1-0.1,0.1-0.3,0-0.4
		c-0.2-0.2-0.4-0.5-0.7-0.7c-0.1-0.1-0.2-0.1-0.3,0c-0.3,0.3-0.5,0.6-0.8,0.9c-0.1,0.1-0.1,0.3,0,0.4c0.2,0.3,0.5,0.5,0.7,0.8
		C41.9,32.5,42,32.4,42.1,32.3z M43.5,30.6c0.2-0.3,0.4-0.6,0.7-1c0.1-0.1,0.1-0.3,0-0.4c-0.2-0.2-0.4-0.4-0.6-0.7
		c-0.1-0.1-0.2-0.1-0.3,0.1c-0.2,0.3-0.5,0.6-0.7,0.9c-0.1,0.1-0.1,0.3,0,0.4c0.2,0.2,0.4,0.5,0.7,0.7
		C43.2,30.8,43.4,30.8,43.5,30.6z M44.7,28.8c0.2-0.3,0.4-0.7,0.6-1.1c0.1-0.1,0.1-0.3,0-0.4c-0.2-0.2-0.4-0.4-0.5-0.6
		c-0.1-0.1-0.2,0-0.3,0.1c-0.2,0.3-0.4,0.7-0.7,1c-0.1,0.1-0.1,0.3,0,0.4c0.2,0.2,0.4,0.4,0.6,0.7C44.5,29,44.6,28.9,44.7,28.8z
		 M45.8,26.8c0.2-0.4,0.3-0.8,0.5-1.2c0.1-0.1,0-0.3,0-0.4c-0.2-0.2-0.3-0.3-0.5-0.5c-0.1-0.1-0.1,0-0.2,0.1
		c-0.2,0.4-0.4,0.7-0.6,1.1c-0.1,0.1-0.1,0.3,0,0.4c0.2,0.2,0.4,0.4,0.5,0.6C45.6,27,45.7,26.9,45.8,26.8z M46.6,24.5
		c0.1-0.4,0.2-0.9,0.3-1.4c0-0.2,0-0.4,0-0.4c-0.1-0.1-0.2-0.2-0.3-0.3c0,0-0.1,0.1-0.1,0.2c-0.1,0.4-0.3,0.8-0.4,1.2
		c-0.1,0.1-0.1,0.3,0,0.4c0.1,0.2,0.3,0.3,0.4,0.5C46.5,24.7,46.6,24.7,46.6,24.5z M42,35.4c0.3-0.3,0.5-0.6,0.8-0.9
		c0.1-0.1,0.1-0.3,0-0.4c-0.2-0.3-0.5-0.5-0.7-0.8c-0.1-0.1-0.2-0.1-0.3,0c-0.3,0.3-0.5,0.6-0.8,0.8c-0.1,0.1-0.1,0.3,0,0.4
		c0.2,0.3,0.5,0.5,0.7,0.8C41.8,35.5,41.9,35.5,42,35.4z M43.4,33.8c0.2-0.3,0.5-0.6,0.7-0.9c0.1-0.1,0.1-0.3,0-0.4
		c-0.2-0.2-0.5-0.5-0.7-0.7c-0.1-0.1-0.2-0.1-0.3,0c-0.2,0.3-0.5,0.6-0.7,0.9c-0.1,0.1-0.1,0.3,0,0.4c0.2,0.3,0.5,0.5,0.7,0.8
		C43.2,33.9,43.3,33.9,43.4,33.8z M44.7,32c0.2-0.3,0.4-0.7,0.6-1c0.1-0.1,0.1-0.3,0-0.4c-0.2-0.2-0.4-0.4-0.6-0.7
		c-0.1-0.1-0.2,0-0.3,0.1c-0.2,0.3-0.4,0.7-0.7,1c-0.1,0.1-0.1,0.3,0,0.4c0.2,0.2,0.4,0.5,0.7,0.7C44.5,32.1,44.6,32.1,44.7,32z
		 M45.8,30c0.2-0.4,0.4-0.7,0.5-1.1c0.1-0.1,0.1-0.3,0-0.4c-0.2-0.2-0.4-0.4-0.5-0.6c-0.1-0.1-0.2,0-0.2,0.1
		c-0.2,0.4-0.4,0.7-0.6,1.1c-0.1,0.1-0.1,0.3,0,0.4c0.2,0.2,0.4,0.4,0.6,0.7C45.6,30.2,45.7,30.1,45.8,30z M46.7,27.8
		c0.1-0.4,0.3-0.8,0.4-1.3c0-0.2,0-0.3,0-0.4c-0.2-0.2-0.3-0.3-0.5-0.5c-0.1-0.1-0.1,0-0.2,0.2c-0.1,0.4-0.3,0.8-0.5,1.2
		c-0.1,0.1-0.1,0.3,0,0.4c0.2,0.2,0.4,0.4,0.5,0.6C46.6,28,46.7,28,46.7,27.8z M47.4,25.3c0.1-0.5,0.1-1,0.1-1.5
		c0-0.2,0-0.4-0.1-0.4c-0.1-0.1-0.2-0.2-0.3-0.3c0,0-0.1,0.1-0.1,0.3c-0.1,0.5-0.2,1-0.3,1.4c0,0.2,0,0.3,0,0.4
		c0.1,0.2,0.3,0.3,0.4,0.5C47.3,25.6,47.3,25.5,47.4,25.3z M41.9,38.5c0.3-0.3,0.6-0.5,0.8-0.8c0.1-0.1,0.1-0.3,0-0.4
		c-0.2-0.3-0.5-0.5-0.7-0.8c-0.1-0.1-0.2-0.1-0.3,0c-0.3,0.3-0.6,0.5-0.8,0.8c-0.1,0.1-0.1,0.2,0,0.3c0.3,0.3,0.5,0.6,0.8,0.8
		C41.6,38.5,41.8,38.6,41.9,38.5z M43.4,36.9c0.2-0.3,0.5-0.6,0.7-0.9c0.1-0.1,0.1-0.3,0-0.4c-0.2-0.3-0.5-0.5-0.7-0.8
		c-0.1-0.1-0.2-0.1-0.3,0c-0.3,0.3-0.5,0.6-0.8,0.9c-0.1,0.1-0.1,0.3,0,0.4c0.2,0.3,0.5,0.5,0.7,0.8C43.1,37,43.3,37,43.4,36.9z
		 M44.7,35.2c0.2-0.3,0.5-0.6,0.7-1c0.1-0.1,0.1-0.3,0-0.4c-0.2-0.2-0.4-0.5-0.7-0.7c-0.1-0.1-0.2-0.1-0.3,0.1
		c-0.2,0.3-0.5,0.6-0.7,1c-0.1,0.1-0.1,0.3,0,0.4c0.2,0.3,0.5,0.5,0.7,0.8C44.5,35.3,44.6,35.3,44.7,35.2z M45.9,33.3
		c0.2-0.4,0.4-0.7,0.6-1.1c0.1-0.1,0.1-0.3,0-0.4c-0.2-0.2-0.4-0.4-0.6-0.7c-0.1-0.1-0.2,0-0.3,0.1c-0.2,0.4-0.4,0.7-0.6,1
		c-0.1,0.1-0.1,0.3,0,0.4c0.2,0.2,0.4,0.5,0.7,0.7C45.7,33.4,45.9,33.4,45.9,33.3z M46.9,31.2c0.2-0.4,0.3-0.8,0.4-1.2
		c0-0.2,0-0.3,0-0.4c-0.2-0.2-0.4-0.4-0.5-0.6c-0.1-0.1-0.2,0-0.2,0.1c-0.2,0.4-0.3,0.8-0.5,1.2c-0.1,0.1-0.1,0.3,0,0.4
		c0.2,0.2,0.4,0.4,0.6,0.6C46.8,31.4,46.9,31.3,46.9,31.2z M47.7,28.8c0.1-0.5,0.2-0.9,0.3-1.4c0-0.2,0-0.4-0.1-0.4
		c-0.1-0.2-0.3-0.3-0.5-0.5c-0.1-0.1-0.1,0-0.2,0.2c-0.1,0.5-0.2,0.9-0.4,1.3c0,0.2,0,0.3,0,0.4c0.2,0.2,0.4,0.4,0.5,0.6
		C47.6,29.1,47.7,29,47.7,28.8z M48.1,26.1c0-0.5,0-1.1,0-1.7c0-0.2-0.1-0.4-0.1-0.5c-0.1-0.1-0.2-0.2-0.3-0.3c0,0-0.1,0.1-0.1,0.3
		c0,0.6-0.1,1.1-0.1,1.6c0,0.2,0,0.4,0.1,0.4c0.1,0.2,0.3,0.3,0.4,0.5C48.1,26.4,48.1,26.3,48.1,26.1z M43.3,40
		c0.3-0.3,0.5-0.6,0.8-0.9c0.1-0.1,0.1-0.3,0-0.4c-0.2-0.3-0.5-0.5-0.7-0.8c-0.1-0.1-0.2-0.1-0.3,0c-0.3,0.3-0.5,0.6-0.8,0.8
		c-0.1,0.1-0.1,0.3,0,0.4c0.3,0.3,0.5,0.6,0.8,0.8C43.1,40.1,43.2,40.1,43.3,40z M44.8,38.4c0.2-0.3,0.5-0.6,0.7-0.9
		c0.1-0.1,0.1-0.3,0-0.4c-0.2-0.3-0.5-0.5-0.7-0.8c-0.1-0.1-0.2-0.1-0.3,0c-0.2,0.3-0.5,0.6-0.7,0.9c-0.1,0.1-0.1,0.3,0,0.4
		c0.2,0.3,0.5,0.5,0.7,0.8C44.5,38.5,44.7,38.5,44.8,38.4z M47.2,34.6c0.2-0.4,0.3-0.8,0.5-1.2c0.1-0.1,0-0.3,0-0.4
		c-0.2-0.2-0.4-0.4-0.6-0.7c-0.1-0.1-0.2,0-0.3,0.1c-0.2,0.4-0.4,0.7-0.5,1.1c-0.1,0.1-0.1,0.3,0,0.4c0.2,0.2,0.4,0.5,0.7,0.7
		C47,34.8,47.1,34.7,47.2,34.6z M48,32.4c0.1-0.4,0.3-0.8,0.4-1.3c0-0.2,0-0.3,0-0.4c-0.2-0.2-0.4-0.4-0.5-0.6
		c-0.1-0.1-0.2,0-0.2,0.2c-0.1,0.4-0.3,0.8-0.4,1.2c-0.1,0.1,0,0.3,0,0.4c0.2,0.2,0.4,0.4,0.6,0.7C47.9,32.6,48,32.5,48,32.4z
		 M48.7,29.9c0.1-0.5,0.1-1,0.2-1.5c0-0.2,0-0.4-0.1-0.5c-0.2-0.2-0.3-0.3-0.5-0.5c-0.1-0.1-0.1,0-0.1,0.2c-0.1,0.5-0.2,1-0.3,1.4
		c0,0.2,0,0.4,0.1,0.4c0.2,0.2,0.4,0.4,0.5,0.6C48.6,30.2,48.6,30.1,48.7,29.9z M48.9,27c0-0.6-0.1-1.2-0.2-1.9
		c0-0.3-0.1-0.5-0.1-0.5c-0.1-0.1-0.2-0.2-0.3-0.3c0,0,0,0.1,0,0.3c0.1,0.6,0.1,1.2,0.1,1.8c0,0.2,0,0.4,0.1,0.5
		c0.1,0.2,0.3,0.3,0.4,0.5C48.9,27.3,48.9,27.2,48.9,27z M48.3,23.1c-0.3-0.8-0.6-1.8-1.2-3c-0.2-0.5-0.4-0.8-0.4-0.8s0,0.2,0,0.4
		c0,0.6,0,1.1-0.1,1.6c0,0.2,0,0.3,0,0.4c0.1,0.1,0.2,0.2,0.3,0.3c0,0,0.1-0.1,0.1-0.3c0-0.6-0.1-1.2-0.2-1.9
		c-0.1-0.3-0.1-0.5-0.1-0.5c0,0,0.1,0.2,0.1,0.5c0.2,0.7,0.2,1.4,0.3,2c0,0.2,0,0.4,0.1,0.4c0.1,0.1,0.2,0.2,0.3,0.3
		c0,0,0-0.1,0-0.4c-0.1-0.7-0.2-1.4-0.5-2.3c-0.1-0.3-0.2-0.6-0.2-0.6c0,0,0.1,0.3,0.2,0.6c0.3,0.9,0.5,1.7,0.6,2.3
		c0,0.2,0.1,0.4,0.1,0.5c0.1,0.1,0.2,0.2,0.3,0.3c0,0,0-0.1,0-0.4c-0.2-0.8-0.4-1.6-0.8-2.6c-0.2-0.4-0.3-0.7-0.3-0.7
		c0,0,0.2,0.3,0.3,0.7c0.4,1,0.7,1.9,0.9,2.7c0.1,0.3,0.1,0.5,0.2,0.5c0.1,0.1,0.2,0.2,0.3,0.3C48.4,23.6,48.4,23.4,48.3,23.1z
		 M38.8,38.3c0.3-0.2,0.6-0.5,0.9-0.7c0.1-0.1,0.1-0.2,0-0.3c-0.3-0.3-0.5-0.6-0.8-0.8c-0.1-0.1-0.3-0.1-0.4,0
		c-0.3,0.2-0.6,0.5-0.9,0.7c-0.1,0.1-0.1,0.2,0,0.3c0.3,0.3,0.5,0.6,0.8,0.9C38.5,38.3,38.7,38.4,38.8,38.3z"/>
        <path class="axe0" d="M56.9,23.8l10.6-10.5h-9l-6.1,6l-6.1-6h-1.3c0.1,0.3,0.3,0.7,0.5,1.1c0.6,1.6,1.3,3.9,2,6.7
		c2,2.3,2.9,5.4,2.7,9.3l2.1-2.1l6.5,6.5h9L57.7,24.6L56.9,23.8"/>
        <path class="axe0" d="M191,34.7h-8.8l-4.8-5.7h-10.2v5.7h-6.6V23.8h18.6c1,0,1.9-0.2,2.6-0.6c0.7-0.4,1.1-1,1.1-1.8
		c0-0.8-0.3-1.5-1-1.9c-0.6-0.4-1.5-0.6-2.7-0.6h-18.6l4.3-5.6h13.7c1.2,0,2.5,0.1,3.8,0.3c1.3,0.2,2.5,0.6,3.5,1.2
		c1.1,0.6,1.9,1.4,2.6,2.3s1,2.2,1,3.8c0,0.8-0.1,1.6-0.4,2.4c-0.3,0.7-0.6,1.4-1.1,2c-0.5,0.6-1.1,1.1-1.8,1.5
		c-0.7,0.4-1.5,0.7-2.3,0.9c0.4,0.3,0.8,0.6,1.2,1.1c0.4,0.4,1,1,1.8,1.8L191,34.7 M133.5,34.7l4-5.5h5.4c0.6,0,1.3,0,2,0
		s1.3,0,1.8,0.1c-0.3-0.4-0.6-0.9-1-1.5c-0.4-0.6-0.8-1.1-1.1-1.6l-3.8-5.7l-10,14.2h-7.8l13.7-19.3c0.4-0.6,1-1.2,1.7-1.7
		c0.7-0.5,1.5-0.7,2.6-0.7c1,0,1.8,0.2,2.5,0.7c0.7,0.5,1.2,1,1.7,1.7l13.3,19.3H133.5z M122.3,29.3l-4.3,5.5H99.1V13.4h6.6v15.9
		H122.3z M96.9,29.3l-4.2,5.5H72.1V13.4h24.7l-4.3,5.6H78.7v2.6h16.9l-3.8,4.9H78.7v2.9H96.9z M11.7,34.7l4-5.5H21c0.6,0,1.3,0,2,0
		c0.7,0,1.3,0,1.8,0.1c-0.3-0.4-0.6-0.9-1-1.5c-0.4-0.6-0.8-1.1-1.1-1.6l-3.8-5.7l-10,14.2H1l13.7-19.3c0.4-0.6,1-1.2,1.7-1.7
		c0.7-0.5,1.5-0.7,2.6-0.7c1,0,1.8,0.2,2.5,0.7c0.7,0.5,1.2,1,1.7,1.7l13.3,19.3H11.7z"/>
</g>
</svg>
