<?xml version="1.0" standalone="no"?>
<!DOCTYPE svg PUBLIC "-//W3C//DTD SVG 20010904//EN"
 "http://www.w3.org/TR/2001/REC-SVG-20010904/DTD/svg10.dtd">
<svg version="1.0" xmlns="http://www.w3.org/2000/svg"
 width="142.000000pt" height="142.000000pt" viewBox="0 0 142.000000 142.000000"
 preserveAspectRatio="xMidYMid meet">

<g transform="translate(0.000000,142.000000) scale(0.100000,-0.100000)"
fill="#000000" stroke="none">
<path d="M280 1335 l-85 -85 45 -43 c25 -24 131 -128 236 -230 178 -174 194
-187 228 -187 20 0 49 6 64 14 15 8 125 113 245 233 l217 218 -83 83 -82 82
-175 -175 -175 -175 -175 175 -175 175 -85 -85z"/>
<path d="M85 1140 l-80 -80 173 -173 172 -172 -175 -175 -175 -175 82 -82 83
-82 232 227 c245 240 256 256 232 320 -9 23 -445 472 -459 472 -3 0 -41 -36
-85 -80z"/>
<path d="M1028 1003 c-119 -120 -221 -228 -227 -240 -6 -12 -11 -39 -11 -59 0
-36 12 -50 232 -271 l233 -233 82 82 83 83 -170 170 c-93 94 -170 175 -170
182 0 6 78 86 172 177 l173 166 -80 80 c-44 44 -84 80 -90 80 -6 0 -108 -98
-227 -217z"/>
<path d="M665 626 c-16 -8 -129 -113 -250 -235 l-220 -221 83 -82 82 -83 175
175 175 175 175 -175 175 -175 83 83 83 83 -223 222 c-123 122 -234 227 -246
234 -28 16 -55 16 -92 -1z"/>
</g>
</svg>
