<svg width="24" height="23" viewBox="0 0 24 23" xmlns="http://www.w3.org/2000/svg" xmlns:xlink="http://www.w3.org/1999/xlink">
    <defs>
        <path id="a" d="M0 0h12.438v11.732H0z"/>
    </defs>
    <g fill="none" fill-rule="evenodd">
        <path d="M.08 1.164c.16.056.33.056.546.113.113 0 .217.113.217.217.056.216.16.433.216.706.057.113 0 .216-.113.16-.16-.057-.33-.057-.49-.113-.112 0-.16-.113-.216-.217-.056-.216-.16-.489-.216-.706-.057-.113 0-.216.056-.16M.673.016c.16.056.386.113.546.16.113 0 .217.16.217.273.056.16.16.386.216.603.057.113 0 .16-.113.16a1.545 1.545 0 0 0-.546-.113C.88 1.099.777.986.777.826.72.609.616.393.56.12.513.072.569-.041.673.016M1.718.289c.16.056.386.113.546.16.113.057.217.16.217.273.113.217.16.433.273.659.056.113 0 .16-.113.16-.16-.056-.386-.113-.546-.16-.113 0-.217-.16-.217-.273-.056-.216-.16-.433-.217-.66-.056-.103 0-.16.057-.16M4.985 1.484c.16.056.386.16.546.273.113.057.217.16.217.273.056.217.113.386.216.603.057.113 0 .16-.113.113-.16-.113-.386-.16-.546-.217-.113-.056-.216-.16-.216-.273a3.103 3.103 0 0 0-.217-.603c.009-.169.057-.169.113-.169M1.115 1.38c.16.057.33.057.546.114.113 0 .217.113.217.273.056.217.16.433.216.659.057.113 0 .16-.113.16-.16-.056-.329-.113-.489-.113-.113 0-.16-.113-.217-.216-.056-.217-.16-.433-.217-.707-.056-.113 0-.225.057-.17M2.151 1.654c.16.057.386.113.546.16.113 0 .217.113.217.217.056.216.16.433.216.659.057.113 0 .16-.113.16a1.867 1.867 0 0 0-.546-.113c-.113 0-.216-.113-.216-.217-.057-.216-.16-.433-.217-.659 0-.207.056-.263.113-.207M3.243 1.927c.16.056.386.113.546.16.113.057.217.16.217.273.056.217.16.433.216.603.057.113 0 .16-.113.113-.16-.057-.386-.113-.546-.16-.113 0-.216-.113-.216-.217-.057-.217-.16-.433-.217-.659-.056-.057 0-.113.113-.113M4.335 2.304c.16.056.386.113.546.217.113.056.217.16.217.273.056.216.113.386.216.602.057.113 0 .16-.113.113-.16-.056-.386-.113-.546-.216-.113-.057-.216-.16-.216-.273-.057-.217-.16-.434-.217-.603-.056-.113 0-.17.113-.113M5.418 2.746c.16.056.386.16.546.217.113.056.217.16.217.273.056.216.113.386.216.602.057.113 0 .16-.113.113-.16-.113-.386-.16-.546-.216-.113-.057-.216-.16-.216-.273a3.103 3.103 0 0 0-.217-.603c-.047-.113.01-.17.113-.113M3.676 3.236c.16.056.386.113.546.16.113.057.217.16.217.217.056.216.16.433.216.602.057.113 0 .16-.113.16-.16-.056-.386-.113-.546-.16-.113 0-.216-.113-.216-.216-.057-.217-.16-.433-.217-.66-.047-.103 0-.16.113-.103M4.712 3.565c.16.056.386.113.546.217.113.056.217.16.217.273.056.216.16.386.216.602.057.113 0 .16-.113.113-.16-.056-.386-.113-.546-.16-.113-.056-.216-.16-.216-.216-.057-.217-.16-.434-.217-.603.009-.226.057-.283.113-.226M3.074 4.271c.16.056.33.056.546.113.113 0 .217.113.217.217.056.216.16.433.216.66.057.112 0 .16-.113.16-.16-.058-.33-.058-.49-.114-.112 0-.16-.113-.216-.217-.056-.216-.16-.433-.216-.659-.104-.104-.048-.16.056-.16M4.11 4.488c.16.056.385.113.545.16.113 0 .217.113.217.217.056.216.16.433.216.602.057.113 0 .16-.113.16a1.9 1.9 0 0 0-.546-.113c-.113 0-.216-.113-.216-.216-.057-.217-.16-.433-.217-.659-.047-.095.01-.151.113-.151M5.145 4.818c.16.056.386.113.546.16.113.057.217.16.217.273.056.217.16.386.216.603.057.113 0 .16-.113.113-.16-.057-.386-.113-.546-.16-.113-.057-.216-.113-.216-.217-.057-.217-.16-.433-.217-.603.01-.17.01-.226.113-.17M6.237 5.194c.16.057.386.16.546.217.113.056.217.16.217.273.056.216.113.386.216.602.057.113 0 .16-.113.113-.16-.056-.386-.16-.546-.216-.113-.057-.216-.16-.216-.273a3.103 3.103 0 0 0-.217-.603c-.047-.113.01-.169.113-.113M6.237 2.087c.217.113.386.217.603.33.113.056.216.216.273.273.056.216.113.386.216.602.057.113 0 .113-.113.057a3.9 3.9 0 0 1-.659-.33c-.113-.056-.216-.16-.216-.273a3.127 3.127 0 0 0-.217-.603c-.047-.056.01-.113.113-.056M6.623 3.292c.217.113.386.217.603.273.113.057.216.217.273.273.056.217.113.386.216.603.057.113 0 .113-.113.056-.216-.113-.386-.216-.602-.273-.113-.056-.217-.16-.217-.273-.16-.16-.216-.386-.273-.546-.047-.113 0-.169.113-.113M7 4.488c.217.113.386.16.603.273.113.057.216.16.273.273.056.217.113.386.216.603.057.113 0 .113-.113.056-.216-.113-.386-.216-.602-.273-.113-.056-.217-.16-.217-.273a3.121 3.121 0 0 0-.216-.603c-.048-.056.009-.112.056-.056M7.442 5.684c.217.113.386.16.603.273.113.057.216.16.273.273.056.217.113.386.216.603.057.113 0 .113-.113.056-.216-.113-.386-.16-.602-.273-.113-.056-.217-.16-.217-.273a3.121 3.121 0 0 0-.216-.603c-.113-.056-.057-.103.056-.056M7.386 2.746c.217.113.433.273.603.386.113.057.216.217.273.33.056.216.113.386.216.602.057.113 0 .113-.113.057-.216-.16-.433-.273-.602-.386-.113-.057-.217-.217-.273-.273a3.103 3.103 0 0 0-.217-.603c-.047-.17 0-.17.113-.113M8.638 3.565c.217.16.433.386.66.546.112.113.216.273.272.33.057.16.113.386.217.602.056.113-.057.113-.16 0-.217-.16-.434-.386-.659-.546-.113-.113-.217-.216-.274-.329a3.098 3.098 0 0 0-.216-.603c0-.057.056-.113.16 0M10.003 4.761c.273.273.546.603.876 1.036.16.216 1.525 4.312 1.525 4.312s-1.149-3.277-1.252-3.437c-.273-.386-.603-.706-.819-.979a1.605 1.605 0 0 1-.273-.386c-.057-.16-.113-.386-.16-.546-.114-.16-.01-.113.103 0M9.024 4.705c.217.16.433.33.66.546.112.113.216.273.272.33.057.216.113.386.217.602.056.113-.057.113-.16 0-.217-.16-.434-.386-.659-.546-.113-.056-.217-.216-.274-.33a3.098 3.098 0 0 0-.216-.602c-.009-.056.047-.056.16 0" fill="#211E1E"/>
        <path d="M10.39 5.91c.272.273.545.603.818.979.16.16 1.196 3.22 1.196 3.22s-.763-2.241-.923-2.401c-.273-.33-.546-.66-.819-.875a1.605 1.605 0 0 1-.273-.386c-.056-.217-.113-.386-.16-.546-.066-.16.047-.104.16.009M8.205 5.09c.217.114.386.274.603.387.113.057.216.217.273.33.056.216.113.386.216.602.057.113 0 .113-.113.057-.216-.113-.433-.273-.602-.386-.113-.057-.217-.16-.217-.273a3.039 3.039 0 0 0-.217-.603c-.103-.113-.056-.17.057-.113M9.4 5.91c.218.16.434.33.66.546.113.113.217.273.273.33.057.216.113.386.217.602.056.113-.057.113-.16 0-.217-.16-.433-.33-.66-.49-.112-.056-.216-.216-.272-.33a3.127 3.127 0 0 0-.217-.602c0-.112.056-.17.16-.056" fill="#211E1E"/>
        <path d="M10.766 7.049c.273.217.546.546.819.876.16.16.876 2.184.876 2.184s-.433-1.149-.603-1.309c-.273-.329-.546-.602-.762-.819a1.64 1.64 0 0 1-.274-.386c-.056-.16-.112-.386-.16-.546-.113-.16 0-.104.104 0M8.582 6.286c.217.113.386.273.603.386.113.057.216.217.273.33.056.216.113.386.216.602.057.113 0 .113-.113.057-.216-.113-.433-.273-.602-.386-.113-.057-.217-.16-.217-.273a3.098 3.098 0 0 0-.216-.603c-.104-.113-.048-.17.056-.113M9.843 7.105c.217.16.433.33.66.49.112.113.216.273.272.33.057.216.113.385.217.602.056.113-.057.113-.16 0-.217-.16-.434-.33-.659-.49-.113-.056-.217-.216-.274-.329a3.098 3.098 0 0 0-.216-.603c-.057-.057.047-.113.16 0" fill="#211E1E"/>
        <path d="M11.152 8.141c.273.217.49.49.763.82.113.16.49 1.091.49 1.091s-.114-.113-.217-.273c-.273-.273-.49-.546-.763-.762-.113-.113-.217-.273-.273-.33-.057-.16-.113-.386-.16-.546-.057-.104.047-.104.16 0M8.092 20.635c.16-.113.33-.273.49-.386.056-.057.056-.113 0-.16-.16-.16-.273-.33-.434-.433a.158.158 0 0 0-.216 0c-.16.113-.33.273-.49.386-.056.056-.056.113 0 .16.16.16.273.33.433.49.057-.057.17 0 .217-.057m5.188-8.295c-.16-.433-.33-.979-.659-1.638-.113-.273-.217-.433-.217-.433v.216c0 .33 0 .603-.056.876v.216l.16.16s.056-.056.056-.16c0-.329-.056-.659-.113-1.035-.056-.16-.056-.273-.056-.273s.056.113.056.273c.113.386.113.762.16 1.092 0 .113 0 .216.057.216l.16.161v-.217a6.935 6.935 0 0 0-.273-1.252 30.11 30.11 0 0 0 0 0c.16.49.273.922.33 1.252 0 .113.056.217.056.273l.16.16v-.216c-.113-.434-.217-.876-.433-1.422-.113-.217-.16-.386-.16-.386s.113.16.16.386c.216.546.386 1.036.49 1.47.065.178.065.281.122.281l.16.16c-.113.113-.113.01-.16-.16m.32 2.128c0-.33-.057-.659-.113-1.036 0-.16-.056-.273-.056-.273l-.16-.16v.16c.056.33.056.66.056.98 0 .112 0 .216.056.272.057.113.16.161.217.273v-.216m-.104 1.582c.057-.273.057-.546.113-.819 0-.113 0-.217-.056-.273l-.273-.274c-.057-.056-.057 0-.057.113-.056.274-.113.547-.16.763 0 .113 0 .217.057.217.113.113.216.216.273.33.047.103.047.056.103-.057m-.386 1.365c.057-.217.16-.433.217-.706v-.217c-.113-.113-.217-.216-.273-.329-.057-.057-.113 0-.113.113-.057.216-.16.433-.217.66-.056.055 0 .16 0 .215.113.113.217.217.33.386 0-.009.056-.066.056-.122m-.433 1.196c.113-.217.16-.433.273-.659.057-.057 0-.16 0-.217-.113-.113-.216-.216-.329-.386-.057-.056-.113 0-.16.057-.113.216-.217.386-.273.602a.16.16 0 0 0 0 .217c.113.113.216.273.386.386-.01.113.047.056.103 0m-1.308 2.08c.113-.16.273-.329.386-.489a.161.161 0 0 0 0-.217c-.113-.16-.273-.273-.386-.433-.057-.056-.113-.056-.16 0-.113.16-.274.33-.387.49a.16.16 0 0 0 0 .216c.113.16.273.273.386.433 0 .048.104.048.161 0m-.82.867c.16-.16.273-.33.434-.49a.16.16 0 0 0 0-.216c-.113-.16-.274-.273-.387-.434-.056-.056-.112-.056-.16 0-.16.161-.273.33-.433.434a.16.16 0 0 0 0 .216c.16.16.273.33.433.433 0 .113.057.113.113.057m2.618-7.58v-.922c0-.113-.057-.217-.057-.273l-.16-.16s-.056.056-.056.16c0 .33-.057.602-.057.875 0 .113 0 .217.057.217.056.113.16.16.216.273.057-.01.057-.057.057-.17m-.217 1.47c.057-.274.113-.49.16-.764 0-.112 0-.216-.056-.216-.057-.113-.16-.16-.273-.273-.057-.057-.057 0-.113.113a2.97 2.97 0 0 1-.217.706v.217c.113.113.217.216.273.33.17.056.226 0 .226-.114m-.433 1.31c.113-.218.16-.434.217-.66v-.217c-.113-.113-.217-.216-.273-.329-.057-.057-.113 0-.113.056-.113.217-.16.433-.273.66a.16.16 0 0 0 0 .216l.33.33c.056.056.112 0 .112-.057m-.546 1.15c.113-.218.217-.387.33-.604a.161.161 0 0 0 0-.217c-.113-.113-.217-.216-.33-.386-.056-.056-.113 0-.16.057a4.677 4.677 0 0 1-.329.546.16.16 0 0 0 0 .217c.113.113.216.273.386.386-.01.056.103.056.103 0m-.659 1.035c.113-.16.273-.329.386-.546a.158.158 0 0 0 0-.216c-.113-.113-.216-.273-.386-.386-.056-.057-.113-.057-.16.056-.113.16-.273.33-.386.546a.16.16 0 0 0 0 .217c.113.16.273.273.386.433.056-.047.104-.047.16-.104m-.706.932c.113-.16.273-.329.386-.489a.161.161 0 0 0 0-.217c-.113-.16-.273-.273-.386-.433-.057-.056-.113-.056-.16 0-.16.16-.273.33-.433.49a.158.158 0 0 0 0 .216c.113.16.273.273.386.433.037.047.15.047.207 0m-.819.867c.16-.16.33-.273.433-.434a.16.16 0 0 0 0-.216c-.113-.16-.273-.273-.386-.433-.057-.057-.113-.057-.16 0-.16.16-.33.273-.433.433-.057.056-.057.113 0 .16.16.16.273.33.433.433-.047.057.056.113.113.057m3.003-7.194c.057-.273.057-.546.057-.819 0-.113 0-.216-.057-.216l-.16-.16s-.056.056-.056.16c-.057.273-.113.546-.16.762v.217c.056.113.16.16.216.273.104-.057.104-.113.16-.217m-.386 1.356c.057-.217.16-.433.217-.706v-.217l-.273-.273c-.057-.056-.057 0-.113.113-.057.217-.16.433-.273.66a.16.16 0 0 0 0 .216c.113.113.216.216.273.33.113-.01.17-.01.17-.123m-.49 1.205c.113-.216.216-.386.273-.602a.161.161 0 0 0 0-.217c-.113-.113-.217-.216-.273-.329-.057-.057-.113 0-.113.056-.113.217-.217.386-.33.603a.16.16 0 0 0 0 .216c.113.113.217.217.33.386 0-.009.056-.056.113-.113m-.603 1.092c.113-.16.217-.386.33-.546a.16.16 0 0 0 0-.216 2.36 2.36 0 0 1-.33-.386c-.056-.057-.113 0-.16.056-.113.16-.217.386-.386.546a.16.16 0 0 0 0 .217c.113.113.217.273.386.386.056 0 .104 0 .16-.057m-.706.98c.113-.16.273-.33.386-.49a.161.161 0 0 0 0-.217l-.386-.386c-.057-.056-.113-.056-.16 0-.113.16-.273.33-.386.49a.16.16 0 0 0 0 .217c.113.16.273.273.386.433a.165.165 0 0 0 .16-.047m-.763.875c.16-.16.273-.329.433-.489a.16.16 0 0 0 0-.217c-.113-.16-.273-.273-.386-.433-.056-.057-.113-.057-.16 0-.16.16-.273.33-.433.433a.161.161 0 0 0 0 .217c.113.16.273.273.386.433.047.113.104.113.16.056m2.505-5.95c.056-.217.113-.49.16-.763v-.216l-.16-.16s-.057.056-.057.112c-.056.217-.16.434-.216.66a.158.158 0 0 0 0 .216c.056.113.16.16.216.273 0-.009.057-.009.057-.122m-.433 1.261c.113-.216.16-.433.273-.659.056-.056 0-.16 0-.216l-.273-.273c-.057-.057-.057 0-.113.056-.113.217-.217.386-.33.603a.16.16 0 0 0 0 .216c.113.113.217.217.273.33.057.047.113-.01.17-.057m-.603 1.083c.113-.16.217-.386.33-.602a.161.161 0 0 0 0-.217c-.113-.113-.217-.217-.273-.33-.057-.056-.113 0-.16.057-.113.16-.217.386-.387.546a.161.161 0 0 0 0 .217c.113.113.217.216.33.386.056.056.104 0 .16-.057m-.65.99c.113-.16.217-.33.386-.547a.16.16 0 0 0 0-.217 2.316 2.316 0 0 1-.329-.386c-.057-.056-.113-.056-.16.057-.113.16-.273.33-.386.49a.16.16 0 0 0 0 .216c.113.113.216.273.386.386-.066.103.047.103.103 0m-.772.922c.16-.16.273-.329.386-.489a.16.16 0 0 0 0-.217c-.113-.113-.216-.273-.386-.386-.056-.056-.113-.056-.16 0-.16.16-.273.33-.433.49a.16.16 0 0 0 0 .216c.113.16.273.273.386.434.104.065.16.01.207-.048m-.809.876c.16-.16.273-.329.433-.433a.161.161 0 0 0 0-.217c-.113-.16-.273-.273-.386-.433-.057-.056-.113-.056-.16 0l-.433.433c-.057.057-.057.113 0 .16.113.161.273.274.386.434.047.113.103.113.16.056m-.876.82c.16-.16.33-.274.49-.434a.16.16 0 0 0 0-.216c-.113-.16-.273-.273-.386-.434-.057-.056-.113-.056-.16 0-.16.113-.33.274-.49.386-.057.057-.057.113 0 .161.16.16.273.33.433.433 0 .16.056.16.113.103m1.47 3.324c.16-.16.328-.273.488-.433a.16.16 0 0 0 0-.217c-.16-.16-.273-.329-.433-.433-.056-.056-.113-.056-.216 0-.16.16-.33.273-.49.386-.056.057-.056.113 0 .16.16.16.273.33.433.49.113.103.17.103.217.047" fill="#211E1E"/>
        <g transform="translate(11.482 6.992)">
            <mask id="b" fill="#fff">
                <use xlink:href="#a"/>
            </mask>
            <path d="M6.487 5.734 12.268.009H7.363L4.03 3.277.706 0H0c.056.16.16.386.273.603.329.875.706 2.128 1.092 3.653 1.092 1.252 1.582 2.947 1.469 5.075l1.149-1.149 3.549 3.55h4.906L6.92 6.167l-.433-.433" fill="#211E1E" mask="url(#b)"/>
        </g>
    </g>
</svg>
