<svg width="112" height="112" viewBox="0 0 112 112" xmlns="http://www.w3.org/2000/svg" xmlns:xlink="http://www.w3.org/1999/xlink">
    <defs>
        <filter x="-1.8%" y="-1.8%" width="103.6%" height="103.6%" filterUnits="objectBoundingBox" id="b">
            <feMorphology radius="1" in="SourceAlpha" result="shadowSpreadInner1"/>
            <feGaussianBlur stdDeviation="1.5" in="shadowSpreadInner1" result="shadowBlurInner1"/>
            <feOffset in="shadowBlurInner1" result="shadowOffsetInner1"/>
            <feComposite in="shadowOffsetInner1" in2="SourceAlpha" operator="arithmetic" k2="-1" k3="1" result="shadowInnerInner1"/>
            <feColorMatrix values="0 0 0 0 0 0 0 0 0 0 0 0 0 0 0 0 0 0 0.160847697 0" in="shadowInnerInner1"/>
        </filter>
        <rect id="a" x="0" y="0" width="112" height="112" rx="56"/>
        <path id="c" d="M0 0h3.61v3.61H0z"/>
    </defs>
    <g fill="none" fill-rule="evenodd">
        <g>
            <use fill="#FEFEFE" xlink:href="#a"/>
            <use fill="#000" filter="url(#b)" xlink:href="#a"/>
        </g>
        <path d="M16.215 26.653c.455.16.911.16 1.519.32.304 0 .607.32.607.641.152.641.456 1.282.608 2.083.152.32 0 .64-.304.48-.456-.16-.911-.16-1.367-.32-.304 0-.456-.32-.608-.64-.151-.641-.455-1.443-.607-2.084-.152-.32 0-.64.152-.48" fill="#211E1E"/>
        <g transform="translate(17.805 23)">
            <mask id="d" fill="#fff">
                <use xlink:href="#c"/>
            </mask>
            <path d="M.416.044C.936.206 1.63.368 2.152.53c.348 0 .695.487.695.81.174.487.521 1.136.695 1.784.174.324 0 .486-.347.486-.521-.162-1.043-.324-1.737-.324-.348 0-.695-.324-.695-.81C.59 1.827.242 1.179.068.368c-.173-.162 0-.486.348-.324" fill="#211E1E" mask="url(#d)"/>
        </g>
        <path d="M21.059 24.203c.52.157 1.214.314 1.735.471.347.157.694.471.694.785.347.628.52 1.256.868 1.884.173.314 0 .47-.347.47-.521-.156-1.215-.313-1.736-.47-.346 0-.694-.471-.694-.785-.173-.628-.52-1.256-.693-1.884-.174-.314 0-.47.173-.47M30.736 27.212a6.767 6.767 0 0 1 1.475.772c.295.154.59.462.59.771.148.617.295 1.08.59 1.698.148.309 0 .463-.295.309-.442-.31-1.032-.463-1.475-.618-.295-.154-.59-.463-.59-.772a7.755 7.755 0 0 0-.59-1.697c0-.463.147-.463.295-.463M19.825 27.255c.456.162.911.162 1.519.324.304 0 .607.324.607.81.152.65.456 1.298.608 1.947.152.324 0 .486-.304.486-.455-.162-.911-.324-1.367-.324-.303 0-.456-.324-.607-.649-.152-.648-.456-1.297-.608-2.108-.152-.324 0-.648.152-.486M22.914 27.872c.442.161 1.032.323 1.475.484.295 0 .59.323.59.646.148.646.443 1.292.59 1.937.148.323 0 .485-.295.485-.442-.162-1.032-.323-1.475-.323-.295 0-.59-.323-.59-.646-.148-.646-.443-1.292-.59-1.938 0-.645.147-.807.295-.645M25.441 28.415c.521.169 1.216.338 1.737.507.347.168.695.506.695.843.173.675.52 1.35.694 1.857.174.337 0 .506-.347.337-.521-.169-1.216-.337-1.737-.506-.347 0-.695-.338-.695-.675-.173-.675-.52-1.35-.694-2.025-.174-.17 0-.338.347-.338M29.051 29.68c.521.16 1.216.318 1.737.634.348.16.695.476.695.793.174.634.347 1.109.695 1.743.173.317 0 .475-.348.317-.52-.159-1.216-.317-1.737-.634-.347-.159-.694-.475-.694-.792-.174-.634-.521-1.268-.695-1.743-.174-.317 0-.476.347-.317M32.06 30.884c.52.159 1.215.476 1.736.634.348.159.695.475.695.792.174.634.348 1.11.695 1.743.174.317 0 .475-.347.317-.521-.317-1.216-.475-1.737-.634-.348-.158-.695-.475-.695-.792a7.303 7.303 0 0 0-.695-1.743c-.173-.317 0-.475.348-.317M26.644 32.693c.521.169 1.216.338 1.737.507.348.168.695.506.695.675.174.674.521 1.35.695 1.856.173.337 0 .506-.348.506-.52-.169-1.215-.337-1.736-.506-.348 0-.695-.338-.695-.675-.174-.675-.521-1.35-.695-2.025-.174-.338 0-.506.347-.338M30.134 33.286c.443.159 1.033.317 1.475.635.295.158.59.476.59.793.148.635.443 1.11.59 1.745.148.318 0 .476-.295.318-.442-.16-1.032-.318-1.475-.476-.295-.159-.59-.476-.59-.635-.147-.635-.442-1.27-.59-1.745 0-.635.148-.794.295-.635M25.332 35.636c.441.171.882.171 1.47.344.293 0 .587.343.587.687.147.688.44 1.375.587 2.063.147.344 0 .516-.294.516-.44-.172-.88-.172-1.321-.344-.294 0-.441-.344-.588-.688-.147-.687-.44-1.375-.587-2.063-.294-.344-.147-.515.146-.515M28.45 36.237c.52.172 1.215.344 1.736.516.348 0 .695.344.695.688.174.687.521 1.375.695 1.89.174.344 0 .516-.348.516-.52-.172-1.215-.343-1.736-.343-.348 0-.695-.344-.695-.688-.174-.688-.521-1.375-.695-2.063-.174-.344 0-.516.347-.516M31.338 36.901c.442.166 1.032.332 1.475.498.295.165.59.497.59.829.147.663.442 1.161.59 1.824.147.332 0 .498-.295.332-.443-.166-1.033-.332-1.475-.497-.295-.166-.59-.332-.59-.664-.148-.663-.443-1.327-.59-1.824 0-.498 0-.664.295-.498M34.466 38.104c.522.159 1.216.476 1.737.634.348.159.695.476.695.793.174.633.347 1.109.695 1.742.174.317 0 .476-.348.317-.52-.158-1.215-.475-1.736-.633-.348-.159-.695-.476-.695-.793a7.303 7.303 0 0 0-.695-1.743c-.174-.317 0-.475.347-.317M34.43 29.079c.634.3 1.11.6 1.743.9.317.15.634.6.792.75.159.6.317 1.05.634 1.65.158.3 0 .3-.317.15-.792-.3-1.426-.6-1.901-.9-.317-.15-.634-.45-.634-.75a7.069 7.069 0 0 0-.634-1.65c-.158-.15 0-.3.317-.15M35.633 32.689c.634.313 1.11.626 1.743.783.317.156.634.626.793.783.158.626.317 1.096.633 1.723.159.313 0 .313-.316.156-.634-.313-1.11-.626-1.744-.783-.316-.156-.633-.47-.633-.783-.476-.47-.634-1.096-.793-1.566-.158-.313 0-.47.317-.313M36.692 36.302c.662.313 1.159.47 1.82.783.332.156.663.469.829.782.165.626.33 1.095.662 1.721.165.313 0 .313-.331.157-.663-.313-1.16-.626-1.821-.783-.331-.156-.663-.47-.663-.782a7.367 7.367 0 0 0-.662-1.722c-.165-.156 0-.312.166-.156M37.997 39.912c.642.313 1.124.47 1.766.783.321.156.642.469.803.782.16.626.321 1.095.642 1.721.16.313 0 .313-.32.157-.643-.313-1.125-.47-1.767-.783-.321-.156-.643-.47-.643-.782a7.508 7.508 0 0 0-.642-1.721c-.321-.157-.16-.313.16-.157M38.04 30.918c.634.32 1.268.802 1.743 1.123.317.16.634.641.792.962.159.642.317 1.123.634 1.765.158.32 0 .32-.317.16-.634-.48-1.267-.802-1.743-1.122-.316-.16-.633-.642-.792-.803a7.887 7.887 0 0 0-.634-1.764c-.158-.481 0-.481.317-.321M41.718 33.416c.595.487 1.19 1.136 1.785 1.623.297.325.595.812.744.974.148.487.297 1.137.595 1.786.149.325-.15.325-.447 0-.595-.487-1.19-1.136-1.785-1.623-.297-.325-.595-.65-.744-.974a8.378 8.378 0 0 0-.595-1.786c0-.162.149-.324.447 0M45.354 37.147c.835.813 1.67 1.789 2.672 3.09.501.65 4.677 12.848 4.677 12.848s-3.507-9.758-3.842-10.246c-.835-1.138-1.837-2.114-2.505-2.927a4.943 4.943 0 0 1-.835-1.139c-.167-.488-.334-1.138-.501-1.626-.334-.488 0-.325.334 0M42.92 36.962c.596.494 1.19.988 1.786 1.646.298.33.595.823.744.987.149.659.298 1.152.595 1.81.149.33-.149.33-.446 0-.595-.493-1.19-1.151-1.785-1.645-.298-.165-.595-.658-.744-.988a8.577 8.577 0 0 0-.595-1.81c0-.164.148-.164.446 0" fill="#211E1E"/>
        <path d="M46.622 40.752c.822.801 1.643 1.762 2.465 2.883.493.48 3.616 9.45 3.616 9.45s-2.3-6.567-2.794-7.047c-.822-.961-1.644-1.922-2.465-2.563a4.86 4.86 0 0 1-.822-1.121c-.165-.64-.33-1.121-.494-1.602-.164-.48.165-.32.494 0M40.403 38.106c.643.323 1.124.808 1.767 1.132.321.161.642.646.803.97a7.92 7.92 0 0 0 .642 1.778c.16.324 0 .324-.321.162-.643-.323-1.285-.808-1.767-1.132-.32-.162-.642-.485-.642-.808a7.92 7.92 0 0 0-.642-1.779c-.321-.323-.16-.485.16-.323M44.124 40.627c.595.488 1.19.976 1.786 1.626.297.326.595.814.743.976.15.65.298 1.139.596 1.79.148.325-.15.325-.447 0l-1.785-1.464c-.298-.163-.595-.651-.744-.976a8.412 8.412 0 0 0-.595-1.79c0-.325.149-.488.446-.162" fill="#211E1E"/>
        <path d="M47.74 43.753c.801.623 1.602 1.559 2.402 2.494.48.468 2.561 6.236 2.561 6.236s-1.28-3.274-1.76-3.741c-.8-.936-1.601-1.715-2.242-2.339-.32-.312-.64-.78-.8-1.091-.16-.468-.32-1.091-.48-1.56-.32-.467 0-.311.32 0M41.607 41.716c.642.323 1.124.809 1.766 1.132.321.161.643.646.803.97a7.92 7.92 0 0 0 .642 1.778c.16.324 0 .324-.32.162-.643-.323-1.285-.808-1.767-1.132-.321-.161-.642-.485-.642-.808a7.92 7.92 0 0 0-.643-1.779c-.32-.323-.16-.485.16-.323M45.442 43.652l2.06 1.512c.344.335.687.84.859 1.007a8.08 8.08 0 0 0 .687 1.848c.171.336-.172.336-.515 0l-2.06-1.512c-.344-.168-.687-.672-.86-1.008a8.064 8.064 0 0 0-.686-1.847c-.172-.168.172-.336.515 0" fill="#211E1E"/>
        <path d="M49.015 46.713c.802.66 1.444 1.484 2.245 2.473.32.495 1.443 3.297 1.443 3.297s-.32-.33-.641-.824c-.802-.824-1.443-1.649-2.245-2.308-.32-.33-.641-.824-.802-.99-.16-.494-.32-1.153-.48-1.648-.161-.33.16-.33.48 0M40.286 83.915c.476-.323.952-.807 1.428-1.13.159-.161.159-.323 0-.484-.476-.484-.793-.969-1.27-1.291a.477.477 0 0 0-.634 0c-.476.322-.952.807-1.428 1.13-.159.161-.159.322 0 .484.476.484.793.968 1.27 1.452.158-.16.475 0 .634-.16zM55.361 59.38c-.475-1.292-.952-2.906-1.904-4.842a7.744 7.744 0 0 0-.635-1.292v.646c0 .968 0 1.775-.158 2.582v.646l.476.484s.158-.161.158-.484c0-.968-.158-1.937-.317-3.067-.159-.484-.159-.807-.159-.807s.16.323.16.807c.316 1.13.316 2.26.475 3.229 0 .322 0 .645.159.645l.476.484v-.645c-.159-1.13-.317-2.26-.794-3.713l-.317-.968.317.968c.477 1.453.794 2.744.953 3.713 0 .322.158.645.158.807.16.161.318.323.476.484v-.646c-.317-1.29-.634-2.582-1.27-4.196-.317-.646-.475-1.13-.475-1.13s.317.484.476 1.13c.635 1.614 1.11 3.067 1.428 4.358.159.484.159.807.317.807.16.161.318.323.476.484-.317.323-.317 0-.476-.484zm.953 6.295c0-.968-.159-1.937-.318-3.067 0-.484-.159-.807-.159-.807l-.476-.484v.484c.16.969.16 1.937.16 2.906 0 .323 0 .645.158.807.158.322.476.484.635.807v-.646zm-.318 4.681c.159-.807.159-1.614.318-2.421 0-.323 0-.646-.159-.807l-.794-.807c-.158-.162-.158 0-.158.323-.159.807-.317 1.614-.476 2.26 0 .322 0 .645.159.645.317.323.634.646.793.969.158.322.158.161.317-.162zm-1.11 4.036c.158-.646.475-1.292.634-2.099v-.646c-.317-.322-.634-.645-.793-.968-.159-.161-.318 0-.318.323-.158.645-.476 1.291-.634 1.937-.16.161 0 .484 0 .645.317.323.634.646.952 1.13 0 0 .159-.161.159-.322zm-1.27 3.55c.317-.645.476-1.29.793-1.936.16-.162 0-.484 0-.646-.317-.323-.634-.646-.952-1.13-.159-.161-.317 0-.476.162-.317.645-.634 1.13-.793 1.775a.497.497 0 0 0 0 .646c.317.323.635.807 1.11 1.13 0 .323.16.161.318 0zm-3.809 6.134c.318-.484.794-.968 1.111-1.452a.498.498 0 0 0 0-.646c-.317-.484-.793-.807-1.11-1.291-.16-.161-.318-.161-.477 0-.317.484-.793.968-1.11 1.453a.497.497 0 0 0 0 .645c.317.485.793.807 1.11 1.291 0 .162.318.162.476 0zm-2.38 2.583c.476-.484.793-.968 1.27-1.453a.497.497 0 0 0 0-.645c-.318-.485-.794-.807-1.111-1.291-.159-.162-.318-.162-.476 0-.477.484-.794.968-1.27 1.29-.158.162-.158.485 0 .646.476.485.793.969 1.27 1.292 0 .323.158.323.317.161zm7.617-22.437v-2.744c0-.323-.158-.645-.158-.807l-.477-.484s-.158.161-.158.484c0 .969-.159 1.776-.159 2.583 0 .323 0 .646.159.646.158.322.476.484.635.807.158 0 .158-.162.158-.485zm-.635 4.359c.16-.807.318-1.453.477-2.26 0-.323 0-.646-.16-.646-.158-.323-.475-.484-.793-.807-.158-.161-.158 0-.317.323-.159.807-.318 1.453-.635 2.098v.646c.317.323.635.646.794.968.476.162.634 0 .634-.322zm-1.27 3.874c.318-.646.477-1.292.636-1.937v-.646c-.318-.323-.635-.646-.794-.969-.158-.16-.317 0-.317.162-.317.646-.476 1.291-.794 1.937a.497.497 0 0 0 0 .645l.952.969c.16.162.318 0 .318-.161zm-1.586 3.39c.317-.646.635-1.13.952-1.776a.497.497 0 0 0 0-.646c-.317-.323-.635-.645-.952-1.13-.159-.161-.318 0-.476.162-.318.645-.635 1.13-.952 1.614a.497.497 0 0 0 0 .645c.317.323.634.808 1.11 1.13 0 .162.318.162.318 0zm-1.904 3.066c.317-.484.793-.968 1.11-1.614a.497.497 0 0 0 0-.646c-.317-.323-.634-.807-1.11-1.13-.159-.16-.318-.16-.476.162-.318.484-.794.968-1.111 1.614a.498.498 0 0 0 0 .646c.317.484.793.807 1.11 1.291.16-.161.318-.161.477-.323zm-2.063 2.744c.317-.484.793-.968 1.11-1.452a.497.497 0 0 0 0-.646c-.317-.484-.793-.807-1.11-1.291-.159-.162-.318-.162-.476 0-.477.484-.794.968-1.27 1.452a.497.497 0 0 0 0 .646c.317.484.793.807 1.111 1.291a.477.477 0 0 0 .635 0zm-2.38 2.583c.476-.484.951-.807 1.269-1.291a.497.497 0 0 0 0-.646c-.318-.484-.793-.807-1.11-1.291-.16-.162-.318-.162-.477 0-.476.484-.952.807-1.27 1.291-.158.161-.158.323 0 .484.476.485.794.969 1.27 1.291-.159.162.159.323.317.162zm8.727-21.307c.159-.807.159-1.614.159-2.421 0-.323 0-.646-.159-.646l-.476-.484s-.159.161-.159.484c-.158.807-.317 1.614-.475 2.26v.646c.158.322.475.484.634.807.318-.162.318-.323.476-.646zm-1.11 4.035c.158-.645.475-1.29.634-2.098v-.646l-.793-.807c-.159-.161-.159 0-.317.323-.16.646-.477 1.292-.794 1.937a.497.497 0 0 0 0 .646c.317.323.635.645.794.968.317 0 .475 0 .475-.323zm-1.429 3.552c.318-.646.635-1.13.794-1.776a.497.497 0 0 0 0-.646c-.318-.322-.635-.645-.794-.968-.159-.162-.317 0-.317.161-.318.646-.635 1.13-.952 1.776a.498.498 0 0 0 0 .646c.317.322.634.645.952 1.13l.317-.323zm-1.745 3.228c.317-.484.635-1.13.952-1.614a.497.497 0 0 0 0-.646c-.317-.323-.635-.646-.952-1.13-.159-.161-.318 0-.476.162-.318.484-.635 1.13-1.111 1.614a.498.498 0 0 0 0 .646c.317.322.634.806 1.11 1.13.16 0 .318 0 .477-.162zm-2.063 2.905c.317-.484.793-.968 1.11-1.452a.497.497 0 0 0 0-.646l-1.11-1.13c-.159-.161-.318-.161-.476 0-.318.484-.794.969-1.111 1.453a.497.497 0 0 0 0 .646c.317.484.793.806 1.11 1.29.16 0 .318 0 .477-.16zm-2.222 2.583c.476-.484.793-.968 1.27-1.453a.497.497 0 0 0 0-.645c-.318-.485-.794-.808-1.111-1.292-.159-.161-.318-.161-.476 0-.476.484-.794.969-1.27 1.292a.497.497 0 0 0 0 .645c.317.485.794.807 1.111 1.292.159.322.317.322.476.161zm7.3-17.594c.158-.646.317-1.453.476-2.26v-.646l-.476-.484s-.159.161-.159.323c-.158.646-.476 1.291-.635 1.937a.497.497 0 0 0 0 .645c.159.323.477.485.635.808 0 0 .159 0 .159-.323zm-1.27 3.712c.318-.645.476-1.291.794-1.937.159-.161 0-.484 0-.645l-.794-.807c-.159-.162-.159 0-.317.16-.318.647-.635 1.13-.952 1.777a.497.497 0 0 0 0 .645c.317.323.634.646.793.969.159.161.317 0 .476-.162zm-1.745 3.229c.317-.485.635-1.13.952-1.776a.497.497 0 0 0 0-.646c-.317-.323-.635-.645-.794-.968-.158-.161-.317 0-.476.161-.317.484-.635 1.13-1.11 1.614a.498.498 0 0 0 0 .646c.317.323.634.646.952 1.13.158.161.317 0 .476-.161zm-1.904 2.905c.317-.484.634-.968 1.11-1.614a.497.497 0 0 0 0-.646c-.317-.323-.635-.645-.952-1.13-.158-.161-.317-.161-.476.162-.317.484-.794.968-1.11 1.453a.497.497 0 0 0 0 .645c.316.323.634.807 1.11 1.13-.159.323.159.323.318 0zm-2.222 2.744c.476-.484.793-.968 1.11-1.452a.497.497 0 0 0 0-.646c-.317-.323-.634-.807-1.11-1.13-.159-.162-.318-.162-.476 0-.476.484-.794.968-1.27 1.453a.497.497 0 0 0 0 .645c.317.484.794.807 1.111 1.292.317.161.476 0 .635-.162zm-2.38 2.583c.475-.485.793-.969 1.269-1.291a.497.497 0 0 0 0-.646c-.318-.484-.794-.807-1.11-1.292-.16-.16-.318-.16-.477 0l-1.27 1.292c-.158.161-.158.323 0 .484.318.484.794.807 1.111 1.291.16.323.318.323.477.162zm-2.54 2.421c.477-.484.952-.807 1.428-1.291a.497.497 0 0 0 0-.646c-.317-.484-.793-.807-1.11-1.291-.159-.162-.318-.162-.476 0-.476.322-.953.807-1.428 1.13-.16.161-.16.323 0 .484.475.484.793.968 1.269 1.291 0 .484.159.484.317.323zm4.285 9.846c.476-.484.952-.807 1.428-1.291.159-.161.159-.484 0-.646-.476-.484-.793-.968-1.27-1.29-.158-.162-.317-.162-.634 0-.476.483-.952.806-1.428 1.13-.159.16-.159.322 0 .483.476.485.793.969 1.27 1.453.317.323.475.323.634.161z" fill="#211E1E"/>
        <path d="m69.453 60.501 17.064-17.043H72.029l-9.82 9.739-9.82-9.74h-2.092c.16.488.483 1.137.805 1.786.966 2.597 2.092 6.33 3.22 10.876 3.219 3.733 4.668 8.765 4.346 15.095l3.38-3.409 10.464 10.55H87L70.74 61.8l-1.287-1.298z" fill="#211E1E"/>
    </g>
</svg>
