<svg xmlns:xlink="http://www.w3.org/1999/xlink" width="35" height="36" viewBox="0 0 35 36"
     xmlns="http://www.w3.org/2000/svg">
    <defs>
        <filter x="-26.7%" y="-26.7%" width="153.5%" height="153.5%" filterUnits="objectBoundingBox" id="a">
            <feMorphology radius="1" operator="dilate" in="SourceAlpha" result="shadowSpreadOuter1"/>
            <feOffset in="shadowSpreadOuter1" result="shadowOffsetOuter1"/>
            <feGaussianBlur stdDeviation="1.5" in="shadowOffsetOuter1" result="shadowBlurOuter1"/>
            <feComposite in="shadowBlurOuter1" in2="SourceAlpha" operator="out" result="shadowBlurOuter1"/>
            <feColorMatrix values="0 0 0 0 0.0431372549 0 0 0 0 0.0431372549 0 0 0 0 0.0470588235 0 0 0 0.02 0"
                           in="shadowBlurOuter1"/>
        </filter>
        <filter x="-33.8%" y="-33.8%" width="167.6%" height="167.6%" filterUnits="objectBoundingBox" id="c">
            <feMorphology radius="1" operator="dilate" in="SourceAlpha" result="shadowSpreadOuter1"/>
            <feOffset in="shadowSpreadOuter1" result="shadowOffsetOuter1"/>
            <feGaussianBlur stdDeviation="1.5" in="shadowOffsetOuter1" result="shadowBlurOuter1"/>
            <feComposite in="shadowBlurOuter1" in2="SourceAlpha" operator="out" result="shadowBlurOuter1"/>
            <feColorMatrix values="0 0 0 0 0.0431372549 0 0 0 0 0.0431372549 0 0 0 0 0.0470588235 0 0 0 0.02 0"
                           in="shadowBlurOuter1"/>
        </filter>
        <circle id="b" cx="15.857" cy="17.383" r="12.16"/>
        <circle id="d" cx="15.698" cy="17.134" r="9.618"/>
        <linearGradient x1="0%" y1="50%" x2="100%" y2="50%" id="e">
            <stop stop-color="#DADADF" offset="0%"/>
            <stop stop-color="#B8B9C7" offset="100%"/>
        </linearGradient>
    </defs>
    <g fill="none" fill-rule="evenodd">
        <path d="M4.404 9.467a15.59 15.59 0 0 0-.875 16.458l.664-.375.046-.027.027.048a14.527 14.527 0 0 0 7.388 6.484 14.374 14.374 0 0 0 7.483.845l.054-.008.007.055.232 1.708a15.455 15.455 0 0 0 9.622-5.316l-1.255-1.074-.042-.037.037-.042a14.58 14.58 0 0 0 2.317-3.528l.024-.05.048.024 1.841.876a16.904 16.904 0 0 0 1.421-9.35 16.846 16.846 0 0 0-3.825-8.639l-1.543 1.335-.042.035-.035-.042a14.49 14.49 0 0 0-3.39-2.924l-.05-.03.034-.049 1.331-1.865a15.926 15.926 0 0 0-8.02-2.95l-.202 2.665-.003.053-.053-.002c-4.911-.236-9.674 2.07-12.548 6.151l-.032.046-.044-.032-.617-.443z"
              stroke="#CDCDD6" stroke-width=".6"/>
        <g transform="rotate(-180 16.653 17.898)">
            <use fill="#000" filter="url(#a)" xlink:href="#b"/>
            <use stroke="#F8F8F9" fill="#FFF" xlink:href="#b"/>
        </g>
        <g transform="rotate(90 15.98 18.444)">
            <use fill="#000" filter="url(#c)" xlink:href="#d"/>
            <use stroke="#C8C9D4" fill="url(#e)" xlink:href="#d"/>
        </g>
        <path d="M17.22 23.074c1.815 0 3.428-1.076 3.428-3.145 0-1.304-.847-2.231-2.003-2.635l1.626-2.07v-1.747h-6.048v2.016h3.441l-1.707 2.164.82 1.223h.444c.887 0 1.276.47 1.276 1.049 0 .578-.39 1.048-1.276 1.048-.82 0-1.223-.376-1.438-.995l-1.855 1.076c.578 1.384 1.868 2.016 3.293 2.016z"
              fill="#FDFEFF" fill-rule="nonzero"/>
    </g>
</svg>
