<svg xmlns:xlink="http://www.w3.org/1999/xlink" width="52" height="54" viewBox="0 0 52 54"
     xmlns="http://www.w3.org/2000/svg">
    <defs>
        <filter x="-17.1%" y="-17.1%" width="134.2%" height="134.2%" filterUnits="objectBoundingBox" id="a">
            <feMorphology radius="1" operator="dilate" in="SourceAlpha" result="shadowSpreadOuter1"/>
            <feOffset in="shadowSpreadOuter1" result="shadowOffsetOuter1"/>
            <feGaussianBlur stdDeviation="1.5" in="shadowOffsetOuter1" result="shadowBlurOuter1"/>
            <feComposite in="shadowBlurOuter1" in2="SourceAlpha" operator="out" result="shadowBlurOuter1"/>
            <feColorMatrix values="0 0 0 0 0.0431372549 0 0 0 0 0.0431372549 0 0 0 0 0.0470588235 0 0 0 0.02 0"
                           in="shadowBlurOuter1"/>
        </filter>
        <filter x="-21.6%" y="-21.6%" width="143.3%" height="143.3%" filterUnits="objectBoundingBox" id="c">
            <feMorphology radius="1" operator="dilate" in="SourceAlpha" result="shadowSpreadOuter1"/>
            <feOffset in="shadowSpreadOuter1" result="shadowOffsetOuter1"/>
            <feGaussianBlur stdDeviation="1.5" in="shadowOffsetOuter1" result="shadowBlurOuter1"/>
            <feComposite in="shadowBlurOuter1" in2="SourceAlpha" operator="out" result="shadowBlurOuter1"/>
            <feColorMatrix values="0 0 0 0 0.0431372549 0 0 0 0 0.0431372549 0 0 0 0 0.0470588235 0 0 0 0.02 0"
                           in="shadowBlurOuter1"/>
        </filter>
        <filter x="-22.4%" y="-22.4%" width="144.8%" height="144.8%" filterUnits="objectBoundingBox" id="f">
            <feMorphology radius="1" operator="dilate" in="SourceAlpha" result="shadowSpreadOuter1"/>
            <feOffset in="shadowSpreadOuter1" result="shadowOffsetOuter1"/>
            <feGaussianBlur stdDeviation="1.5" in="shadowOffsetOuter1" result="shadowBlurOuter1"/>
            <feComposite in="shadowBlurOuter1" in2="SourceAlpha" operator="out" result="shadowBlurOuter1"/>
            <feColorMatrix values="0 0 0 0 0.0431372549 0 0 0 0 0.0431372549 0 0 0 0 0.0470588235 0 0 0 0.02 0"
                           in="shadowBlurOuter1"/>
        </filter>
        <circle id="b" cx="25.816" cy="25.337" r="19"/>
        <circle id="d" cx="25.816" cy="25.337" r="15.028"/>
        <circle id="g" cx="25.816" cy="25.337" r="14.5"/>
        <linearGradient x1=".805%" y1=".805%" x2="100%" y2="100%" id="e">
            <stop stop-color="#8CE7FD" offset="0%"/>
            <stop stop-color="#54D4FC" offset="100%"/>
        </linearGradient>
        <linearGradient x1=".805%" y1=".805%" x2="100%" y2="100%" id="h">
            <stop stop-color="#F8F8F9" offset=".974%"/>
            <stop stop-color="#C8C9D4" offset="100%"/>
        </linearGradient>
    </defs>
    <g fill="none" fill-rule="evenodd">
        <path d="M5.365 14.186a24.358 24.358 0 0 0-1.367 25.715l1.037-.586.073-.042.041.074A22.698 22.698 0 0 0 16.694 49.48a22.46 22.46 0 0 0 11.692 1.32l.083-.013.012.086.362 2.67a24.149 24.149 0 0 0 15.035-8.308l-1.962-1.677-.064-.058.057-.065a22.782 22.782 0 0 0 3.621-5.513l.036-.077.077.036 2.876 1.368a26.413 26.413 0 0 0 2.22-14.61 26.322 26.322 0 0 0-5.977-13.497l-2.411 2.085-.065.056-.055-.065a22.64 22.64 0 0 0-5.297-4.57l-.078-.048.053-.075 2.08-2.915A24.884 24.884 0 0 0 26.459 1l-.317 4.166-.006.083-.081-.004c-7.674-.37-15.117 3.236-19.608 9.612l-.05.07-.068-.05-.964-.691z"
              stroke="#C8C9D4" stroke-width=".6"/>
        <g transform="rotate(-180 25.486 26.771)">
            <use fill="#000" filter="url(#a)" xlink:href="#b"/>
            <use stroke="#F8F8F9" fill="#FFF" xlink:href="#b"/>
        </g>
        <g transform="rotate(-180 25.486 26.771)">
            <use fill="#000" filter="url(#c)" xlink:href="#d"/>
            <use stroke="#C8C9D4" fill="url(#e)" xlink:href="#d"/>
        </g>
        <g transform="rotate(-180 25.486 26.771)">
            <use fill="#000" filter="url(#f)" xlink:href="#g"/>
            <use stroke="#C8C9D4" fill="url(#h)" xlink:href="#g"/>
        </g>
        <text font-family="ShareTechMono-Regular, Share Tech Mono" font-size="21" letter-spacing=".817" fill="#B8B9C7"
              transform="translate(.971 1)">
            <tspan x="17.773" y="34.585">3</tspan>
        </text>
    </g>
</svg>
