<svg xmlns:xlink="http://www.w3.org/1999/xlink" width="54" height="52" viewBox="0 0 54 52"
     xmlns="http://www.w3.org/2000/svg">
    <defs>
        <filter x="-17.1%" y="-17.1%" width="134.2%" height="134.2%" filterUnits="objectBoundingBox" id="a">
            <feMorphology radius="1" operator="dilate" in="SourceAlpha" result="shadowSpreadOuter1"/>
            <feOffset in="shadowSpreadOuter1" result="shadowOffsetOuter1"/>
            <feGaussianBlur stdDeviation="1.5" in="shadowOffsetOuter1" result="shadowBlurOuter1"/>
            <feComposite in="shadowBlurOuter1" in2="SourceAlpha" operator="out" result="shadowBlurOuter1"/>
            <feColorMatrix values="0 0 0 0 0.0431372549 0 0 0 0 0.0431372549 0 0 0 0 0.0470588235 0 0 0 0.02 0"
                           in="shadowBlurOuter1"/>
        </filter>
        <filter x="-21.6%" y="-21.6%" width="143.3%" height="143.3%" filterUnits="objectBoundingBox" id="c">
            <feMorphology radius="1" operator="dilate" in="SourceAlpha" result="shadowSpreadOuter1"/>
            <feOffset in="shadowSpreadOuter1" result="shadowOffsetOuter1"/>
            <feGaussianBlur stdDeviation="1.5" in="shadowOffsetOuter1" result="shadowBlurOuter1"/>
            <feComposite in="shadowBlurOuter1" in2="SourceAlpha" operator="out" result="shadowBlurOuter1"/>
            <feColorMatrix values="0 0 0 0 0.0431372549 0 0 0 0 0.0431372549 0 0 0 0 0.0470588235 0 0 0 0.02 0"
                           in="shadowBlurOuter1"/>
        </filter>
        <filter x="-22.4%" y="-22.4%" width="144.8%" height="144.8%" filterUnits="objectBoundingBox" id="f">
            <feMorphology radius="1" operator="dilate" in="SourceAlpha" result="shadowSpreadOuter1"/>
            <feOffset in="shadowSpreadOuter1" result="shadowOffsetOuter1"/>
            <feGaussianBlur stdDeviation="1.5" in="shadowOffsetOuter1" result="shadowBlurOuter1"/>
            <feComposite in="shadowBlurOuter1" in2="SourceAlpha" operator="out" result="shadowBlurOuter1"/>
            <feColorMatrix values="0 0 0 0 0.0431372549 0 0 0 0 0.0431372549 0 0 0 0 0.0470588235 0 0 0 0.02 0"
                           in="shadowBlurOuter1"/>
        </filter>
        <circle id="b" cx="25.816" cy="25.337" r="19"/>
        <circle id="d" cx="25.816" cy="25.337" r="15.028"/>
        <circle id="g" cx="25.816" cy="25.337" r="14.5"/>
        <linearGradient x1=".805%" y1=".805%" x2="100%" y2="100%" id="e">
            <stop stop-color="#8CE7FD" offset="0%"/>
            <stop stop-color="#54D4FC" offset="100%"/>
        </linearGradient>
        <linearGradient x1=".805%" y1=".805%" x2="100%" y2="100%" id="h">
            <stop stop-color="#F8F8F9" offset=".974%"/>
            <stop stop-color="#C8C9D4" offset="100%"/>
        </linearGradient>
    </defs>
    <g fill="none" fill-rule="evenodd">
        <path d="M13.886 46.607a24.358 24.358 0 0 0 25.715 1.367l-.586-1.038-.042-.072.075-.042A22.698 22.698 0 0 0 49.18 35.277a22.46 22.46 0 0 0 1.32-11.691l-.013-.084.086-.012 2.67-.362a24.149 24.149 0 0 0-8.308-15.034l-1.677 1.961-.058.065-.065-.057a22.782 22.782 0 0 0-5.513-3.622l-.077-.036.036-.076 1.369-2.876a26.413 26.413 0 0 0-14.61-2.22 26.322 26.322 0 0 0-13.498 5.976l2.085 2.411.056.065-.065.056a22.64 22.64 0 0 0-4.57 5.296l-.048.078-.075-.053-2.915-2.08A24.884 24.884 0 0 0 .7 25.513l4.166.317.083.006-.004.082c-.369 7.673 3.236 15.116 9.612 19.607l.071.05-.05.068-.692.965z"
              stroke="#C8C9D4" stroke-width=".6"/>
        <g transform="rotate(90 26.121 27.121)">
            <use fill="#000" filter="url(#a)" xlink:href="#b"/>
            <use stroke="#F8F8F9" fill="#FFF" xlink:href="#b"/>
        </g>
        <g transform="rotate(90 26.121 27.121)">
            <use fill="#000" filter="url(#c)" xlink:href="#d"/>
            <use stroke="#C8C9D4" fill="url(#e)" xlink:href="#d"/>
        </g>
        <g transform="rotate(90 26.121 27.121)">
            <use fill="#000" filter="url(#f)" xlink:href="#g"/>
            <use stroke="#C8C9D4" fill="url(#h)" xlink:href="#g"/>
        </g>
        <text font-family="ShareTechMono-Regular, Share Tech Mono" font-size="21" letter-spacing=".817" fill="#B8B9C7"
              transform="translate(.7 1)">
            <tspan x="21.478" y="32.974">2</tspan>
        </text>
    </g>
</svg>
