<svg width="17" height="16" viewBox="0 0 17 16" xmlns="http://www.w3.org/2000/svg">
    <g fill-rule="nonzero" fill="none">
        <path d="M8.387 10.142s-2.152 1.47-1.185 3.442c.68 1.385 1.349 1.682 2.786 2.37.995.475 4.722-2.786 5.138-4.675L9.123 9.694l-.736.448zM3.423 3.626c.08.08.705 1.553 2.05 1.585 1.345.032 8.437-2.898 8.437-2.898S10.58-1.625 5.249.776l-1.826 2.85z"
              fill="#1736A3"/>
        <path d="M15.238 12.415c.066-.015-1.232 2.37-3.49 3.474 0 0-.977.336-1.136-.208-.16-.545.864-2.386 4.626-3.266zM.436 5.421s5.672 5.672 4.4 10.57c0 0-6.558-2.186-4.4-10.57zM.766 4.522s1.297.128 3.09-.912C5.473 2.67 6.868.887 5.284.698a2.002 2.002 0 0 0-1.19.232C3.41 1.301 2.169 2.236.767 4.522zM15.719 11.358c.085-.03 2.177-5.219-2.401-9.621 0 0-1.297-.977-5.46.72-4.162 1.697-3.586 3.298-3.426 3.874.16.577.913 2.305 3.859 3.602 2.945 1.297 5.987 1.938 7.428 1.425z"
              fill="#548AF5"/>
    </g>
</svg>
