<svg width="11" height="12" viewBox="0 0 11 12" xmlns="http://www.w3.org/2000/svg">
    <path d="M4.054 9.312c-2.308.693-2.308-1.154-3.23-1.384m6.46 2.769V8.91a1.555 1.555 0 0 0-.433-1.205c1.45-.161 2.972-.71 2.972-3.23a2.51 2.51 0 0 0-.692-1.731 2.34 2.34 0 0 0-.042-1.74s-.544-.162-1.804.683a6.175 6.175 0 0 0-3.231 0c-1.26-.845-1.805-.683-1.805-.683a2.34 2.34 0 0 0-.041 1.74 2.511 2.511 0 0 0-.692 1.744c0 2.502 1.523 3.05 2.972 3.23-.307.318-.465.751-.434 1.192v1.786"
          stroke="#FFF" fill="none" fill-rule="evenodd" stroke-linecap="round" stroke-linejoin="round"/>
</svg>
