<svg width="642" height="638" viewBox="0 0 642 638" xmlns="http://www.w3.org/2000/svg" xmlns:xlink="http://www.w3.org/1999/xlink">
    <defs>
        <filter x="-120.4%" y="-15.2%" width="340.9%" height="130.5%" filterUnits="objectBoundingBox" id="a">
            <feMorphology radius="1.6" operator="dilate" in="SourceAlpha" result="shadowSpreadOuter1"/>
            <feOffset in="shadowSpreadOuter1" result="shadowOffsetOuter1"/>
            <feGaussianBlur stdDeviation="1.5" in="shadowOffsetOuter1" result="shadowBlurOuter1"/>
            <feComposite in="shadowBlurOuter1" in2="SourceAlpha" operator="out" result="shadowBlurOuter1"/>
            <feColorMatrix values="0 0 0 0 0 0 0 0 0 0 0 0 0 0 0 0 0 0 0.03 0" in="shadowBlurOuter1"/>
        </filter>
        <filter x="-120.4%" y="-52.9%" width="340.9%" height="205.7%" filterUnits="objectBoundingBox" id="c">
            <feMorphology radius="1.6" operator="dilate" in="SourceAlpha" result="shadowSpreadOuter1"/>
            <feOffset in="shadowSpreadOuter1" result="shadowOffsetOuter1"/>
            <feGaussianBlur stdDeviation="1.5" in="shadowOffsetOuter1" result="shadowBlurOuter1"/>
            <feComposite in="shadowBlurOuter1" in2="SourceAlpha" operator="out" result="shadowBlurOuter1"/>
            <feColorMatrix values="0 0 0 0 0 0 0 0 0 0 0 0 0 0 0 0 0 0 0.03 0" in="shadowBlurOuter1"/>
        </filter>
        <filter x="-120.4%" y="-52.9%" width="340.9%" height="205.7%" filterUnits="objectBoundingBox" id="e">
            <feMorphology radius="1.6" operator="dilate" in="SourceAlpha" result="shadowSpreadOuter1"/>
            <feOffset in="shadowSpreadOuter1" result="shadowOffsetOuter1"/>
            <feGaussianBlur stdDeviation="1.5" in="shadowOffsetOuter1" result="shadowBlurOuter1"/>
            <feComposite in="shadowBlurOuter1" in2="SourceAlpha" operator="out" result="shadowBlurOuter1"/>
            <feColorMatrix values="0 0 0 0 0 0 0 0 0 0 0 0 0 0 0 0 0 0 0.03 0" in="shadowBlurOuter1"/>
        </filter>
        <filter x="-120.4%" y="-12.1%" width="340.9%" height="124.3%" filterUnits="objectBoundingBox" id="g">
            <feMorphology radius="1.6" operator="dilate" in="SourceAlpha" result="shadowSpreadOuter1"/>
            <feOffset in="shadowSpreadOuter1" result="shadowOffsetOuter1"/>
            <feGaussianBlur stdDeviation="1.5" in="shadowOffsetOuter1" result="shadowBlurOuter1"/>
            <feComposite in="shadowBlurOuter1" in2="SourceAlpha" operator="out" result="shadowBlurOuter1"/>
            <feColorMatrix values="0 0 0 0 0 0 0 0 0 0 0 0 0 0 0 0 0 0 0.03 0" in="shadowBlurOuter1"/>
        </filter>
        <filter x="-120.4%" y="-74.9%" width="340.9%" height="249.8%" filterUnits="objectBoundingBox" id="i">
            <feMorphology radius="1.6" operator="dilate" in="SourceAlpha" result="shadowSpreadOuter1"/>
            <feOffset in="shadowSpreadOuter1" result="shadowOffsetOuter1"/>
            <feGaussianBlur stdDeviation="1.5" in="shadowOffsetOuter1" result="shadowBlurOuter1"/>
            <feComposite in="shadowBlurOuter1" in2="SourceAlpha" operator="out" result="shadowBlurOuter1"/>
            <feColorMatrix values="0 0 0 0 0 0 0 0 0 0 0 0 0 0 0 0 0 0 0.03 0" in="shadowBlurOuter1"/>
        </filter>
        <filter x="-120.4%" y="-74.9%" width="340.9%" height="249.8%" filterUnits="objectBoundingBox" id="k">
            <feMorphology radius="1.6" operator="dilate" in="SourceAlpha" result="shadowSpreadOuter1"/>
            <feOffset in="shadowSpreadOuter1" result="shadowOffsetOuter1"/>
            <feGaussianBlur stdDeviation="1.5" in="shadowOffsetOuter1" result="shadowBlurOuter1"/>
            <feComposite in="shadowBlurOuter1" in2="SourceAlpha" operator="out" result="shadowBlurOuter1"/>
            <feColorMatrix values="0 0 0 0 0 0 0 0 0 0 0 0 0 0 0 0 0 0 0.03 0" in="shadowBlurOuter1"/>
        </filter>
        <filter x="-120.4%" y="-20.9%" width="340.9%" height="141.8%" filterUnits="objectBoundingBox" id="m">
            <feMorphology radius="1.6" operator="dilate" in="SourceAlpha" result="shadowSpreadOuter1"/>
            <feOffset in="shadowSpreadOuter1" result="shadowOffsetOuter1"/>
            <feGaussianBlur stdDeviation="1.5" in="shadowOffsetOuter1" result="shadowBlurOuter1"/>
            <feComposite in="shadowBlurOuter1" in2="SourceAlpha" operator="out" result="shadowBlurOuter1"/>
            <feColorMatrix values="0 0 0 0 0 0 0 0 0 0 0 0 0 0 0 0 0 0 0.03 0" in="shadowBlurOuter1"/>
        </filter>
        <filter x="-1.6%" y="-1.7%" width="103.2%" height="103.3%" filterUnits="objectBoundingBox" id="o">
            <feOffset in="SourceAlpha" result="shadowOffsetOuter1"/>
            <feGaussianBlur stdDeviation="3" in="shadowOffsetOuter1" result="shadowBlurOuter1"/>
            <feComposite in="shadowBlurOuter1" in2="SourceAlpha" operator="out" result="shadowBlurOuter1"/>
            <feColorMatrix values="0 0 0 0 0 0 0 0 0 0 0 0 0 0 0 0 0 0 0.06 0" in="shadowBlurOuter1"/>
        </filter>
        <path d="M26.59-23.227a3.363 3.363 0 0 1 3.362 3.362V26.59a3.363 3.363 0 1 1-6.725 0v-46.455a3.363 3.363 0 0 1 3.363-3.362z" id="b"/>
        <path d="M67.15-4.299a3.363 3.363 0 0 1 3.363 3.363V7.66a3.363 3.363 0 1 1-6.725 0V-.936A3.363 3.363 0 0 1 67.151-4.3z" id="d"/>
        <path d="M88.783-4.299a3.363 3.363 0 0 1 3.363 3.363V7.66a3.363 3.363 0 0 1-6.726 0V-.936A3.363 3.363 0 0 1 88.783-4.3z" id="f"/>
        <path d="M136.104-29.987a3.363 3.363 0 0 1 3.363 3.362V33.35a3.363 3.363 0 1 1-6.726 0v-59.975a3.363 3.363 0 0 1 3.363-3.362z" id="h"/>
        <path d="M181.171-2.046a3.363 3.363 0 0 1 3.363 3.363v4.091a3.363 3.363 0 1 1-6.725 0V1.317a3.363 3.363 0 0 1 3.362-3.363z" id="j"/>
        <path d="M198.297-2.046a3.363 3.363 0 0 1 3.363 3.363v4.091a3.363 3.363 0 1 1-6.725 0V1.317a3.363 3.363 0 0 1 3.362-3.363z" id="l"/>
        <path d="M229.394-16.016a3.363 3.363 0 0 1 3.362 3.362V19.38a3.363 3.363 0 1 1-6.725 0v-32.033a3.363 3.363 0 0 1 3.363-3.362z" id="n"/>
        <path d="M472.617 0a13 13 0 0 1 12.487 9.382l6.289 21.71h11.842c11.598 0 21 9.403 21 21l-.001 41.567 20.387 5.912A13 13 0 0 1 554 112.057v243.632a13 13 0 0 1-9.38 12.486l-20.386 5.911V522c0 11.598-9.401 21-21 21H51.59c-11.598 0-21-9.402-21-21V419.387l-21.21-6.15A13 13 0 0 1 0 400.75V157.12a13 13 0 0 1 9.38-12.485l21.209-6.152v-86.39c0-11.597 9.402-21 21-21h158.75l6.29-21.71A13 13 0 0 1 229.117 0h243.501zM275.851 16.123h-46.423a3.362 3.362 0 1 0 0 6.724h46.423a3.362 3.362 0 1 0 0-6.724zm21.62 0h-8.59a3.362 3.362 0 1 0 0 6.724h8.59a3.362 3.362 0 0 0 0-6.724zm21.62 0h-8.59a3.362 3.362 0 1 0 0 6.724h8.59a3.362 3.362 0 1 0 0-6.724zm72.965 0H332.12a3.362 3.362 0 1 0 0 6.724h59.936a3.362 3.362 0 1 0 0-6.724zm17.116 0h-4.086a3.362 3.362 0 1 0 0 6.724h4.086a3.362 3.362 0 0 0 0-6.724zm17.115 0h-4.085a3.362 3.362 0 1 0 0 6.724h4.085a3.362 3.362 0 1 0 0-6.724zm45.04 0h-32.01a3.362 3.362 0 1 0 0 6.724h32.01a3.362 3.362 0 1 0 0-6.724zm66.171 272.35a4.502 4.502 0 1 1 0 9.003h-9.996a4.502 4.502 0 0 1 0-9.004h9.996zm0-19.809a4.502 4.502 0 1 1 0 9.004h-9.996a4.502 4.502 0 0 1 0-9.004h9.996zm0-19.808a4.502 4.502 0 1 1 0 9.004h-9.996a4.502 4.502 0 0 1 0-9.004h9.996zm0-19.808a4.502 4.502 0 0 1 0 9.004h-9.996a4.502 4.502 0 0 1 0-9.004h9.996zm0-18.908a4.502 4.502 0 0 1 0 9.004h-9.996a4.502 4.502 0 1 1 0-9.004h9.996zm0-19.808a4.502 4.502 0 0 1 0 9.004h-9.996a4.502 4.502 0 1 1 0-9.004h9.996zm0-19.808a4.502 4.502 0 0 1 0 9.004h-9.996a4.502 4.502 0 1 1 0-9.004h9.996zm0-19.808a4.502 4.502 0 0 1 0 9.004h-9.996a4.502 4.502 0 1 1 0-9.004h9.996z" id="p"/>
        <linearGradient x1="37.641%" y1="7.833%" x2="93.729%" y2="96.943%" id="q">
            <stop stop-color="#FFF" offset="0%"/>
            <stop stop-color="#F5F8FB" offset="100%"/>
        </linearGradient>
    </defs>
    <g fill="none" fill-rule="evenodd">
        <g stroke="#E2E1E2" stroke-width="2">
            <path d="M24.804 144.985v53.167c0 10.84 7.897 19.63 17.64 19.63h60.487l6.46 16.747c1.689 5.049 6.02 8.4 10.857 8.4h64.766c4.843 0 9.173-3.351 10.862-8.4l6.46-19.352c9.743 0 17.64-8.787 17.64-19.63V66.874c0-10.844-7.897-19.63-17.64-19.63h-65.283l-5.835-28.832c-2.143-3.634-5.781-5.822-9.685-5.822H18.866c-9.74 0-17.636 8.791-17.636 19.63v94.01c0 3.71 1.437 7.241 3.94 9.69l19.634 9.064zM621.877 536.17V397.328c0-8.601-6.267-15.576-13.998-15.576h-47.994l-5.128-13.288c-1.339-4.006-4.776-6.666-8.617-6.666H416.62c-3.84 0-7.275 2.66-8.614 6.666l-5.128 15.353c-7.73 0-13.997 6.975-13.997 15.577V581c0 8.601 6.266 15.576 13.997 15.576h129.93l4.629 7.854c1.701 2.88 4.59 4.616 7.686 4.616h81.466c7.728 0 13.995-6.972 13.995-15.577v-42.416c0-2.945-1.14-5.746-3.128-7.689l-15.58-7.193z"/>
            <path d="M126.287 618.08h321.024c8.601 0 15.576-6.268 15.576-13.999V399.176c0-7.165-5.797-12.979-12.961-13l-368.468-1.093c-8.601 0-15.576 6.267-15.576 13.998V529.01l-7.854 4.63c-2.88 1.7-4.616 4.59-4.616 7.685v81.466c0 7.729 6.972 13.996 15.576 13.996h42.417c2.945 0 5.745-1.14 7.689-3.128l7.193-15.58zM527.297 20.033H327.44c-8.601 0-15.576 6.267-15.576 13.998v47.994l-13.287 5.128c-4.007 1.339-6.666 4.776-6.666 8.617v129.52c0 3.84 2.66 7.275 6.666 8.614l15.353 5.127c0 7.731 6.975 13.998 15.576 13.998h242.62c8.602 0 15.577-6.267 15.577-13.998V109.103l7.853-4.63c2.88-1.701 4.617-4.59 4.617-7.686V15.321c0-7.728-6.973-13.995-15.577-13.995H542.18c-2.944 0-5.745 1.14-7.688 3.128l-7.194 15.58z" fill="#F8F8F9"/>
        </g>
        <g transform="translate(272.857 53.735)">
            <rect stroke="#E2E1E2" fill="#0B0B0C" x="297.446" y="174.511" width="18.928" height="9.014" rx="4.507"/>
            <rect stroke="#E2E1E2" fill="#0B0B0C" x="297.446" y="213.269" width="18.928" height="9.014" rx="4.507"/>
            <rect stroke="#E2E1E2" fill="#0B0B0C" x="297.446" y="272.758" width="18.928" height="9.014" rx="4.507"/>
            <rect stroke="#E2E1E2" fill="#0B0B0C" x="297.446" y="194.34" width="18.928" height="9.014" rx="4.507"/>
            <rect stroke="#E2E1E2" fill="#0B0B0C" x="297.446" y="252.928" width="18.928" height="9.014" rx="4.507"/>
            <rect stroke="#E2E1E2" fill="#0B0B0C" x="297.446" y="154.681" width="18.928" height="9.014" rx="4.507"/>
            <rect stroke="#E2E1E2" fill="#0B0B0C" x="297.446" y="233.099" width="18.928" height="9.014" rx="4.507"/>
            <rect stroke="#E2E1E2" fill="#0B0B0C" x="297.446" y="134.851" width="18.928" height="9.014" rx="4.507"/>
            <g transform="rotate(-90 26.59 3.363)">
                <use fill="#000" filter="url(#a)" xlink:href="#b"/>
                <path stroke="#E2E1E2" stroke-width=".6" d="M26.59-23.527c1.011 0 1.927.41 2.59 1.072a3.651 3.651 0 0 1 1.072 2.59V26.59c0 1.011-.41 1.927-1.072 2.59a3.651 3.651 0 0 1-2.59 1.072A3.651 3.651 0 0 1 24 29.18a3.651 3.651 0 0 1-1.073-2.59v-46.455c0-1.011.41-1.927 1.073-2.59a3.651 3.651 0 0 1 2.59-1.072z" fill="#101011"/>
            </g>
            <g transform="rotate(-90 67.15 3.363)">
                <use fill="#000" filter="url(#c)" xlink:href="#d"/>
                <path stroke="#E2E1E2" stroke-width=".6" d="M67.15-4.599c1.012 0 1.928.41 2.59 1.073a3.651 3.651 0 0 1 1.073 2.59V7.66c0 1.012-.41 1.928-1.073 2.59a3.651 3.651 0 0 1-2.59 1.073 3.651 3.651 0 0 1-2.59-1.073 3.651 3.651 0 0 1-1.072-2.59V-.936c0-1.012.41-1.927 1.073-2.59A3.651 3.651 0 0 1 67.15-4.6z" fill="#101011"/>
            </g>
            <g transform="rotate(-90 88.783 3.363)">
                <use fill="#000" filter="url(#e)" xlink:href="#f"/>
                <path stroke="#E2E1E2" stroke-width=".6" d="M88.783-4.599c1.011 0 1.927.41 2.59 1.073a3.651 3.651 0 0 1 1.073 2.59V7.66c0 1.012-.41 1.928-1.073 2.59a3.651 3.651 0 0 1-2.59 1.073 3.651 3.651 0 0 1-2.59-1.073 3.651 3.651 0 0 1-1.073-2.59V-.936c0-1.012.41-1.927 1.073-2.59a3.651 3.651 0 0 1 2.59-1.073z" fill="#101011"/>
            </g>
            <g transform="rotate(-90 136.104 3.363)">
                <use fill="#000" filter="url(#g)" xlink:href="#h"/>
                <path stroke="#E2E1E2" stroke-width=".6" d="M136.104-30.287c1.011 0 1.927.41 2.59 1.072a3.651 3.651 0 0 1 1.073 2.59V33.35c0 1.011-.41 1.927-1.073 2.59a3.651 3.651 0 0 1-2.59 1.073 3.651 3.651 0 0 1-2.59-1.073 3.651 3.651 0 0 1-1.073-2.59v-59.975c0-1.011.41-1.927 1.073-2.59a3.651 3.651 0 0 1 2.59-1.072z" fill="#101011"/>
            </g>
            <g transform="rotate(-90 181.171 3.363)">
                <use fill="#000" filter="url(#i)" xlink:href="#j"/>
                <path stroke="#E2E1E2" stroke-width=".6" d="M181.171-2.346c1.012 0 1.928.41 2.59 1.073a3.651 3.651 0 0 1 1.073 2.59v4.091c0 1.011-.41 1.927-1.073 2.59a3.651 3.651 0 0 1-2.59 1.073 3.651 3.651 0 0 1-2.59-1.073 3.651 3.651 0 0 1-1.072-2.59V1.317c0-1.011.41-1.927 1.073-2.59a3.651 3.651 0 0 1 2.59-1.073z" fill="#101011"/>
            </g>
            <g transform="rotate(-90 198.297 3.363)">
                <use fill="#000" filter="url(#k)" xlink:href="#l"/>
                <path stroke="#E2E1E2" stroke-width=".6" d="M198.297-2.346c1.012 0 1.927.41 2.59 1.073a3.651 3.651 0 0 1 1.073 2.59v4.091c0 1.011-.41 1.927-1.073 2.59a3.651 3.651 0 0 1-2.59 1.073 3.651 3.651 0 0 1-2.59-1.073 3.651 3.651 0 0 1-1.072-2.59V1.317c0-1.011.41-1.927 1.072-2.59a3.651 3.651 0 0 1 2.59-1.073z" fill="#101011"/>
            </g>
            <g transform="rotate(-90 229.394 3.363)">
                <use fill="#000" filter="url(#m)" xlink:href="#n"/>
                <path stroke="#E2E1E2" stroke-width=".6" d="M229.394-16.316c1.011 0 1.927.41 2.59 1.072a3.651 3.651 0 0 1 1.072 2.59V19.38c0 1.011-.41 1.927-1.072 2.59a3.651 3.651 0 0 1-2.59 1.073 3.651 3.651 0 0 1-2.59-1.073 3.651 3.651 0 0 1-1.073-2.59v-32.033c0-1.011.41-1.927 1.073-2.59a3.651 3.651 0 0 1 2.59-1.072z" fill="#101011"/>
            </g>
        </g>
        <g transform="translate(47 38)">
            <use fill="#000" filter="url(#o)" xlink:href="#p"/>
            <path stroke="#E2E1E2" stroke-width="1.6" d="M472.617.8c2.715 0 5.267.897 7.329 2.447a12.182 12.182 0 0 1 4.276 5.988l.113.37 6.457 22.287h12.443a20.137 20.137 0 0 1 14.283 5.917 20.135 20.135 0 0 1 5.912 13.833l.005.45-.001 42.168 20.964 6.08a12.182 12.182 0 0 1 6.356 4.39 12.182 12.182 0 0 1 2.44 6.94l.006.387v243.632c0 2.715-.897 5.266-2.446 7.328a12.182 12.182 0 0 1-5.986 4.276l-.37.113-20.964 6.079V522a20.137 20.137 0 0 1-5.916 14.284 20.135 20.135 0 0 1-13.832 5.911l-.451.005H51.589a20.137 20.137 0 0 1-14.283-5.916 20.135 20.135 0 0 1-5.912-13.833l-.005-.451V418.786l-21.787-6.317a12.182 12.182 0 0 1-6.356-4.39 12.182 12.182 0 0 1-2.44-6.941l-.006-.387V157.12c0-2.714.897-5.266 2.446-7.327a12.182 12.182 0 0 1 5.986-4.277l.37-.113 21.787-6.32v-86.99a20.137 20.137 0 0 1 5.917-14.283 20.135 20.135 0 0 1 13.832-5.911l.451-.005 159.351-.001 6.458-22.287a12.182 12.182 0 0 1 4.39-6.358 12.182 12.182 0 0 1 6.942-2.44l.386-.007h243.501zm64.881 286.872h-9.996l-.273.007a5.285 5.285 0 0 0-3.476 1.546 5.285 5.285 0 0 0-1.553 3.75c0 1.463.593 2.789 1.553 3.748a5.285 5.285 0 0 0 3.749 1.553h9.996l.273-.007a5.285 5.285 0 0 0 3.476-1.546 5.285 5.285 0 0 0 1.553-3.749c0-1.464-.593-2.79-1.553-3.749a5.285 5.285 0 0 0-3.749-1.553zm0-19.808h-9.996l-.273.007a5.285 5.285 0 0 0-3.476 1.546 5.285 5.285 0 0 0-1.553 3.75c0 1.463.593 2.789 1.553 3.748a5.285 5.285 0 0 0 3.749 1.553h9.996l.273-.007a5.285 5.285 0 0 0 3.476-1.546 5.285 5.285 0 0 0 1.553-3.749c0-1.464-.593-2.79-1.553-3.749a5.285 5.285 0 0 0-3.749-1.553zm0-19.808h-9.996l-.273.007a5.285 5.285 0 0 0-3.476 1.546 5.285 5.285 0 0 0-1.553 3.749c0 1.464.593 2.79 1.553 3.749a5.285 5.285 0 0 0 3.749 1.553h9.996l.273-.007a5.285 5.285 0 0 0 3.476-1.546 5.285 5.285 0 0 0 1.553-3.75c0-1.463-.593-2.789-1.553-3.748a5.285 5.285 0 0 0-3.749-1.553zm0-19.808h-9.996l-.273.007a5.285 5.285 0 0 0-3.476 1.546 5.285 5.285 0 0 0-1.553 3.749c0 1.464.593 2.79 1.553 3.749a5.285 5.285 0 0 0 3.749 1.553h9.996l.273-.007a5.285 5.285 0 0 0 3.476-1.546 5.285 5.285 0 0 0 1.553-3.75c0-1.463-.593-2.789-1.553-3.748a5.285 5.285 0 0 0-3.749-1.553zm0-18.908h-9.996l-.273.007a5.285 5.285 0 0 0-3.476 1.546 5.285 5.285 0 0 0-1.553 3.75c0 1.463.593 2.789 1.553 3.748a5.285 5.285 0 0 0 3.749 1.553h9.996l.273-.007a5.285 5.285 0 0 0 3.476-1.546 5.285 5.285 0 0 0 1.553-3.749c0-1.464-.593-2.79-1.553-3.749a5.285 5.285 0 0 0-3.749-1.553zm0-19.808h-9.996l-.273.007a5.285 5.285 0 0 0-3.476 1.546 5.285 5.285 0 0 0-1.553 3.749c0 1.464.593 2.79 1.553 3.749a5.285 5.285 0 0 0 3.749 1.553h9.996l.273-.007a5.285 5.285 0 0 0 3.476-1.546 5.285 5.285 0 0 0 1.553-3.75c0-1.463-.593-2.789-1.553-3.748a5.285 5.285 0 0 0-3.749-1.553zm0-19.808h-9.996l-.273.007a5.285 5.285 0 0 0-3.476 1.546 5.285 5.285 0 0 0-1.553 3.749c0 1.464.593 2.79 1.553 3.749a5.285 5.285 0 0 0 3.749 1.553h9.996l.273-.007a5.285 5.285 0 0 0 3.476-1.546 5.285 5.285 0 0 0 1.553-3.75c0-1.463-.593-2.789-1.553-3.748a5.285 5.285 0 0 0-3.749-1.553zm0-19.808h-9.996l-.273.007a5.285 5.285 0 0 0-3.476 1.546 5.285 5.285 0 0 0-1.553 3.749c0 1.464.593 2.79 1.553 3.749a5.285 5.285 0 0 0 3.749 1.553h9.996l.273-.007a5.285 5.285 0 0 0 3.476-1.546 5.285 5.285 0 0 0 1.553-3.75c0-1.463-.593-2.789-1.553-3.748a5.285 5.285 0 0 0-3.749-1.553zM275.851 15.323h-46.423l-.245.007c-1.052.061-1.999.513-2.698 1.212a4.15 4.15 0 0 0-1.22 2.943c0 1.125.445 2.145 1.197 2.897.73.73 1.753 1.21 2.946 1.265h46.443l.245-.007c1.052-.06 1.999-.512 2.698-1.212a4.15 4.15 0 0 0 1.22-2.943 4.15 4.15 0 0 0-1.22-2.943 4.15 4.15 0 0 0-2.943-1.219zm21.62 0h-8.59l-.244.007c-1.052.061-2 .513-2.699 1.212a4.15 4.15 0 0 0-1.219 2.943c0 1.125.445 2.145 1.197 2.897.73.73 1.752 1.21 2.946 1.265h8.609l.244-.007c1.052-.06 2-.512 2.699-1.212a4.15 4.15 0 0 0 1.219-2.943 4.15 4.15 0 0 0-1.22-2.943 4.15 4.15 0 0 0-2.942-1.219zm21.62 0h-8.59l-.245.007c-1.052.061-1.999.513-2.698 1.212a4.15 4.15 0 0 0-1.22 2.943c0 1.125.446 2.145 1.197 2.897.73.73 1.753 1.21 2.946 1.265h8.61l.244-.007c1.052-.06 1.999-.512 2.698-1.212a4.15 4.15 0 0 0 1.22-2.943 4.15 4.15 0 0 0-1.22-2.943 4.15 4.15 0 0 0-2.943-1.219zm72.965 0H332.12l-.244.007c-1.052.061-2 .513-2.699 1.212a4.15 4.15 0 0 0-1.219 2.943c0 1.125.445 2.145 1.197 2.897.73.73 1.752 1.21 2.946 1.265h59.955l.245-.007c1.052-.06 1.999-.512 2.698-1.212a4.15 4.15 0 0 0 1.22-2.943 4.15 4.15 0 0 0-1.22-2.943 4.15 4.15 0 0 0-2.943-1.219zm17.116 0h-4.086l-.244.007c-1.052.061-2 .513-2.699 1.212a4.15 4.15 0 0 0-1.219 2.943c0 1.125.445 2.145 1.197 2.897.73.73 1.752 1.21 2.946 1.265h4.105l.244-.007c1.052-.06 2-.512 2.699-1.212a4.15 4.15 0 0 0 1.219-2.943 4.15 4.15 0 0 0-1.22-2.943 4.15 4.15 0 0 0-2.942-1.219zm17.115 0h-4.085l-.245.007c-1.052.061-1.999.513-2.698 1.212a4.15 4.15 0 0 0-1.22 2.943c0 1.125.445 2.145 1.197 2.897.73.73 1.753 1.21 2.946 1.265h4.105l.245-.007c1.052-.06 1.999-.512 2.698-1.212a4.15 4.15 0 0 0 1.22-2.943 4.15 4.15 0 0 0-1.22-2.943 4.15 4.15 0 0 0-2.943-1.219zm45.04 0h-32.01l-.244.007c-1.052.061-2 .513-2.699 1.212a4.15 4.15 0 0 0-1.22 2.943c0 1.125.446 2.145 1.198 2.897.73.73 1.752 1.21 2.945 1.265h32.03l.245-.007c1.052-.06 2-.512 2.699-1.212a4.15 4.15 0 0 0 1.219-2.943 4.15 4.15 0 0 0-1.22-2.943 4.15 4.15 0 0 0-2.942-1.219z" stroke-linejoin="square" fill="url(#q)"/>
        </g>
    </g>
</svg>
