<svg width="1613" height="1054" viewBox="0 0 1613 1054" xmlns="http://www.w3.org/2000/svg">
    <g fill="none" fill-rule="evenodd">
        <g opacity=".38" style="mix-blend-mode:multiply" transform="translate(427 734)" fill="#D0C0C1"
           fill-rule="nonzero">
            <path opacity=".5"
                  d="M102 124h1v16h-1zM104 124h1v16h-1zM107 124h1v16h-1zM109 124h1v16h-1zM111 124h1v16h-1zM114 124h1v16h-1zM116 124h1v16h-1zM118 124h1v16h-1zM121 124h1v16h-1zM123 124h1v16h-1zM125 124h1v16h-1zM128 124h1v16h-1zM130 124h1v16h-1zM132 124h1v16h-1zM135 124h1v16h-1zM139 124h-2v16h2v-16zm-1.785.503h1.57v14.993h-1.57v-14.993zM140.997 124H139v16h2l-.003-16zm-1.786.503h1.57v14.993h-1.57v-14.993zM144 124h-2v16h2v-16zm-1.786.503h1.572v14.993h-1.572v-14.993zM146 124h-2v16h2v-16zm-1.785.503h1.57v14.993h-1.57v-14.993zM149 124h-2v16h2v-16zm-1.786.503h1.57v14.993h-1.57v-14.993zM151 124h-2v16h2v-16zm-1.786.503h1.573v14.993h-1.572v-14.993zM154 124h-2v16h2v-16zm-1.785.503h1.57v14.993h-1.57v-14.993zM156 124h-2v16h2v-16zm-1.786.503h1.572v14.993h-1.572v-14.993z"/>
            <path d="M175 120H41v23h49.582v-.99h4.657v.99H175v-23zm-79.588 21.49h-5.003v.989H41.174v-21.96h133.654v21.961H95.412v-.99zM90 150.04H42.31l-.31.92h48zM95 150.04v.92h92.691l.309-.92zM37 113h23v6H37zM64 113h117v6H64zM176 126h117v6H176z"
                  opacity=".5"/>
            <path opacity=".5"
                  d="M63.783 116v4.731h-4.834V116H28v16h4.63v-9.83H68.35V132H74v-16zM90.271 142.252H93V104H82v47h8.271z"/>
            <path opacity=".5"
                  d="M93.211 124v11.128H71.87V124H62v43h5.601v-14.824H87.61V167h2.667v-25.2h4.802V167H99v-43z"/>
            <path opacity=".5"
                  d="M63.683 103v17.117h-4.736V103H50v32h17v-32zM30 142h40v7H30zM75 99h5v59h-5zM186.351 124v12h-1.864v-12h-6.484v7.25h-.711V124h-5.417v10.25H162V140h33v-16zM199 122h6v23h-6z"/>
            <path opacity=".5"
                  d="M212.524 132v5.706h-4.807V132h-22.01v6.44H180V164h5.553v-18.852h28.84v5.209H220V132zM16 127h21v13H16z"/>
            <path opacity=".5"
                  d="M191 122h3v36h-3zM195 122h3v36h-3zM200 122h3v36h-3zM204 122h3v28h-3zM208 122h3v28h-3zM216 150v-20.631h-.583v-9.58H216V108h-3v42zM217 108h3v12h-3zM217 129h3v21h-3zM221 108h3v12h-3zM221 129h3v21h-3zM226 108h3v12h-3zM226 129h3v29h-3zM230 108h3v12h-3zM230 129h3v29h-3zM234 108h3v12h-3zM234 129h3v29h-3zM239 108h3v12h-3zM239 129h3v29h-3zM254 116h-10v27h10v-27zm-9.826.509h9.652v25.983h-9.652V116.51zM266 116h-10v27h9.997l.003-27zm-9.823.509h9.648v25.983h-9.648V116.51zM278 116h-10v27h10v-27zm-9.826.509h9.651v25.983h-9.651V116.51zM290 116h-10v27h10v-27zm-9.826.509h9.652v25.983h-9.652V116.51z"/>
            <path d="M284 105h-10v27h10v-27zm-9.825.508h9.65v25.984h-9.65v-25.984zM269 129h-10v18.212h9.716V156H269v-27zm-9.826.509h9.652v17.2h-9.652v-17.2zM189.484 158.814c-22.553 0-45.1-.022-67.484-.066v-.561c44.769.087 90.188.087 135 0v.557c-22.409.048-44.966.07-67.516.07zM302.994 158.814c-11.026 0-22.05-.022-32.994-.066v-.561c21.889.087 44.095.087 66 0v.557c-10.952.048-21.98.07-33.006.07z"
                  opacity=".5"/>
            <ellipse opacity=".5" cx="336" cy="158.5" rx="2" ry="5.5"/>
            <ellipse opacity=".5" cx="391" cy="109.5" rx="2" ry="5.5"/>
            <ellipse opacity=".5" cx="164" cy="158.5" rx="2" ry="5.5"/>
            <path d="M194 113.5c0 3.038-.895 5.5-2 5.5-1.104 0-2-2.462-2-5.5s.895-5.5 2-5.5c1.106 0 2 2.462 2 5.5z"
                  opacity=".5"/>
            <ellipse opacity=".5" cx="211" cy="114.5" rx="2" ry="5.5"/>
            <ellipse opacity=".5" cx="256.5" cy="158.5" rx="1.5" ry="4.5"/>
            <path d="M267 115.5c0 2.486-.672 4.5-1.5 4.5-.829 0-1.5-2.014-1.5-4.5s.671-4.5 1.5-4.5c.828 0 1.5 2.012 1.5 4.5zM124 158.5c0 3.038-.895 5.5-2 5.5-1.104 0-2-2.462-2-5.5s.896-5.5 2-5.5c1.105 0 2 2.462 2 5.5zM121 98.5c0 1.933-.672 3.5-1.5 3.5s-1.5-1.567-1.5-3.5.671-3.5 1.5-3.5 1.5 1.57 1.5 3.5zM139 150.5c0 1.933-.671 3.5-1.5 3.5s-1.5-1.567-1.5-3.5.672-3.5 1.5-3.5 1.5 1.568 1.5 3.5z"
                  opacity=".5"/>
            <ellipse opacity=".5" cx="141.5" cy="150.5" rx="1.5" ry="3.5"/>
            <path d="M147 150.5c0 1.933-.671 3.5-1.5 3.5s-1.5-1.567-1.5-3.5.672-3.5 1.5-3.5 1.5 1.568 1.5 3.5zM151 150.5c0 1.933-.672 3.5-1.5 3.5s-1.5-1.567-1.5-3.5.671-3.5 1.5-3.5 1.5 1.568 1.5 3.5zM155 150.5c0 1.933-.671 3.5-1.5 3.5s-1.5-1.567-1.5-3.5.672-3.5 1.5-3.5 1.5 1.568 1.5 3.5zM159 150.5c0 1.933-.672 3.5-1.5 3.5s-1.5-1.567-1.5-3.5.671-3.5 1.5-3.5 1.5 1.568 1.5 3.5zM183 131.5c0 1.933-.672 3.5-1.5 3.5s-1.5-1.567-1.5-3.5.671-3.5 1.5-3.5 1.5 1.568 1.5 3.5zM189 132.5c0 1.932-.671 3.5-1.5 3.5s-1.5-1.568-1.5-3.5.672-3.5 1.5-3.5 1.5 1.563 1.5 3.5zM195 132.5c0 1.933-.672 3.5-1.5 3.5s-1.5-1.567-1.5-3.5.671-3.5 1.5-3.5 1.5 1.567 1.5 3.5zM201 133.5c0 1.933-.672 3.5-1.5 3.5s-1.5-1.567-1.5-3.5.671-3.5 1.5-3.5 1.5 1.567 1.5 3.5zM207 133.5c0 1.932-.672 3.5-1.5 3.5-.83 0-1.5-1.568-1.5-3.5s.672-3.5 1.5-3.5c.827 0 1.5 1.57 1.5 3.5zM318 129.5c0-17.365-5.161-31.5-11.5-31.5S295 112.13 295 129.5c0 17.37 5.161 31.5 11.5 31.5s11.5-14.13 11.5-31.5zm-.172 0c0 17.094-5.08 30.993-11.324 30.993-6.245 0-11.326-13.903-11.326-30.993 0-17.089 5.08-30.993 11.326-30.993 6.245 0 11.321 13.904 11.321 30.993h.003zM293 98h2v22h-2z"
                  opacity=".5"/>
            <path opacity=".5"
                  d="M298 98h2v22h-2zM303 98h2v22h-2zM308 98h2v22h-2zM313 98h2v22h-2zM318 98h2v22h-2zM323 98h2v22h-2zM328 98h2v22h-2z"/>
            <path opacity=".5"
                  d="M287 109v31h22.364v-16.18h13.061V140H343v-31zM165.58 120.992H169V104h-1.08v10.676h-1.26V104H151v7.276h12.6v9.23H151V129h14.58zM0 104h74v2H0zM0 108h74v2H0zM0 112h74v2H0zM0 117h74v2H0zM0 121h74v2H0zM0 126h74v2H0zM0 130h74v2H0zM0 135h74v2H0zM0 139h74v2H0zM0 144h74v2H0zM0 148h74v2H0zM0 153h74v2H0zM0 157h74v2H0z"/>
            <path opacity=".5"
                  d="M320 126h9v37h-9zM285.957 137v12.859h-12.914V137H263v9.454h5.918V163h20.805v-18.978H296V137z"/>
            <path opacity=".5" d="M280 142h39v10h-39z"/>
            <path opacity=".5"
                  d="M383 130.648V118h-42.793v6.806h-3.054V118h-5.031v4.372h-5.751V118H314v37h30.52v-10.234h8.265V155H383v-15.588h-59.504v-8.764z"/>
            <path d="M223.803 142.863h24.644v24.123h79.832v9.65l6.934-9.65h34.82v-48.457l6.317-8.79H391v-1.02h-14.726l-6.24 8.685V97.481H328.63V82.318l-5.533 15.161h-74.302V73l-8.934 24.48H119.565v1.021h119.923l-15.817 43.343h-11.977v-28.656H99V177l12.457-34.137h99.892V177l12.454-34.137zm110.6 24.123-5.779 8.046v-8.046h5.78zM211.35 114.209v27.634H111.323l-11.978 32.818V114.21h112.004zm11.95 28.654-11.605 31.798v-31.798h11.605zm146.39-23.853v46.955H335.95l33.74-46.955zM328.63 98.5h41.063v19.383l-34.55 48.082h-6.512V98.501zm-79.832 44.363h58.246l16.188-44.363h5.052v67.464h-79.488l.002-23.1zm0-44.363h73.928l-15.818 43.343h-58.11V98.5zm-8.799 0h8.454v43.343h-24.274l15.82-43.343zm88.287-13.844v12.825h-4.68l4.68-12.825zm-79.833-9.321v22.146h-8.081l8.081-22.146z"
                  opacity=".5"/>
            <path d="M269 129c0-14.888-4.486-27-10-27-5.516 0-10 12.112-10 27s4.486 27 10 27c5.512 0 10-12.112 10-27zm-.349 0c0 14.328-4.327 25.984-9.652 25.984-5.325 0-9.651-11.656-9.651-25.984 0-14.328 4.327-25.984 9.651-25.984 5.325 0 9.652 11.656 9.652 25.984zM356 129c0-14.888-4.487-27-10-27-5.514 0-10 12.112-10 27s4.486 27 10 27c5.513 0 10-12.112 10-27zm-.35 0c0 14.328-4.326 25.984-9.65 25.984-5.325 0-9.651-11.656-9.651-25.984 0-14.328 4.326-25.984 9.65-25.984 5.325 0 9.651 11.656 9.651 25.984zM378.264 145h-11.528c-3.154 0-5.736-7.65-5.736-17s2.582-17 5.736-17h11.528c3.154 0 5.736 7.65 5.736 17s-2.582 17-5.736 17z"
                  opacity=".5"/>
            <path d="M284.263 145h-11.527c-3.155 0-5.736-7.65-5.736-17s2.581-17 5.736-17h11.527c3.155 0 5.737 7.65 5.737 17s-2.582 17-5.737 17zM395 88h-11v89h11V88zm-10.662 1.02h10.324v86.959h-10.324V89.02zM410 88h-11v89h11V88zm-10.662 1.02h10.324v86.959h-10.324V89.02zM424 88h-11v89h11V88zm-10.662 1.02h10.324v86.959h-10.324V89.02zM439 88h-11v89h11V88zm-10.663 1.02h10.326v86.959h-10.326V89.02z"
                  opacity=".5"/>
            <path d="M443 94H87v22h356V94zM87.349 95.039h355.307v19.92H87.349v-19.92zM630 33h-4v199h3.997L630 33zm-3.647 1.016h3.296v196.968h-3.296V34.016zM601 33h-4v199h4V33zm-3.65 1.016h3.3v196.968h-3.3V34.016zM571.998 33H568v199h4l-.002-199zm-3.649 1.016h3.298v196.968h-3.298V34.016zM543 33h-4v199h4V33zm-3.649 1.016h3.298v196.968h-3.298V34.016z"
                  opacity=".5"/>
            <path d="M192 79h-12v30h11.997L192 79zm-11.638 1.02h11.279v27.96h-11.28V80.02zM208 79h-12v30h12V79zm-11.64 1.02h11.28v27.96h-11.28V80.02zM223 79h-12v30h12V79zm-11.636 1.017h11.276v27.96h-11.276v-27.96zM239 79h-12v30h12V79zm-11.642 1.02h11.283v27.96h-11.283V80.02zM419 145H78v54h341v-54zm-340.656 1.022h340.31v51.956H78.344v-51.956z"
                  opacity=".5"/>
            <path d="M338 171H121v17h217v-17zm-216.655 1.04h216.311v14.919H121.345V172.04z" opacity=".5"/>
            <path d="M292.998 142H289v71h4l-.002-71zm-3.627 1.023h3.256v68.95h-3.257v-68.95zM282 142h-4v71h4v-71zm-3.627 1.023h3.256v68.95h-3.256v-68.95zM271 142h-4v71h4v-71zm-3.628 1.023h3.257v68.95h-3.257v-68.95zM260 142h-4v71h4v-71zm-3.627 1.023h3.256v68.95h-3.257v-68.95zM557 73h55v3h-55zM469 98h-55v4h55v-4zm-54.658.95h54.317v2.097h-54.317V98.95zM681 98h-55v4h55v-4zm-54.658.95h54.316v2.097h-54.316V98.95zM469 106h-55v4h55v-4zm-54.658.95h54.317v2.097h-54.317v-2.097zM469 114h-55v4h55v-4zm-54.658.95h54.317v2.1h-54.317v-2.1zM469 123h-55v4h55v-4zm-54.658.95h54.317v2.097h-54.317v-2.097zM469 131h-55v4h55v-4zm-54.658.95h54.317v2.097h-54.317v-2.097zM469 139h-55v4h55v-4zm-54.658.95h54.317v2.1h-54.317v-2.1zM469 147h-55v4h55v-4zm-54.658.95h54.317v2.097h-54.317v-2.097zM469 155h-55v4h55v-4zm-54.658.95h54.317v2.097h-54.317v-2.097zM469 164h-55v4h55v-4zm-54.658.95h54.317v2.096h-54.317v-2.096zM469 172h-55v4h55v-4zm-54.658.95h54.317v2.097h-54.317v-2.097zM469 180h-55v4h55v-4zm-54.658.95h54.317v2.097h-54.317v-2.097zM59 183h72v6H59z"
                  opacity=".5"/>
            <path opacity=".5" d="M115 163h12v26h-12z"/>
            <path opacity=".5" d="M123 176h21v3h-21z"/>
            <path opacity=".5" d="M134 164h4v29h-4zM140 169h13v24h-13z"/>
            <path opacity=".5" d="M146 161h9v16h-9z"/>
            <path opacity=".5" d="M150 172h26v9h-26z"/>
            <path opacity=".5" d="M173 164h4v29h-4z"/>
            <path opacity=".5"
                  d="M168 174h18v5h-18zM159 167h3v22h-3zM240 174h63v3h-63zM445 84h3v107h-3zM448 84h3v107h-3zM452 84h3v107h-3zM456 84h3v107h-3zM460 84h3v107h-3zM464 84h3v107h-3zM467 84h3v107h-3zM471 84h3v107h-3zM479 130h1v16h-1zM481 130h1v16h-1zM483 130h1v16h-1zM486 130h1v16h-1zM488 130h1v16h-1zM490 130h1v16h-1zM493 130h1v16h-1zM495 130h1v16h-1zM497 130h1v16h-1zM500 130h1v16h-1zM502 130h1v16h-1zM504 130h1v16h-1zM507 130h1v16h-1zM509 130h1v16h-1zM511 130h1v16h-1zM515 130h-2v16h2v-16zm-1.786.504h1.572v14.993h-1.572v-14.993zM518 130h-2v16h2v-16zm-1.785.504h1.57v14.993h-1.57v-14.993zM520 130h-2v16h2v-16zm-1.786.504h1.57v14.993h-1.57v-14.993zM523 130h-2v16h2v-16zm-1.786.504h1.572v14.993h-1.572v-14.993zM526 130h-2v16h2v-16zm-1.785.504h1.57v14.993h-1.57v-14.993zM528 130h-2v16h2v-16zm-1.786.504h1.57v14.993h-1.57v-14.993zM531 130h-2v16h1.999l.001-16zm-1.784.504h1.57v14.993h-1.57v-14.993zM533 130h-2v16h2v-16zm-1.785.504h1.57v14.993h-1.57v-14.993z"/>
            <path d="M551 126H417v22.996h49.586v-.985h4.659V149H551v-23zm-79.588 21.487h-4.998v.99h-49.241v-21.952h133.655v21.951h-79.416v-.99zM467 155.04h-47.69l-.31.92h48zM471 155.04v.92h92.691l.309-.92zM413 118h23v6h-23zM441 118h117v6H441zM553 132h117v6H553z"
                  opacity=".5"/>
            <path opacity=".5"
                  d="M440.782 122v4.73h-4.834V122H405v16h4.63v-9.83h35.718V138H451v-16zM467.27 147.251H470V109h-11v47h8.27z"/>
            <path opacity=".5"
                  d="M469.21 130v11.13h-21.34V130H438v43h5.602v-14.824h20.006V173h2.668v-25.2h4.801V173H475v-43z"/>
            <path opacity=".5"
                  d="M440.682 109v17.116h-4.736V109H427v32h17v-32zM407 148h40v7h-40zM452 104h5v59h-5zM563.351 130v12h-1.864v-12h-6.484v7.25h-.711V130h-5.417v10.25H539V146h33v-16zM576 128h6v23h-6z"/>
            <path opacity=".5"
                  d="M588.523 137v5.706h-4.807V137h-22.01v6.44H556V169h5.552v-18.853h28.84v5.21H596V137zM393 133h21v13h-21z"/>
            <path opacity=".5"
                  d="M568 128h3v36h-3zM572 128h3v36h-3zM576 128h3v36h-3zM581 128h3v28h-3zM585 128h3v28h-3zM592 156v-20.632h-.583v-9.578H592V114h-3v42zM594 114h3v12h-3zM594 135h3v21h-3zM598 114h3v12h-3zM598 135h3v21h-3zM602 114h3v12h-3zM602 135h3v29h-3zM607 114h3v12h-3zM607 135h3v29h-3zM611 114h3v12h-3zM611 135h3v29h-3zM615 114h3v12h-3zM615 135h3v29h-3zM630 121h-10v27h10v-27zm-9.825.508h9.651v25.987h-9.651v-25.987zM642 121h-10v27h10v-27zm-9.826.508h9.654v25.987h-9.652l-.002-25.987zM654 121h-10v27h10v-27zm-9.826.508h9.651v25.987h-9.651v-25.987zM666 121h-10v27h10v-27zm-9.828.508h9.654v25.987h-9.651l-.003-25.987z"/>
            <path d="M660 111h-10v27h10v-27zm-9.826.508h9.652v25.984h-9.652v-25.984zM646 134h-10v18.213h9.716V161H646v-27zm-9.825.509h9.651v17.2h-9.651v-17.2zM566.484 163.812c-22.553 0-45.1-.022-67.484-.066v-.558c44.769.088 90.188.088 135 0v.558c-22.406.044-44.963.066-67.516.066zM678.994 163.812c-11.026 0-22.05-.022-32.994-.066v-.558c21.89.088 44.094.088 66 0v.558c-10.953.044-21.98.066-33.006.066z"
                  opacity=".5"/>
            <path d="M715 163.5c0 3.038-.896 5.5-2 5.5s-2-2.462-2-5.5.896-5.5 2-5.5 2 2.462 2 5.5zM770 115.5c0 3.037-.896 5.5-2 5.5s-2-2.463-2-5.5c0-3.038.896-5.5 2-5.5s2 2.462 2 5.5zM543 163.5c0 3.038-.896 5.5-2 5.5s-2-2.462-2-5.5.896-5.5 2-5.5 2 2.462 2 5.5zM571 119.5c0 3.038-.896 5.5-2 5.5s-2-2.462-2-5.5.896-5.5 2-5.5 2 2.462 2 5.5zM590 119.5c0 3.038-.895 5.5-2 5.5-1.104 0-2-2.462-2-5.5s.895-5.5 2-5.5c1.106 0 2 2.462 2 5.5zM635 163.5c0 2.485-.672 4.5-1.5 4.5-.829 0-1.5-2.015-1.5-4.5s.671-4.5 1.5-4.5c.828 0 1.5 2.014 1.5 4.5zM644 121.5c0 2.486-.672 4.5-1.5 4.5-.827 0-1.5-2.014-1.5-4.5s.672-4.5 1.5-4.5c.829 0 1.5 2.014 1.5 4.5zM501 163.5c0 3.038-.896 5.5-2 5.5s-2-2.462-2-5.5.896-5.5 2-5.5 2 2.462 2 5.5zM498 103.5c0 1.932-.671 3.5-1.5 3.5s-1.5-1.568-1.5-3.5.672-3.5 1.5-3.5 1.5 1.567 1.5 3.5zM515 155.5c0 1.932-.672 3.5-1.5 3.5-.827 0-1.5-1.568-1.5-3.5s.672-3.5 1.5-3.5c.83 0 1.5 1.567 1.5 3.5zM519 155.5c0 1.932-.672 3.5-1.5 3.5s-1.5-1.568-1.5-3.5.672-3.5 1.5-3.5 1.5 1.567 1.5 3.5zM523 155.5c0 1.932-.672 3.5-1.5 3.5-.827 0-1.5-1.568-1.5-3.5s.672-3.5 1.5-3.5c.83 0 1.5 1.567 1.5 3.5zM528 155.5c0 1.932-.671 3.5-1.5 3.5s-1.5-1.568-1.5-3.5.671-3.5 1.5-3.5 1.5 1.567 1.5 3.5zM532 155.5c0 1.932-.672 3.5-1.5 3.5s-1.5-1.568-1.5-3.5.671-3.5 1.5-3.5 1.5 1.567 1.5 3.5zM536 155.5c0 1.932-.671 3.5-1.5 3.5s-1.5-1.568-1.5-3.5.672-3.5 1.5-3.5 1.5 1.567 1.5 3.5zM559 137.5c0 1.932-.671 3.5-1.5 3.5s-1.5-1.568-1.5-3.5.672-3.5 1.5-3.5 1.5 1.567 1.5 3.5zM565 137.5c0 1.933-.672 3.5-1.501 3.5-.83 0-1.499-1.567-1.499-3.5s.671-3.5 1.499-3.5c.828 0 1.501 1.567 1.501 3.5zM571 138.5c0 1.933-.672 3.5-1.5 3.5s-1.5-1.567-1.5-3.5.671-3.5 1.5-3.5 1.5 1.571 1.5 3.5zM578 138.5c0 1.932-.671 3.5-1.5 3.5s-1.5-1.568-1.5-3.5.672-3.5 1.5-3.5 1.5 1.567 1.5 3.5zM584 139.5c0 1.933-.672 3.5-1.5 3.5s-1.5-1.567-1.5-3.5.671-3.5 1.5-3.5 1.5 1.567 1.5 3.5zM695 135.5c0-17.366-5.161-31.5-11.5-31.5S672 118.132 672 135.5c0 17.368 5.161 31.5 11.5 31.5s11.5-14.13 11.5-31.5zm-.171 0c0 17.093-5.081 30.993-11.325 30.993-6.245 0-11.326-13.904-11.326-30.993 0-17.09 5.08-30.992 11.326-30.992 6.245 0 11.325 13.903 11.325 30.992zM669 104h2v22h-2z"
                  opacity=".5"/>
            <path opacity=".5"
                  d="M675 104h2v22h-2zM680 104h2v22h-2zM685 104h2v22h-2zM690 104h2v22h-2zM695 104h2v22h-2zM700 104h2v22h-2zM705 104h2v22h-2z"/>
            <path opacity=".5"
                  d="M664 115v31h22.364v-16.18h13.06V146H720v-31zM542.58 125.993H546V109h-1.08v10.677h-1.26V109H528v7.276h12.6v9.231H528V134h14.58zM377 109h74v2h-74zM377 114h74v2h-74zM377 118h74v2h-74zM377 122h74v2h-74zM377 127h74v2h-74zM377 131h74v2h-74zM377 136h74v2h-74zM377 140h74v2h-74zM377 145h74v2h-74zM377 149h74v2h-74zM377 154h74v2h-74zM377 158h74v2h-74zM377 163h74v2h-74z"/>
            <path opacity=".5"
                  d="M697 132h9v37h-9zM662.956 143v12.86h-12.913V143H640v9.455h5.918V169h20.804v-18.977H673V143z"/>
            <path opacity=".5" d="M656 148h39v10h-39z"/>
            <path opacity=".5"
                  d="M760 135.648V123h-42.793v6.805h-3.054V123h-5.031v4.37h-5.75V123H691v37h30.52v-10.233h8.265V160H760v-15.589h-59.503v-8.763z"/>
            <path d="M600.806 148.864h24.644v24.122h79.832v9.65l6.934-9.65h34.817v-48.457l6.317-8.791H768v-1.019h-14.728l-6.24 8.686v-19.922H705.63V88.32l-5.532 15.16h-74.3V79l-8.935 24.48H496.568v1.021h119.92l-15.817 43.343h-11.978v-28.655H476V183l12.458-34.136h99.89V183l12.458-34.136zm110.6 24.122-5.779 8.046v-8.046h5.779zM588.348 120.21v27.634H488.323l-11.978 32.823V120.21h112.003zm11.95 28.654-11.605 31.8v-31.8h11.606zm146.39-23.853v46.954H712.95l33.739-46.954zm-41.06-20.51h41.06v19.383l-34.55 48.083h-6.51v-67.466zm-79.834 44.363h58.25l16.19-44.363h5.052v67.464h-79.488l-.004-23.1zm0-44.363h73.928l-15.818 43.343h-58.11V104.5zm-8.799 0h8.455v43.343h-24.272l15.817-43.343zm88.287-13.845v12.825h-4.678l4.678-12.825zm-79.832-9.32v22.145h-8.082l8.082-22.145z"
                  opacity=".5"/>
            <path d="M646 135c0-14.888-4.486-27-10-27s-10 12.112-10 27 4.486 27 10 27 10-12.113 10-27zm-.349 0c0 14.328-4.327 25.984-9.651 25.984s-9.652-11.656-9.652-25.984c0-14.328 4.327-25.985 9.652-25.985 5.325 0 9.651 11.656 9.651 25.985zM732 135c0-14.888-4.486-27-10-27-5.515 0-10 12.112-10 27s4.487 27 10 27c5.512 0 10-12.113 10-27zm-.349 0c0 14.328-4.326 25.984-9.651 25.984-5.326 0-9.651-11.656-9.651-25.984 0-14.328 4.326-25.985 9.65-25.985 5.325 0 9.652 11.656 9.652 25.985zM755.264 151h-11.528c-3.155 0-5.736-7.65-5.736-17s2.581-17 5.736-17h11.528c3.155 0 5.736 7.65 5.736 17s-2.581 17-5.736 17z"
                  opacity=".5"/>
            <path d="M661.264 151h-11.528c-3.155 0-5.736-7.65-5.736-17s2.581-17 5.736-17h11.528c3.155 0 5.736 7.65 5.736 17s-2.581 17-5.736 17zM772 93h-11v89h11V93zm-10.663 1.021h10.322v86.958h-10.326l.004-86.958zM787 93h-11v89h11V93zm-10.662 1.021h10.324v86.958h-10.324V94.02zM800.996 93H790v89h11l-.004-89zm-10.664 1.021h10.327v86.958h-10.327V94.02zM815 93h-11v89h11V93zm-10.663 1.021h10.326v86.958h-10.325l-.001-86.958z"
                  opacity=".5"/>
            <path d="M820 100H464v22h356v-22zm-355.656 1.039h355.311v19.92H464.344v-19.92z" opacity=".5"/>
            <path d="M812 38h-4v199h4V38zm-3.65 1.016h3.3v196.968h-3.3V39.016zM783 38h-4v199h4V38zm-3.65 1.016h3.3v196.968h-3.3V39.016zM754 38h-4v199h4V38zm-3.649 1.016h3.298v196.968h-3.298V39.016zM725 38h-4v199h4V38zm-3.649 1.016h3.298v196.968h-3.298V39.016zM569 85h-12v30h12V85zm-11.64 1.02h11.28v27.96h-11.284l.003-27.96zM585 85h-12v30h12V85zm-11.64 1.02h11.28v27.96h-11.28V86.02zM600 85h-12v30h12V85zm-11.64 1.02h11.28v27.96h-11.28V86.02zM615 85h-12v30h12V85zm-11.642 1.02h11.284v27.96h-11.284V86.02z"
                  opacity=".5"/>
            <path d="M796 150H455v54h341v-54zm-340.656 1.022h340.311v51.956h-340.31v-51.956z" opacity=".5"/>
            <path d="M715 177H498v17h217v-17zm-216.655 1.04h216.311v14.921H498.345v-14.92z" opacity=".5"/>
            <path d="M670 147h-4v71h4v-71zm-3.627 1.023h3.256v68.952h-3.256v-68.952zM659 147h-4v71h4v-71zm-3.628 1.023h3.257v68.952h-3.257v-68.952zM648 147h-4v71h4v-71zm-3.627 1.023h3.256v68.952h-3.256v-68.952zM637 147h-4v71h4v-71zm-3.627 1.023h3.257v68.952h-3.257v-68.952zM739 79h55v3h-55zM846 104h-55v4h55v-4zm-54.658.949h54.316v2.098h-54.316v-2.098zM846 112h-55v4h55v-4zm-54.658.95h54.316v2.097h-54.316v-2.097zM846 120h-55v4h55v-4zm-54.658.95h54.316v2.097h-54.316v-2.097zM846 128h-55v4h55v-4zm-54.658.95h54.316v2.097h-54.316v-2.097zM846 136h-55v4h55v-4zm-54.658.95h54.316v2.097h-54.316v-2.097zM846 145h-55v4h55v-4zm-54.658.95h54.316v2.1h-54.316v-2.1zM846 153h-55v4h55v-4zm-54.658.949h54.316v2.098h-54.316v-2.098zM846 161h-55v4h55v-4zm-54.658.95h54.316v2.098h-54.316v-2.098zM846 169h-55v4h55v-4zm-54.658.95h54.316v2.101h-54.316v-2.1zM846 177h-55v4h55v-4zm-54.658.95h54.316v2.097h-54.316v-2.097zM846 186h-55v4h55v-4zm-54.658.95h54.316v2.097h-54.316v-2.097zM436 189h72v6h-72z"
                  opacity=".5"/>
            <path opacity=".5" d="M492 169h12v26h-12z"/>
            <path opacity=".5" d="M500 182h21v3h-21z"/>
            <path opacity=".5"
                  d="M510 169h4v29h-4zM517 174h13v24h-13zM746 14h-55v4h55v-4zm-54.651.949h54.309v2.098h-54.31v-2.098zM746 22h-55v4h55v-4zm-54.651.95h54.309v2.098h-54.31V22.95zM746 30h-55v4h55v-4zm-54.651.95h54.309v2.1h-54.31v-2.1zM746 38h-55v4h55v-4zm-54.651.95h54.309v2.097h-54.31V38.95zM746 47h-55v4h55v-4zm-54.651.95h54.309v2.097h-54.31V47.95zM746 55h-55v4h55v-4zm-54.651.95h54.309v2.097h-54.31V55.95zM746 63h-55v4h55v-4zm-54.651.95h54.309v2.098h-54.31V63.95zM746 71h-55v4h55v-4zm-54.651.95h54.309v2.098h-54.31V71.95zM746 79h-55v4h55v-4zm-54.651.949h54.309v2.097h-54.31v-2.097zM746 87h-55v4h55v-4zm-54.651.95h54.309v2.098h-54.31V87.95zM746 96h-55v4h55v-4zm-54.651.95h54.309v2.097h-54.31V96.95z"/>
            <path opacity=".5"
                  d="M725 0h3v107h-3zM729 0h3v107h-3zM732 0h3v107h-3zM736 0h3v107h-3zM740 0h3v107h-3zM744 0h3v107h-3zM747 0h3v107h-3zM755 45h1v16h-1zM757 45h1v16h-1zM760 45h1v16h-1zM762 45h1v16h-1zM764 45h1v16h-1zM767 45h1v16h-1zM769 45h1v16h-1zM778 45h1v16h-1zM781 45h1v16h-1zM783 45h1v16h-1zM785 45h1v16h-1zM788 45h1v16h-1zM792 45h-2v16h2V45zm-1.785.504h1.57v14.993h-1.57V45.504zM793.995 45H792v16h2l-.005-16zm-1.785.504h1.57v14.993h-1.57V45.504z"/>
            <path opacity=".5"
                  d="M743 71.04h-47.69l-.31.92h48zM716.783 37v4.73h-4.835V37H681v16h4.63v-9.83h35.718V53H727V37z"/>
            <path opacity=".5" d="M743.272 63.252H746V25h-11v47h8.272z"/>
            <path opacity=".5"
                  d="M746.211 45v11.128h-21.34V45H715v43h5.602V73.176h20.007V88h2.668V62.8h4.801V88H752V45z"/>
            <path opacity=".5"
                  d="M728 20h5v59h-5zM842.484 79.811c-22.552 0-45.1-.02-67.484-.065v-.557c44.768.088 90.189.088 135 0v.558c-22.409.043-44.967.064-67.516.064zM792 71.5c0 1.933-.671 3.5-1.5 3.5s-1.5-1.567-1.5-3.5.671-3.5 1.5-3.5 1.5 1.567 1.5 3.5zM796 71.5c0 1.933-.672 3.5-1.501 3.5-.83 0-1.499-1.567-1.499-3.5s.671-3.5 1.499-3.5c.828 0 1.501 1.567 1.501 3.5zM653 25h74v2h-74zM653 29h74v2h-74zM653 34h74v2h-74zM653 38h74v2h-74zM653 43h74v2h-74zM653 47h74v2h-74zM653 52h74v2h-74zM653 56h74v2h-74zM653 61h74v2h-74zM653 65h74v2h-74zM653 69h74v2h-74zM653 74h74v2h-74zM653 78h74v2h-74zM991 92H774v17h217V92zm-216.655 1.04h216.31v14.918h-216.31V93.04z"/>
            <path opacity=".5" d="M776 98h21v3h-21z"/>
            <path opacity=".5" d="M787 85h4v29h-4zM793 90h13v24h-13zM523 166h9v16h-9z"/>
            <path opacity=".5" d="M527 177h26v9h-26z"/>
            <path opacity=".5" d="M550 169h4v29h-4z"/>
            <path opacity=".5"
                  d="M544 180h18v5h-18zM536 173h3v22h-3zM617 179h63v3h-63zM821 90h3v107h-3zM825 90h3v107h-3zM829 90h3v107h-3zM833 90h3v107h-3zM836 90h3v107h-3zM840 90h3v107h-3zM844 90h3v107h-3zM848 90h3v107h-3z"/>
        </g>
        <path d="m151.873 732.41-.252.073c-41.087 12.04-68.124 51.213-64.81 93.899l.022.261-.262.021-14.424 1.121a105.233 105.233 0 0 0 39.796 74.288l.206.161-.161.206-8.698 11.043c36.949 28.99 87.451 33.657 129.087 11.927l-13.369-25.498-.122-.232.233-.122c34.365-18.04 53.419-55.97 47.376-94.31l-.041-.258.256-.043 26.03-4.348a111.394 111.394 0 0 0-18.04-44.503l-21.002 14.512-.224.155-.146-.23a89.816 89.816 0 0 0-8.578-11.325l-.175-.196.196-.174 14.666-13.036c-28.308-31.732-72.332-44.372-113.162-32.492l5.52 18.847.078.252z"
              stroke="#B8B9C7" stroke-width="1.4" stroke-linecap="round"/>
        <path d="M205.25 1053a235.373 235.373 0 0 0 116.26-47.206l-45.052-58.218-.445-.576.575-.446a161.061 161.061 0 0 0 13.566-11.767l-19.847-20.275-.509-.52.52-.509a131.822 131.822 0 0 0 23.124-30.298l.354-.636.637.354 16.476 9.133.637.353-.353.637a152.325 152.325 0 0 1-12.306 18.78l16.737 12.95a173.32 173.32 0 0 0 14.898-22.967l.347-.639.64.347 7.91 4.283a183.135 183.135 0 0 0 21.33-74.147l-8.977-.573-.726-.047.046-.726c.17-2.65.277-5.306.323-7.97a173.393 173.393 0 0 0-4.74-43.488l-.17-.707.708-.17 8.117-1.943a182.422 182.422 0 0 0-14.23-38.712l-7.445 3.776-.65.33-.08-.161-18.862 9.594.012.024-.646.33-16.813 8.548-.646.328-.33-.645a130.856 130.856 0 0 0-6.348-11.097l-.391-.614.613-.392 17.545-11.18a153.332 153.332 0 0 0-15.347-20.007l-.484-.54.539-.491 16.93-15.35a177.03 177.03 0 0 0-65.986-45.337l-8.262 21.307-.262.68-.68-.264a153.441 153.441 0 0 0-28.4-7.972l-.72-.128.13-.716 3.566-19.896a174.394 174.394 0 0 0-100.209 12.13l-.666.293-.293-.666-9.192-20.91a197.946 197.946 0 0 0-37.588 21.918l13.668 18.291.435.585-.584.435a174.44 174.44 0 0 0-39.326 40.908l34.483 23.496.6.41-.41.602a131.79 131.79 0 0 0-7.7 12.782l-.338.646-.646-.34-22.728-11.977a157.976 157.976 0 0 0-7.54 16.778l-.26.68-.68-.259-16.756-6.388a177.037 177.037 0 0 0-10.536 79.364l17.845-1.794.726-.074.072.727a158.569 158.569 0 0 0 2.735 17.41l25.095-5.51.71-.156.156.712a131.226 131.226 0 0 0 9.793 28.481l.314.657-.657.314-17.994 8.58-.657.313-.314-.656a153.52 153.52 0 0 1-6.357-15.445l-17.77 6.116a172.112 172.112 0 0 0 64.373 84.728l9.924-14.43.412-.6.602.413a154.283 154.283 0 0 0 14.308 8.733l9.953-18.716.343-.646.642.343a132.318 132.318 0 0 0 9.11 4.405l.668.291-.293.67-19.97 45.68a182.532 182.532 0 0 0 57.161 14.353l1.659-20.717.058-.726.726.058c10.315.826 20.686.655 30.969-.51l.726-.08.081.726 8.283 73.148z"
              stroke="#B8B9C7" stroke-linecap="round" stroke-linejoin="round"/>
        <g>
            <g stroke="#B8B9C7" stroke-linecap="round" stroke-width="1.4">
                <path d="m1378.318 106.072-.281.083c-45.967 13.438-76.215 57.162-72.505 104.806l.024.292-.294.025-16.136 1.25c2.614 32.62 18.751 62.673 44.522 82.916l.231.18-.18.23-9.728 12.324c41.337 32.358 97.836 37.567 144.417 13.315l-14.957-28.46-.138-.259.261-.136c38.447-20.137 59.763-62.472 53.003-105.265l-.046-.287.287-.048 29.12-4.854a124.165 124.165 0 0 0-20.182-49.672l-23.492 16.197-.251.174-.164-.256a100.346 100.346 0 0 0-9.596-12.642l-.196-.218.22-.194 16.406-14.55c-31.669-35.419-80.92-49.528-126.6-36.268l6.177 21.036.078.281z"/>
                <path d="M1438.037 463.901a263.664 263.664 0 0 0 130.07-52.685l-50.406-64.981-.498-.642.643-.498a180.07 180.07 0 0 0 15.178-13.134l-22.205-22.63-.569-.58.582-.568a147.191 147.191 0 0 0 25.87-33.817l.397-.711.712.394 18.433 10.195.713.395-.395.71a169.98 169.98 0 0 1-13.768 20.962l18.725 14.454a193.505 193.505 0 0 0 16.668-25.634l.388-.714.716.387 8.849 4.78a204.051 204.051 0 0 0 23.86-82.767l-10.043-.64-.812-.052.052-.81c.19-2.958.31-5.923.361-8.896a193.143 193.143 0 0 0-5.304-48.54l-.19-.79.793-.188 9.082-2.17a203.347 203.347 0 0 0-15.922-43.209l-8.328 4.215-.727.369-.09-.18-21.102 10.709.014.025-.727.368-18.807 9.543-.722.366-.37-.72a145.967 145.967 0 0 0-7.102-12.386l-.437-.686.685-.436 19.63-12.479a171.187 171.187 0 0 0-17.162-22.322l-.547-.602.603-.548 18.94-17.137a198.094 198.094 0 0 0-73.819-50.608l-9.243 23.782-.294.76-.76-.296-.18-.07a171.979 171.979 0 0 0-31.594-8.828l-.803-.143.145-.799 3.988-22.207a195.531 195.531 0 0 0-109.175 12.278c-.982.413-1.96.833-2.935 1.261l-.746.327-.328-.744L1317.74 1a221.575 221.575 0 0 0-42.052 24.462l15.291 20.417.487.653-.654.485a194.932 194.932 0 0 0-43.996 45.659l38.579 26.227.672.457-.46.671a147.03 147.03 0 0 0-8.614 14.268l-.38.72-.722-.378-25.43-13.37a176.304 176.304 0 0 0-8.434 18.728l-.292.759-.76-.289-18.747-7.13a197.162 197.162 0 0 0-11.786 88.582l19.963-2.003.813-.082.08.811a176.823 176.823 0 0 0 3.063 19.432l28.074-6.15.795-.18.175.795a146.191 146.191 0 0 0 10.958 31.793l.35.734-.734.35-20.136 9.576-.735.35-.351-.733a171.202 171.202 0 0 1-7.11-17.238l-19.885 6.823c13.39 38.321 38.603 71.427 72.02 94.569l11.105-16.103.462-.67.672.46a172.496 172.496 0 0 0 16.007 9.75l11.136-20.887.384-.72.718.381a148.184 148.184 0 0 0 10.192 4.918l.747.324-.328.747-22.342 50.987a204.598 204.598 0 0 0 63.95 16.02l1.857-23.124.065-.81.813.064c11.54.922 23.143.731 34.646-.568l.813-.09.09.81 9.268 81.644z"/>
            </g>
            <g opacity=".38" style="mix-blend-mode:multiply" transform="translate(167 66)" fill="#D0C0C1"
               fill-rule="nonzero">
                <path opacity=".5"
                      d="M898 98h1v16h-1zM896 98h1v16h-1zM894 98h1v16h-1zM891 98h1v16h-1zM889 98h1v16h-1zM887 98h1v16h-1zM884 98h1v16h-1zM882 98h1v16h-1zM880 98h1v16h-1zM878 98h1v16h-1zM875 98h1v16h-1zM873 98h1v16h-1zM871 98h1v16h-1zM868 98h1v16h-1zM865 98h1v16h-1zM862 115h2V98h-2v17zm1.786-.536h-1.57v-15.93h1.57v15.93zM860 115h2V98h-2v17zm1.786-.536h-1.572v-15.93h1.572v15.93zM857.002 115H859V98h-2l.002 17zm1.785-.536h-1.57v-15.93h1.57v15.93zM855 115h2V98h-2v17zm1.786-.536h-1.572v-15.93h1.572v15.93zM852 115h2V98h-2v17zm1.785-.536h-1.57v-15.93h1.57v15.93zM850 115h2V98h-2v17zm1.786-.536h-1.57v-15.93h1.57v15.93zM848 115h2V98h-2v17zm1.786-.536h-1.572v-15.93h1.572v15.93zM845 115h2V98h-2v17zm1.785-.536h-1.57v-15.93h1.57v15.93z"/>
                <path d="M826 118h136V95h-50.321v.989h-4.728V95H826v23zm80.775-21.49h5.078v-.99h49.972v21.962h-135.65V95.519h80.601v.99zM912 87.96h47.69l.31-.92h-48zM907 87.96v-.92h-92.69l-.31.92zM943 120h23v6h-23zM820 120h118v6H820zM707 106h118v6H707z"
                      opacity=".5"/>
                <path opacity=".5"
                      d="M937.44 123v-5.026h4.94V123H974v-17h-4.73v10.444h-36.495V106H927v17zM911.728 95.934H909V135h11V87h-8.272z"/>
                <path opacity=".5"
                      d="M909.789 114v-11.129h21.34V114H941V71h-5.602v14.824h-20.006V71h-2.669v25.2h-4.801V71H904v43z"/>
                <path opacity=".5"
                      d="M937.512 134v-17.116h5.015V134H952v-32h-18v32zM932 89h40v7h-40zM922 80h4v60h-4zM813.912 114v-12h1.92v12h6.68v-7.249h.733V114h5.581v-10.25H839V98h-34v16zM796 92h6v24h-6z"/>
                <path opacity=".5"
                      d="M788.476 106v-5.706h4.807V106h22.01v-6.44H821V74h-5.553v18.853h-28.84v-5.21H781V106zM966 98h21v12h-21z"/>
                <path opacity=".5"
                      d="M806 80h3v36h-3zM802 80h3v36h-3zM798 80h3v36h-3zM794 88h3v28h-3zM789 88h3v28h-3zM785 88v20.632h.584v9.58H785V130h3V88zM781 119h3v11h-3zM781 88h3v21h-3zM776 119h3v11h-3zM776 88h3v21h-3zM771 119h3v11h-3zM771 80h3v29h-3zM767 119h3v11h-3zM767 80h3v29h-3zM763 119h3v11h-3zM763 80h3v29h-3zM759 119h3v11h-3zM759 80h3v29h-3zM746 123h10V96h-10v27zm9.825-.508h-9.65V96.508h9.65v25.984zM734 123h10V96h-10v27zm9.825-.508h-9.651V96.508h9.651v25.984zM722 123h10V96h-10v27zm9.82-.508h-9.645V96.508h9.646v25.984zM710 123h10V96h-10v27zm9.825-.508h-9.65V96.508h9.65v25.984z"/>
                <path d="M716 133h10v-27h-10v27zm9.823-.509h-9.65v-25.983h9.65v25.983zM731 110h10V91.787h-9.713V83h-.283L731 110zm9.825-.509h-9.651v-17.2h9.651v17.2zM811.515 80.188c22.887 0 45.768.022 68.485.066v.558a35955.97 35955.97 0 0 0-137 0v-.558c22.736-.045 45.629-.066 68.515-.066zM697.506 80.188c11.192 0 22.383.022 33.494.066v.558c-22.22-.087-44.762-.087-67 0v-.558c11.118-.046 22.313-.067 33.506-.067z"
                      opacity=".5"/>
                <ellipse opacity=".5" cx="663" cy="80" rx="2" ry="5"/>
                <ellipse opacity=".5" cx="608" cy="128" rx="2" ry="5"/>
                <ellipse opacity=".5" cx="837" cy="80" rx="2" ry="5"/>
                <path d="M806 124c0-2.762.896-5 2-5 1.105 0 2 2.238 2 5s-.895 5-2 5c-1.104 0-2-2.238-2-5z"
                      opacity=".5"/>
                <ellipse opacity=".5" cx="789" cy="124" rx="2" ry="5"/>
                <ellipse opacity=".5" cx="742.5" cy="80" rx="1.5" ry="4"/>
                <path d="M733 123c0-2.209.672-4 1.5-4 .827 0 1.5 1.791 1.5 4s-.672 4-1.5 4c-.829 0-1.5-1.79-1.5-4zM877 80c0-2.762.896-5 2-5 1.105 0 2 2.238 2 5s-.895 5-2 5c-1.104 0-2-2.238-2-5zM881 140.5c0-1.933.447-3.5 1-3.5.551 0 1 1.567 1 3.5s-.448 3.5-1 3.5c-.553 0-1-1.568-1-3.5zM863 87.5c0-1.933.448-3.5 1-3.5s1 1.567 1 3.5-.447 3.5-1 3.5c-.553 0-1-1.568-1-3.5z"
                      opacity=".5"/>
                <ellipse opacity=".5" cx="860" cy="87.5" rx="1" ry="3.5"/>
                <path d="M855 87.5c0-1.933.448-3.5 1-3.5s1 1.567 1 3.5-.448 3.5-1 3.5-1-1.568-1-3.5zM851 87.5c0-1.933.448-3.5 1-3.5.553 0 1 1.567 1 3.5s-.448 3.5-1 3.5c-.551 0-1-1.568-1-3.5zM847 87.5c0-1.933.448-3.5 1-3.5s1 1.567 1 3.5-.447 3.5-1 3.5c-.553 0-1-1.568-1-3.5zM843 87.5c0-1.933.447-3.5 1-3.5.551 0 1 1.567 1 3.5s-.448 3.5-1 3.5c-.553 0-1-1.568-1-3.5zM819 106.5c0-1.932.447-3.5 1-3.5.553 0 1 1.568 1 3.5s-.448 3.5-1 3.5-1-1.567-1-3.5zM813 106.5c0-1.933.448-3.5 1-3.5s1 1.567 1 3.5-.447 3.5-1 3.5c-.553 0-1-1.567-1-3.5zM806 104.5c0-1.933.447-3.5 1-3.5.553 0 1 1.567 1 3.5 0 1.934-.448 3.5-1 3.5s-1-1.57-1-3.5zM800 104.5c0-1.932.448-3.5 1-3.5s1 1.568 1 3.5-.447 3.5-1 3.5c-.553 0-1-1.567-1-3.5zM794 103.5c0-1.932.448-3.5 1-3.5s1 1.568 1 3.5-.447 3.5-1 3.5c-.553 0-1-1.567-1-3.5zM680 109c0 17.641 5.386 32 12 32s12-14.356 12-32-5.386-32-12-32-12 14.355-12 32zm.179 0c0-17.364 5.301-31.484 11.817-31.484S703.814 91.64 703.814 109c0 17.36-5.3 31.485-11.818 31.485-6.517 0-11.817-14.124-11.817-31.485zM705 119h2v22h-2z"
                      opacity=".5"/>
                <path opacity=".5"
                      d="M700 119h2v22h-2zM695 119h2v22h-2zM689 119h2v22h-2zM684 119h2v22h-2zM679 119h2v22h-2zM674 119h2v22h-2zM669 119h2v22h-2z"/>
                <path opacity=".5"
                      d="M713 129V98h-22.764v16.18h-13.293V98H656v31zM835.61 118.327H832V136h1.14v-11.104h1.33V136H851v-7.567h-13.3v-9.6H851V110h-15.39zM927 132h76v2h-76zM927 128h76v2h-76zM927 124h76v2h-76zM927 119h76v2h-76zM927 115h76v2h-76zM927 111h76v2h-76zM927 106h76v2h-76zM927 101h76v2h-76zM927 97h76v2h-76zM927 92h76v2h-76zM927 88h76v2h-76zM927 84h76v2h-76zM927 79h76v2h-76z"/>
                <path opacity=".5"
                      d="M671 75h8v37h-8zM714.044 101V87.647h12.912V101H737v-9.818h-5.919V74h-20.803v19.707H704V101z"/>
                <path opacity=".5" d="M680 86h39v10h-39z"/>
                <path opacity=".5"
                      d="M616 108.352V121h42.793v-6.807h3.054V121h5.031v-4.373h5.75V121H685V84h-30.52v10.233h-8.265V84H616v15.588h59.503v8.764z"/>
                <path d="M777.485 95.465h-24.981V71.111h-80.927v-9.744l-7.029 9.744h-35.295v48.923l-6.402 8.876H608v1.03h14.932l6.324-8.77v20.113h41.97v15.306l5.609-15.306h75.319V166l9.056-24.717h121.944v-1.03H761.588l16.034-43.759h12.142v28.932H904V61l-12.628 34.465H790.113V61l-12.628 34.465zM665.37 71.111l5.857-8.124v8.124h-5.857zm124.743 53.284v-27.9H891.51l12.141-33.14v61.038l-113.538.002zM778 95.465l11.765-32.107v32.107h-11.765zm-148.396 24.083V72.14h34.202l-34.202 47.407zm41.624 20.706h-41.624v-19.57l35.023-48.543h6.6l.001 68.113zm80.927-44.789h-59.043l-16.412 44.79h-5.122V72.14h80.577v23.324zm0 44.79h-74.94l16.033-43.76h58.907v43.76zm8.919 0h-8.57v-43.76h24.604l-16.034 43.76zm-89.496 13.978v-12.949h4.745l-4.745 12.949zm80.927 9.41v-22.359h8.192l-8.192 22.358z"
                      opacity=".5"/>
                <path d="M731 109.5c0 15.163 4.486 27.5 10 27.5s10-12.337 10-27.5c0-15.162-4.486-27.5-10-27.5s-10 12.337-10 27.5zm.348 0c0-14.592 4.327-26.466 9.652-26.466 5.325 0 9.651 11.874 9.651 26.466 0 14.593-4.327 26.466-9.651 26.466s-9.652-11.875-9.652-26.466zM644 109.5c0 15.163 4.486 27.5 10 27.5s10-12.337 10-27.5c0-15.162-4.486-27.5-10-27.5s-10 12.337-10 27.5zm.349 0c0-14.592 4.327-26.466 9.651-26.466s9.652 11.874 9.652 26.466c0 14.593-4.327 26.466-9.652 26.466-5.325 0-9.647-11.875-9.647-26.466h-.004zM619.986 93h12.028c3.293 0 5.986 7.65 5.986 17s-2.693 17-5.986 17h-12.028c-3.293 0-5.986-7.65-5.986-17s2.692-17 5.986-17z"
                      opacity=".5"/>
                <path d="M714.986 93h12.028c3.293 0 5.986 7.65 5.986 17s-2.693 17-5.986 17h-12.028c-3.293 0-5.986-7.65-5.986-17s2.696-17 5.986-17zM603 150h11V61h-11v89zm10.662-1.021h-10.325v-86.96h10.325v86.96zM588 150h11V61h-11v89zm10.663-1.021h-10.325v-86.96h10.325v86.96zM574 150h11V61h-11v89zm10.662-1.021h-10.324v-86.96h10.322l.002 86.96zM559 150h11V61h-11v89zm10.662-1.021h-10.324v-86.96h10.324v86.96z"
                      opacity=".5"/>
                <path d="M554 145h361v-22H554v22zm360.65-1.039H554.347v-19.92H914.65v19.92zM365 206h4V5h-4v201zm3.649-1.026h-3.298V6.026h3.298v198.948zM394 206h4V5h-4v201zm3.649-1.026h-3.298V6.026h3.298v198.948zM424 206h4V5h-4v201zm3.649-1.026h-3.298V6.026h3.298v198.948zM453 206h4V5h-4v201zm3.649-1.026h-3.298V6.026h3.298v198.948z"
                      opacity=".5"/>
                <path d="M809 159h11v-30h-11v30zm10.67-1.02h-10.342v-27.96h10.343v27.96zM793 159h11v-30h-11v30zm10.667-1.02H793.33v-27.96h10.338v27.96zM778 159h11v-30h-11v30zm10.67-1.02h-10.34v-27.96h10.34v27.96zM762 159h11v-30h-11v30zm10.67-1.02h-10.34v-27.96h10.337l.004 27.96zM578 93h346V39H578v54zm345.65-1.023h-345.3V40.021h345.3v51.956z"
                      opacity=".5"/>
                <path d="M662 66h219V49H662v17zm218.653-1.04H662.347V50.04h218.306V64.96z" opacity=".5"/>
                <path d="M706 96h4V25h-4v71zm3.627-1.023h-3.257V26.025h3.257v68.952zM717 96h4V25h-4v71zm3.628-1.023h-3.257V26.025h3.257v68.952zM729 96h4V25h-4v71zm3.627-1.023h-3.256V26.025h3.256v68.952zM740 96h4V25h-4v71zm3.627-1.023h-3.256V26.025h3.256v68.952zM383 162h56v3h-56zM528 141h56v-4h-56v4zm55.651-.95H528.35v-2.1h55.302v2.1zM314 141h56v-4h-56v4zm55.651-.95H314.35v-2.1h55.302v2.1zM528 132h56v-4h-56v4zm55.651-.95H528.35v-2.097h55.302v2.097zM528 124h56v-4h-56v4zm55.651-.95H528.35v-2.1h55.302v2.1zM528 116h56v-4h-56v4zm55.651-.95H528.35v-2.097h55.302v2.097zM528 108h56v-4h-56v4zm55.651-.95H528.35v-2.098h55.302v2.097zM528 99h56v-4h-56v4zm55.651-.95H528.35v-2.1h55.302v2.1zM528 91h56v-4h-56v4zm55.651-.95H528.35v-2.097h55.302v2.096zM528 83h56v-4h-56v4zm55.651-.95H528.35v-2.097h55.302v2.097zM528 74h56v-4h-56v4zm55.651-.95H528.35v-2.097h55.302v2.097zM528 66h56v-4h-56v4zm55.651-.95H528.35v-2.096h55.302v2.096zM528 58h56v-4h-56v4zm55.651-.95H528.35v-2.098h55.302v2.097zM871 49h72v6h-72z"
                      opacity=".5"/>
                <path opacity=".5" d="M875 49h11v26h-11z"/>
                <path opacity=".5" d="M857 58h22v3h-22z"/>
                <path opacity=".5" d="M863 44h4v30h-4zM849 45h12v24h-12z"/>
                <path opacity=".5" d="M847 61h8v17h-8z"/>
                <path opacity=".5" d="M825 57h27v9h-27z"/>
                <path opacity=".5" d="M824 44h4v30h-4z"/>
                <path opacity=".5"
                      d="M814 58h19v5h-19zM840 48h3v23h-3zM696 61h64v3h-64zM550 46h3v109h-3zM547 46h3v109h-3zM542 46h3v109h-3zM538 46h3v109h-3zM534 46h3v109h-3zM531 46h3v109h-3zM527 46h3v109h-3zM523 46h3v109h-3zM518 93h1v16h-1zM515 93h1v16h-1zM512 93h1v16h-1zM510 93h1v16h-1zM508 93h1v16h-1zM505 93h1v16h-1zM503 93h1v16h-1zM501 93h1v16h-1zM499 93h1v16h-1zM496 93h1v16h-1zM494 93h1v16h-1zM492 93h1v16h-1zM489 93h1v16h-1zM487 93h1v16h-1zM484 93h1v16h-1zM481 109h2V92h-2v17zm1.785-.535h-1.57v-15.93h1.565l.005 15.93zM478 109h2V92h-2v17zm1.785-.535h-1.57v-15.93h1.57v15.93zM476 109h2V92h-2v17zm1.786-.535h-1.577v-15.93h1.571l.006 15.93zM474 109h2V92h-2v17zm1.785-.535h-1.57v-15.93h1.57v15.93zM471 109h2V92h-2v17zm1.786-.535h-1.572v-15.93h1.572v15.93zM469 109h2V92h-2v17zm1.785-.535h-1.57v-15.93h1.57v15.93zM466 109h2V92h-2v17zm1.785-.535h-1.57v-15.93h1.57v15.93zM464 109h2V92h-1.997L464 109zm1.783-.535h-1.57v-15.93h1.57v15.93z"/>
                <path d="M445 112h136V89h-50.322v.989h-4.727V89H445v23zm80.776-21.491h5.078v-.988h49.972v21.96h-135.65v-21.96h80.6v.988zM531 82.96h47.69l.31-.92h-48zM526 82.96v-.92h-92.69l-.31.92zM562 114h23v6h-23zM439 114h118v6H439zM325 100h118v6H325z"
                      opacity=".5"/>
                <path opacity=".5"
                      d="M556.44 117v-5.026h4.938V117H593v-17h-4.73v10.444h-36.495V100H546v17zM530.728 90.934H528V130h11V82h-8.272z"/>
                <path opacity=".5"
                      d="M527.789 108V96.872h21.34V108H559V65h-5.603v14.824h-20.006V65h-2.668v25.2h-4.801V65H522v43z"/>
                <path opacity=".5"
                      d="M557.512 129v-17.116h5.015V129H572V97h-18v32zM551 84h40v7h-40zM540 74h4v60h-4zM431.91 109V97h1.923v12h6.68v-7.25h.732V109h5.582V98.75H457V93h-34v16zM414 87h6v24h-6z"/>
                <path opacity=".5"
                      d="M407.476 100v-5.706h4.807V100h22.01v-6.44H440V68h-5.553v18.853h-28.84v-5.21H400V100zM585 93h21v12h-21z"/>
                <path opacity=".5"
                      d="M425 75h3v36h-3zM421 75h3v36h-3zM417 75h3v36h-3zM412 83h3v28h-3zM408 83h3v28h-3zM404 83v20.632h.584v9.578H404V125h3V83zM400 113h3v11h-3zM400 83h3v21h-3zM394 113h3v11h-3zM394 83h3v21h-3zM390 113h3v11h-3zM390 74h3v29h-3zM386 113h3v11h-3zM386 74h3v29h-3zM382 113h3v11h-3zM382 74h3v29h-3zM377 113h3v11h-3zM377 74h3v29h-3zM366 117h10V90h-10v27zm9.826-.509h-9.651V90.51h9.651v25.982zM353 117h10V90h-10v27zm9.825-.509h-9.65V90.51h9.65v25.982zM341 117h10V90h-10v27zm9.825-.509h-9.65V90.51h9.65v25.982zM328 117h10V90h-10v27zm9.826-.509h-9.651V90.51h9.651v25.982z"/>
                <path d="M335 127h10v-27h-10v27zm9.825-.508h-9.652v-25.98h9.65l.002 25.98zM349 103h10V84.787h-9.716V76H349v27zm9.826-.508h-9.651v-17.2h9.651v17.2zM429.516 73.188c22.887 0 45.768.021 68.484.065v.559c-45.431-.089-91.525-.089-137 0v-.559c22.737-.044 45.629-.065 68.516-.065zM315.506 73.188c11.192 0 22.383.022 33.494.066v.558a8406.4 8406.4 0 0 0-67 0v-.558c11.12-.044 22.313-.067 33.506-.067z"
                      opacity=".5"/>
                <path d="M280 74c0-2.762.896-5 2-5 1.105 0 2 2.238 2 5 0 2.763-.895 5-2 5-1.104 0-2-2.238-2-5zM224 123c0-2.762.895-5 2-5 1.104 0 2 2.238 2 5 0 2.76-.896 5-2 5-1.105 0-2-2.238-2-5zM453 74c0-2.762.896-5 2-5 1.105 0 2 2.238 2 5 0 2.763-.895 5-2 5-1.104 0-2-2.238-2-5zM425 119c0-2.762.896-5 2-5 1.105 0 2 2.238 2 5 0 2.76-.895 5-2 5-1.104 0-2-2.238-2-5zM406 119c0-2.762.896-5 2-5s2 2.238 2 5-.896 5-2 5-2-2.238-2-5zM360 74c0-2.21.672-4 1.5-4 .829 0 1.5 1.79 1.5 4s-.672 4-1.5 4c-.827 0-1.5-1.79-1.5-4zM352 117c0-2.21.671-4 1.5-4 .828 0 1.5 1.79 1.5 4s-.672 4-1.5 4c-.829 0-1.5-1.791-1.5-4zM496 74c0-2.762.895-5 2-5 1.104 0 2 2.238 2 5 0 2.763-.895 5-2 5-1.106 0-2-2.238-2-5zM500 135.5c0-1.932.448-3.5 1-3.5.551 0 1 1.568 1 3.5s-.448 3.5-1 3.5c-.553 0-1-1.567-1-3.5zM482 82.5c0-1.932.447-3.5 1-3.5.553 0 1 1.568 1 3.5s-.447 3.5-1 3.5c-.553 0-1-1.567-1-3.5zM478 82.5c0-1.932.448-3.5 1-3.5s1 1.568 1 3.5-.447 3.5-1 3.5c-.553 0-1-1.567-1-3.5zM474 82.5c0-1.932.447-3.5 1-3.5.553 0 1 1.568 1 3.5s-.448 3.5-1 3.5-1-1.567-1-3.5zM470 82.5c0-1.932.448-3.5 1-3.5.553 0 1 1.568 1 3.5s-.447 3.5-1 3.5c-.551 0-1-1.567-1-3.5zM466 82.5c0-1.932.447-3.5 1-3.5.553 0 1 1.568 1 3.5s-.448 3.5-1 3.5-1-1.567-1-3.5zM461 82.5c0-1.932.448-3.5 1-3.5s1 1.568 1 3.5-.447 3.5-1 3.5c-.553 0-1-1.567-1-3.5zM438 100.5c0-1.933.448-3.5 1-3.5s1 1.567 1 3.5-.447 3.5-1 3.5c-.553 0-1-1.567-1-3.5zM432 99.5c0-1.933.448-3.5 1-3.5s1 1.567 1 3.5-.448 3.5-1 3.5-1-1.568-1-3.5zM425 99.5c0-1.933.448-3.5 1-3.5.553 0 1 1.567 1 3.5s-.448 3.5-1 3.5c-.551 0-1-1.567-1-3.5zM419 98.5c0-1.933.447-3.5 1-3.5.553 0 1 1.567 1 3.5s-.447 3.5-1 3.5c-.553 0-1-1.567-1-3.5zM413 98.5c0-1.932.447-3.5 1-3.5.553 0 1 1.568 1 3.5s-.448 3.5-1 3.5-1-1.567-1-3.5zM299 103c0 17.64 5.386 32 12 32s12-14.356 12-32c0-17.646-5.386-32-12-32s-12 14.358-12 32zm.18 0c0-17.365 5.3-31.485 11.817-31.485S322.814 85.64 322.814 103s-5.3 31.485-11.817 31.485c-6.516 0-11.817-14.12-11.817-31.485zM323 113h2v22h-2z"
                      opacity=".5"/>
                <path opacity=".5"
                      d="M318 113h2v22h-2zM313 113h2v22h-2zM307 113h2v22h-2zM302 113h2v22h-2zM298 113h2v22h-2zM293 113h2v22h-2zM288 113h2v22h-2z"/>
                <path opacity=".5"
                      d="M331 124V93h-22.764v16.18h-13.294V93H274v31zM453.61 111.328H450V129h1.14v-11.103h1.33V129H469v-7.566h-13.3v-9.601H469V103h-15.39zM546 127h76v2h-76zM546 123h76v2h-76zM546 118h76v2h-76zM546 114h76v2h-76zM546 110h76v2h-76zM546 105h76v2h-76zM546 100h76v2h-76zM546 96h76v2h-76zM546 91h76v2h-76zM546 87h76v2h-76zM546 83h76v2h-76zM546 78h76v2h-76zM546 73h76v2h-76z"/>
                <path opacity=".5"
                      d="M290 69h8v37h-8zM332.043 95V81.647h12.913V95H355v-9.817h-5.919V68h-20.804v19.708H322V95z"/>
                <path opacity=".5" d="M299 80h39v10h-39z"/>
                <path opacity=".5"
                      d="M234 102.352V115h42.793v-6.806h3.055V115h5.03v-4.372h5.75V115H303V78h-30.52v10.234h-8.265V78H234v15.59h59.504v8.762z"/>
                <path d="M395.485 89.464h-24.982V65.111h-80.926v-9.743l-7.029 9.743h-35.295v48.922l-6.402 8.875H226v1.033h14.933l6.324-8.77v20.114h41.97v15.305l5.609-15.305h75.317V160l9.057-24.715h121.944v-1.03H379.591l16.034-43.759h12.142v28.93H522V55l-12.624 34.464H408.112V55l-12.627 34.464zM283.369 65.111l5.858-8.123v8.123h-5.858zm124.743 53.283v-27.9H509.51l12.142-33.137v61.035l-113.539.002zM396 89.464l11.765-32.106v32.106h-11.765zm-148.396 24.083V66.141h34.202l-34.202 47.406zm41.624 20.706h-41.624v-19.569l35.023-48.544h6.601v68.113zm80.926-44.789h-59.042l-16.412 44.79h-5.122V66.14h80.576v23.323zm0 44.79h-74.94l16.034-43.76h58.906v43.76zm8.92 0h-8.57v-43.76h24.604l-16.034 43.76zm-89.496 13.977v-12.948h4.744l-4.744 12.948zm80.926 9.41v-22.358h8.193l-8.193 22.358z"
                      opacity=".5"/>
                <path d="M349 103.5c0 15.164 4.485 27.5 10 27.5 5.514 0 10-12.332 10-27.5S364.515 76 359.001 76C353.488 76 349 88.34 349 103.5zm.349 0c0-14.593 4.326-26.466 9.65-26.466 5.325 0 9.65 11.873 9.65 26.466 0 14.593-4.326 26.466-9.65 26.466-5.323 0-9.65-11.87-9.65-26.466zM262 103.5c0 15.164 4.486 27.5 10 27.5s10-12.336 10-27.5S277.514 76 272 76s-10 12.34-10 27.5zm.348 0c0-14.593 4.327-26.466 9.652-26.466 5.325 0 9.651 11.873 9.651 26.466 0 14.593-4.327 26.466-9.651 26.466s-9.656-11.87-9.656-26.466h.004zM238.986 87h12.028c3.293 0 5.986 7.65 5.986 17s-2.693 17-5.986 17h-12.028c-3.293 0-5.986-7.65-5.986-17 0-9.353 2.693-17 5.986-17z"
                      opacity=".5"/>
                <path d="M333.986 87h12.028c3.293 0 5.986 7.65 5.986 17s-2.693 17-5.986 17h-12.028c-3.293 0-5.986-7.65-5.986-17 0-9.353 2.693-17 5.986-17zM222 145h11V56h-11v89zm10.662-1.02h-10.324V57.02h10.324v86.959zM207 145h11V56h-11v89zm10.662-1.02h-10.324V57.02h10.324v86.959zM193 145h11V56h-11v89zm10.662-1.02H193.34V57.02h10.324v86.959zM178 145h11V56h-11v89zm10.662-1.02h-10.324V57.02h10.324v86.959z"
                      opacity=".5"/>
                <path d="M173 139h361v-22H173v22zm360.65-1.039H173.352V118.04H533.65v19.921z" opacity=".5"/>
                <path d="M181 201h4V0h-4v201zm3.649-1.026h-3.298V1.025h3.298v198.949zM210 201h4V0h-4v201zm3.649-1.026h-3.298V1.025h3.302l-.004 198.949zM239 201h4V0h-4v201zm3.649-1.026h-3.298V1.025h3.298v198.949zM269 201h4V0h-4v201zm3.65-1.026h-3.299V1.025h3.299v198.949zM428 154h11v-30h-11v30zm10.67-1.02h-10.34v-27.96h10.34v27.96zM412 154h11v-30h-11v30zm10.672-1.02h-10.344v-27.96h10.347l-.003 27.96zM397 154h11v-30h-11v30zm10.67-1.02h-10.34v-27.96h10.34v27.96zM381 154h11v-30h-11v30zm10.67-1.02h-10.343v-27.96h10.342l.002 27.96z"
                      opacity=".5"/>
                <path d="M198 87h346V33H198v54zm345.65-1.022H198.35V34.022H543.65v51.956z" opacity=".5"/>
                <path d="M280 61h219V44H280v17zm218.654-1.04H280.348V45.042h218.306V59.96z" opacity=".5"/>
                <path d="M325 91h4V20h-4v71zm3.628-1.023h-3.257V21.024h3.257v68.953zM336 91h4V20h-4v71zm3.627-1.023h-3.256V21.024h3.256v68.953zM348 91h4V20h-4v71zm3.628-1.023h-3.257V21.024h3.257v68.953zM358 91h4V20h-4v71zm3.627-1.023h-3.256V21.024h3.256v68.953zM199 156h56v3h-56zM147 134h56v-4h-56v4zm55.651-.95H147.35v-2.097h55.302v2.097zM147 126h56v-4h-56v4zm55.651-.95H147.35v-2.093h55.302v2.093zM147 118h56v-4h-56v4zm55.651-.95H147.35v-2.1h55.302v2.1zM147 110h56v-4h-56v4zm55.651-.949H147.35v-2.097h55.302v2.097zM147 102h56v-4h-56v4zm55.651-.95H147.35v-2.097h55.302v2.097zM147 94h56v-4h-56v4zm55.651-.949H147.35v-2.098h55.302v2.098zM147 86h56v-4h-56v4zm55.651-.95H147.35v-2.097h55.302v2.097zM147 77h56v-4h-56v4zm55.651-.95H147.35v-2.097h55.302v2.097zM147 69h56v-4h-56v4zm55.651-.95H147.35v-2.096h55.302v2.096zM147 61h56v-4h-56v4zm55.651-.95H147.35v-2.096h55.302v2.096zM147 53h56v-4h-56v4zm55.651-.95H147.35v-2.097h55.302v2.097zM489 42h72v6h-72z"
                      opacity=".5"/>
                <path opacity=".5" d="M494 42h11v26h-11z"/>
                <path opacity=".5" d="M476 53h22v3h-22z"/>
                <path opacity=".5"
                      d="M482 39h4v30h-4zM467 39h12v24h-12zM248 226h56v-4h-56v4zm55.651-.95h-55.303v-2.097h55.303v2.097zM248 217h56v-4h-56v4zm55.651-.95h-55.303v-2.093h55.303v2.093zM248 209h56v-4h-56v4zm55.651-.95h-55.303v-2.102h55.303v2.101zM248 201h56v-4h-56v4zm55.651-.949h-55.303v-2.097h55.303v2.097zM248 192h56v-4h-56v4zm55.651-.95h-55.303v-2.097h55.303v2.097zM248 184h56v-4h-56v4zm55.651-.95h-55.303v-2.1h55.303v2.1zM248 176h56v-4h-56v4zm55.651-.95h-55.303v-2.097h55.303v2.097zM248 168h56v-4h-56v4zm55.651-.95h-55.303v-2.1h55.303v2.1zM248 159h56v-4h-56v4zm55.651-.95h-55.303v-2.1h55.303v2.1zM248 151h56v-4h-56v4zm55.651-.95h-55.303v-2.1h55.303v2.1zM248 143h56v-4h-56v4zm55.651-.95h-55.303v-2.097h55.303v2.097z"/>
                <path opacity=".5"
                      d="M266 131h3v109h-3zM263 131h3v109h-3zM259 131h3v109h-3zM255 131h3v109h-3zM252 131h3v109h-3zM247 131h3v109h-3zM243 131h3v109h-3zM238 178h1v16h-1zM235 178h1v16h-1zM233 178h1v16h-1zM231 178h1v16h-1zM229 178h1v16h-1zM226 178h1v16h-1zM224 178h1v16h-1zM214 178h1v16h-1zM212 178h1v16h-1zM209 178h1v16h-1zM207 178h1v16h-1zM205 178h1v16h-1zM202 194h2v-17h-2v17zm1.786-.536h-1.572v-15.93h1.572v15.93zM199 194h2v-17h-2v17zm1.785-.536h-1.57v-15.93h1.57v15.93z"/>
                <path opacity=".5"
                      d="M251 167.96h47.69l.31-.92h-48zM277.44 202v-5.026h4.939V202H314v-17h-4.73v10.444h-36.495V185H267v17z"/>
                <path opacity=".5" d="M251.73 174.935H249V214h11v-48h-8.27z"/>
                <path opacity=".5"
                      d="M247.79 193v-11.13h21.34V193H279v-43h-5.602v14.824h-20.006V150h-2.668v25.2h-4.801V150H242v43z"/>
                <path opacity=".5"
                      d="M261 159h4v60h-4zM150.516 158.188c22.887 0 45.768.022 68.484.066v.558a35547.38 35547.38 0 0 0-137 0v-.558c22.738-.044 45.63-.066 68.516-.066zM202 167.5c0-1.932.447-3.5 1-3.5.551 0 1 1.568 1 3.5s-.448 3.5-1 3.5c-.553 0-1-1.567-1-3.5zM198 167.5c0-1.932.448-3.5 1-3.5s1 1.568 1 3.5-.447 3.5-1 3.5c-.553 0-1-1.567-1-3.5zM267 212h76v2h-76zM267 208h76v2h-76zM267 204h76v2h-76zM267 199h76v2h-76zM267 195h76v2h-76zM267 189h76v2h-76zM267 185h76v2h-76zM267 181h76v2h-76zM267 176h76v2h-76zM267 172h76v2h-76zM267 168h76v2h-76zM267 162h76v2h-76zM267 158h76v2h-76zM0 146h219v-17H0v17zm218.652-1.04H.348v-14.92h218.304v14.92z"/>
                <path opacity=".5" d="M196 138h22v3h-22z"/>
                <path opacity=".5" d="M203 124h4v30h-4zM188 124h12v24h-12zM466 55h8v17h-8z"/>
                <path opacity=".5" d="M443 52h27v9h-27z"/>
                <path opacity=".5" d="M443 39h4v30h-4z"/>
                <path opacity=".5"
                      d="M434 53h19v5h-19zM458 42h3v23h-3zM315 55h64v3h-64zM169 40h3v109h-3zM165 40h3v109h-3zM162 40h3v109h-3zM157 40h3v109h-3zM153 40h3v109h-3zM149 40h3v109h-3zM146 40h3v109h-3zM142 40h3v109h-3z"/>
            </g>
        </g>
    </g>
</svg>
