<svg width="313" height="307" viewBox="0 0 313 307" xmlns="http://www.w3.org/2000/svg">
    <g fill="#1D1B1B" fill-rule="nonzero" opacity=".38">
        <path d="m248 63.5-1-.1 1 .2zM247.4 64l.2-1zM89 191.25l1 .5zM188.1 103l.8 1-.8-1zM88 191.714l.714.286.286-.714-.714-.286zM242.111 100l-.111.889.889.111.111-.889a5.54 5.54 0 0 0-.889-.111zM146.4 122.3l.2.4-.2-.4zM147 121.619l-.381-.619a4.347 4.347 0 0 1-.619.381l.381.619.619-.381zM188.833 1l-.833.158.167.842.833-.158zM202.167 71l.833-.167-.167-.833-.833.167zM11 137.667l.667.333c.095-.238.238-.429.333-.667l-.667-.333-.333.667zM240.45 22l.1-1-.1 1zM188 1.65l1-.3zM239 68v-1h-1v1zM121.35 82.2l.3.6-.3-.6zM188.6.95l-.2-.9.2.9zM74 169.667l.667.333.333-.667-.667-.333c-.13.212-.241.435-.333.667zM240 21v1h1v-1zM46.8 175l-.6 1zM61.79 206l.21-.79-.79-.21c-.045.27-.115.533-.21.79l.79.21zM239 67.5h1z"/>
        <path d="m10.58 138.068.356-.731.731.356-.356.731zM7 192l-.21 1-.79-.25.79.25zM48 174.286l-.714-.286-.286.714.714.286zM121.25 82.1l.5.8zM121.619 83l-.619.381.381.619c.195-.144.402-.271.619-.381l-.381-.619zM248.111 64l-.111.889c.278.055.556.055.889.111l.111-.889-.889-.111zM7.21 193l-.21.79.79.21c.045-.27.115-.533.21-.79l-.79-.21zM121 82.95l1-.9zM62 205.3l1 .4zM62.55 205.25l-.1.5zM145.746 122.515l-.405-.632c.208-.146.428-.276.659-.388L140.37 113c-.457.243-.913.534-1.37.825l6.087 9.175.66-.485zM89.667 192h.047l.286-.7-.714-.3-.286.75zM146 122.41l.41.59.59-.41-.273-.408-.09-.182zM122 82.59l-.381-.59-.619.364.143.272.238.364zM248 63.118l-.882-.118-.118.882.294.06.588.058zM242.993 101.427l.106-.806.807.107-.107.806zM47 175.3l-.7-.3-.3.75.7.25z"/>
        <path d="M65.367 267.631a161.258 161.258 0 0 1 11-80.061c.204-.51.407-.968.61-1.477a160.356 160.356 0 0 1 62.59-73.34c.458-.305.917-.56 1.375-.865a158.71 158.71 0 0 1 43.033-18.335 161.389 161.389 0 0 1 40.843-5.296 157.79 157.79 0 0 1 18.996 1.12c.51.051 1.07.153 1.579.204a159.869 159.869 0 0 1 49.5 14.77l-8.199 16.653c.713.306 1.375.663 2.088 1.019L298 103.332l-1.019-.51A163.684 163.684 0 0 0 245.75 87.34c-.51-.051-1.07-.153-1.579-.204a163.147 163.147 0 0 0-104.4 22.868c-.458.254-.916.56-1.374.865a162.968 162.968 0 0 0-63.506 74.46c-.204.509-.407.967-.611 1.477A162.769 162.769 0 0 0 72.75 307h2.445a160.48 160.48 0 0 1-9.83-39.369zM189 .842 188.842 0 188 .158l.053.368.105.474zM10.312 138.176l.354-.732.732.355-.355.732zM6.79 192l.21-.842-.842-.158-.158.79zM75.242 168.772l.353-.732.733.352-.353.733zM240 68h-1v.938l1 .062zM201.257 71.19l.798-.154.155.798-.798.155zM62.79 206l.21-.79-.842-.21-.053.263-.105.58zM239.354 21.7l.012-.813.814.012-.013.814z"/>
        <path d="m121.958 83.674.406.66c-.208.154-.429.29-.66.407l16.897 26.525c.457-.305.914-.56 1.37-.864l-17.353-27.135-.66.407z"/>
        <path d="m121.958 83.725-.254-.407-.152-.254a191.202 191.202 0 0 0-67.69 74.645l1.421.712a189.631 189.631 0 0 1 66.421-73.63l-.406-.66.66-.406zM46.81 175.393l-.305.762 21.464 8.384c.203-.508.355-1.016.558-1.474l-20.652-8.13-.304.762-.761-.304z"/>
        <path d="m11.341 138.858 41.811 20.274c-2.587 5.183-4.922 10.519-7.053 15.956l.761.305.305-.763.71.305a200.474 200.474 0 0 1 6.698-15.091l19.84 9.603c.102-.254.254-.457.355-.711l.71.356.356-.712-20.55-9.96-1.421-.71-41.101-19.92c-.101.255-.254.458-.355.712l-.71-.356.355-.711.71.355A249.176 249.176 0 0 1 84.46 49.781l-.964-1.27a250.18 250.18 0 0 0-72.51 89.28l.71.355-.355.712zM188.379 1.762l-.102-.406-.05-.356A250.904 250.904 0 0 0 83.495 48.46l.964 1.27A248.91 248.91 0 0 1 187.77 2.728l-.152-.813.76-.153zM75.479 169.142l-.356.712-.71-.356a178.893 178.893 0 0 0-5.835 13.567c-.203.509-.355 1.017-.558 1.474a174.505 174.505 0 0 0-6.242 20.529l.762.203-.203.711.76.204a165.804 165.804 0 0 1 6.394-21.088v-.05l5.227 2.032c.202-.458.405-.966.608-1.474l-5.277-2.032a151.21 151.21 0 0 1 6.14-14.076l-.71-.356zM61.728 205.017 7.23 192.11l-.203.762.761.204c-.043.26-.111.515-.203.762l54.548 12.907.101-.509.05-.254-.76-.203c.044-.26.111-.515.203-.762z"/>
        <path d="m7.637 193.889-.761-.204.203-.762-.761-.203A237.196 237.196 0 0 0 7.688 307h1.674a234.299 234.299 0 0 1-1.725-113.111zM240.084 21.376v.813l.761-.05v.813A223.84 223.84 0 0 1 313 36.417V34.74a225.562 225.562 0 0 0-72.916-13.364zM240.034 22.138h-.812l-.71 45.174h-1.827c-4.11 0-8.271.152-12.432.406l.101 1.576-.101-1.576a177.41 177.41 0 0 0-21.565 2.795l.152.762-.761.153.152.762a175.508 175.508 0 0 1 22.123-2.896v.05c4.11-.304 8.22-.406 12.33-.406h2.69v-.813h.761l.71-45.173h-.811v-.814zm-.71 45.987h-.762v-.813h.761v.813zM202.637 70.513 189.191 1.661l-.812.152.152.762-.761.153 13.497 68.852.761-.152-.152-.762z"/>
        <g>
            <path d="M85.012 278.527a142.545 142.545 0 0 1 5.426-86.93h-.05l-.71-.254-.305.76-.71-.355a144.305 144.305 0 0 0-5.223 87.235 144.344 144.344 0 0 0 9.685 26.966H94.9a141.046 141.046 0 0 1-9.888-27.422zM146.776 122.001l.304.456a143.509 143.509 0 0 1 42.19-18.095v.101a144.614 144.614 0 0 1 35.09-4.36c6.207-.003 12.407.404 18.56 1.217l.101-.81.812.1 1.42-10.897c-.507-.05-1.065-.152-1.572-.203l-1.319 10.087c.257.009.511.043.76.101l-.1.811-.812-.101.152-.811a141.282 141.282 0 0 0-18.001-1.115 145.454 145.454 0 0 0-35.497 4.41v-.05a145.208 145.208 0 0 0-41.987 17.892l.406.659-.66.405.153.203zM248.498 64.673c-.203-.051-.456-.051-.76-.102l.1-.81-.506-.051-.304-.051-3.094 23.52c.507.05 1.065.151 1.572.202l2.992-22.708z"/>
            <path d="m248.65 63.912-.101.811a180.34 180.34 0 0 1 64.4 21.644v-1.824A181.258 181.258 0 0 0 247.94 63l-.101.811.811.101zM89.677 191.292l.305-.76-12.373-4.815c-.203.506-.406.963-.609 1.47l11.663 4.561c.107-.245.192-.5.254-.76l.76.304zM312.544 184.601a105.761 105.761 0 0 0-23.377-23.215l7.505-10.543.05-.05c1.37 1.013 2.739 2.077 4.057 3.091l.913.76 11.257-14.04v-3.65l-11.612 14.447c-1.065-.812-2.18-1.673-3.296-2.484l10.497-14.852-.964-.659a140.037 140.037 0 0 0-19.066-11.354c-.71-.355-1.37-.659-2.08-1.014a139.887 139.887 0 0 0-59.988-13.432 16.814 16.814 0 0 0-2.232-.102h-1.166l.558 33.505a105.38 105.38 0 0 0-60.192 20.63 106.39 106.39 0 0 0-34.28 42.477l-17.95-7.755-.456 1.065A125.737 125.737 0 0 0 114.88 306h2.586a123.645 123.645 0 0 1-5.122-106.598l17.951 7.756.457-1.065c16.28-37.565 53.063-62.116 94.014-62.752h1.167l-.558-33.505h1.014a137.83 137.83 0 0 1 58.873 13.128l-7.91 16.12 1.064.557c5.69 2.792 11.15 6.03 16.329 9.681l1.318-1.875a124.913 124.913 0 0 0-15.618-9.378l6.896-14.09c.05 0 .05.05.102.05a138.529 138.529 0 0 1 17.85 10.543l-9.18 12.976-1.318 1.876-8.823 12.469.964.659a102.21 102.21 0 0 1 23.782 23.418c.76 1.064 1.521 2.129 2.282 3.244v-4.004l-.456-.609z"/>
        </g>
    </g>
</svg>
