<svg width="20" height="20" viewBox="0 0 20 20" xmlns="http://www.w3.org/2000/svg">
    <defs>
        <radialGradient cx="51.559%" cy="35.04%" fx="51.559%" fy="35.04%" r="116.452%" id="a">
            <stop stop-color="#FFF" offset="0%"/>
            <stop stop-color="#858689" offset="54.67%"/>
            <stop stop-color="#AEAEAF" offset="77.55%"/>
        </radialGradient>
        <radialGradient cx="44.018%" cy="21.177%" fx="44.018%" fy="21.177%" r="120.928%" id="c">
            <stop stop-color="#FFF" offset="2.843%"/>
            <stop stop-color="#858689" offset="55.18%"/>
            <stop stop-color="#AEAEAF" offset="78.53%"/>
            <stop stop-color="#5F6063" offset="99.89%"/>
        </radialGradient>
        <radialGradient cx="-186.039%" cy="492.217%" fx="-186.039%" fy="492.217%" r="50.052%" id="b">
            <stop stop-color="#B8B9C7" offset="0%"/>
            <stop stop-color="#A5A7B5" offset="100%"/>
        </radialGradient>
        <radialGradient cx="50%" cy="50%" fx="50%" fy="50%" r="50.01%" id="d">
            <stop stop-color="#FFF" offset="0%"/>
            <stop stop-color="#F7F7F7" offset="15.35%"/>
            <stop stop-color="#64DDF9" offset="33.25%"/>
            <stop stop-color="#54D4FC" offset="53.77%"/>
            <stop stop-color="#1D1B1B" offset="99.86%"/>
        </radialGradient>
    </defs>
    <g fill="none" fill-rule="evenodd">
        <g fill-rule="nonzero" transform="translate(1.655 1.745)">
            <circle fill="url(#a)" cx="3.5" cy="3.5" r="3.5"/>
            <circle stroke="url(#b)" stroke-width=".388" fill="url(#c)" cx="3.5" cy="3.5" r="3.344"/>
            <circle fill="#1D1B1B" cx="3.5" cy="3.5" r="3.207"/>
            <circle fill="url(#d)" cx="3.5" cy="3.5" r="2.854"/>
        </g>
        <g opacity=".21" stroke="#1D1B1B" stroke-linecap="round" stroke-width="3.878">
            <path d="m6.713 3.913.327-.28M6.459 3.663l.274-.332M6.164 3.46l.212-.373M5.839 3.312l.143-.405M5.493 3.222l.1-.422M5.188 3.194l-.02-.428M4.802 3.23l-.1-.423M4.437 3.324l-.15-.4M4.115 3.48l-.218-.37M3.825 3.686l-.28-.327M3.573 3.941 3.24 3.67M3.37 4.235l-.373-.21M3.224 4.561l-.405-.144M3.134 4.936l-.423-.1M3.106 5.297l-.43.02M3.14 5.618l-.421.1M3.237 5.963l-.403.15M3.389 6.285l-.368.218M3.598 6.575l-.326.28M3.852 6.827l-.272.33M4.147 7.03l-.211.373M4.472 7.176l-.142.405M4.848 7.267l-.1.423M5.209 7.294l.02.43M5.53 7.26l.1.421M5.874 7.164l.15.402M6.197 7.011l.218.368M6.488 6.803l.278.326M6.738 6.55l.332.27M6.94 6.254l.374.21M7.089 5.93l.403.142M7.177 5.583l.423.1M7.205 5.282l.429-.03M7.17 4.892l.424-.1M7.076 4.526l.4-.149M6.92 4.203l.37-.218"/>
        </g>
        <g fill-rule="nonzero" transform="translate(1.668 11.347)">
            <circle fill="url(#a)" cx="3.5" cy="3.5" r="3.5"/>
            <circle stroke="url(#b)" stroke-width=".388" fill="url(#c)" cx="3.5" cy="3.5" r="3.344"/>
            <circle fill="#1D1B1B" cx="3.5" cy="3.5" r="3.207"/>
            <circle fill="url(#d)" cx="3.5" cy="3.5" r="2.854"/>
        </g>
        <g opacity=".21" stroke="#1D1B1B" stroke-linecap="round" stroke-width="3.878">
            <path d="m6.725 13.516.327-.28M6.471 13.266l.274-.332M6.176 13.063l.212-.373M5.851 12.915l.143-.405M5.505 12.825l.1-.422M5.2 12.797l-.02-.428M4.814 12.833l-.1-.423M4.45 12.927l-.15-.4M4.127 13.082l-.218-.37M3.837 13.289l-.279-.327M3.585 13.544l-.332-.272M3.383 13.838l-.374-.21M3.236 14.164l-.405-.144M3.146 14.539l-.423-.1M3.118 14.9l-.43.02M3.152 15.22l-.42.1M3.25 15.566l-.404.15M3.401 15.888l-.368.218M3.61 16.178l-.326.28M3.864 16.43l-.272.33M4.16 16.632l-.212.374M4.484 16.779l-.142.405M4.86 16.87l-.1.423M5.221 16.897l.02.43M5.542 16.863l.1.42M5.886 16.767l.15.402M6.21 16.614l.217.368M6.5 16.406l.278.326M6.75 16.152l.332.27M6.952 15.857l.374.209M7.101 15.532l.403.143M7.19 15.186l.422.1M7.217 14.885l.43-.03M7.183 14.495l.423-.1M7.088 14.129l.4-.15M6.933 13.806l.37-.218"/>
        </g>
        <g>
            <g fill-rule="nonzero" transform="translate(11.286 1.65)">
                <circle fill="url(#a)" cx="3.5" cy="3.5" r="3.5"/>
                <circle stroke="url(#b)" stroke-width=".388" fill="url(#c)" cx="3.5" cy="3.5" r="3.344"/>
                <circle fill="#1D1B1B" cx="3.5" cy="3.5" r="3.207"/>
                <circle fill="url(#d)" cx="3.5" cy="3.5" r="2.854"/>
            </g>
            <g opacity=".21" stroke="#1D1B1B" stroke-linecap="round" stroke-width="3.878">
                <path d="m16.344 3.818.327-.28M16.09 3.568l.274-.332M15.795 3.365l.212-.373M15.47 3.217l.143-.405M15.124 3.127l.1-.422M14.819 3.1l-.02-.429M14.433 3.135l-.1-.423M14.068 3.23l-.15-.4M13.746 3.384l-.218-.37M13.456 3.591l-.28-.327M13.204 3.846l-.332-.272M13.002 4.14l-.374-.21M12.855 4.466l-.405-.144M12.765 4.841l-.423-.1M12.737 5.202l-.43.02M12.77 5.523l-.42.1M12.868 5.868l-.403.15M13.02 6.19l-.368.218M13.229 6.48l-.326.28M13.483 6.732l-.272.33M13.778 6.934l-.211.374M14.103 7.081l-.142.405M14.479 7.172l-.1.423M14.84 7.2l.02.43M15.16 7.165l.1.421M15.505 7.07l.15.401M15.828 6.916l.218.368M16.119 6.708l.278.326M16.369 6.454l.332.271M16.57 6.16l.375.208M16.72 5.834l.403.143M16.808 5.488l.423.1M16.836 5.187l.429-.03M16.802 4.797l.423-.1M16.707 4.431l.4-.149M16.552 4.108l.37-.218"/>
            </g>
        </g>
        <g>
            <g fill-rule="nonzero" transform="translate(11.299 11.252)">
                <circle fill="url(#a)" cx="3.5" cy="3.5" r="3.5"/>
                <circle stroke="url(#b)" stroke-width=".388" fill="url(#c)" cx="3.5" cy="3.5" r="3.344"/>
                <circle fill="#1D1B1B" cx="3.5" cy="3.5" r="3.207"/>
                <circle fill="url(#d)" cx="3.5" cy="3.5" r="2.854"/>
            </g>
            <g opacity=".21" stroke="#1D1B1B" stroke-linecap="round" stroke-width="3.878">
                <path d="m16.356 13.42.327-.28M16.102 13.17l.274-.331M15.807 12.968l.212-.373M15.482 12.82l.143-.405M15.136 12.73l.1-.422M14.831 12.702l-.02-.428M14.445 12.738l-.1-.423M14.08 12.832l-.15-.4M13.758 12.987l-.218-.37M13.468 13.194l-.279-.327M13.216 13.449l-.332-.272M13.014 13.743l-.374-.21M12.867 14.069l-.405-.144M12.777 14.444l-.423-.1M12.75 14.805l-.43.02M12.783 15.126l-.42.1M12.88 15.47l-.403.15M13.032 15.793l-.368.218M13.241 16.083l-.326.28M13.495 16.335l-.272.33M13.79 16.537l-.21.374M14.115 16.684l-.142.405M14.491 16.775l-.1.423M14.852 16.802l.02.43M15.173 16.768l.1.42M15.517 16.672l.15.402M15.84 16.519l.218.368M16.131 16.31l.278.327M16.381 16.057l.332.27M16.583 15.762l.374.209M16.732 15.437l.403.143M16.82 15.09l.423.1M16.848 14.79l.43-.03M16.814 14.4l.423-.1M16.72 14.034l.4-.15M16.564 13.71l.37-.217"/>
            </g>
        </g>
    </g>
</svg>
