<svg width="42" height="42" viewBox="0 0 42 42" xmlns="http://www.w3.org/2000/svg">
    <g transform="translate(2 2)" fill="none" fill-rule="evenodd">
        <circle stroke="#E2E1E2" stroke-width="3" cx="19" cy="19" r="19"/>
        <g stroke="#BABBC8" stroke-linecap="round" stroke-linejoin="round" stroke-width="2">
            <path d="M29.185 23.7v-8.89c0-.792-.424-1.525-1.111-1.922l-7.778-4.444a2.222 2.222 0 0 0-2.222 0l-7.778 4.444a2.222 2.222 0 0 0-1.11 1.923V23.7c0 .793.423 1.525 1.11 1.922l7.778 4.444a2.222 2.222 0 0 0 2.222 0l7.778-4.444a2.222 2.222 0 0 0 1.111-1.922z"/>
            <path d="m9.485 13.655 9.7 5.611 9.7-5.61M19.185 30.455v-11.2"/>
        </g>
        <path stroke="#E2E1E2" stroke-width="3" d="M33.057 6.355 6.414 32.998"/>
    </g>
</svg>
