<svg width="409" height="572" viewBox="0 0 409 572" xmlns="http://www.w3.org/2000/svg" xmlns:xlink="http://www.w3.org/1999/xlink">
    <defs>
        <linearGradient x1="32.332%" y1=".64%" x2="71.779%" y2="98.686%" id="c">
            <stop stop-color="#FFF" offset="0%"/>
            <stop stop-color="#FBFDFF" offset="100%"/>
        </linearGradient>
        <filter x="-2.4%" y="-1.8%" width="104.8%" height="103.7%" filterUnits="objectBoundingBox" id="a">
            <feOffset in="SourceAlpha" result="shadowOffsetOuter1"/>
            <feGaussianBlur stdDeviation="3" in="shadowOffsetOuter1" result="shadowBlurOuter1"/>
            <feComposite in="shadowBlurOuter1" in2="SourceAlpha" operator="out" result="shadowBlurOuter1"/>
            <feColorMatrix values="0 0 0 0 0 0 0 0 0 0 0 0 0 0 0 0 0 0 0.06 0" in="shadowBlurOuter1"/>
        </filter>
        <path d="M249.782 8.142a13 13 0 0 1 12.487 9.382l6.47 22.335h55.073c11.598 0 21 9.402 21 21v74.769l22.757 6.6a13 13 0 0 1 9.38 12.485v217.351a13 13 0 0 1-9.38 12.486l-22.757 6.599v88.495c0 11.598-9.402 21-21 21h-270c-11.598 0-21-9.402-21-21v-88.298L9.379 384.55A13 13 0 0 1 0 372.064V154.713a13 13 0 0 1 9.38-12.486l23.432-6.796V60.859c0-11.598 9.402-21 21-21h7.452l6.472-22.335a13 13 0 0 1 12.486-9.382h169.56z" id="b"/>
    </defs>
    <g fill="none" fill-rule="evenodd">
        <path d="M27.25 120.173v47.856c0 9.757 7.108 17.67 15.878 17.67h54.446l5.814 15.075c1.52 4.545 5.418 7.561 9.773 7.561h103.367c4.36 0 8.257-3.016 9.777-7.561l5.815-17.42c8.77 0 15.879-7.909 15.879-17.67V49.863c0-9.761-7.109-17.67-15.88-17.67H128.289L123.035 6.24C121.107 2.97 117.831 1 114.318 1H21.904C13.138 1 6.03 8.913 6.03 18.67v84.621c0 3.34 1.293 6.518 3.546 8.722l17.674 8.16zM390.69 505.292V380.314c0-7.742-5.64-14.02-12.6-14.02h-43.2l-4.615-11.961c-1.206-3.607-4.3-6-7.757-6H205.934c-3.458 0-6.549 2.393-7.754 6l-4.616 13.82c-6.959 0-12.6 6.278-12.6 14.02v163.471c0 7.743 5.641 14.021 12.6 14.021h116.953l4.167 7.07c1.531 2.592 4.131 4.155 6.918 4.155h73.33c6.957 0 12.598-6.276 12.598-14.021v-38.181c0-2.65-1.026-5.172-2.816-6.921l-14.023-6.475z" stroke="#E2E1E2" stroke-width="2" fill="#FFF"/>
        <path d="M71.597 534.02h288.962c7.742 0 14.02-5.64 14.02-12.6V338.274c0-7.165-5.796-12.98-12.96-13l-330.374-.98c-7.742 0-14.02 5.641-14.02 12.6v116.953l-7.07 4.168C7.562 459.544 6 462.144 6 464.932v73.33c0 6.957 6.276 12.598 14.02 12.598h38.181c2.65 0 5.172-1.026 6.921-2.816l6.475-14.023zM319.557 22.699H139.661c-7.743 0-14.021 5.64-14.021 12.6V78.5l-11.96 4.615c-3.607 1.206-6 4.3-6 7.757v116.585c0 3.458 2.393 6.549 6 7.754l13.82 4.616c0 6.959 6.278 12.6 14.02 12.6H359.91c7.742 0 14.02-5.641 14.02-12.6V102.873l7.07-4.167c2.593-1.531 4.155-4.131 4.155-6.918v-73.33c0-6.957-6.276-12.598-14.02-12.598h-38.181c-2.65 0-5.552 0-6.92 2.816l-6.476 14.023z" stroke="#E2E1E2" stroke-width="2" fill="#F8F8F9"/>
        <g transform="translate(5.95 1)">
            <use fill="#000" filter="url(#a)" xlink:href="#b"/>
            <path stroke="#E2E1E2" stroke-width="1.6" d="M249.782 8.942c2.715 0 5.267.897 7.329 2.446a12.182 12.182 0 0 1 4.39 6.359l6.637 22.912h55.674a20.137 20.137 0 0 1 14.284 5.917 20.137 20.137 0 0 1 5.916 14.283v75.37l23.334 6.767a12.182 12.182 0 0 1 6.357 4.39 12.182 12.182 0 0 1 2.445 7.327v217.351c0 2.715-.897 5.266-2.445 7.328a12.182 12.182 0 0 1-6.357 4.39l-23.334 6.766v89.096a20.137 20.137 0 0 1-5.916 14.284 20.137 20.137 0 0 1-14.284 5.916h-270a20.137 20.137 0 0 1-14.283-5.916 20.137 20.137 0 0 1-5.917-14.284v-88.9l-24.01-6.963a12.182 12.182 0 0 1-6.356-4.39A12.182 12.182 0 0 1 .8 372.065V154.713c0-2.715.897-5.266 2.446-7.327a12.182 12.182 0 0 1 6.356-4.39l24.01-6.964V60.859a20.137 20.137 0 0 1 5.917-14.283 20.137 20.137 0 0 1 14.283-5.917h8.053l6.64-22.912a12.182 12.182 0 0 1 4.388-6.359 12.182 12.182 0 0 1 7.33-2.446z" stroke-linejoin="square" fill="url(#c)"/>
        </g>
    </g>
</svg>
