<?xml version="1.0" standalone="no"?>
<!DOCTYPE svg PUBLIC "-//W3C//DTD SVG 20010904//EN"
 "http://www.w3.org/TR/2001/REC-SVG-20010904/DTD/svg10.dtd">
<svg version="1.0" xmlns="http://www.w3.org/2000/svg"
 width="512.000000pt" height="512.000000pt" viewBox="0 0 512.000000 512.000000"
 preserveAspectRatio="xMidYMid meet">

<g transform="translate(0.000000,512.000000) scale(0.100000,-0.100000)"
fill="#000000" stroke="none">
<path d="M2305 4474 c-340 -52 -661 -187 -930 -393 -90 -68 -258 -235 -335
-331 -255 -320 -406 -711 -427 -1102 l-6 -118 -302 -2 -301 -3 610 -665 c335
-366 614 -666 620 -667 6 -1 271 298 588 665 l577 667 -319 3 -320 2 4 23 c47
221 99 375 187 547 266 523 749 902 1319 1033 82 20 277 47 333 47 l42 0 -25
20 c-41 33 -279 147 -374 179 -121 43 -261 77 -387 95 -132 20 -427 20 -554 0z"/>
<path d="M3303 3203 l-579 -668 318 -3 317 -2 -5 -33 c-4 -17 -17 -75 -30
-128 -170 -691 -718 -1247 -1405 -1428 -125 -33 -298 -61 -378 -61 -28 0 -51
-4 -51 -10 0 -24 240 -143 405 -199 936 -323 1963 99 2411 991 119 238 186
485 202 757 l7 106 299 5 298 5 -577 630 c-317 347 -594 647 -614 668 l-38 39
-580 -669z"/>
</g>
</svg>
