<svg width="28" height="28" viewBox="0 0 28 28" xmlns="http://www.w3.org/2000/svg">
    <g fill="none" fill-rule="evenodd">
        <circle cx="13" cy="13" r="13" stroke="#0B0B0F" transform="translate(.8 1.263)"/>
        <g transform="translate(3.285 3.72)" fill-rule="nonzero">
            <circle fill="#26A17B" cx="10.5" cy="10.5" r="10.5"/>
            <path d="M11.761 11.408v-.002c-.072.006-.444.028-1.274.028-.663 0-1.13-.02-1.294-.028v.002c-2.551-.112-4.456-.556-4.456-1.088 0-.53 1.905-.975 4.456-1.09v1.736c.167.012.645.04 1.305.04.792 0 1.19-.033 1.263-.04V9.233c2.547.114 4.446.558 4.446 1.088 0 .532-1.9.975-4.446 1.088m0-2.356V7.499h3.553V5.131H5.64V7.5h3.553v1.552c-2.887.133-5.059.705-5.059 1.39 0 .685 2.172 1.257 5.06 1.39v4.976h2.567V11.83c2.883-.133 5.05-.705 5.05-1.39 0-.684-2.167-1.255-5.05-1.388" fill="#FFF"/>
        </g>
    </g>
</svg>
