<svg width="28" height="28" viewBox="0 0 28 28" xmlns="http://www.w3.org/2000/svg" xmlns:xlink="http://www.w3.org/1999/xlink">
    <defs>
        <path id="a" d="M0 0h8.278v7.808H0z"/>
    </defs>
    <g fill="none" fill-rule="evenodd">
        <circle cx="13" cy="13" r="13" stroke="#0B0B0F" transform="translate(.8 1.263)"/>
        <path d="M4.853 7.309c.106.037.22.037.363.075.075 0 .145.075.145.145.037.143.106.288.143.47.038.075 0 .143-.075.106-.106-.038-.219-.038-.325-.075-.075 0-.107-.075-.145-.145-.037-.143-.106-.325-.143-.47-.038-.075 0-.143.037-.106M5.248 6.544c.106.038.257.076.363.107.075 0 .144.106.144.182.038.106.107.257.144.4.038.076 0 .107-.075.107a1.029 1.029 0 0 0-.363-.075c-.076 0-.144-.075-.144-.181-.038-.145-.107-.289-.145-.47-.03-.032.006-.108.076-.07M5.943 6.726c.107.037.257.075.364.107.075.038.144.106.144.181.075.145.106.289.182.439.037.075 0 .106-.076.106-.106-.037-.256-.075-.363-.106-.075 0-.144-.107-.144-.182-.038-.143-.107-.288-.145-.438-.037-.07 0-.107.038-.107M8.118 7.522c.106.037.256.106.363.182.075.038.144.106.144.181.038.145.076.257.144.402.038.075 0 .106-.075.075-.107-.075-.257-.107-.363-.145-.076-.037-.144-.106-.144-.181a2.065 2.065 0 0 0-.145-.402c.006-.112.038-.112.076-.112M5.542 7.453c.107.037.22.037.364.075.075 0 .144.075.144.182.037.144.106.288.144.439.038.075 0 .106-.076.106a1.03 1.03 0 0 0-.325-.075c-.075 0-.106-.075-.144-.144-.038-.144-.107-.288-.145-.47-.037-.076 0-.15.038-.113M6.231 7.635c.107.038.257.075.364.106.075 0 .144.075.144.145.038.143.107.288.144.438.038.076 0 .107-.075.107a1.242 1.242 0 0 0-.364-.075c-.075 0-.143-.076-.143-.145-.038-.144-.107-.288-.145-.438 0-.138.037-.175.075-.138M6.958 7.816c.107.038.257.076.364.107.075.038.144.106.144.182.037.144.107.288.144.401.038.075 0 .106-.075.075-.107-.038-.257-.075-.364-.106-.075 0-.143-.075-.143-.145-.038-.144-.107-.288-.145-.438-.037-.038 0-.076.075-.076M7.685 8.067c.107.037.257.075.364.145.075.037.144.106.144.181.037.144.075.257.144.401.038.075 0 .106-.075.075-.107-.037-.257-.075-.364-.144-.075-.038-.144-.106-.144-.181-.038-.145-.106-.29-.144-.402-.037-.075 0-.113.075-.075M8.406 8.362c.106.037.257.106.363.144.075.037.145.107.145.182.037.144.075.257.143.4.038.076 0 .107-.075.076-.106-.076-.257-.107-.363-.144-.075-.038-.144-.107-.144-.182a2.065 2.065 0 0 0-.144-.401c-.032-.075.006-.113.075-.075M7.247 8.688c.106.037.256.075.363.106.075.038.144.107.144.144.038.144.107.289.144.401.038.075 0 .107-.075.107-.107-.038-.257-.076-.363-.107-.076 0-.144-.075-.144-.144-.038-.144-.107-.288-.145-.438-.03-.07 0-.107.076-.07M7.936 8.907c.106.037.257.075.363.144.075.038.145.107.145.182.037.144.106.257.143.4.038.076 0 .107-.075.076-.106-.037-.257-.075-.363-.107-.075-.037-.144-.106-.144-.143-.038-.145-.106-.29-.144-.402.006-.15.038-.188.075-.15M6.846 9.377c.106.037.22.037.363.075.075 0 .144.075.144.144.038.144.107.289.144.44.038.074 0 .106-.075.106-.107-.038-.22-.038-.326-.076-.075 0-.106-.075-.144-.144-.037-.144-.106-.288-.144-.439-.069-.069-.032-.106.038-.106M7.535 9.521c.106.037.257.075.363.106.075 0 .145.076.145.145.037.144.106.288.143.4.038.076 0 .107-.075.107a1.264 1.264 0 0 0-.363-.075c-.075 0-.144-.075-.144-.144-.038-.144-.106-.288-.144-.439-.032-.063.006-.1.075-.1M8.224 9.74c.107.038.257.076.364.107.075.038.144.106.144.182.037.144.106.256.144.4.038.076 0 .107-.075.076-.107-.038-.257-.075-.364-.106-.075-.038-.144-.076-.144-.145-.038-.144-.106-.288-.144-.401.006-.113.006-.15.075-.113M8.951 9.991c.106.038.257.106.363.144.076.038.145.107.145.182.037.144.075.257.144.4.037.076 0 .107-.076.076-.106-.037-.257-.107-.363-.144-.075-.038-.144-.106-.144-.182a2.065 2.065 0 0 0-.144-.4c-.032-.076.006-.113.075-.076M8.951 7.923c.144.075.257.144.401.22.076.037.144.143.182.181.037.144.075.257.144.401.038.075 0 .075-.075.038a2.596 2.596 0 0 1-.439-.22c-.075-.037-.144-.106-.144-.181a2.08 2.08 0 0 0-.144-.402c-.032-.037.006-.075.075-.037M9.208 8.725c.144.075.257.145.401.182.075.038.144.144.182.182.037.144.075.256.144.4.038.076 0 .076-.075.038-.144-.075-.257-.144-.401-.182-.075-.037-.145-.106-.145-.181-.106-.107-.143-.257-.181-.364-.032-.075 0-.112.075-.075M9.459 9.521c.144.075.256.106.4.182a.427.427 0 0 1 .183.181c.037.145.075.257.143.402.038.075 0 .075-.075.037-.144-.075-.257-.144-.4-.182-.076-.037-.145-.106-.145-.181a2.078 2.078 0 0 0-.144-.402c-.032-.037.006-.074.038-.037M9.753 10.317c.145.075.257.106.401.182a.427.427 0 0 1 .182.181c.037.145.075.257.144.402.038.075 0 .075-.075.037-.144-.075-.257-.107-.401-.182-.075-.037-.144-.106-.144-.182a2.078 2.078 0 0 0-.144-.4c-.075-.038-.038-.07.037-.038M9.715 8.362c.145.075.289.181.402.257.075.038.144.144.182.22.037.143.075.256.143.4.038.075 0 .075-.075.038-.144-.107-.288-.182-.4-.257-.076-.038-.145-.144-.182-.182a2.065 2.065 0 0 0-.145-.401c-.031-.113 0-.113.075-.075M10.549 8.907c.144.106.288.257.439.363.075.075.144.182.181.22.038.106.075.257.145.4.037.076-.038.076-.107 0-.144-.106-.289-.256-.438-.363-.076-.075-.145-.144-.183-.219a2.062 2.062 0 0 0-.144-.401c0-.038.038-.075.107 0M11.458 9.703c.181.181.363.401.583.69.106.143 1.015 2.87 1.015 2.87s-.765-2.182-.834-2.288c-.181-.257-.401-.47-.545-.652a1.069 1.069 0 0 1-.181-.257c-.038-.106-.076-.257-.108-.363-.075-.107-.006-.075.07 0M10.806 9.665c.144.107.288.22.438.364.076.075.145.181.182.22.038.143.075.256.145.4.037.075-.038.075-.107 0-.144-.107-.289-.257-.439-.364-.075-.037-.144-.143-.182-.219a2.062 2.062 0 0 0-.144-.4c-.006-.038.032-.038.107 0" fill="#211E1E"/>
        <path d="M11.714 10.467c.182.182.364.401.546.652.106.106.796 2.143.796 2.143s-.508-1.492-.615-1.598c-.181-.22-.363-.439-.545-.583a1.069 1.069 0 0 1-.182-.256c-.037-.145-.075-.257-.106-.364-.044-.106.031-.069.106.006M10.26 9.922c.145.075.258.182.402.257.075.038.144.144.182.22.037.143.075.256.143.4.038.075 0 .075-.075.038-.143-.075-.288-.182-.4-.257-.076-.038-.145-.106-.145-.181a2.022 2.022 0 0 0-.144-.402c-.069-.075-.037-.112.038-.075M11.057 10.467c.144.107.288.22.438.364.075.075.145.181.182.22.038.143.075.256.144.4.037.075-.038.075-.106 0-.145-.107-.288-.22-.439-.326-.075-.038-.144-.144-.182-.22a2.08 2.08 0 0 0-.144-.4c0-.075.037-.113.107-.038" fill="#211E1E"/>
        <path d="M11.965 11.225c.182.145.364.364.545.583.107.107.583 1.454.583 1.454s-.288-.765-.401-.871c-.182-.22-.363-.4-.507-.545a1.091 1.091 0 0 1-.183-.257c-.037-.107-.074-.257-.106-.364-.075-.106 0-.069.07 0M10.511 10.718c.145.075.257.182.402.257.075.038.143.144.181.22.038.143.076.256.144.4.038.075 0 .075-.075.038-.144-.075-.288-.182-.4-.257-.076-.038-.145-.106-.145-.182a2.062 2.062 0 0 0-.144-.4c-.07-.076-.032-.114.037-.076M11.351 11.263c.144.107.288.22.439.326.075.075.144.182.181.22.038.144.076.256.145.4.037.076-.038.076-.107 0-.144-.106-.289-.22-.438-.326-.076-.037-.145-.143-.183-.219a2.062 2.062 0 0 0-.143-.401c-.038-.038.03-.075.106 0" fill="#211E1E"/>
        <path d="M12.222 11.952c.182.145.326.326.508.545.075.107.325.727.325.727s-.075-.075-.143-.181c-.182-.182-.327-.364-.508-.508-.075-.075-.145-.181-.182-.22-.038-.106-.075-.256-.106-.363-.038-.069.03-.069.106 0M10.186 20.268c.106-.075.22-.182.326-.257.037-.038.037-.075 0-.107-.107-.106-.182-.22-.29-.288a.105.105 0 0 0-.143 0c-.106.075-.22.182-.326.257-.037.037-.037.075 0 .107.106.106.182.219.288.325.038-.037.113 0 .145-.037m3.452-5.52c-.106-.29-.22-.652-.438-1.091-.075-.182-.145-.288-.145-.288v.144c0 .22 0 .4-.037.583v.143l.107.107s.037-.037.037-.107c0-.219-.037-.438-.075-.689-.038-.106-.038-.181-.038-.181s.038.075.038.181c.075.257.075.508.106.727 0 .075 0 .144.038.144l.107.107v-.144a4.615 4.615 0 0 0-.182-.834c-.038-.106-.075-.22-.075-.22l.075.22c.106.326.182.614.219.834 0 .075.038.144.038.181l.106.107v-.144c-.075-.289-.144-.583-.288-.946-.075-.145-.106-.257-.106-.257s.075.106.106.257c.144.363.257.69.326.977.043.12.043.188.081.188l.107.107c-.075.075-.075.006-.107-.107m.213 1.416c0-.22-.038-.438-.075-.69 0-.106-.037-.18-.037-.18l-.107-.107v.106c.038.22.038.439.038.652 0 .075 0 .144.037.181.038.076.106.108.144.182v-.144m-.069 1.053c.038-.181.038-.363.075-.545 0-.075 0-.144-.037-.181l-.182-.183c-.038-.037-.038 0-.038.075-.037.183-.075.364-.106.508 0 .075 0 .145.038.145a.943.943 0 0 1 .182.219c.03.069.03.037.068-.038m-.257.909c.038-.145.107-.288.145-.47v-.145c-.076-.075-.145-.143-.182-.219-.038-.037-.075 0-.075.076-.038.143-.107.288-.145.438-.037.038 0 .107 0 .144.076.075.145.144.22.257 0-.006.037-.044.037-.081m-.288.796c.075-.145.107-.288.182-.439.038-.038 0-.106 0-.144a1.542 1.542 0 0 1-.22-.257c-.037-.037-.074 0-.106.038-.075.144-.144.257-.181.4a.106.106 0 0 0 0 .145c.075.075.143.182.256.257-.006.075.032.037.069 0m-.87 1.384c.075-.106.181-.219.256-.325a.107.107 0 0 0 0-.145c-.075-.106-.181-.181-.256-.288-.038-.037-.076-.037-.108 0-.074.107-.181.22-.257.326a.106.106 0 0 0 0 .144c.076.106.182.182.257.288 0 .032.07.032.108 0m-.546.577c.106-.106.181-.22.289-.326a.106.106 0 0 0 0-.144c-.076-.107-.183-.181-.258-.289-.037-.037-.075-.037-.106 0-.107.108-.182.22-.289.29a.106.106 0 0 0 0 .143c.107.106.182.22.289.288 0 .075.037.075.075.038m1.742-5.045v-.613c0-.076-.038-.145-.038-.182l-.106-.107s-.038.038-.038.107c0 .219-.037.4-.037.582 0 .076 0 .145.037.145.038.075.107.106.144.181.038-.006.038-.038.038-.113m-.144.978c.038-.182.075-.325.106-.508 0-.074 0-.144-.037-.144-.038-.075-.107-.106-.182-.181-.038-.038-.038 0-.075.075a1.976 1.976 0 0 1-.144.47v.144c.075.075.144.144.181.22.113.037.15 0 .15-.076m-.287.871c.075-.144.106-.288.144-.438v-.145c-.075-.075-.144-.144-.182-.219-.038-.038-.075 0-.075.037-.075.145-.106.289-.182.439a.106.106 0 0 0 0 .144l.22.22c.037.037.075 0 .075-.038m-.364.765c.075-.145.145-.257.22-.401a.107.107 0 0 0 0-.145c-.075-.075-.145-.144-.22-.257-.037-.037-.075 0-.106.038a3.113 3.113 0 0 1-.22.364.106.106 0 0 0 0 .144c.076.075.144.182.258.257-.007.037.068.037.068 0m-.438.689c.075-.107.181-.22.256-.364a.105.105 0 0 0 0-.143c-.075-.076-.143-.182-.256-.257-.038-.038-.076-.038-.107.037-.075.106-.182.22-.257.363a.106.106 0 0 0 0 .145c.075.106.182.181.257.288.037-.031.07-.031.107-.07m-.47.621c.075-.106.181-.219.257-.325a.107.107 0 0 0 0-.145c-.076-.106-.182-.182-.257-.288-.038-.037-.076-.037-.107 0-.106.106-.181.22-.288.326a.105.105 0 0 0 0 .144c.075.106.182.182.257.288.025.031.1.031.138 0m-.545.577c.106-.106.219-.182.288-.289a.106.106 0 0 0 0-.144c-.075-.106-.182-.181-.257-.288-.038-.038-.075-.038-.107 0-.106.107-.22.182-.288.288-.038.038-.038.076 0 .107.107.106.182.22.288.288-.03.038.038.075.076.038m1.998-4.788c.038-.182.038-.363.038-.545 0-.075 0-.144-.038-.144l-.106-.107s-.038.038-.038.107c-.037.182-.075.364-.106.507v.145c.037.075.106.106.144.182.069-.038.069-.076.106-.145m-.257.903c.038-.145.107-.289.145-.47v-.145l-.182-.181c-.038-.038-.038 0-.075.075a2.341 2.341 0 0 1-.182.438.106.106 0 0 0 0 .145c.075.075.144.144.182.219.075-.006.112-.006.112-.081m-.325.802c.075-.144.144-.257.182-.401a.107.107 0 0 0 0-.145c-.076-.075-.145-.143-.182-.218-.038-.038-.075 0-.075.037-.076.144-.145.257-.22.401a.106.106 0 0 0 0 .144c.075.075.144.144.22.257 0-.006.037-.038.075-.075m-.401.726c.075-.106.144-.257.22-.363a.106.106 0 0 0 0-.144 1.57 1.57 0 0 1-.22-.257c-.038-.038-.076 0-.107.038-.075.106-.144.256-.257.363a.106.106 0 0 0 0 .144c.075.076.145.182.257.257.037 0 .07 0 .107-.038m-.47.653c.075-.107.181-.22.257-.327a.107.107 0 0 0 0-.144l-.257-.257c-.038-.037-.076-.037-.107 0-.075.107-.181.22-.257.326a.106.106 0 0 0 0 .145c.076.106.182.181.257.288a.11.11 0 0 0 .107-.031m-.508.582c.106-.107.182-.219.288-.326a.106.106 0 0 0 0-.144c-.075-.106-.182-.182-.257-.288-.037-.038-.075-.038-.106 0-.107.106-.182.22-.289.288a.107.107 0 0 0 0 .144c.076.107.182.182.257.289.032.075.07.075.107.037m1.667-3.96c.037-.145.075-.326.107-.508v-.144l-.107-.107s-.038.038-.038.075c-.037.145-.106.29-.144.44a.105.105 0 0 0 0 .143c.038.076.107.107.144.182 0-.006.038-.006.038-.081m-.288.84c.075-.145.106-.289.182-.44.037-.037 0-.106 0-.143l-.182-.182c-.038-.038-.038 0-.075.037-.076.145-.145.257-.22.402a.106.106 0 0 0 0 .143c.075.076.144.145.182.22.038.031.075-.007.113-.038m-.401.721c.075-.107.144-.257.22-.4a.107.107 0 0 0 0-.145c-.076-.075-.145-.145-.182-.22-.038-.037-.076 0-.108.038-.074.107-.143.257-.257.364a.107.107 0 0 0 0 .144c.076.075.145.144.22.257.037.037.07 0 .107-.038m-.433.658c.075-.106.144-.22.257-.363a.106.106 0 0 0 0-.145 1.542 1.542 0 0 1-.22-.257c-.037-.037-.074-.037-.106.038-.075.107-.181.22-.256.326a.106.106 0 0 0 0 .144c.075.075.143.182.256.257-.044.069.032.069.069 0m-.514.614c.107-.107.182-.22.257-.326a.106.106 0 0 0 0-.144c-.075-.075-.144-.182-.257-.257-.037-.037-.075-.037-.106 0-.107.107-.182.22-.289.326a.106.106 0 0 0 0 .144c.076.106.182.182.257.289.07.043.107.006.138-.032m-.538.583c.106-.107.181-.22.288-.288a.107.107 0 0 0 0-.145c-.075-.106-.182-.181-.257-.288-.038-.037-.075-.037-.106 0l-.289.288c-.038.038-.038.075 0 .107.076.107.182.182.257.289.032.075.069.075.107.037m-.583.545c.106-.107.22-.182.326-.288a.106.106 0 0 0 0-.144c-.075-.106-.182-.182-.257-.289-.038-.037-.075-.037-.107 0-.107.075-.22.183-.326.257-.038.038-.038.075 0 .107.107.107.182.22.289.288 0 .107.037.107.075.069m.977 2.212c.107-.106.22-.181.326-.288a.106.106 0 0 0 0-.144c-.107-.107-.182-.22-.288-.289-.038-.037-.076-.037-.144 0-.107.107-.22.182-.326.257-.037.038-.037.076 0 .107.106.106.181.22.288.326.075.068.113.068.144.031" fill="#211E1E"/>
        <g transform="translate(12.442 11.188)">
            <mask id="b" fill="#fff">
                <use xlink:href="#a"/>
            </mask>
            <path d="M4.317 3.816 8.165.006H4.9L2.682 2.181.47 0H0a3.4 3.4 0 0 0 .182.401C.4.984.652 1.818.908 2.833c.727.833 1.053 1.96.978 3.377l.765-.764 2.362 2.362h3.265L4.606 4.104l-.289-.288" fill="#211E1E" mask="url(#b)"/>
        </g>
    </g>
</svg>
