<?xml version="1.0" standalone="no"?>
<!DOCTYPE svg PUBLIC "-//W3C//DTD SVG 20010904//EN"
 "http://www.w3.org/TR/2001/REC-SVG-20010904/DTD/svg10.dtd">
<svg version="1.0" xmlns="http://www.w3.org/2000/svg"
 width="64.000000pt" height="64.000000pt" viewBox="0 0 64.000000 64.000000"
 preserveAspectRatio="xMidYMid meet">

<g transform="translate(0.000000,64.000000) scale(0.100000,-0.100000)"
fill="#000000" stroke="none">
<path d="M320 611 c0 -28 3 -31 33 -31 44 0 130 -44 163 -83 36 -43 64 -105
64 -144 0 -30 3 -33 31 -33 l31 0 -7 47 c-20 137 -134 251 -270 270 l-45 6 0
-32z"/>
<path d="M257 422 c-15 -9 -33 -29 -40 -44 -8 -19 -19 -28 -34 -28 -16 0 -23
-6 -23 -20 0 -13 7 -20 19 -20 12 0 26 -14 38 -37 34 -71 127 -92 185 -43 22
19 22 20 4 35 -16 12 -21 12 -40 0 -11 -8 -30 -15 -41 -15 -27 0 -65 27 -65
46 0 11 20 14 105 14 58 0 105 2 105 4 0 2 3 11 6 20 5 12 0 16 -17 16 -17 0
-28 9 -37 30 -25 56 -108 77 -165 42z m106 -44 l22 -23 -59 -3 c-69 -4 -79 3
-47 29 31 25 56 24 84 -3z"/>
<path d="M3 275 c19 -135 137 -253 272 -272 l45 -6 0 32 c0 28 -3 31 -32 31
-40 0 -102 28 -145 64 -39 33 -83 119 -83 163 0 30 -3 33 -31 33 l-32 0 6 -45z"/>
</g>
</svg>
